<svg xmlns="http://www.w3.org/2000/svg" xmlns:xlink="http://www.w3.org/1999/xlink" width="69.29" height="78.245" viewBox="0 0 69.29 78.245"><defs><clipPath id="a"><rect width="54.707" height="67" fill="#d17325"/></clipPath></defs><g transform="translate(16.209) rotate(14)" clip-path="url(#a)"><path d="M61.154,25.693C59.491,11.236,54.924,5.3,45.611,5.246c-9.459-.054-14.321,6.2-15.571,20.023-4.907.939-4.907.939-4.928-3.608C25.054,9.488,33.905.063,45.453,0c11.711-.063,20.7,9.722,20.571,22.048-.037,3.537-1.309,4.611-4.871,3.644" transform="translate(-18.188 0)" fill="#d17325"/><path d="M54.61,109.365c-.108-5.762-2.975-8.724-8.743-8.787q-18.47-.2-36.945,0C2.907,100.64.154,103.622.067,109.8c-.095,6.711-.081,13.426-.007,20.138.075,6.753,2.82,9.6,9.57,9.756,5.973.141,11.952.03,17.929.027s11.957.139,17.928-.042c6.132-.186,9.019-3.095,9.124-9.091q.186-10.61,0-21.226M27.345,131.613c-3.152,0-5.706-1.277-5.706-2.853,0-.967.967-1.818,2.439-2.334v-3.543a5.523,5.523,0,1,1,6.535,0v3.543c1.471.516,2.439,1.367,2.439,2.334,0,1.576-2.555,2.853-5.707,2.853" transform="translate(0 -72.774)" fill="#d17325"/></g></svg>