<svg xmlns="http://www.w3.org/2000/svg" xmlns:xlink="http://www.w3.org/1999/xlink" width="1011.89" height="742.067" viewBox="0 0 1011.89 742.067"><defs><linearGradient id="a" x1="0.748" y1="-0.496" x2="0.542" y2="0.33" gradientUnits="objectBoundingBox"><stop offset="0" stop-color="#cf5c2b"/><stop offset="1" stop-color="#59173e"/></linearGradient><linearGradient id="b" x1="0.722" y1="-0.183" x2="0.078" y2="1.804" xlink:href="#a"/><linearGradient id="c" x1="0.679" y1="-0.182" x2="0.032" y2="2.192" xlink:href="#a"/><linearGradient id="d" x1="0.885" y1="-0.94" x2="0.281" y2="1.363" xlink:href="#a"/><linearGradient id="e" x1="0.764" y1="-0.474" x2="0.159" y2="1.823" xlink:href="#a"/><linearGradient id="f" x1="1.069" y1="-1.545" x2="0.445" y2="0.787" xlink:href="#a"/><linearGradient id="g" x1="0.5" y1="1.113" x2="0.5" y2="0.967" xlink:href="#a"/><linearGradient id="h" x1="0.768" y1="-0.075" x2="0.23" y2="1.072" gradientUnits="objectBoundingBox"><stop offset="0" stop-color="#ffce3b"/><stop offset="0.11" stop-color="#fbc639"/><stop offset="0.29" stop-color="#f0b134"/><stop offset="0.5" stop-color="#df8e2c"/><stop offset="0.69" stop-color="#cc6923"/><stop offset="0.69" stop-color="#cc6a23"/><stop offset="0.79" stop-color="#e2952d"/><stop offset="0.87" stop-color="#f2b435"/><stop offset="0.95" stop-color="#fcc739"/><stop offset="1" stop-color="#ffce3b"/></linearGradient><linearGradient id="i" x1="0.93" y1="-0.469" x2="0.625" y2="0.215" gradientUnits="objectBoundingBox"><stop offset="0" stop-color="#ffca2b"/><stop offset="1" stop-color="#d15b24"/></linearGradient></defs><g transform="translate(0 0)" style="isolation:isolate"><g transform="translate(0 0)"><path d="M1011.494,683.363c0-5-.471-9.948-.728-14.944l-1.157-24.807-.257-5.978c-.3-7.6.643-15.456-3.3-22.331a5.952,5.952,0,0,0-4.8-3.672,8.542,8.542,0,0,0,4.8-6.49,62.394,62.394,0,0,0,1.457-12.6c0-3.586-.257-7.216-.385-10.76s-.3-8.155-.429-12.254c-.3-8.155-.557-16.353-.814-24.551s-.514-16.31-.729-24.466v-4.27c0-4.27-.214-8.539,0-12.51a13.421,13.421,0,0,0-3.042-8.54,8.583,8.583,0,0,0-7.584-3.2,12.871,12.871,0,0,0,6.213-3.117c4.284-4.27,3.642-11.058,3.556-16.695,0-8.07-.343-16.14-.471-24.209s-.257-16.14-.343-24.167,0-16.1-.257-24.124,0-15.969,0-24v-23.91c0-12.51,0-24.935.257-37.445,0-4.91.643-9.351-2.828-13.279a14.964,14.964,0,0,0-1.671-1.623c-.257,0-1.543-1.281-1.885-1.2a9.371,9.371,0,0,0,5.356-4.953,9.838,9.838,0,0,0,.9-3.629c0-3.031.214-6.106.257-9.18,0-9.949.3-20.324.557-30.443,0-5.38.3-10.8.429-16.182a26.751,26.751,0,0,0-4.285-13.492,6.668,6.668,0,0,0,4.027-4.7,25.144,25.144,0,0,0,.386-5.935c.343-7.685.471-15.414.728-23.142,0-3.885.257-7.728.343-11.614V172.15a7.16,7.16,0,0,0,.3-1.665,16.648,16.648,0,0,0-1.457-5.551,9.02,9.02,0,0,0-4.285-4.868c.257-.64.985-.9,1.628-1.153a8.155,8.155,0,0,0,4.756-6.832V149.99a54.689,54.689,0,0,1,.3-7l.257-7.429q.642-15.456,1.328-30.87,1.414-30.272,3.214-60.587a23.425,23.425,0,0,0-21.423-24.807,5972.394,5972.394,0,0,0-957.362,0,23.554,23.554,0,0,0-4.543.811,37.717,37.717,0,0,0-11.354,5.508,20.765,20.765,0,0,0-4.285,5.294c-1.5,2.135-3,4.27-4.285,6.447C4.043,44.015-.242,51.189.015,59.515Q.744,74.629,1.3,89.787L2.029,105.2c0,2.733.214,5.465.3,8.2a58.205,58.205,0,0,0,.257,6.106,38.293,38.293,0,0,1,0,5.423,51.57,51.57,0,0,0,.214,6.319,9.965,9.965,0,0,0,.943,3.288c1.8,3.16,6.3,3.544,9.169,5.85a28.227,28.227,0,0,0-8.1,2.263,2.4,2.4,0,0,0-1.028.683,2.767,2.767,0,0,0-.3,1.58V161.39a25.786,25.786,0,0,0,.343,7.045,27.488,27.488,0,0,1,.428,7.259c.3,10.76.6,21.349.814,32.279,0,6.618.3,13.193.428,19.811,0,3.117.214,6.234.214,9.351a3.277,3.277,0,0,1-.257,1.281,8.516,8.516,0,0,0,1.414,6.661A15.649,15.649,0,0,0,19,252.164l-7.07,2.519a7.758,7.758,0,0,0-4.285,2.733,6.729,6.729,0,0,0-.814,2.733A214.063,214.063,0,0,0,6.228,299c.514,12.809.557,25.618.6,38.684v88.725a14.424,14.424,0,0,1,0,3.33,15.022,15.022,0,0,0,.257,9.009,10.572,10.572,0,0,0,7.927,6.746,10.081,10.081,0,0,0-6.127,3.117A9.029,9.029,0,0,0,7.514,453.1a70.677,70.677,0,0,0-.471,7.984,31.486,31.486,0,0,1,0,6.96,65.018,65.018,0,0,0-.814,14.175c0,6.319,0,12.809-.3,19q-.257,16.438-.6,32.877t-.814,32.962v7.387A32.339,32.339,0,0,1,4.3,580.42a19.5,19.5,0,0,0-.6,2.263,10.766,10.766,0,0,0,.171,6.276,6.936,6.936,0,0,0,5.4,4.27c-2.142-.47-4.028,1.665-4.285,3.8s-.214,3.843-.6,5.721a21.281,21.281,0,0,0-.343,2.391c-.214,1.58-.428,3.117-.557,4.7-.3,3.16-.428,6.319-.428,9.479a4.256,4.256,0,0,0,0,1.58,4.277,4.277,0,0,0,1.028,1.11,24.158,24.158,0,0,0,9.555,4.569l-8.269,2.733a4.764,4.764,0,0,0-1.8.9,4.813,4.813,0,0,0-.985,3.459c0,2.775,0,5.508,0,8.24,0,1.025-.386,1.879-.428,2.861v4.27c0,5.508-.428,11.016-.6,16.524v1.153Q.744,682.893.015,699.459a23.513,23.513,0,0,0,21.766,24.38,6380.979,6380.979,0,0,0,957.406,0,23.605,23.605,0,0,0,13.925-5.977c.771-.726,1.8-1.409,2.571-2.22a73.6,73.6,0,0,0,12.854-19.342,30.393,30.393,0,0,0,2.956-12.937Z" transform="translate(0.005 0.246)" fill="url(#a)"/><path d="M980.908,709.305a6372.766,6372.766,0,0,1-956.663,0A23.615,23.615,0,0,1,2.5,684.845c0-2.822,0-5.645,0-8.552a48.179,48.179,0,0,1,.257-7.056c0-.855.557-1.5.685-2.309a15.166,15.166,0,0,1,.257-2.395c.214-1.967.343-3.934.514-5.858.514-5.516,1.07-11.033,1.584-16.549v-1.5a4.572,4.572,0,0,1,.771-2.48,3.727,3.727,0,0,1,2.483-.984,77.357,77.357,0,0,1,28.642-5.687,210.368,210.368,0,0,0,31.125-2.651l12.844-1.753H77.376c-9.462,0-18.966-.385-28.428-1.154-5.437-.428-10.875-.984-16.269-1.668a113.288,113.288,0,0,1-22.605-3.079c-2.055-.77-3.425-1.668-3.468-2.822V605.222a20.758,20.758,0,0,1,.428-6.543c1.07-1.881.514-.9,2.612-1.753a33.033,33.033,0,0,1,6.122-2.523c2.4-.47,4.838-.684,7.321-.941l26.245-2.609-6.722-.428-30.7-1.881-4.881-.3a2.1,2.1,0,0,1-1.8-.77,3.033,3.033,0,0,1,0-.9c.3-6.714.6-13.385.942-20.1.728-16.421,1.456-32.884,1.8-49.348v-6.714a406.814,406.814,0,0,1,1.07-42.249c0-1.326,1.156-15.266,1.113-15.266,31.767-2.309,63.621-3.506,95.517-3.421h7.835l-2.526-.214h0q-18.8-1.882-37.59-3.891c-6.765-.727-13.443-1.5-20.122-2.48-5.437-.77-10.746-2.053-16.183-2.908a19.976,19.976,0,0,0-5.052,0,69.047,69.047,0,0,1-15.242-2.908,9.191,9.191,0,0,1-1.156-.257,8.226,8.226,0,0,1-2.654-1.155,7.735,7.735,0,0,1-2.44-5.773,19.691,19.691,0,0,1,0-2.224c0-5.9-.557-11.5-.942-17.362-.385-6.756,0-13.47,0-20.227V292.2a46.172,46.172,0,0,0-.856-12.829,35.537,35.537,0,0,1,0-13.941,5.9,5.9,0,0,1,.985-2.951,5.094,5.094,0,0,1,2.312-1.625,80.752,80.752,0,0,1,22.049-2.352A136.891,136.891,0,0,0,55.712,255.9a14.769,14.769,0,0,0,3-.556,214.307,214.307,0,0,1-34.251-5.046,32.9,32.9,0,0,1-10.1-4.276,17.129,17.129,0,0,1-1.67-1.24,12.824,12.824,0,0,1-4.709-9.151,5.424,5.424,0,0,1,0-1.2,6.279,6.279,0,0,1,.257-1.155,26.866,26.866,0,0,0,0-7.184L8.189,215.23c0-6.8,0-13.6-.385-20.4a161.537,161.537,0,0,0-1.2-19.885c-.471-3.293-.257-6.671-.428-10.006a72.61,72.61,0,0,1,.428-12.187A17.943,17.943,0,0,1,8.232,146.3h0a6.122,6.122,0,0,1,5.266-3.891,69.268,69.268,0,0,0,11.089-.9q12.33-1.2,24.66-1.967c16.826-1.112,33.737-1.71,50.648-1.967H125.84c7.407,0,14.856-.257,22.263,0q-23.847-1.24-47.608-3.25c-8.22-.727-16.483-1.5-24.746-2.395-14.043-1.454-28.6-1.326-42.385-2.651a206.9,206.9,0,0,0-23.034-1.5H9.046a2.271,2.271,0,0,1-1.413-.385,2.308,2.308,0,0,1-.471-1.2,210.185,210.185,0,0,1-2.4-25.315c0-6.885-.428-13.812-.685-20.7Q3.523,61.97,2.666,43.8a23.529,23.529,0,0,1,21.407-24.5,5954.035,5954.035,0,0,1,956.836-.086,23.528,23.528,0,0,1,21.406,24.845q-1.541,25.23-2.783,50.417c-.342,7.355-.642,14.71-.985,22.065,0,4.276-.385,8.852-.557,13.342a27.693,27.693,0,0,1-.9,6.5c-1.242,3.806-.942,8-1.884,11.973a7.266,7.266,0,0,1-1.67,3.464,7.84,7.84,0,0,1-3.511,1.5h-.342a276.409,276.409,0,0,1-43.926,6.585c-2.74.214-5.437.342-8.177.428l51.376,5.046a7.241,7.241,0,0,1,4.281,1.5,6.881,6.881,0,0,1,1.5,3.25,35.381,35.381,0,0,1,.685,3.592,78.428,78.428,0,0,1,.728,12.829,172.335,172.335,0,0,1-2.911,23.819c-.771,3.763-3.168,4.02-5.737,3.592-1.67-.3-3.425-.9-4.881-1.112-4.024-.513-8.092-.984-12.159-1.283-8.177-.641-16.354-.812-24.532-.855H929.918l-66.446.9h.856c24.875,5.388,50.862,2.48,76.165,5.773a164.808,164.808,0,0,0,30.654,3.036,34.291,34.291,0,0,1,11.474,0,12.84,12.84,0,0,1,7.193,6.115,23.113,23.113,0,0,1,2.783,10.605c0,2.138.214,4.276.343,6.286A322.771,322.771,0,0,1,992,279.245c0,2.1-.3,4.276-.385,6.329a6.879,6.879,0,0,1-1.284,4.276A6.167,6.167,0,0,1,987.5,291.3h0a24.645,24.645,0,0,1-7.064.9,19.832,19.832,0,0,0-2.184,0c-2.783.257-5.651,1.2-8.563,1.625a75.975,75.975,0,0,1-8.263.684l3.3.77,22.862,5.345a6.213,6.213,0,0,1,2.783,1.155c3,2.78,2.312,12.273,2.611,15.865.557,6.927.813,13.9.9,20.825V377.6c0,16.848-.342,33.611-.471,50.46v22.45c0,7.483,1.028,21.766-3.125,28.993a8.906,8.906,0,0,1-5.566,3.934,29.189,29.189,0,0,1-6.422,1.026q-51.975,3.421-103.822,6.928h1.242c39.046.77,78.091,3.079,116.923,6.842,1.841,0,2.4,4.276,2.7,5.474a92.834,92.834,0,0,1,1.67,12.4c0,.684,0,1.454,0,2.138,1.028,13.3,1.327,26.641,1.455,39.983v8.724a209.2,209.2,0,0,1-.257,23.776,30.327,30.327,0,0,1-1.541,6.97,11.142,11.142,0,0,1-1.37,3.207,14.6,14.6,0,0,1-7.15,4.533c-.942.342-1.927.6-2.868.855-6.422,1.71-12.844,3.079-19.48,4.276l1.927.385c6.893,1.24,13.829,2.566,20.765,3.934a16.706,16.706,0,0,1,7.15,2.78,9.536,9.536,0,0,1,2.483,3.207,15.806,15.806,0,0,1,1.541,4.747l.257,1.711c.642,5.6-.257,11.118.385,16.677.343,2.865.514,5.687.642,8.552.3,5.516.514,11.075.813,16.592s.471,9.921.685,14.881a23.442,23.442,0,0,1-21.535,25.273Z" transform="translate(8.85 0.002)" fill="url(#b)"/><path d="M997.11,67.857c0,4.337-.385,8.977-.556,13.531a28.443,28.443,0,0,1-.9,6.592c-1.241,3.86-.941,8.11-1.883,12.143a7.409,7.409,0,0,1-1.669,3.513,7.78,7.78,0,0,1-3.51,1.518h-.342a272.666,272.666,0,0,1-43.914,6.679c-2.739.217-5.436.347-8.175.434l51.361,5.118a7.173,7.173,0,0,1,4.28,1.518,7.023,7.023,0,0,1,1.5,3.3,36.305,36.305,0,0,1,.685,3.643c-22.214-1.475-44.556-2.125-67.326-2.3a4022.017,4022.017,0,0,0-487.333,26.629c-80.894,9.237-161.66,18.952-242.811,25.544-62.361,5.161-126.477,12.49-189.694,12.013a6.448,6.448,0,0,1,.257-1.171,27.638,27.638,0,0,0,0-7.286l-.128-11.319c26.023-2.342,52.217-3.73,78.24-5.768q69.209-5.161,138.248-12.23c164.142-16.784,327.214-40.16,492.213-48.313,12.027-.564,24.054-1.128,36.081-1.6-30.774-1.735-61.591-3.383-92.365-4.684-41.26-1.821-82.692-4.337-124.123-3.773-43.058.39-85.987,3.556-129,4.727-85.6,2.3-170.819,7.329-256.379,8.414-42.287.564-86.159,3.166-128.018-4.033-5.008-.867-9.973-1.778-14.895-2.776a6.13,6.13,0,0,1,5.265-3.947A68.282,68.282,0,0,0,23.3,93.054q12.327-1.214,24.653-1.995c16.821-1.128,33.727-1.735,50.634-1.995h25.937c7.4,0,14.852-.26,22.257,0q-23.84-1.258-47.595-3.3c-8.218-.737-16.478-1.518-24.739-2.429-14.039-1.475-28.591-1.344-42.373-2.689-7.576-.867-15.28-1.258-22.984-1.388H7.8a2.246,2.246,0,0,1-1.412-.39,2.36,2.36,0,0,1-.471-1.214,216.165,216.165,0,0,1-2.4-25.674C3.525,45,3.1,37.975,2.84,30.993c14.6-1.908,29.276-3.47,44-4.337,48.322-2.342,96.816-1.821,145.181-4.337,83.762-4.077,168.679-10.452,252.526-5.334,83.205,5.074,166.068,15.439,249.06,23.289,86.587,8.2,173.216,15.656,259.846,23.333C968.005,65.168,982.558,66.512,997.11,67.857ZM993.557,461.17c-.3-1.3-.856-5.378-2.7-5.551-38.821-3.816-77.855-6.158-116.89-6.939H872.73q51.918-3.513,103.793-7.026a28.8,28.8,0,0,0,6.42-1.041,8.907,8.907,0,0,0,5.564-3.99c4.28-7.329,3.125-21.294,3.125-29.4V384.45c-159.434-4.944-318.826-12.1-477.917-23.419,6.763-1.691,13.525-3.3,20.331-4.9a1019.34,1019.34,0,0,1,183.4-24.807c91.68-4.337,183.831-.39,274.869-10.192V303.784c-94.162,2.992-188.325-.824-282.487,2.125a1084.342,1084.342,0,0,0-176.255,19.863c-43.657,8.674-87.015,19.169-130.843,26.8q-83.462-7.026-166.924-15.873-63.046-6.722-126.049-14.876l-6.677-.737c24.1-6.245,48.665-10.929,73.019-14.745,66.641-10.5,134.4-15.179,201.55-21.164C521.718,272.168,666,262.106,810.326,253.086c60.649-3.816,121.084-7.069,180.278-19.343a332.208,332.208,0,0,0,.942-36.343,39.759,39.759,0,0,0-.343-6.375c-52.089-6.9-104.777-6.245-157.679-3.99-73.49,3.166-146.936,6.852-220.34,12.057-144.668,9.932-290.448,19.473-434.174,39.552-59.28,8.327-116.333,22.031-170.691,45.364v61.237c0,6.852-.471,13.661,0,20.514.385,5.942.942,11.623.942,17.608a20.259,20.259,0,0,0,0,2.255c13.44,3.426,27.35,5.725,40.575,8.674,37.665,7.98,75.544,13.488,113.68,18.735q116.376,15.916,233.266,27.583c153.356,15.136,307.655,22.682,461.61,28.667q68.482,2.6,136.964,4.64a95.341,95.341,0,0,0-1.8-12.751Zm3.21,118.788a9.65,9.65,0,0,0-2.482-3.253,16.564,16.564,0,0,0-7.148-2.819c-6.934-1.388-13.867-2.732-20.759-3.99l-1.926-.39a168.185,168.185,0,0,0,19.475-4.337c.941-.26,1.926-.52,2.868-.867a14.573,14.573,0,0,0,7.148-4.6,11.4,11.4,0,0,0,1.37-3.253,31.136,31.136,0,0,0,1.541-7.069,215.292,215.292,0,0,0,.257-24.113v-4.337c-127.034,4.727-253.853,7.373-380.93,1-139.532-6.982-279.063-20.427-418.167-33.177-39.762-3.643-79.4-7.806-119.2-10.669-23.027-1.691-47.766-4.337-71.991-4.077-.342,16.7-1.07,33.394-1.8,50.048,17.12,4.64,34.583,7.893,50.762,10.625,35.782,6.028,71.478,10.8,107.6,14.4,70.579,7.026,141.244,13.011,211.951,18.909q60.478,5.247,121,9.975c-29.362,2.515-58.723,4.857-88.17,6.549-75.844,4.337-151.559,11.233-227.445,14.919-58.638,2.862-117.1,1.475-175.485,0v1.518c-.514,5.595-1.07,11.189-1.584,16.784a56.627,56.627,0,0,1-.514,5.941c55.9,9.888,113.765,9.411,170.306,6.9,75.972-3.383,151.216-11.276,226.461-22.248,79.268-11.623,160.547-15.743,240.542-20.644l4.28-.26c52.26,2.515,104.563,4.033,156.994,3.99,65.785,0,131.4-1.648,196.885-6.635a16.175,16.175,0,0,0-1.841-4.814Z" transform="translate(10.204 44.736)" fill="url(#c)"/><path d="M157.209,611.824a31.405,31.405,0,0,1-15.871,3.861,12.366,12.366,0,0,1,3.724,3.991,10.325,10.325,0,0,1,0,10.368c-3.936,6.507-12.273,6.073-18.706,4.078a17.763,17.763,0,0,1-11.3-16.268,9.087,9.087,0,0,1,8.464-8.676,70.681,70.681,0,0,1-11.342-9.327c-9.1-9.327-15.574-25.378-11.258-38.392,2.031-5.9,8.887-11.366,15.49-8.676A123.925,123.925,0,0,1,138.8,565.276c1.989,1.258,3.894,2.516,5.967,3.644.973.521,4.825,2.126,1.989.954A31.567,31.567,0,0,1,164.4,584.451a20.393,20.393,0,0,1,1.969,15.224,19.893,19.893,0,0,1-9.164,12.149ZM88.225,534.909A13.5,13.5,0,0,1,87.209,533a13.474,13.474,0,0,0-11.681-6.681,17.379,17.379,0,0,0-6.433,1.562,9.768,9.768,0,0,0-4.74,3.731,14.215,14.215,0,0,0-1.9,11.843,13.532,13.532,0,0,0,4.867,7.028,12.5,12.5,0,0,0,8.21,2.907,28.952,28.952,0,0,0,5.459-.781,11.858,11.858,0,0,0,7.9-7.012A12.328,12.328,0,0,0,88.225,534.909Zm672.318-91.534a15.924,15.924,0,0,0-15.109-11.5c-2.455,0-4.528-.737-7.195-.737a30,30,0,0,0-11.892,3.47A28.433,28.433,0,0,0,710.9,447.019a15.769,15.769,0,0,0,2.92,18.827c-.8.824-1.608,1.605-2.539,2.429a6.409,6.409,0,0,0-1.2,6.816,6.135,6.135,0,0,0,5.64,3.812,46.1,46.1,0,0,1,5.46.347,21.067,21.067,0,0,0,7.364-1.3,49.409,49.409,0,0,0,5.883-2.126,8.194,8.194,0,0,0,3.386-2.646c.3-.347,2.455-3.644,1.1-2.256a4.366,4.366,0,0,0,1.227-2.213,25.58,25.58,0,0,0,11.088-6.073l2.116-1.562a16.354,16.354,0,0,0,7.195-17.7Zm-20.1-31.061a12.421,12.421,0,0,0-4.232-.781,17.5,17.5,0,0,0-4.529,1.952,3.557,3.557,0,0,0-1.481,4.338,3.613,3.613,0,0,0,4.232,2.039,14.4,14.4,0,0,0,4.232-1.084,11.828,11.828,0,0,0,2.751-3.08,2.121,2.121,0,0,0,.426-1.968,2.057,2.057,0,0,0-1.4-1.416Zm33.265-42.21c-.381-.954-.762-1.909-1.185-2.863-8.93-6.247-16.04-6.9-21.415-1.952a16.013,16.013,0,0,0-2.836,3.514,12.455,12.455,0,0,0-1.284,9.275,12.161,12.161,0,0,0,5.516,7.47,13.211,13.211,0,0,0,10.073,1.3,49.663,49.663,0,0,0,5.248-2.169l2.624-2a10.319,10.319,0,0,0,2.666-4.338,11.805,11.805,0,0,0,.592-8.243ZM738.324,108.473a19.524,19.524,0,0,0-3.089-7.678,26.81,26.81,0,0,0-7.406-5.683,22.133,22.133,0,0,0-15.066-4.642,8.489,8.489,0,0,0-8.888,6.594,57.02,57.02,0,0,0-25.393-11.67c-8.845-1.909-30.895-1.085-29.075,13.014,1.439,11.149,9.607,17.873,18.791,23.6s16.929,9.8,26.028,8.676c7.618.911,16.929,2.039,20.568-6.637a12.6,12.6,0,0,0,.931-6.811,18.04,18.04,0,0,0,6.052,3.471,23.591,23.591,0,0,0,9.692-.434,9.87,9.87,0,0,0,6.856-11.8Zm-106.1,7.375a46.208,46.208,0,0,0-6.052-5.553,19.345,19.345,0,0,0-8.464-2.776,28.94,28.94,0,0,0-8.464-1.041,12.625,12.625,0,0,0-6.6,3.861,3.794,3.794,0,0,0-.973,3.774,13.148,13.148,0,0,0,2.92,6.16,24.781,24.781,0,0,0,8.464,4.034,21.3,21.3,0,0,0,8.083,2.256,44.578,44.578,0,0,0,8.887-1.648,5.366,5.366,0,0,0,3.627-3.889A5.514,5.514,0,0,0,632.225,115.848ZM732.611,180.92a12.331,12.331,0,0,0-4.232-7.158,20.919,20.919,0,0,0-10.03-4.6,7.823,7.823,0,0,0-8.8,11.453l1.566,3.167a14.159,14.159,0,0,0,4.867,5.553,13.342,13.342,0,0,0,6.983,2.646,9.8,9.8,0,0,0,7.872-3.6,9.415,9.415,0,0,0,1.778-7.5ZM539.117,430.708c-12.7-7.245-33.6-4.989-43.633,4.729a17,17,0,0,0,0,23.73c14.6,13.448,40.205,7.678,49.431-8.936l.55-.521c7.025-6.551,2.031-17.439-6.348-19.044ZM470.133,420.08a14.2,14.2,0,0,0-10.623-2.516,65.359,65.359,0,0,0-8.168,2.343,7.373,7.373,0,0,0-5.248,8.025,7.465,7.465,0,0,0,7.195,6.334,63.051,63.051,0,0,0,8.464.564,14.651,14.651,0,0,0,9.522-4.989,6.249,6.249,0,0,0,1.827-5.2,6.169,6.169,0,0,0-2.97-4.608ZM82.6,53.9c-5.671-8.242-17.775-6.637-25.012-1.648A61.122,61.122,0,0,0,48.7,59.322a15.178,15.178,0,0,0-4.021,7.809l-.508,3.644q.444-2.082,0,.39A10.482,10.482,0,0,0,46,79.973a9.944,9.944,0,0,0,7.9,3.946h1.354A16.147,16.147,0,0,0,66.683,82.4a79.381,79.381,0,0,0,7.11-4.338C81.5,73.378,88.775,62.923,82.6,53.9ZM34.942,59.235a15.175,15.175,0,0,0-8.464,4.729,51.742,51.742,0,0,0-4.74,7.288,8.667,8.667,0,0,0,14.982,8.72c.55-.824,1.1-1.605,1.693-2.386h0a15.412,15.412,0,0,0,1.1-1.258,13.766,13.766,0,0,0,3.174-5.249c.3-.911.593-1.865.931-2.776C45.734,62.836,39.851,57.8,34.942,59.235Zm94.123-38.609a10.054,10.054,0,0,0-7.11.607,19.265,19.265,0,0,0-3.64,3.6,5.7,5.7,0,0,0-.846,6.811,5.9,5.9,0,0,0,6.348,2.6,13.781,13.781,0,0,0,4.952-1.345A11.037,11.037,0,0,0,133,27.177a5.408,5.408,0,0,0-.561-4.119,5.172,5.172,0,0,0-3.291-2.432ZM361.2,215.451a7.979,7.979,0,0,0,.677-1.345,12.1,12.1,0,0,0-4.232-16.181,19.506,19.506,0,0,0-2.539-1.215,27.728,27.728,0,0,0-21.161-5.856,69.276,69.276,0,0,0-22.346,7.9c-10.03,4.338-12.95,18.48-9.1,27.677a22.169,22.169,0,0,0,4.994,7.2,102.514,102.514,0,0,0-16.421,9.2,21.422,21.422,0,0,0-5.586,5.64c-5.375,4.728-7.533,11.106-2.412,19.695,9.734,16.268,37.793,11.93,52.394,6.377,8.845-3.384,18.96-8.156,23.573-16.919a20.345,20.345,0,0,0-7.914-27.027,24.091,24.091,0,0,0,10.157-15.14Zm-98.4,38c-2.455-.564-3.851.607-5.883,1.605h-1.1a20.094,20.094,0,0,1-2.158.607,5.278,5.278,0,0,0-3.379,2.822,5.5,5.5,0,0,0-.133,4.466,5.593,5.593,0,0,0,3.3,3.018,5.423,5.423,0,0,0,4.4-.415,26.635,26.635,0,0,0,4.613-3.037c1.651-1.388,3.6-3.08,3.386-5.509A4.3,4.3,0,0,0,262.8,253.453Zm-31.487-19.218-1.354-.564c-6.814-5.293-16.929-2.256-22.938,3.21a27.191,27.191,0,0,0-8.972,15.14,12.129,12.129,0,0,0,3.186,11.628,11.436,11.436,0,0,0,11.458,2.818c9.184-3.167,21.669-9.587,22.854-20l.381-1.171A9.769,9.769,0,0,0,231.314,234.235ZM871,610.306a14.428,14.428,0,0,0-6.771-8.676,15.116,15.116,0,0,0-17.86,2.3l-7.321,6.681a13.62,13.62,0,0,0,16.505,21.344c2.92-1.692,5.841-3.384,8.8-5.032A15.128,15.128,0,0,0,871,610.306Z" transform="translate(73.93 60.04)" fill="#eb924d"/><path d="M158.955,608.625a31.4,31.4,0,0,1-15.873,3.862,12.37,12.37,0,0,1,3.725,3.993,10.331,10.331,0,0,1,0,10.372c-3.936,6.509-12.317,6.075-18.708,4.123a17.81,17.81,0,0,1-11.3-16.187,9.1,9.1,0,0,1,8.465-8.9,70.462,70.462,0,0,1-11.174-9.287c-9.143-9.287-15.661-25.474-11.3-38.189,2.032-5.9,8.889-11.326,15.449-8.679a122.828,122.828,0,0,1,22.433,12.5c1.947,1.258,3.852,2.56,5.926,3.645,1.016.521,4.868,2.126,1.989.955a31.4,31.4,0,0,1,17.65,14.581A20.362,20.362,0,0,1,168.1,596.57a19.853,19.853,0,0,1-9.149,12.055ZM89.962,531.683a11.408,11.408,0,0,1-1.016-1.866,13.626,13.626,0,0,0-11.725-6.726,17.375,17.375,0,0,0-6.391,1.562,9.894,9.894,0,0,0-4.783,3.732,14.357,14.357,0,0,0-1.862,11.847,13.324,13.324,0,0,0,4.825,7.03,12.5,12.5,0,0,0,8.211,2.907,28.945,28.945,0,0,0,5.5-.781,11.861,11.861,0,0,0,7.9-7.014,12.334,12.334,0,0,0-.66-10.691ZM760.97,443.111a15.926,15.926,0,0,0-15.111-11.5c-2.455,0-4.529-.694-7.2-.694a29.947,29.947,0,0,0-11.894,3.428,28.439,28.439,0,0,0-15.449,12.411,15.777,15.777,0,0,0,2.921,18.834,34.587,34.587,0,0,1-2.54,2.43,6.411,6.411,0,0,0-1.241,6.853,6.135,6.135,0,0,0,5.686,3.822,46.019,46.019,0,0,1,5.46.3,20.118,20.118,0,0,0,7.365-1.3c1.947-.694,4.021-1.259,5.884-2.127a8.487,8.487,0,0,0,3.386-2.6c.3-.391,2.455-3.689,1.1-2.3a4.367,4.367,0,0,0,1.227-2.213,25.581,25.581,0,0,0,11.09-6.076l2.116-1.562a16.273,16.273,0,0,0,7.2-17.706Zm-20.105-31.072a11.462,11.462,0,0,0-4.233-.738,16.031,16.031,0,0,0-4.529,1.909,3.5,3.5,0,0,0,2.751,6.379,14.388,14.388,0,0,0,4.233-1.085,11.181,11.181,0,0,0,2.751-3.081,2.121,2.121,0,0,0,.459-2A2.056,2.056,0,0,0,740.865,412Zm33.269-42.181c-.381-1-.8-1.953-1.185-2.908-8.931-6.249-16.042-6.9-21.417-1.909a13.855,13.855,0,0,0-2.836,3.472,12.462,12.462,0,0,0-1.284,9.279,12.165,12.165,0,0,0,5.516,7.472,13.209,13.209,0,0,0,10.074,1.3,49.651,49.651,0,0,0,5.248-2.17l2.624-2a10.324,10.324,0,0,0,2.667-4.34,11.946,11.946,0,0,0,.593-8.245ZM740.273,105.14a18.8,18.8,0,0,0-3.048-7.725,26.816,26.816,0,0,0-7.577-5.815,22.323,22.323,0,0,0-15.111-4.34,8.491,8.491,0,0,0-8.846,6.6,56.683,56.683,0,0,0-25.4-11.63c-8.846-1.953-30.9-1.128-29.079,13.019,1.439,11.153,9.566,17.879,18.793,23.608s16.931,9.808,26.031,8.679c7.577.911,16.931,2.04,20.571-6.64a12.563,12.563,0,0,0,.889-6.813,18.891,18.891,0,0,0,6.1,3.559,23.8,23.8,0,0,0,9.735-.434,9.556,9.556,0,0,0,5.851-4.578,9.982,9.982,0,0,0,.921-7.487Zm-106.114,7.334a49.425,49.425,0,0,0-6.053-5.555,19.012,19.012,0,0,0-8.466-2.777,30.8,30.8,0,0,0-8.465-1.042,12.626,12.626,0,0,0-6.6,3.862,3.928,3.928,0,0,0-1.016,3.775,13.814,13.814,0,0,0,2.921,6.162,25.369,25.369,0,0,0,8.465,4.036,20.345,20.345,0,0,0,8.084,2.257,45.155,45.155,0,0,0,8.889-1.649,5.373,5.373,0,0,0,3.548-3.931,5.514,5.514,0,0,0-1.474-5.139ZM734.6,177.569a12.468,12.468,0,0,0-4.233-7.16,21.292,21.292,0,0,0-10.074-4.6,7.816,7.816,0,0,0-8.762,11.457l1.566,3.168a14.162,14.162,0,0,0,4.868,5.555,13.219,13.219,0,0,0,6.984,2.647,9.718,9.718,0,0,0,7.831-3.6,9.291,9.291,0,0,0,1.651-7.507ZM541.082,427.445c-12.7-7.247-33.861-4.991-43.639,4.73a16.961,16.961,0,0,0,0,23.738c14.6,13.453,40.168,7.725,49.438-8.94l.508-.478c6.9-6.6,1.862-17.445-6.476-19.094Zm-68.993-10.632a14.4,14.4,0,0,0-10.624-2.517,58.867,58.867,0,0,0-8.169,2.387,7.331,7.331,0,0,0-5.249,7.985,7.467,7.467,0,0,0,7.2,6.336,56.583,56.583,0,0,0,8.465.564,14.651,14.651,0,0,0,9.566-4.991,6.258,6.258,0,0,0,1.733-5.254,6.162,6.162,0,0,0-3.087-4.554ZM83.1,53.108c-5.629-8.2-17.735-6.64-25.015-1.649A69.669,69.669,0,0,0,49.2,58.533a14.927,14.927,0,0,0-3.979,7.855l-.508,3.6q.444-2.083,0,.391a10.487,10.487,0,0,0,1.836,8.811,9.944,9.944,0,0,0,7.9,3.948H55.8A15.732,15.732,0,0,0,67.19,81.663a71.721,71.721,0,0,0,7.153-4.34C82.131,72.506,89.327,62.091,83.1,53.108ZM35.529,58.359a15.47,15.47,0,0,0-8.465,4.73,62.087,62.087,0,0,0-4.91,7.117A8.662,8.662,0,1,0,37.1,78.972l1.651-2.43h0c.381-.391.72-.825,1.1-1.258A13.658,13.658,0,0,0,43.318,69.9c.3-.911.635-1.823.973-2.734C46.365,61.961,40.4,56.884,35.529,58.359Zm94.177-38.623a10.053,10.053,0,0,0-7.111.608,20.684,20.684,0,0,0-3.64,3.6,5.748,5.748,0,0,0-.889,6.9,5.86,5.86,0,0,0,6.349,2.6,14.028,14.028,0,0,0,4.995-1.345,10.6,10.6,0,0,0,4.233-5.685,5.455,5.455,0,0,0-.551-4.219,5.212,5.212,0,0,0-3.385-2.464ZM363.055,212.112a13.147,13.147,0,0,0,.677-1.345,12.1,12.1,0,0,0-4.233-16.143,17.266,17.266,0,0,0-2.54-1.259,27.893,27.893,0,0,0-21.163-5.858,68.573,68.573,0,0,0-22.391,7.942c-10.031,4.34-12.7,18.443-9.058,27.643a22.13,22.13,0,0,0,4.825,7.377,101.971,101.971,0,0,0-16.381,9.2,21.42,21.42,0,0,0-5.629,5.642c-5.333,4.73-7.492,11.109-2.37,19.7,9.735,16.274,37.756,11.977,52.4,6.379,8.846-3.385,18.962-8.159,23.576-16.925a20.355,20.355,0,0,0-7.915-27.036,24.235,24.235,0,0,0,10.2-15.319Zm-99.765,40.662c-2.455-.607-3.852.608-5.883,1.606h-.423l-.677.26-2.159.564a5.323,5.323,0,0,0-3.381,2.849,5.368,5.368,0,0,0,3.172,7.5,5.383,5.383,0,0,0,4.4-.453,25.334,25.334,0,0,0,4.614-3.038c1.693-1.345,3.64-3.081,3.386-5.468A4.316,4.316,0,0,0,263.291,252.775ZM231.8,233.594l-1.354-.564c-6.815-5.294-16.931-2.257-22.941,3.211a26.955,26.955,0,0,0-8.762,15.1,12.18,12.18,0,0,0,3.166,11.557,11.481,11.481,0,0,0,11.352,2.938c9.185-3.168,21.671-9.634,22.857-20.049a3.392,3.392,0,0,1,.423-1.128A9.857,9.857,0,0,0,231.8,233.594Zm641,373.512a14.521,14.521,0,0,0-6.73-8.679,15.115,15.115,0,0,0-17.862,2.3l-7.45,6.813a13.612,13.612,0,0,0,16.465,21.351l8.846-5.034A15.044,15.044,0,0,0,872.8,607.106Z" transform="translate(75.346 57.4)" fill="url(#d)"/><path d="M157.386,610.727a31.4,31.4,0,0,1-15.871,3.861,11.938,11.938,0,0,1,3.724,3.992,10.239,10.239,0,0,1,0,10.326c-3.936,6.551-12.273,6.117-18.706,4.122a17.763,17.763,0,0,1-11.3-16.183,9.044,9.044,0,0,1,8.465-8.677,70.683,70.683,0,0,1-11.342-9.328c-9.142-9.241-15.617-25.424-11.3-38.136,2.031-5.9,8.888-11.367,15.49-8.677a129.429,129.429,0,0,1,22.389,12.5c1.989,1.3,3.894,2.56,5.967,3.644.973.564,4.825,2.169,1.989.955a31.784,31.784,0,0,1,17.648,14.621,20.234,20.234,0,0,1-7.152,26.986ZM88.4,533.76a13.106,13.106,0,0,1-1.016-1.865,13.577,13.577,0,0,0-4.867-4.859,13.369,13.369,0,0,0-6.814-1.822,17.376,17.376,0,0,0-6.433,1.562,9.769,9.769,0,0,0-4.74,3.731,14.218,14.218,0,0,0-1.9,11.844,13.547,13.547,0,0,0,4.867,7.245A12.5,12.5,0,0,0,75.7,552.5a28.929,28.929,0,0,0,5.46-.781,11.9,11.9,0,0,0,8.024-7.116A12.372,12.372,0,0,0,88.4,533.76ZM760.735,443.3a15.924,15.924,0,0,0-15.109-11.5c-2.455,0-4.529-.694-7.195-.694a29.95,29.95,0,0,0-11.893,3.428,28.435,28.435,0,0,0-15.448,12.408,15.772,15.772,0,0,0,2.92,18.83c-.8.824-1.608,1.605-2.539,2.43a6.41,6.41,0,0,0-1.2,6.817,6.135,6.135,0,0,0,5.641,3.813,46.126,46.126,0,0,1,5.46.347,21.064,21.064,0,0,0,7.364-1.3,49.424,49.424,0,0,0,5.883-2.126,8.486,8.486,0,0,0,3.386-2.6c.3-.39,2.455-3.688,1.1-2.3a4.365,4.365,0,0,0,1.227-2.213,25.579,25.579,0,0,0,11.089-6.074L753.54,461a16.356,16.356,0,0,0,7.195-17.7Zm-20.1-31.065a12.424,12.424,0,0,0-4.232-.781,17.5,17.5,0,0,0-4.529,1.952,3.557,3.557,0,0,0-1.481,4.339,3.613,3.613,0,0,0,4.232,2.039,14.39,14.39,0,0,0,4.232-1.085,11.827,11.827,0,0,0,2.751-3.08,2.122,2.122,0,0,0,.426-1.968,2.057,2.057,0,0,0-1.4-1.416ZM773.9,370.02c-.381-.954-.762-1.909-1.185-2.864-8.93-6.248-16.04-6.9-21.415-1.952a16.01,16.01,0,0,0-2.836,3.514A12.458,12.458,0,0,0,747.178,378a12.163,12.163,0,0,0,5.516,7.471,13.21,13.21,0,0,0,10.073,1.3,49.694,49.694,0,0,0,5.248-2.169l2.624-2a10.32,10.32,0,0,0,2.666-4.339,11.808,11.808,0,0,0,.592-8.243Zm-35.382-262.7a19.268,19.268,0,0,0-3.09-7.679,25.993,25.993,0,0,0-7.406-5.6,34.158,34.158,0,0,0-6.771-3.644,35.3,35.3,0,0,0-8.464-1,8.49,8.49,0,0,0-8.888,6.595A56.559,56.559,0,0,0,678.5,84.322c-8.846-1.952-30.9-1.085-29.076,13.016,1.439,11.15,9.607,17.875,18.791,23.559s16.929,9.849,26.028,8.677c7.618.911,16.929,2.039,20.569-6.638a12.6,12.6,0,0,0,.931-6.812,17.907,17.907,0,0,0,6.052,3.428,23.588,23.588,0,0,0,9.692-.391,9.909,9.909,0,0,0,7.026-11.844Zm-106.1,7.332a53.114,53.114,0,0,0-6.052-5.553,20.466,20.466,0,0,0-8.465-2.777,30.547,30.547,0,0,0-8.464-1,12.206,12.206,0,0,0-6.6,3.861,3.8,3.8,0,0,0-.973,3.775,13.151,13.151,0,0,0,2.92,6.161,24.78,24.78,0,0,0,8.464,4.035,20.465,20.465,0,0,0,8.083,2.213,44.483,44.483,0,0,0,8.888-1.605,5.411,5.411,0,0,0,3.622-3.915,5.559,5.559,0,0,0-1.422-5.2ZM732.8,179.728a12.2,12.2,0,0,0-4.232-7.159,20.226,20.226,0,0,0-9.946-4.772,7.845,7.845,0,0,0-8.21,2.777,7.97,7.97,0,0,0-.593,8.677l1.566,3.124a13.991,13.991,0,0,0,4.867,5.6,13.344,13.344,0,0,0,6.983,2.647,9.8,9.8,0,0,0,7.872-3.6,9.463,9.463,0,0,0,1.693-7.289ZM539.3,429.546c-12.7-7.245-33.6-5.033-43.634,4.729a17,17,0,0,0,0,23.732c14.6,13.45,40.206,7.679,49.433-8.938l.55-.521C552.678,442.042,547.684,431.152,539.3,429.546Zm-68.986-10.63a14.407,14.407,0,0,0-10.623-2.56,73.881,73.881,0,0,0-8.168,2.386,7.374,7.374,0,0,0-5.248,8.026,7.508,7.508,0,0,0,7.195,6.334,63.062,63.062,0,0,0,8.464.564,14.861,14.861,0,0,0,9.523-4.989,6.252,6.252,0,0,0,1.8-5.173A6.171,6.171,0,0,0,470.318,418.917ZM82.772,53.691C77.1,45.491,65,47.1,57.76,52.043a67.694,67.694,0,0,0-8.888,7.289,15.314,15.314,0,0,0-4.021,7.853l-.508,3.6q.444-2.017,0,.39a10.484,10.484,0,0,0,1.836,8.809,9.943,9.943,0,0,0,7.9,3.947h1.354a15.9,15.9,0,0,0,11.427-1.475,71.132,71.132,0,0,0,7.11-4.339C81.672,73.085,88.951,62.672,82.772,53.691Zm-47.655,5.25a15.721,15.721,0,0,0-8.464,4.729A57.449,57.449,0,0,0,21.7,70.786a8.868,8.868,0,0,0-.847,6.612,8.65,8.65,0,0,0,3.979,5.276,8.846,8.846,0,0,0,11.85-3.124l1.693-2.43h0l1.1-1.3a13.768,13.768,0,0,0,3.174-5.25c.3-.911.593-1.822.931-2.733C45.909,62.542,40.026,57.509,35.117,58.941Zm94.21-38.657a10.054,10.054,0,0,0-7.11.651,19.045,19.045,0,0,0-3.64,3.558,5.747,5.747,0,0,0-.846,6.855,5.858,5.858,0,0,0,6.348,2.56,14.688,14.688,0,0,0,4.952-1.3,11.211,11.211,0,0,0,4.232-5.727,5.5,5.5,0,0,0-.6-4.152,5.255,5.255,0,0,0-3.331-2.442Zm232.138,193.98a7.97,7.97,0,0,0,.677-1.345,12.1,12.1,0,0,0-4.232-16.183,27.772,27.772,0,0,0-2.539-1.258,27.85,27.85,0,0,0-21.161-5.814,69.275,69.275,0,0,0-22.346,7.9c-10.03,4.339-12.951,18.483-9.1,27.637a21.916,21.916,0,0,0,4.994,7.245,99.237,99.237,0,0,0-16.548,9.111,21.422,21.422,0,0,0-5.587,5.64c-5.375,4.729-7.533,11.107-2.412,19.7,9.734,16.226,37.794,11.931,52.4,6.378,8.845-3.384,18.96-8.157,23.574-16.921a20.3,20.3,0,0,0-7.914-27.03,24.084,24.084,0,0,0,10.2-15.012Zm-98.484,39.048c-2.455-.607-3.851.607-5.883,1.605h-.466l-.635.26a19.806,19.806,0,0,1-2.158.564,5.322,5.322,0,0,0-3.469,2.911,5.552,5.552,0,0,0,3.259,7.607,5.383,5.383,0,0,0,4.4-.452,26.637,26.637,0,0,0,4.613-3.037c1.65-1.345,3.6-3.08,3.386-5.467a4.323,4.323,0,0,0-3.047-4.078Zm-31.488-19.264-1.354-.564c-6.814-5.293-16.929-2.256-22.939,3.211a26.93,26.93,0,0,0-8.972,15.1,12.175,12.175,0,0,0,3.192,11.631,11.479,11.479,0,0,0,11.452,2.859c9.184-3.167,21.669-9.632,22.854-20.044l.381-1.128A9.771,9.771,0,0,0,231.493,234.048ZM871.2,609.165a14.473,14.473,0,0,0-6.771-8.677,15.115,15.115,0,0,0-17.86,2.3l-7.322,6.681a13.617,13.617,0,0,0,16.506,21.346l8.8-5.033a15.087,15.087,0,0,0,6.645-16.617Z" transform="translate(73.737 59.072)" fill="url(#e)"/><path d="M7.59,151.018a28.526,28.526,0,0,0-.825,5.869,20.792,20.792,0,0,0,0,2.935c0,.357,0,.674,0,1.031a12.4,12.4,0,0,1,0,3.173A8.239,8.239,0,0,0,7.04,166.6c-2.2-.714-3.668-1.547-3.714-2.617V151.811a16.741,16.741,0,0,1,.459-6.068c1.146-1.745.55-.833,2.8-1.626a39.251,39.251,0,0,1,7.382-2.181c2.568-.436,5.181-.635,7.841-.872l28.108-2.419-7.2-.4H48.72l5.777-.238a40.278,40.278,0,0,0,4.86,0c-13.022,1.9-26.09,3.767-38.791,6.742a52.307,52.307,0,0,0-9.9,3.093,6.223,6.223,0,0,0-2.2,1.507A4.668,4.668,0,0,0,7.59,151.018Z" transform="translate(11.598 453.057)" fill="#eb924d"/><path d="M7.123,83v.238a19.478,19.478,0,0,0,.642,2.816c.367,2.776-.275,5.75,0,8.566a21.137,21.137,0,0,0,6.1,15.229c5.319,4.957,13.756,6.385,21.321,7.575l-18.112.238a8.563,8.563,0,0,0-3.622.555,6.459,6.459,0,0,0-2.98,4.64,103.424,103.424,0,0,0-3.164,32.678,30.354,30.354,0,0,0,9.17,2.9,7.764,7.764,0,0,0-5.108,3.025,5.862,5.862,0,0,0-.853,5.3,17.049,17.049,0,0,0,7.841,8.606c-5.227,0-8.666,4.957-9.537,9.4-.734,3.569-.5,7.218-1.238,10.827a9.932,9.932,0,0,0,0,3.49q0,2.379,0,4.759a58.57,58.57,0,0,0,1.284,12.928,64.348,64.348,0,0,0,1.972,7.019c.413,1.15.871,2.26,1.376,3.411l.275.754a9.555,9.555,0,0,1-2.843-1.071,8.322,8.322,0,0,1-3.026-7.416c0-5.473-.6-10.668-1.009-16.1-.413-6.266,0-12.492,0-18.758V139.155c0-15.149,0-30.219-.275-45.329a37.221,37.221,0,0,0-.917-11.9A28.631,28.631,0,0,1,4.418,69a5,5,0,0,1,1.055-2.736A5.686,5.686,0,0,1,8.361,64.8a99.337,99.337,0,0,1,23.614-2.181A168.342,168.342,0,0,0,55.131,60.2,57.434,57.434,0,0,0,61,59.72c-12.655,2.3-25.4,4.323-38.241,6.187a39.539,39.539,0,0,0-7.841,1.626,11.451,11.451,0,0,0-6.053,4.362,12.7,12.7,0,0,0-1.513,6.187A33.344,33.344,0,0,0,7.123,83Z" transform="translate(13.211 201.126)" fill="#eb924d"/><path d="M111.035,105.113c-25.219,1.15-50.438,4.8-75.519,5.592a67.235,67.235,0,0,0-18.57,2.181c-4.081,1.348-8.208,8.526-3.347,11.1a8.664,8.664,0,0,0,2.338.674,81.536,81.536,0,0,0,13.756.991,57.792,57.792,0,0,0-16.736,5.83,7.411,7.411,0,0,0-2.522,1.666,5.712,5.712,0,0,0-1.1,2.5A18.226,18.226,0,0,0,8.1,142.59a21.009,21.009,0,0,1,0,4.8,153.185,153.185,0,0,0,0,18.917,5.141,5.141,0,0,0,.458,2.142,6.972,6.972,0,0,0,2.384,2.062l6.19,3.966a.8.8,0,0,1,.413.317.787.787,0,0,1-.413.872,31.191,31.191,0,0,0-8.391,9.518,16.918,16.918,0,0,0-2.247,5.354,38.223,38.223,0,0,0,1.376,14.039,9.059,9.059,0,0,0,2.8,4.878,12.973,12.973,0,0,0,4.585,1.983,207.132,207.132,0,0,0,21.734,4.521l-28.612.793s-.917,9.439-1.146,10.311a4.194,4.194,0,0,0,0,3.331A10.159,10.159,0,0,0,10.251,234l-5.227-.278a2.419,2.419,0,0,1-1.926-.714,2.44,2.44,0,0,1,0-.833c1.238-23.477,2.568-47.113,3.118-70.63a326.876,326.876,0,0,1,1.146-39.1c0-1.229,1.238-14.158,1.192-14.158Q59.863,105.073,111.035,105.113Z" transform="translate(11 351.015)" fill="#eb924d"/><path d="M27.81,105.07Z" transform="translate(99.728 343.543)" fill="#eb924d"/><path d="M131.786,32.11c-15.177,1.666-30.767,0-45.853,2.062-5,.714-9.9,1.864-14.948,2.3s-9.171,0-13.756.278a137.19,137.19,0,0,0-34.3,5.592,24.334,24.334,0,0,0-10.409,4.68A12.479,12.479,0,0,0,10,50.154a13.787,13.787,0,0,0-2.155,7.218,9.953,9.953,0,0,1,0,2.023c0,2.062-.5,3.966-.55,6.147A42.706,42.706,0,0,0,8.855,77.8,5.662,5.662,0,0,0,10.6,80.929a8.132,8.132,0,0,0,3.806,1.19l17.011,2.26L7.984,85.886c.5,0,.321,16.22.459,17.687.367,5.473.55,11.065,1.055,16.577a39.949,39.949,0,0,0,1.742,10.668c.275.793.642,1.626,1.009,2.419a18.424,18.424,0,0,1-1.788-1.15A11.468,11.468,0,0,1,5.416,123.6a5.9,5.9,0,0,1,.367-2.181,21.607,21.607,0,0,0,0-6.663L5.1,85.489A130,130,0,0,0,3.811,67.048c-.5-3.054-.275-6.187-.459-9.28a58.38,58.38,0,0,1,.459-11.3,14.877,14.877,0,0,1,1.742-5.988,6.621,6.621,0,0,1,5.686-3.649A85.427,85.427,0,0,0,23.115,36q13.206-1.11,26.411-1.824c18.02-1.031,36.132-1.586,54.244-1.824h26.457Z" transform="translate(11.708 106.673)" fill="#eb924d"/><path d="M214.628,49.56c26.64,5,54.473,2.3,81.572,5.354a202.981,202.981,0,0,0,32.83,2.816,42.337,42.337,0,0,1,12.289,0,13.408,13.408,0,0,1,7.7,5.671c3.21,4.4,2.98,10.668,3.347,15.665a318.22,318.22,0,0,1-1.421,39.1,5.8,5.8,0,0,1-1.376,3.966,7.017,7.017,0,0,1-3.026,1.348v-.793a29.677,29.677,0,0,1,.275-6.385,55.607,55.607,0,0,0,1.238-8.606c0-1.11,0-2.062,0-3.133a3.436,3.436,0,0,0,0-.952,21.469,21.469,0,0,0-.688-3.966,24.791,24.791,0,0,1-.321-5.235,75.856,75.856,0,0,0-1.1-11.1,2.241,2.241,0,0,0-.871-1.745,3.276,3.276,0,0,0-1.651-.278q-22.185.186-44.248,2.459a212.134,212.134,0,0,0,37.553-4.68,7.116,7.116,0,0,0,5.741-2.668,5.2,5.2,0,0,0,.5-5.621,8.063,8.063,0,0,0-2.981-5.512,11.819,11.819,0,0,0-4.081-1.309l-2.568-.4q-12.885-2.142-25.953-3.292c-4.31-.4-8.712-.674-13.068-.912s-8.437-1.031-12.839-1.269l-7.841-.436-26.732-1.388c-4.585-.238-8.9-.278-13.251-.714a13.948,13.948,0,0,1-3.576-.991,12.935,12.935,0,0,0-2.018-.595c-3.9-.714-7.932-1.11-11.876-1.745L207.8,50.869l-3.9-.635a20.4,20.4,0,0,0-3.118-.555C205.411,49.639,210,49.56,214.628,49.56Z" transform="translate(648.877 163.858)" fill="#eb924d"/><path d="M276.7,145.748c0,22.526-.6,45.091-.6,67.418,0,7.416,1.1,20.186-3.347,26.888A9.62,9.62,0,0,1,266.8,243.7a15.691,15.691,0,0,0,.78-1.705,46.7,46.7,0,0,0,2.934-9.875,22.241,22.241,0,0,1,.825-4.561,15.092,15.092,0,0,0,.78-4.759l1.376-14.316c.367-3.966.734-7.694,1.146-11.54l.55-5.79a7.906,7.906,0,0,0,0-2.538,2.031,2.031,0,0,1,0-.754c-.275-.952,0-2.023-.917-2.776a3.694,3.694,0,0,0-1.972-.793,99.465,99.465,0,0,0-20.817-2.261,29.916,29.916,0,0,1,9.171-.4,25.5,25.5,0,0,0,9.171-.753,8.477,8.477,0,0,0,4.585-3.411,9.369,9.369,0,0,0,.963-2.419,18.951,18.951,0,0,0,0-4.561c0-2.816,0-5.592,0-8.407a207.244,207.244,0,0,0-.871-23.319c-.459-5.909-1.1-11.9-1.513-17.687,0-1.943-1.467-2.935-1.972-4.68s.688-4.561-.825-6.5a7.718,7.718,0,0,0-5.915-1.705l-42.184-.476a166.957,166.957,0,0,0,39.158-3.569,18.691,18.691,0,0,0,4.585-1.229,11,11,0,0,0,5.044-5.314c.55-1.071.917-2.221,1.421-3.331a5.139,5.139,0,0,0,.459-1.15,20.105,20.105,0,0,0-.275-4.362c0-1.705-.229-3.411-.367-5.156a9.242,9.242,0,0,0-1.513-5.552,13.285,13.285,0,0,0-7.978-3.609l-22.651-4.8a56.878,56.878,0,0,1,5.961-.555l24.485,4.957a7.241,7.241,0,0,1,2.98,1.071c3.21,2.578,2.476,11.382,2.8,14.713.6,6.425.871,12.889.963,19.313C277.113,121.478,276.7,133.653,276.7,145.748Z" transform="translate(725.279 233.025)" fill="#eb924d"/><path d="M240.7,37.41c-2.935.2-5.823.317-8.758.4l55.023,4.68a8.545,8.545,0,0,1,4.585,1.388,6.036,6.036,0,0,1,1.6,3.014,54.422,54.422,0,0,1,1.513,15.149,139.456,139.456,0,0,1-3.118,22.089c-.825,3.49-3.393,3.728-6.144,3.331a5.58,5.58,0,0,0,2.8-3.966,215.076,215.076,0,0,0,0-27.76,15.635,15.635,0,0,0-1.146-5.156,6.756,6.756,0,0,0-2.43-2.736,9.019,9.019,0,0,0-1.651-.833,1.812,1.812,0,0,0-.642-.278c-.413,0-.688-.317-1.055-.436a8.3,8.3,0,0,0-1.926-.4c-2.751-.4-5.411-.833-8.162-1.19-10.729-1.547-21.551-2.736-32.372-3.609a153.55,153.55,0,0,1-21-2.5c5.181-.238,9.675-.714,14.81-.872Z" transform="translate(709.97 123.217)" fill="#eb924d"/><path d="M331.567,212.9a39.572,39.572,0,0,0,1.146-6.5,109.067,109.067,0,0,0,.321-10.946,28.565,28.565,0,0,0-.642-9.478,16.043,16.043,0,0,1-1.33-6.861,10.3,10.3,0,0,0-2.2-8.526,16.426,16.426,0,0,0-11.1-2.776l-20.5-.2c9.171-.952,18.066-2.221,26.961-3.966a4.646,4.646,0,0,0,3.561-1.455,3.373,3.373,0,0,0,.749-3.344c-.367-7.932-.6-15.585-1.1-23.4-.275-4.323-1.192-7.932-6.419-9.518a130.616,130.616,0,0,0-17.974-2.7q-16.094-2.082-32.1-3.728c-21.413-2.181-42.964-3.728-64.561-4.481,41.818.714,83.635,2.855,125.223,6.345,1.972,0,2.568,3.966,2.889,5.076a84.736,84.736,0,0,1,1.972,13.484c1.1,12.334,1.421,24.707,1.559,37.08v.595a69.729,69.729,0,0,0,.275,7.575,168.093,168.093,0,0,1-.275,22.05,24.948,24.948,0,0,1-1.651,6.464,9.669,9.669,0,0,1-1.467,2.974,16.1,16.1,0,0,1-7.657,4.2,16.114,16.114,0,0,0,3.21-4.759A22.852,22.852,0,0,0,331.567,212.9Z" transform="translate(668.991 382.415)" fill="#eb924d"/><path d="M4.627,93.559q-.771-26.531-2.1-52.943c-.578-11.66,8.856-21.675,21.406-22.724a6418.374,6418.374,0,0,1,956.813-.08c12.689,1.052,22.175,11.262,21.405,23.042q-1.541,23.4-2.783,46.756c-.514,10.946-1.07,21.851-1.541,32.837a23.94,23.94,0,0,1-.9,6.028c-1.242,3.53-.942,7.416-1.884,11.1a6.549,6.549,0,0,1-1.67,3.212,8.169,8.169,0,0,1-3.51,1.388h-.342a1.325,1.325,0,0,0,0-.4c.343-4.8,1.242-9.8,1.07-14.634a29.432,29.432,0,0,1-.3-4.759,16.677,16.677,0,0,0-.342-6.98c-2.043-5.895-8.5-9.463-15.07-8.328,4.667-3.966,13.4-1.864,16.74-6.742a11.091,11.091,0,0,0,.3-9.042,501.3,501.3,0,0,0-59.252-2.221,166.905,166.905,0,0,0,50.562-5.2,13.906,13.906,0,0,0,7.15-3.49,12.68,12.68,0,0,0,2.4-6.663c.557-3.966.942-7.932,1.756-11.9.257-1.15.9-2.142,1.156-3.292a24.724,24.724,0,0,0,0-5.631,53.64,53.64,0,0,0-1.541-13.047,28.364,28.364,0,0,0-3.211-7.456,12.136,12.136,0,0,0-7.235-6.623,30.5,30.5,0,0,0-7.878-1.348c-8.819-.714-14.813-.833-23.59-1.785-12.2-1.309-24.4-2.459-36.562-3.53q-24.746-2.142-49.534-3.767c-8.263-.555-16.526-1.031-24.788-1.507a26.84,26.84,0,0,0-5.352,0,10.938,10.938,0,0,1-3.939,0,63.272,63.272,0,0,0-11.9-1.388,11.934,11.934,0,0,0-11.645,7.535,9.106,9.106,0,0,1-1.755-6.226,24.885,24.885,0,0,0-5.523,6.821,18.815,18.815,0,0,1-5.394-10.033,131.7,131.7,0,0,1-29.969-.2c-1.37,3.371-2.783,6.7-4.281,10.073A33.413,33.413,0,0,0,737.274,7.9a154.809,154.809,0,0,0-28.727,1.11,218.312,218.312,0,0,1-37.418-.238,6.692,6.692,0,0,0-4.281.555,5.409,5.409,0,0,0-1.627,2.34,43.982,43.982,0,0,0-2.7,8.526A17.079,17.079,0,0,0,652.334,9.6a38.417,38.417,0,0,0-15.455-2.538c-9.718,0-19.351,1.864-29.07,1.9a134.991,134.991,0,0,1-16.02-.953A170.437,170.437,0,0,0,568.422,6.55a46.628,46.628,0,0,0-5.737.476,38.08,38.08,0,0,1-5.137.714,29.173,29.173,0,0,1-3.254-.516,62.507,62.507,0,0,0-6.679,0h-14.6l-50-.555-50-.516-25-.278c-1.884,0-3.639-.4-5.523-.317L371.315,6.867,345.627,7.9a68.621,68.621,0,0,1-10.189-1.19,27.647,27.647,0,0,0-11.773.793c-5.706,1.588-9.2,6.91-8.092,12.334-.277-5.852-4.841-10.768-11.046-11.9a48.255,48.255,0,0,0-18.281.674,251.221,251.221,0,0,1-46.623,2.7c-.514,3.966-.985,7.932-1.5,12.135A41.918,41.918,0,0,0,232.6,11.111a25.037,25.037,0,0,0-1.755,17.925c-4.281-5.512-3.468-14.316-9.847-17.529s-14.342,2.34-21.706,1.626c.257,3.966.557,7.932.813,11.62a13.4,13.4,0,0,0-6.679-9.994c-5.137-3.212-9.8-2.062-15.541-1.666l-18.538,1.348-33.18,2.34a38.19,38.19,0,0,1-7.364.317,25.789,25.789,0,0,0-4.966-.714,633.852,633.852,0,0,0-80.915,6.107,48.04,48.04,0,0,0-14.214,3.966,19.213,19.213,0,0,0-7.021,5.75,16.957,16.957,0,0,0-2.226,5.909,24.129,24.129,0,0,1-1.8,3.966A26.463,26.463,0,0,0,5.1,51.006,12.411,12.411,0,0,0,11.22,63.1c5.266,2.7,12.2.674,17.51,3.212a47.594,47.594,0,0,0-18.623,1.467,5.257,5.257,0,0,0-2.44,1.269,4.39,4.39,0,0,0-.685,2.181,42.049,42.049,0,0,0,0,10.628c.214,1.705.728,3.411.9,5.116s.214,3.966.342,5.75c.428,7.575,1.027,15.189,1.456,22.764,0,1.269.385,2.023.342,2.974H8.908a2.4,2.4,0,0,1-1.413-.357A2.054,2.054,0,0,1,7.025,117a181.2,181.2,0,0,1-2.4-23.438Z" transform="translate(9 0.002)" fill="#eb924d"/><path d="M980.929,233.668a6870.554,6870.554,0,0,1-956.684,0C11.6,232.741,2,222.727,2.5,210.983c0-2.617,0-5.235,0-7.932a41.459,41.459,0,0,1,.257-6.543c0-.793.557-1.388.685-2.142.385-2.538.557-5.116.771-7.654.514-5.116,1.07-10.232,1.584-15.348v-1.388a4.027,4.027,0,0,1,.771-2.3,3.891,3.891,0,0,1,2.483-.912,82.655,82.655,0,0,1,28.643-5.274,226.457,226.457,0,0,0,31.126-2.459l12.844-1.626h3.6a17.065,17.065,0,0,0,2.012,0c-21.193,4.243-42.814,6.821-64.221,9.914a27.042,27.042,0,0,0-8.178,2.022l-.6.357a9.215,9.215,0,0,0-5.395,7.456c0,1.467-.343,2.935-.428,4.4a9.217,9.217,0,0,0,2.654,7.932,14.56,14.56,0,0,0,5.009,2.3,137.376,137.376,0,0,0,35.75,5.473l-29.67-.2H13.113c-2.012,0-5.651,0-7.107,1.507a3.6,3.6,0,0,0-.985,2.141,88.932,88.932,0,0,0,.685,12.611,19.533,19.533,0,0,0,.728,7.535,16.574,16.574,0,0,0,11.86,9.121A55.774,55.774,0,0,0,26,231.328l3.939.4,1.969.278c.6,0,1.284.2,1.841.2a8.542,8.542,0,0,1,.985,0H58.154a67.39,67.39,0,0,1,7.963.674,8.778,8.778,0,0,0,1.755,0h1.07a3.09,3.09,0,0,1,.856,0,60.217,60.217,0,0,1,7.278,1.11,8.526,8.526,0,0,0,4.581,0,7.977,7.977,0,0,0,4.281-5.631A37.386,37.386,0,0,1,88,221.413a50.336,50.336,0,0,1,0,7.614,7.383,7.383,0,0,0,3.382,6.583,10.9,10.9,0,0,0,4.8.833h8.092a44.593,44.593,0,0,0,5.223-.595,47.164,47.164,0,0,1,7.835.4l8.306.516q16.569,1.071,33.224,1.943c2.954,0,5.994.476,8.948.476q41.4,2.141,82.888,3.331c8.306.238,16.7,0,24.961.635a23.325,23.325,0,0,1,3,.595,13.19,13.19,0,0,0,7.193-1.15,26.6,26.6,0,0,0,12.844-9.439c2.7,8.288,12.587,12.849,21.878,13.682s18.667-.952,28-.595h7.964c1.8,0,3.639.674,5.437.833a18.82,18.82,0,0,0,7.15-.357c.728-.238,1.413-.595,2.141-.793a29.353,29.353,0,0,1,7.921-.436h18.153q18.2,0,36.306.634c5.994,0,11.988.436,17.982.674a8.809,8.809,0,0,0,3.211-.2,13.142,13.142,0,0,0,2.355-.674,48.474,48.474,0,0,1,8.563-.516h1.969a27.968,27.968,0,0,0,6.037-.436,36.362,36.362,0,0,1,7.492,0h83.231c16.655,0,33.267.317,49.922.476l49.964.793,24.961.516,12.5.278a26.586,26.586,0,0,0,8.863-.793,19.481,19.481,0,0,1,3.982-.714c2.7-.2,5.437-.317,8.135-.436a11.441,11.441,0,0,0,2.612-.238,9.1,9.1,0,0,1,3.425-.833,9.2,9.2,0,0,0,2.526-.317,15.765,15.765,0,0,0,4.538-1.983,37.074,37.074,0,0,0,7.621-6.94,59.692,59.692,0,0,0,7.064,7.376,3.273,3.273,0,0,0,1.5.952c2.226.555,3.425-2.34,5.438-3.331a7.066,7.066,0,0,0,5.823,2.816,27.793,27.793,0,0,0,6.722-.991,66.439,66.439,0,0,1,19.823-1.19l2.44-3.53c1.113,3.331,5.737,4.2,9.5,4.2a59.576,59.576,0,0,0,7.963-.436,29.5,29.5,0,0,1,6.722-.674,79.7,79.7,0,0,0,14.086-.278c11.046-.635,22.092-1.348,33.138-2.062l33.138-2.261,32.282-2.459c2.483-.238,5.009,0,7.535-.317,8.22-.278,16.44-.595,24.661-1.15,4.281-.278,8.22-.635,12.33-1.031,2.012-.2,4.281-.357,6.122-.674a12.8,12.8,0,0,0,1.755-.555,23.259,23.259,0,0,0,10.575-3.411,12,12,0,0,0,3.768-6.583,29.514,29.514,0,0,0,.6-3.966,60.563,60.563,0,0,0,.557-7.416c0-9.082,0-18.2-.3-27.324v-2.7a98.886,98.886,0,0,0-.644-11.282,25.819,25.819,0,0,1-.683-5.1,3.5,3.5,0,0,1,.214-1.467,7.957,7.957,0,0,0-2.483-5.473c-.985-.912-2.055-1.745-3.126-2.617a9.845,9.845,0,0,0-2.612-1.547,32.382,32.382,0,0,0-6.208-1.705l-14.9-3.292a9.334,9.334,0,0,1-3.639-1.428,30.624,30.624,0,0,1,4.025-.872h1.37c6.893,1.15,13.829,2.379,20.765,3.648a17.5,17.5,0,0,1,7.15,2.578,8.967,8.967,0,0,1,2.483,2.974,16.543,16.543,0,0,1,1.8,5.988c.642,5.2-.257,10.311.385,15.466.342,2.657.514,5.275.642,7.932.3,5.116.514,10.271.813,15.387s.471,9.2.685,13.8c.708,11.892-9.048,22.1-21.878,22.882Z" transform="translate(8.85 476.945)" fill="#eb924d"/><path d="M331.072,15.82c48.851,2.354,97.785,4.707,146.384,10.548,40.247,4.838,80.368,12.073,120.91,12.378C506.875,44.8,422.687,18.479,331.072,15.82ZM524.543,134.634c-2.98,0-6-.262-8.981-.349-16.158-.436-32.315,0-48.431.479s-32.231,1.961-48.3,3.574q-12.087,1.22-24.132,2.7l-12.045,1.525-6,.828h-4.2a31.6,31.6,0,0,0-5.582,1.656l-5.791,1.7c-3.861,1.177-7.764,2.31-11.625,3.4q-11.625,3.356-23.418,6.1-9.736,2.266-19.641,4.053a374.92,374.92,0,0,1-47.34,5.4c-7.932.392-15.864.567-23.8.479a32.539,32.539,0,0,0-5.456,0l-10.576,1.569-12.213,2.092c-1.511.218-2.686.915-4.2,1.22a51.5,51.5,0,0,1-5.792.828c-7.806.741-15.612.262-23.376.523-21.53.741-42.388,7.235-63.665,10.635a430.634,430.634,0,0,1-48.011,4.053h5.372q24.3-1,48.6-2.746t48.557-4.359q12.087-1.22,24.215-2.659c4.616-.523,9.233-.741,13.891-1q14.647-.915,29.378-2.441c19.6-2,39.114-4.664,58.755-7.627C368.213,154.2,445.644,136.682,524.543,134.634ZM222.375,432.67a240.489,240.489,0,0,0,54.558,11.55c9.317,1.133,18.718,2.092,28.035,3.225l7.219,1c1.8.262,3.609.305,5.414.567a10.188,10.188,0,0,1,1.637.48,39.054,39.054,0,0,0,4.994.61,88.906,88.906,0,0,1,10.534,2.659,39.711,39.711,0,0,0,13.514,1.961c3.315,0,6.547-1.264,9.862-1.831a54.961,54.961,0,0,1,11.667-.785,126.212,126.212,0,0,1,23.544,2.7c3.483.7,6.967,1.569,10.408,2.528s7.47,2.266,11.164,3.443a17.85,17.85,0,0,0,7.26.654,48.132,48.132,0,0,1,9.988,1.177l11.457,1.656q23.166,3.138,46.458,4.358c15.612,1,31.224,1.438,46.878,1.395s30.972-.567,46.416-1.525c5.875-.349,11.709-.959,17.585-1.264a410.8,410.8,0,0,1-59.93-1.613c-10.072-.915-20.145-2.092-30.175-3.4a43.121,43.121,0,0,0-5.246-.654,2.788,2.788,0,0,0-.839,0,11.115,11.115,0,0,1-2.392,0c-7.176.218-14.395,0-21.572,0-38.736-1.918-76.843-11.942-115.622-13.076-7.092-.261-14.227,0-21.32.349a65.637,65.637,0,0,1-14.311-1.133c-4.784-.915-9.527-2-14.353-2.877-7.261-1.308-14.689-1.656-22.033-2.266s-15.948-1.482-23.922-2.4-15.864-2.049-23.8-3.313-15.318-2.571-22.956-4.184ZM431.207,365.5l9.988-.218a39.738,39.738,0,0,1,7.89.305,8.086,8.086,0,0,0,2.686,0,21.167,21.167,0,0,1,5.96.61,10.379,10.379,0,0,0,2.6,0c2.98,0,6.127.392,9.107.567l9.611.741c6.673.523,13.346,1.133,19.977,1.787,53.089,5.056,106.389,12.64,159.772,8.194L472.126,364.415a39.627,39.627,0,0,0,9.4-1.918l9.611-2.179q4.533-1.046,9.065-2.223c1.721-.392,3.525-.7,5.162-1.22a32.479,32.479,0,0,0,3.232-1.656c2.14-1.046,4.2-2.048,6.5-3.007a132.4,132.4,0,0,1,13.346-4.969,196.972,196.972,0,0,1,27.783-6.625c9.485-1.569,19.054-2.659,28.622-3.443s19.305-1.351,28.958-1.918l14.689-.872a15.781,15.781,0,0,0,4.91-.915c1.133-.479,2.182-1.22,3.315-1.743a19.99,19.99,0,0,1,6.967-1.482l17.962-1.569a204.734,204.734,0,0,1,31.434-1.09c9.9.654,19.683,2.746,29.587,3.269a185.477,185.477,0,0,0,34.708-2.659,561.356,561.356,0,0,0-69.541-2.92c-11.793.262-23.586.872-35.379,1.482-10.324.523-20.648,1.046-30.972,1.787s-20.69,1.613-31.014,2.877-20.522,2.92-30.679,5.056q-7.554,1.656-15.108,3.661l-4.2,1.351a6.377,6.377,0,0,1-1.8.392,5.954,5.954,0,0,0-1.721.48,151.022,151.022,0,0,1-15.15,4.359c-5.12,1.22-10.2,2.31-15.318,3.4l-2.182.479-15.99,3.356-16.032,3.356-8.016,1.7-4.2.828a5.632,5.632,0,0,1-1.679.262c-1.343,0-2.56.61-3.945.479a25.731,25.731,0,0,0-6.8.654l-7.974,1.22c-5.372.741-10.7,1.482-16.074,2.092a274.716,274.716,0,0,1-32.231,2ZM276.639,569.4a190.345,190.345,0,0,1-19.305.479c-6.379-.044-13.43-.349-20.1-.785-13.388-.828-26.775-2.354-40.079-4.358-6.715-.915-13.388-1.918-20.061-2.92-3.148-.479-6.337-.915-9.485-1.482a8.582,8.582,0,0,1-1.511-.392,15.932,15.932,0,0,0-6.421,0,85.956,85.956,0,0,1-25.181-.959c-4.449-.959-8.771-2.484-13.262-3.051s-8.394,0-12.59-.7a74.786,74.786,0,0,1-10.156-2.4c-23.25-6.189-47.843-4.359-71.345.218,35.463-4.358,71.345,3.269,106.431,8.717,6.211,1,12.59,1.918,18.676,2.441,5.078.436,10.156.567,15.192,1.351s10.072,2.135,15.15,3.051a56.649,56.649,0,0,0,7.68.872h3.819a16.16,16.16,0,0,1,3.232,0c10.744.7,21.529,1.177,32.315,1.307s20.984,0,31.644-.654C266.525,570.138,271.6,569.876,276.639,569.4ZM794.1,592.541q-71.345,3.661-143.152,2.789C695.479,607.1,748.862,600.648,794.1,592.541Z" transform="translate(97.326 46.927)" fill="#eb924d"/><path d="M354.474,15c49.2,2.354,98.444,4.707,147.35,10.547,40.5,4.838,80.876,12.073,121.63,12.378C531.429,44.114,446.711,17.789,354.474,15ZM549.209,133.811h-2.45c-16.3-.654-32.646-.61-48.948,0s-32.6,1.743-48.821,3.269a23.675,23.675,0,0,0-4.6.785,15.929,15.929,0,0,1-4.772.305,90.1,90.1,0,0,0-11.867.959c-7.813,1.046-15.542,2.833-23.355,4.1a348.708,348.708,0,0,1-59.97,3.182l22.763,3.095a118.348,118.348,0,0,1-30.323,8.717q-16.429,3.095-32.857,5.4-24.073,3.4-48.314,5.317c-8.066.61-16.175,1.09-24.242,1.482h-6.082a33.126,33.126,0,0,1-4.223-.305c-3.041,0-5.913,1.046-8.869.872a21.658,21.658,0,0,0-2.365-.218,72.153,72.153,0,0,0-8.109.915l-16.26,1.918c-10.854,1.264-21.708,2.615-32.519,3.966q-32.561,3.966-65,8.412t-64.87,9.371l-2.618.392c49.919-3.835,99.923-7.627,149.335-15.734a235.528,235.528,0,0,1,38.221-4.358c5.11,0,10.263.436,15.373,0a50.232,50.232,0,0,1,6.715-.741,42.817,42.817,0,0,0,6.673,0q15.753-1.22,31.548-3.095c21.116-2.441,42.233-5.579,63.1-8.978s42.233-7.1,63.349-10.635,42.233-7.017,63.1-9.937,41.768-5.492,62.884-6.973q14.19-.959,28.38-1.351Zm77.2,332.9a364.485,364.485,0,0,1-46.794-.523c-11.741-.566-23.355-3.182-35.138-3.574s-23.4.523-35.138,0c-27.367-1.177-54.016-9.458-81.256-12.029-7.391-.7-14.781-.959-22.172-1.264l-19.089-.7H381.63a96.649,96.649,0,0,1-11.741-1.22c-2.112-.392-4.223-1.133-6.293-1.351-9.84-1.133-19.723-1.918-29.563-2.615s-20.061-1.482-30.07-2.484-19.976-2.223-29.943-3.7c-5.152-.784-10.3-1.613-15.457-2.528l-7.391-1.307a44.545,44.545,0,0,1-5.913-1.22c34.842,12.552,72.345,11.419,108.285,18.654a32.375,32.375,0,0,1,9.249,2.484,9.423,9.423,0,0,0,3.379,1.133,94.435,94.435,0,0,0,12.163,0c8.151,0,16.3-.785,24.453-.828a131.872,131.872,0,0,1,20.061,2.964c6.082.915,12.163,1.7,18.287,2.266a48.621,48.621,0,0,1,10.6,1.787,16.478,16.478,0,0,0,4.223,1.177,43.578,43.578,0,0,1,5.744.872c7.729,1.133,15.5,2.136,23.228,2.964,15.668,1.656,31.421,2.746,47.132,3.312s31.506.654,47.216.262,31-1.22,46.456-2.484Zm-91.476-112.36c1.52-.567,3.083-1.09,4.6-1.569,7.855-2.659,16.006-4.358,24.031-6.538,4.223-1.133,8.446-2.7,13.092-3.574a213.534,213.534,0,0,1,22.763-4.358,19.81,19.81,0,0,1,3.59,0,31.722,31.722,0,0,0,9.671-1.09,221.636,221.636,0,0,1,23.9-2.7h5.237a10.236,10.236,0,0,1,2.829,0,7.083,7.083,0,0,0,2.154,0,21.494,21.494,0,0,0,4.223-.915,69.093,69.093,0,0,1,7.813-1.613,9.741,9.741,0,0,0,2.956-.654,12.855,12.855,0,0,1,3.421-.654c5.237-.741,10.474-1.395,15.711-1.7,7.686-.436,15.373-.785,23.017-.959a180.933,180.933,0,0,1,22.806.436c2.2.218,4.223.523,6.546.828a177.88,177.88,0,0,0,31.083,3.574c2.534,0,5.026-.523,7.6-.741a28.67,28.67,0,0,1,4.688.479,105.435,105.435,0,0,0,12.67-.305l19.3-.61,40.163-1.438-82.523-3.007c-27.62-1-55.24-2-82.818-.915-5.575.261-11.149.567-16.893.959-21.37,1.525-42.655,4.358-63.814,7.8-10.6,1.787-21.116,3.792-31.632,5.971l-4.223.959a3.393,3.393,0,0,1-.929,0,7.363,7.363,0,0,0-1.689.392l-3.843,1.09c-2.83.828-5.659,1.7-8.447,2.266-5.068,1.046-10.22,1.656-15.288,2.615s-9.08,2-13.557,3.225-10.009,2.833-15.077,4.358c-2.534.61-5.026,1.22-7.6,1.7l-3.8.7a5.279,5.279,0,0,1-1.647,0,19.264,19.264,0,0,0-3.759.959c-5.237.7-10.474,1.264-15.753,1.7s-10.558.7-15.837.784h-5.955a7.462,7.462,0,0,0-1.394,0,1.179,1.179,0,0,0-.887.262,24.835,24.835,0,0,0-3.083.392l-8.151.959a16.44,16.44,0,0,0-2.914.61,43.93,43.93,0,0,1-6.293.959l-13.979,2.092c-7.517,1.09-14.993,2.179-22.51,3.182a229.2,229.2,0,0,0,43.077-.479c6.081-.828,12.163-2.179,18.244-3.269a120.589,120.589,0,0,1,13.008-1.7,151.5,151.5,0,0,1,28.76,2l24.284,3.269a24.562,24.562,0,0,0,8.151,0,33.861,33.861,0,0,1,10.051.392c16.3,1.656,32.6,3.4,48.948,4.838s32.561,2.571,48.906,2.964h23.228c3.928,0,7.813-.261,11.741-.436s7.686-.785,11.487-.785L496.5,363.98a42.033,42.033,0,0,0,9.46-1.961c2.576-.567,5.11-1.264,7.686-1.7a4.705,4.705,0,0,1,1.351,0,8.6,8.6,0,0,0,2.365,0,73.381,73.381,0,0,0,7.475-2.136A101.863,101.863,0,0,1,534.935,354.348ZM299.741,568.521c-8.447.479-16.471.566-24.706.392-5.448,0-10.854-.392-16.3-.741-2.7-.218-5.448-.392-8.151-.654a50,50,0,0,1-7.686-.828,59.955,59.955,0,0,0-7.94-1l-8.151-.959-16.3-1.874c7.264-4.794,16.175-5.666,24.706-6.8a280.51,280.51,0,0,0,41.346-8.717,679.711,679.711,0,0,0-69.6,8.194c-6.293,1.046-12.67,2.223-18.92,2.833a17.23,17.23,0,0,0-3.928.654,18.547,18.547,0,0,1-6.588.3l-16.091-.566c-10.685-.479-21.37-1.308-31.97-2.833q-5.11-.7-10.136-1.7c-6.631-1.308-13.177-2.964-19.849-3.7a136.058,136.058,0,0,0-39.361,2.789H78.737c8.066,0,16.133,0,24.2.61,5.364.479,10.685,1.264,15.964,2.223s10.347,2.223,15.542,3.051q15.584,2.441,31.21,4.358c10.474,1.351,21.116,2.572,31.463,3.574s21.116,1.831,31.463,2.4,20.694.828,31.041.828,20.314-.349,30.408-1.046C293.279,569.262,296.489,568.87,299.741,568.521Zm520.941,23.318q-71.8,3.7-144.056,2.79C721.223,606.4,774.943,599.989,820.681,591.839Z" transform="translate(73.663 44.495)" fill="url(#f)"/><path d="M13.7,37.916q.767,68.893,1.62,137.787.384,34.4.81,68.85L16.516,279a59.183,59.183,0,0,1,0,10.642,11.978,11.978,0,0,0-.384,2.215c-.852,18.331-.554,36.749-.81,55.123,0,7.862-.256,15.768-.341,23.674-.341,22.11-1.023,44.264-1.449,66.374q-.384,16.9-.426,33.752c0,3.171,0,6.038.256,9.166.81,9.079,1.364,18.157,1.577,27.279a38.1,38.1,0,0,1-.554,10.121,46.858,46.858,0,0,0-.554,6.516c-.384,4.561-.725,9.122-1.108,13.683q-1.023,13.77-2.131,27.41a42.667,42.667,0,0,0-.341,7.385,22.529,22.529,0,0,1,0,2.389c0,2.65-.9,5.169-.938,7.819a27.871,27.871,0,0,0,25.02,28.365q134.134,13.336,268.951,17.375a27.059,27.059,0,0,1,6.777.782,11.943,11.943,0,0,0,3.708.7c4.262,0,8.866-.608,13.256-.912a22.679,22.679,0,0,1,7.459,0,17.243,17.243,0,0,0,3.666.435l8.993.478c2.9,0,5.669-.3,8.525-.261H382.86l36.272.348H527.863l36.23-.217c5.8,0,11.508,0,17.3-.521,12.02-.652,24-1.39,36.016-2.259,9.164-.7,18.37-1.607,27.62-1.911q27.108-1,54.259-2.172t54.216-2.606q27.193-1.39,54.259-3.041t54.174-3.475q27.108-1.911,54.174-3.953l5.157-.434a44.652,44.652,0,0,0,19.308-4.6,7.251,7.251,0,0,0,3.452-4.952,75.506,75.506,0,0,0,1.066-11.989c.3-4.344.554-9.035.724-13.553.682-18.07.512-36.228-.554-54.255a98.38,98.38,0,0,1-.6-14.986c.213-2.215,0-4.6,0-6.863V484.332q0-13.727-.469-27.5-.639-27.5-1.918-54.993c-.256-5.213-.511-10.382-.81-15.594a44.723,44.723,0,0,0-.511-7.167c0-1.216-.725-2.3-.98-3.518a51.255,51.255,0,0,1,.213-12.51q.512-13.77.852-27.5.639-27.41.512-54.906t-1.194-54.95c-.6-18.07-1.364-36.228-2.856-54.211q-.288-8.363.255-16.724l.384-19.2c.213-12.337.469-24.673.682-37.01.469-25.107.852-50.258.98-75.366-11.167,36.749-11.167,76.191-8.61,114.2s6.905,76.278,2.558,114.113l.469,333.824L914.709,596.1,560.64,615.125l-334.377-3.3L35.653,598.793,23.676,586.63,30.2,353.8,25.935,88.826Z" transform="translate(33.398 68.785)" fill="#eb924d"/><path d="M448.073,681c-139.9,0-279.28-5.506-417.174-16.519A21.436,21.436,0,0,1,11.3,642.2c7.753-202.618,7.412-400.074-1.065-586.345a21.433,21.433,0,0,1,19.936-22.5q89.884-5.722,180.237-9.335c6.3-.258,12.78-.3,18.957-.731,1.235,0,2.428-.473,3.706-.6a59.06,59.06,0,0,1,8.264.258,15.391,15.391,0,0,0,11.2-2.8A18.05,18.05,0,0,0,256.8,7.632c-.426,4.689-.469,10.368,3.365,12.906A10.86,10.86,0,0,0,266.942,22h7.412c2.471,0,4.047-.387,6.134-.387l9.031-.258,36.167-.989,36.209-.774,27.136-.516q44.261-.645,88.606-.86h44.09a64.377,64.377,0,0,1,11.885.3,9.158,9.158,0,0,0,3.578-.344,18.432,18.432,0,0,0,7.029-3.829,48.318,48.318,0,0,0,7.753-9.163l-3.834,12.906c11.757,0,23.472.258,35.272.387l36.082.473,36,.688,35.868.86,35.783,1.075c11.885.387,23.728.774,35.613,1.248s23.728.9,35.57,1.42l35.4,1.592L869,27.636l35.144,1.979,12.78.774a21.429,21.429,0,0,1,19.979,22.2c-6.134,181.066-5.154,377.962,2.854,585.055a21.438,21.438,0,0,1-19.425,22.284C763.307,674.078,605.222,681,448.073,681ZM503.708,35.293c-155.274,0-313.189,5.076-472.468,15.272a4.285,4.285,0,0,0-3.962,4.3q4.26,88.274,5.538,176.678.767,40.395.98,80.746a81.275,81.275,0,0,1,0,9.12,22.15,22.15,0,0,0,0,3.355,10.008,10.008,0,0,0,1.747,5.937,11.9,11.9,0,0,0,10.394,3.442,34.3,34.3,0,0,1,11.289,0L40.74,337.026a10.7,10.7,0,0,0-4,1.291,7.375,7.375,0,0,0-3.025,5.592,15.506,15.506,0,0,0,.256,4.3,19.286,19.286,0,0,1,.256,3.829v62.205c0,11.873-.213,23.875-.383,35.792S33.5,474,33.285,486s-.469,24.047-.724,36.05-.6,24.177-.895,36.222-.724,24.263-1.108,36.394-.809,24.306-1.235,36.437c0,3.872-.3,7.7-.469,11.529a4.285,4.285,0,0,0,3.919,4.3q88.691,7.012,177.553,11.1l14.995.688,7.966.3a2.7,2.7,0,0,0,1.7-.3,10,10,0,0,1,5.282,0,5.712,5.712,0,0,0,5.538-1.42,6.2,6.2,0,0,0,.724-4.3c-.469-6.023-.937-12.045-1.363-18.068a53.627,53.627,0,0,0,4.26,15.874,17.622,17.622,0,0,0,12.439,9.808,69.785,69.785,0,0,0,8.52,0c2.982,0,6.007,0,9.031.3l18.062.516,36.209.946q18.1.387,36.209.645l19.894.258q45.07.517,90.14,0c14.995,0,29.819,0,44.985-.43,1.96,0,3.706-.645,5.623-.817A26.094,26.094,0,0,0,538,660.527a22.174,22.174,0,0,0,6.475-4.3,49.876,49.876,0,0,0,9.883-14.454,71.66,71.66,0,0,1,9.159-15.013,285.723,285.723,0,0,0-12.78,35.06,34.278,34.278,0,0,1,4.26,0h21.811l8.988-.258q18.062-.43,36.082-1.033l36.039-1.29L694,657.688l36.039-1.764,36.082-2.022,36.039-2.28c12.013-.817,24.026-1.635,36.039-2.538s24.068-1.764,36.082-2.753l36-2.968,9.031-.817a4.286,4.286,0,0,0,3.876-4.3c-8.051-207.651-9.031-404.978-2.9-586.474a4.285,4.285,0,0,0-3.962-4.3Q713.7,35.4,503.751,35.293Z" transform="translate(36.642 15.371)" fill="url(#g)"/><path d="M931.808,578.706q-2.427-72.526-3.662-143.2-.681-37.815-1.022-75.027h0c-1.065-111.074,0-218.138,3.576-320.2a18.151,18.151,0,0,0-17.03-18.929L882.206,19.5q-57.691-3.234-116.021-5.519c-158.511-6.08-320.6-6.64-484.9-1.682q-67.313,1.983-135.137,5.3Q87.179,20.36,28.04,24.154A18.637,18.637,0,0,0,11.01,43.3q4.9,108.4,6.174,221.372c1.362,119.353-.341,241.983-5.109,366.51a18.159,18.159,0,0,0,16.647,18.972q77.531,6.209,155.531,10.133,130.028,6.468,261.163,6.468,110.7,0,221.4-4.614,125.174-5.26,250.264-16.3a17.669,17.669,0,0,0,9.452-3.708,18.331,18.331,0,0,0,7.025-15.264C932.915,610.829,932.361,594.746,931.808,578.706ZM918.056,634.76a5.69,5.69,0,0,1-1.916.474q-124.493,11-249.114,16.17c-160.3,6.727-320.472,6.166-479.2-1.639q-79.447-3.881-158.341-10.219a7.465,7.465,0,0,1-6.855-7.5V631.7c4.683-121.854,6.386-241.767,5.194-358.62q-1.15-117.326-6.259-230.255a6.986,6.986,0,0,1,0-1.9,7.52,7.52,0,0,1,6.983-5.907q58.5-3.751,116.7-6.554,71.741-3.493,142.929-5.605,107.037-3.148,212.881-3.148,129.9,0,257.2,4.743,59.011,2.285,117.383,5.476c12.517.69,25.077,1.423,37.552,2.2a7.424,7.424,0,0,1,6.982,7.761c-3.619,107.8-4.768,221.027-3.406,338.742q0,18.671.511,37.6,1.277,81.107,4.258,164.843.809,23.069,1.7,46.4a7.534,7.534,0,0,1-5.365,7.287Z" transform="translate(39.449 26.567)" fill="url(#h)"/><path d="M155.585,20.934Q92.951,23.512,29.9,27.041c-4.368.255-7.7,3.475-7.52,7.257q5.5,103.626,6.74,211.772l-.275.952a3.64,3.64,0,0,1-3.116,2.332,3.983,3.983,0,0,1-3.716-1.538,65.872,65.872,0,0,1-4.585-9.478Q16.194,134.514,11.012,34.655c-.42-9.2,7.717-17.013,18.341-17.608Q93.226,13.6,156.778,10.94a6.694,6.694,0,0,1-1.192,9.994Z" transform="translate(39.447 32.454)" fill="#ffdf80"/><path d="M616.064,22.141c-5,.4-10.042.753-15.04,1.031q-136.916-4.323-277-4.362-113.76,0-229.263,2.9A120.686,120.686,0,0,1,71.84,18.1a1.187,1.187,0,0,1,0-2.34,110.7,110.7,0,0,1,15.636-3.767c176.945-4.561,351.506-3.966,522.215,1.547,2.476.436,4.952.952,7.428,1.467C622.071,16.034,620.466,21.744,616.064,22.141Z" transform="translate(210.826 26.528)" fill="#ffdf80"/><path d="M272.639,324.994h0a42.433,42.433,0,0,1-6.282,15.863,3.422,3.422,0,0,1-2.281,1.392,3.8,3.8,0,0,1-2.716-.559c-1.467-108.266-.229-212.486,3.668-311.551.182-3.761-3.174-6.946-7.52-7.138-13.435-.714-26.961-1.388-40.442-2.023l-2.018-1.031a3.193,3.193,0,0,1-1.84-2.8,3.193,3.193,0,0,1,1.84-2.8,62.068,62.068,0,0,1,9.17-2.974L258.1,13.085c10.588.492,18.757,8.246,18.341,17.41C272.777,124.365,271.493,222.835,272.639,324.994Z" transform="translate(693.438 33.759)" fill="#ffdf80"/><path d="M239.747,254.336a10.148,10.148,0,0,1-11.371,2.1q-3.026-76.936-4.585-151.612a5.675,5.675,0,0,1,5.686-1.753,4.731,4.731,0,0,1,3.805,4.053c.779,5.116,1.559,10.311,2.338,15.506Q237.133,187.592,239.747,254.336Z" transform="translate(731.374 345.492)" fill="#ffdf80"/><path d="M582.551,169.071q-119.217,4.243-238.433,4.243-141.042,0-281.26-5.949c-3.9-.872-7.795-1.943-11.647-3.133a3.207,3.207,0,0,1-2.641-3.474,3.528,3.528,0,0,1,3.6-2.752L66.8,157.57c170.938,7.178,343.436,7.694,516.071,1.507A7.12,7.12,0,0,1,582.551,169.071Z" transform="translate(145.133 520.127)" fill="#ffdf80"/><path d="M926.727,580.392q-2.426-72.575-3.66-143.295-.723-37.841-1.021-75.078h0c-1.064-111.149,0-218.286,3.575-320.417A18.157,18.157,0,0,0,908.6,22.661l-31.451-1.855Q819.52,17.57,761.171,15.283,523.306,6.222,276.5,13.557q-67.287,2.028-135.084,5.307Q82.432,21.712,23.147,25.509a17.565,17.565,0,0,0-9.874,3.84A18.238,18.238,0,0,0,11.018,39.1q4.894,108.474,6.171,221.522c1.362,119.434-.34,242.147-5.107,366.758a18.164,18.164,0,0,0,16.641,18.985q77.5,6.213,155.47,10.14,129.977,6.472,261.06,6.472,110.655,0,221.309-4.617,125.125-5.264,250.165-16.31a17.65,17.65,0,0,0,9.448-3.711,18.849,18.849,0,0,0,2.3-9.751C927.834,612.538,927.28,596.443,926.727,580.392Zm-9.193,50.569a7.57,7.57,0,0,1-6.639,6q-124.231,10.873-248.718,16.18c-160.236,6.731-320.345,6.17-479.007-1.64q-79.416-3.883-158.279-10.226a7.467,7.467,0,0,1-6.852-7.508v-.345c4.682-121.936,6.384-241.931,5.192-358.862q-1.149-117.535-6.256-230.41a7.552,7.552,0,0,1,4.894-7.421,7.525,7.525,0,0,1,6.682-5.911q58.477-3.754,116.655-6.558,71.713-3.495,142.872-5.609,106.995-3.15,212.8-3.15,129.849,0,257.1,4.746,58.988,2.287,117.337,5.48c12.513.69,25.068,1.424,37.537,2.2a7.426,7.426,0,0,1,6.98,7.767c-3.618,107.87-4.767,221.177-3.4,338.971q0,18.683.511,37.625,1.277,81.161,4.256,164.955.809,23.084,1.7,46.427A7.539,7.539,0,0,1,917.534,630.962Z" transform="translate(39.44 30.344)" fill="url(#i)"/></g></g></svg>