<svg viewBox="0 0 141 145" xmlns="http://www.w3.org/2000/svg"><rect fill="#dedede" height="145" rx="14" width="141"/><rect fill="#fff" height="123" rx="7" width="119" x="11" y="12"/><circle cx="70.5" cy="72.5" fill="#01da3f" r="54.93" transform="matrix(.70710678 -.70710678 .70710678 .70710678 -30.62 71.09)"/><path d="m70.5 19.14a53.36 53.36 0 1 1 -53.36 53.36 53.36 53.36 0 0 1 53.36-53.36m0-3.15a56.51 56.51 0 1 0 56.5 56.51 56.57 56.57 0 0 0 -56.5-56.5z"/><path d="m98.7 50.44-.44.45a8 8 0 0 0 -1.06.74q-10 10-20.07 20c-1 1-1 1.18.06 2.25l17.06 17.12c3.12 3.13 6.25 6.24 9.34 9.39.25.26.47 1 .32 1.16-1.48 1.62-3 3.17-4.56 4.73l-3-2.35-1.8-1.79-1.79-1.8-2.46-2.47-1.85-1.87-1.8-1.79c-.23-.22-.45-.44-.67-.67l-1.78-1.8-1.81-1.74c-.59-.6-1.19-1.19-1.79-1.79l-.66-.67-1.79-1.79c-.6-.6-1.2-1.19-1.79-1.79l-.67-.66-1.11-1.12c-.22-.23-.44-.45-.67-.67l-1.79-1.79c-.83-1.43-1.32-1.6-2.22-.7-4.89 4.89-9.77 9.81-14.66 14.71q-5.93 5.92-11.85 11.84a.94.94 0 0 1 -1.53 0c-1.21-1.26-2.4-2.56-3.65-3.79-.72-.7-.6-1.21.07-1.86 2.14-2.08 4.23-4.22 6.35-6.32q10-10 20-19.93c.53-.52.62-1 .14-1.55s-1.09-1.23-1.67-1.81l-25-25c-.34-.33-.63-.7-1-1.16 1.53-1.49 3-2.87 4.41-4.31.7-.72 1.21-.61 1.86.05q10.45 10.52 20.93 21c1.79 1.8 3.54 3.65 5.32 5.46 1.06 1.07 1.32 1 2.36 0q2.2-2.22 4.43-4.42l16.46-16.57 5-5.07c.68-.68 1.31-.88 2.06 0s1.53 1.53 2.28 2.32c2.11 2.22 2.3 1.59-.08 4.08-1.13 1.23-2.28 2.5-3.43 3.75zm.42 53.56a21.11 21.11 0 0 1 1.72-1.94c.84-.72.73-1.24 0-2-4.66-4.55-9.26-9.19-13.84-13.82-4.19-4.2-8.36-8.42-12.58-12.59-.78-.77-.8-1.33 0-2a16.87 16.87 0 0 0 1.32-1.22l24-24c1.83-1.83 1.8-1.8.08-3.73-.66-.74-1.11-.64-1.73 0q-13.03 13.1-26.09 26.17c-1.17 1.16-1.18 1.19-2.35 0l-25.65-25.71c-1.89-1.89-1.52-1.64-3.25 0-1 1-1 1.15 0 2.15q12.88 12.9 25.77 25.81c1.66 1.66 2 1.38-.06 3.29-.36.32-.7.67-1 1l-24.02 23.9c-1.7 1.69-1.67 1.67 0 3.46.69.75 1.16.81 1.91.06q13.1-13.17 26.26-26.29c1.13-1.13 1.13-1.16 2.28 0q10.44 10.46 20.87 20.91c2.08 2.09 4.09 4.24 6.36 6.55z" fill="#13121c"/><path d="m99.12 104c-2.27-2.34-4.28-4.49-6.36-6.58q-10.42-10.42-20.87-20.88c-1.15-1.16-1.15-1.13-2.28 0q-13.14 13.14-26.27 26.29c-.75.75-1.22.69-1.91-.06-1.66-1.79-1.69-1.77 0-3.46l23.94-23.88c.34-.35.68-.7 1-1 2.07-1.91 1.72-1.63.06-3.29q-12.83-12.95-25.73-25.83c-1-1-1-1.16 0-2.15 1.73-1.64 1.36-1.89 3.25 0l25.71 25.74c1.17 1.16 1.18 1.13 2.35 0q13-13.08 26.1-26.14c.62-.62 1.07-.72 1.73 0 1.72 1.93 1.75 1.9-.08 3.73l-24 24a16.87 16.87 0 0 1 -1.32 1.22c-.85.66-.83 1.22 0 2 4.17 4.11 8.34 8.29 12.56 12.53 4.61 4.63 9.21 9.27 13.85 13.86.75.75.86 1.27 0 2a21.11 21.11 0 0 0 -1.73 1.9z" fill="#ededed"/></svg>