<svg xmlns="http://www.w3.org/2000/svg" xmlns:xlink="http://www.w3.org/1999/xlink" width="165" height="169" viewBox="0 0 165 169"><defs><filter id="a" x="0" y="0" width="165" height="169" filterUnits="userSpaceOnUse"><feOffset dy="7" /><feGaussianBlur stdDeviation="4" result="b"/><feFlood flood-opacity="0.651"/><feComposite operator="in" in2="b"/><feComposite in="SourceGraphic"/></filter><clipPath id="c"><rect width="108.383" height="107.491" fill="none"/></clipPath></defs><g transform="translate(11.862 5.204)"><g transform="translate(0 0)"><g transform="matrix(1, 0, 0, 1, -11.86, -5.2)" filter="url(#a)"><rect width="141" height="145" rx="14" transform="translate(12 5)" fill="#dedede"/></g><rect width="119" height="123" rx="7" transform="translate(11.138 11.796)" fill="#fff"/><g transform="translate(16.543 19.038)"><g clip-path="url(#c)"><path d="M62.054,107.615c-5.474-2.98-10.822-6.334-13.724-12.344-1.6-3.322-.809-7.488,2.025-10.613a4.661,4.661,0,0,0,.689-4.046,8.853,8.853,0,0,0-1.59-2.682c-.258-.337-.524-.686-.763-1.04a.94.94,0,0,0-.779-.414.962.962,0,0,0-.146.011.941.941,0,0,0-.757.668c-.477,1.654-1.279,1.788-2.2,1.788-.341,0-.7-.029-1.081-.06-.4-.032-.817-.066-1.233-.066a4.079,4.079,0,0,0-2.482.7.877.877,0,0,0-.082.069,1.073,1.073,0,0,0-.394,1.032c.917,4.756-1.866,6.641-5.9,8.785-6.551,3.484-13.062,7.286-19.36,10.963-2.673,1.56-5.436,3.174-8.164,4.741l-.1.055,1.689-2.858c2.413-4.085,4.69-7.94,6.982-11.786,1.062-1.783,2.14-3.557,3.217-5.331,2.136-3.518,4.344-7.155,6.4-10.807.989-1.759,1.932-2.444,3.362-2.444a5.455,5.455,0,0,1,.766.058,10.688,10.688,0,0,0,1.531.1c.393,0,.794-.014,1.2-.027s.828-.028,1.26-.028a.941.941,0,0,0,.939-.886l.285-4.951,3.267-.367a.939.939,0,0,0,.806-1.167c-.364-1.426-.678-2.657-1.942-2.657a3.54,3.54,0,0,0-1.636.595,7.848,7.848,0,0,0-1.139.812,7.2,7.2,0,0,1-.783.581,6.938,6.938,0,0,1-3.572,1.014A7.187,7.187,0,0,1,22.7,61.649c-1.637-2.429-3.631-3.61-6.1-3.61a9.579,9.579,0,0,0-2.455.348l-.138.037c-1.918.512-3.9,1.042-5.825,1.69-1.206.406-2.392.884-3.749,1.434C7.7,55.693,10.923,50.99,16.211,48.061a9.135,9.135,0,0,1,4.466-1.189,10.125,10.125,0,0,1,6.852,2.892,4.614,4.614,0,0,0,2.877,1.064,2.493,2.493,0,0,0,1.029-.2,39.865,39.865,0,0,0,4.7-2.656c.668-.416,1.366-.852,2.114-1.3a.94.94,0,0,0-.381-1.742l-4.66-.5V38.681a.94.94,0,0,0-.807-.93c-.281-.04-.539-.1-.78-.148a5.8,5.8,0,0,0-1.232-.176,2.6,2.6,0,0,0-.5.046,8.077,8.077,0,0,1-1.531.159c-2.32,0-3.888-1.233-5.595-4.4C19.39,26.966,15.739,20.721,12.209,14.68Q9.9,10.725,7.6,6.759a11.119,11.119,0,0,1-.746-1.5l.329.172c1.531.8,3.116,1.629,4.633,2.5q4.372,2.5,8.727,5.027c5.545,3.207,11.279,6.522,16.985,9.675,2.638,1.457,3.386,2.686,2.966,4.871a6.286,6.286,0,0,0,.014,1.882c.031.29.064.6.083.94a.94.94,0,0,0,.894.888l5.372.258a.94.94,0,0,0,.915-1.154c-.923-3.949.338-6.742,4.352-9.642C53.661,19.56,54.461,16.6,54.1,14.9a92.871,92.871,0,0,0-2.668-9.333q-.269-.832-.54-1.676c4.842,2.505,9.89,5.891,13.146,11.448,2.245,3.832,1.6,8.229-1.721,11.763A4.066,4.066,0,0,0,61.865,31a24.809,24.809,0,0,0,2.215,3.64c.331.481.668.971,1,1.48a.94.94,0,0,0,.788.428.952.952,0,0,0,.245-.032.94.94,0,0,0,.694-.861L67,31.881H72.62a.94.94,0,0,0,.911-.709c.053-.208.118-.4.178-.566a2.632,2.632,0,0,0,.207-1.44c-.876-4.177,1.162-6.091,5.23-8.162,6.624-3.373,13.214-7.066,19.587-10.638,2.576-1.443,5.236-2.934,7.867-4.386l-1.785,2.993c-2.37,3.974-4.611,7.733-6.85,11.492q-1.285,2.159-2.585,4.309c-2.229,3.7-4.532,7.523-6.667,11.366-.911,1.64-1.748,2.193-3.318,2.193q-.3,0-.626-.027c-1.045-.086-1.763-.136-2.341-.136a2.913,2.913,0,0,0-2.172.651c-.672.677-.665,1.627-.653,3.2,0,.276,0,.576,0,.9,0,1.032-.057,1.063-.175,1.131a17.154,17.154,0,0,1-3.891.783l-.093.014a.94.94,0,0,0-.726,1.3L76.2,49.634a.939.939,0,0,0,1.321.455c.366-.2.709-.387,1.037-.562.675-.362,1.313-.7,1.92-1.093a8.745,8.745,0,0,1,4.64-1.539,5.96,5.96,0,0,1,5.1,3.008c1.712,2.647,3.836,3.933,6.495,3.933a11.775,11.775,0,0,0,3.663-.667c2.275-.746,4.573-1.575,7.006-2.451l1.346-.485c-3.22,5.842-6.84,11.5-13.345,14.094a9.5,9.5,0,0,1-3.518.712,7.8,7.8,0,0,1-6.1-2.978,3.427,3.427,0,0,0-2.545-1.454,3.681,3.681,0,0,0-2.172.855c-.6.442-1.244.85-1.987,1.322-.368.235-.758.482-1.178.756a.941.941,0,0,0,.353,1.714l2.15.374v5.792A.94.94,0,0,0,81,72.3a3.211,3.211,0,0,1,.31.143,2.311,2.311,0,0,0,1.043.315,1.4,1.4,0,0,0,.264-.025,8.4,8.4,0,0,1,1.571-.161c2.873,0,4.437,1.911,6.031,4.993,3.735,7.222,7.656,14.258,11.807,21.707q1.677,3.011,3.39,6.094l-2.609-1.558c-4.106-2.45-7.963-4.752-11.814-7.063q-2.435-1.461-4.858-2.945c-3.421-2.084-6.958-4.239-10.506-6.251-1.862-1.056-2.365-1.938-2.068-3.631a13.361,13.361,0,0,0,.089-2.911c-.017-.393-.034-.784-.034-1.171a.94.94,0,0,0-.94-.94H67.691l-.6-3.964a.942.942,0,0,0-1.266-.738L62.8,75.352a.94.94,0,0,0-.478,1.35l.683,1.182c.44.762.825,1.429,1.216,2.092,2.123,3.6,1.442,7.272-1.734,9.348-3.573,2.335-4.6,5.386-3.333,9.895.6,2.143,1.147,3.851,1.711,5.374.2.537.412,1.068.626,1.6.187.466.377.939.558,1.42" transform="translate(-2.351 -2.06)" fill="#635495"/><path d="M50.155,3.776a28.1,28.1,0,0,1,10.719,9.975c2.022,3.452,1.426,7.43-1.6,10.643a4.987,4.987,0,0,0-.619,4.944,25.972,25.972,0,0,0,2.293,3.778c.327.474.664.964.986,1.46a1.88,1.88,0,0,0,3.455-.93l.145-2.883h4.73a1.881,1.881,0,0,0,1.823-1.419c.04-.159.1-.32.155-.491a3.526,3.526,0,0,0,.238-1.939c-.685-3.268.421-4.934,4.736-7.131C83.864,16.4,90.464,12.7,96.848,9.122c1.579-.885,3.189-1.787,4.805-2.687-2.37,3.974-4.611,7.732-6.849,11.491q-1.284,2.156-2.583,4.3c-2.232,3.706-4.541,7.538-6.684,11.4-.817,1.472-1.405,1.709-2.5,1.709-.169,0-.354-.008-.55-.024-1.069-.088-1.807-.139-2.418-.139a3.779,3.779,0,0,0-2.84.929c-.947.955-.938,2.177-.926,3.87,0,.273,0,.571,0,.895,0,.106,0,.272,0,.424-.6.163-1.852.351-3.259.562l-.094.014A1.881,1.881,0,0,0,71.5,44.459l.911,2.149.566,1.334a1.88,1.88,0,0,0,2.645.909c.361-.2.7-.384,1.027-.557.691-.37,1.343-.72,1.981-1.13a7.817,7.817,0,0,1,4.13-1.39,5,5,0,0,1,4.314,2.577c1.871,2.9,4.322,4.363,7.284,4.363A12.688,12.688,0,0,0,98.318,52c1.96-.643,3.932-1.345,5.992-2.086-2.853,4.874-6.221,9.326-11.625,11.477a8.575,8.575,0,0,1-3.17.645A6.8,6.8,0,0,1,84.132,59.4a4.4,4.4,0,0,0-3.266-1.791,4.673,4.673,0,0,0-2.727,1.037c-.58.424-1.21.825-1.941,1.29-.369.235-.761.484-1.182.759a1.881,1.881,0,0,0,.706,3.427l1.37.238v5a1.881,1.881,0,0,0,1.223,1.761c.046.017.139.063.22.1A3.206,3.206,0,0,0,80,71.639a2.364,2.364,0,0,0,.44-.041,7.459,7.459,0,0,1,1.395-.144c2.124,0,3.483,1.174,5.2,4.484,3.739,7.231,7.661,14.269,11.814,21.721l1.7,3.05c-3.958-2.363-7.692-4.591-11.421-6.828-1.62-.972-3.264-1.973-4.853-2.942-3.426-2.088-6.969-4.246-10.53-6.265-1.611-.913-1.814-1.463-1.606-2.652a14.314,14.314,0,0,0,.1-3.113c-.017-.4-.033-.771-.033-1.131a1.88,1.88,0,0,0-1.88-1.88H66.149l-.476-3.164a1.881,1.881,0,0,0-2.532-1.476l-.718.275-2.307.883a1.88,1.88,0,0,0-.954,2.7l.7,1.2c.436.754.818,1.418,1.207,2.077,1.469,2.493,1.863,5.926-1.438,8.083-5.148,3.364-4.591,7.853-3.723,10.936.608,2.165,1.159,3.9,1.734,5.447q.109.294.222.585c-4.5-2.616-8.657-5.718-11.034-10.641-1.459-3.022-.74-6.69,1.874-9.573a5.61,5.61,0,0,0,.891-4.955A9.563,9.563,0,0,0,47.85,75.3c-.261-.342-.508-.664-.731-1a1.881,1.881,0,0,0-3.365.531c-.32,1.108-.626,1.108-1.3,1.108-.3,0-.644-.027-1.005-.057-.419-.034-.854-.069-1.309-.069A4.961,4.961,0,0,0,37.1,76.7a1.806,1.806,0,0,0-.16.133,2.008,2.008,0,0,0-.682,1.9c.738,3.826-.992,5.427-5.413,7.779-6.569,3.494-13.091,7.3-19.4,10.985-1.691.987-3.419,2-5.15,3,2.364-4,4.6-7.785,6.848-11.558,1.06-1.778,2.154-3.581,3.212-5.325,2.14-3.524,4.352-7.168,6.414-10.835.924-1.643,1.632-1.965,2.542-1.965a4.5,4.5,0,0,1,.633.049,11.568,11.568,0,0,0,1.663.1c.415,0,.833-.014,1.237-.028s.817-.028,1.228-.028a1.88,1.88,0,0,0,1.877-1.772l.24-4.159,2.48-.279a1.88,1.88,0,0,0,1.612-2.333c-.363-1.42-.859-3.365-2.853-3.365a4.313,4.313,0,0,0-2.092.713,8.721,8.721,0,0,0-1.273.9,6.634,6.634,0,0,1-.677.507,5.991,5.991,0,0,1-3.086.88,6.263,6.263,0,0,1-5.173-2.947c-1.8-2.67-4.114-4.024-6.878-4.024a10.516,10.516,0,0,0-2.7.38l-.122.032c-1.938.518-3.941,1.052-5.9,1.712-.432.145-.861.3-1.293.462,2.768-4.644,5.7-8.38,10.075-10.8a8.206,8.206,0,0,1,4.009-1.07,9.191,9.191,0,0,1,6.211,2.639,5.563,5.563,0,0,0,3.518,1.318,3.432,3.432,0,0,0,1.416-.282,41.129,41.129,0,0,0,4.819-2.718c.668-.416,1.359-.847,2.1-1.288a1.88,1.88,0,0,0-.763-3.483l-3.656-.395-.165-.017v-4.9a1.881,1.881,0,0,0-1.615-1.861c-.238-.034-.47-.084-.715-.136a6.631,6.631,0,0,0-1.429-.2,3.6,3.6,0,0,0-.679.063,7.123,7.123,0,0,1-1.351.142c-1.941,0-3.234-1.059-4.767-3.9-3.388-6.287-7.046-12.544-10.583-18.6-1.28-2.189-2.6-4.442-3.892-6.681.751.4,1.5.811,2.23,1.229,2.9,1.66,5.851,3.364,8.7,5.012,5.556,3.213,11.3,6.536,17.023,9.7,2.524,1.394,2.8,2.283,2.5,3.871a7.082,7.082,0,0,0,0,2.159c.031.287.062.583.078.89a1.88,1.88,0,0,0,1.787,1.777l4.178.2,1.149.055.091,0a1.88,1.88,0,0,0,1.83-2.309c-.833-3.562.285-5.991,3.987-8.665,1.871-1.351,2.781-4.667,2.344-6.729a88.192,88.192,0,0,0-2.512-8.866M46.979,0c1.385,4.518,2.932,8.708,3.848,13.032a5.7,5.7,0,0,1-1.606,4.815c-3.649,2.635-5.88,5.646-4.717,10.618l-5.327-.257a12.159,12.159,0,0,1-.112-2.593c.58-3.009-.928-4.488-3.434-5.872-8.637-4.771-17.131-9.8-25.7-14.695C7.694,3.769,5.386,2.613,3.111,1.4A9.022,9.022,0,0,0,4.435,5.169C9.507,13.975,14.77,22.678,19.589,31.62c1.617,3,3.385,4.893,6.423,4.893a8.979,8.979,0,0,0,1.71-.177,1.676,1.676,0,0,1,.32-.029,17.184,17.184,0,0,1,1.878.314v6.592l5.5.594A70.88,70.88,0,0,1,28.7,47.713a1.594,1.594,0,0,1-.644.116,3.681,3.681,0,0,1-2.234-.811,11.007,11.007,0,0,0-7.494-3.146A10.1,10.1,0,0,0,13.4,45.178C7.1,48.671,3.644,54.587,0,61.34c2.539-1,4.309-1.779,6.134-2.394,1.94-.653,3.926-1.18,5.906-1.709a8.571,8.571,0,0,1,2.212-.317c2.126,0,3.848,1.012,5.318,3.195A8.118,8.118,0,0,0,26.3,63.891a7.838,7.838,0,0,0,4.057-1.15c.666-.4,1.215-1,1.892-1.375a2.933,2.933,0,0,1,1.18-.477c.483,0,.675.553,1.031,1.949l-4.056.455-.331,5.742c-.865,0-1.68.056-2.466.056a9.863,9.863,0,0,1-1.4-.086,6.38,6.38,0,0,0-.9-.068c-1.939,0-3.126,1.048-4.18,2.924-3.064,5.45-6.4,10.745-9.6,16.118C8.212,93.55,4.924,99.137,1.208,105.417c1.512-.772,2.287-1.128,3.023-1.551,9.152-5.256,18.185-10.736,27.5-15.689,4.2-2.236,7.406-4.457,6.377-9.795-.013-.065.106-.157.112-.164a3.122,3.122,0,0,1,1.923-.52c.757,0,1.558.126,2.314.126,1.317,0,2.5-.381,3.105-2.467a15.076,15.076,0,0,1,2.233,3.472,3.792,3.792,0,0,1-.487,3.139c-2.922,3.223-4.064,7.741-2.175,11.654,3.353,6.947,9.754,10.436,16.186,13.871a53.487,53.487,0,0,0-1.917-5.285c-.644-1.738-1.186-3.518-1.688-5.3-1.01-3.593-.623-6.524,2.942-8.853,3.739-2.443,4.307-6.749,2.03-10.612-.58-.983-1.146-1.973-1.9-3.268l3.024-1.158c.273,1.818.486,3.232.717,4.765h5.787a22.915,22.915,0,0,1-.04,3.919c-.4,2.309.581,3.506,2.53,4.612,5.184,2.939,10.232,6.117,15.344,9.183,5.552,3.331,11.114,6.643,17.414,10.407C99.619,95.105,93.936,85.2,88.7,75.074c-1.689-3.266-3.5-5.5-6.866-5.5a9.323,9.323,0,0,0-1.749.178.43.43,0,0,1-.086.008,3.985,3.985,0,0,1-1.025-.4V62.776l-2.929-.509c1.273-.831,2.272-1.424,3.205-2.107a2.834,2.834,0,0,1,1.617-.674A2.467,2.467,0,0,1,82.689,60.6a8.709,8.709,0,0,0,6.825,3.315,10.462,10.462,0,0,0,3.866-.779c7.406-2.949,11.11-9.485,15-16.681-4.05,1.436-7.326,2.666-10.648,3.756a10.912,10.912,0,0,1-3.37.62c-2.183,0-4.073-.979-5.705-3.5a6.874,6.874,0,0,0-5.893-3.437,9.625,9.625,0,0,0-5.147,1.689c-.858.552-1.783,1-2.905,1.625l-1.477-3.483c4.863-.73,4.953-.73,4.959-2.855.009-3.056-.257-3.818,1.882-3.818.568,0,1.306.054,2.263.133.246.02.48.031.7.031,1.976,0,3.1-.807,4.139-2.676,2.941-5.294,6.139-10.445,9.239-15.651,3.27-5.492,6.545-10.98,10.22-17.145-1.337.619-1.942.856-2.506,1.166C94.892,8,85.765,13.32,76.367,18.107,72.3,20.178,69.61,22.37,70.644,27.3c.086.409-.2.9-.376,1.582H63.75c-.085,1.685-.156,3.112-.234,4.67a42.518,42.518,0,0,1-3.149-5,3.2,3.2,0,0,1,.282-2.867c3.445-3.663,4.4-8.531,1.848-12.882C58.921,6.7,53.264,3.029,46.979,0M106.64,1.743h0Zm1.74,44.715h0Z" transform="translate(0.001)"/></g></g></g></g></svg>