<svg viewBox="0 0 149.52 145" xmlns="http://www.w3.org/2000/svg" xmlns:xlink="http://www.w3.org/1999/xlink"><clipPath id="a" transform="translate(4.26)"><path d="m10.81 14.77h119.38v115.46h-119.38z"/></clipPath><rect fill="#dedede" height="145" rx="14" width="141" x="4.26"/><rect fill="#fff" height="123" rx="7" width="119" x="15.26" y="12"/><g clip-path="url(#a)"><path d="m15.07 14.77h119.38v115.46h-119.38z" fill="#fbec01"/><g fill="#fff" stroke="#000" stroke-miterlimit="10" stroke-width="2.75"><circle cx="15.07" cy="28.46" r="13.7"/><circle cx="44.91" cy="28.46" r="13.7"/><circle cx="74.76" cy="28.46" r="13.7"/><circle cx="104.6" cy="28.46" r="13.7"/><circle cx="15.07" cy="57.82" r="13.7"/><circle cx="44.91" cy="57.82" r="13.7"/><circle cx="74.76" cy="57.82" r="13.7"/><circle cx="104.6" cy="57.82" r="13.7"/><circle cx="15.07" cy="87.18" r="13.7"/><circle cx="44.91" cy="87.18" r="13.7"/><circle cx="74.76" cy="87.18" r="13.7"/><circle cx="104.6" cy="87.18" r="13.7"/><circle cx="15.07" cy="116.54" r="13.7"/><circle cx="44.91" cy="116.54" r="13.7"/><circle cx="74.76" cy="116.54" r="13.7"/><circle cx="104.6" cy="116.54" r="13.7"/><circle cx="134.45" cy="28.46" r="13.7"/><circle cx="134.45" cy="57.82" r="13.7"/><circle cx="134.45" cy="87.18" r="13.7"/><circle cx="134.45" cy="116.54" r="13.7"/></g></g></svg>