<svg viewBox="0 0 141 145" xmlns="http://www.w3.org/2000/svg"><rect fill="#dedede" height="145" rx="14" width="141"/><rect fill="#fff" height="123" rx="7" width="119" x="11" y="12"/><path d="m30.14 102.23a26.08 26.08 0 0 1 .49-3.57 19.77 19.77 0 0 1 2-5.29c.42-.7.74-1.46 1.09-2.2s.75-.87 1.45-.51 1.5.86 2.24 1.31c.92.55 1.82 1.12 2.73 1.69s.73.68.28 1.43a23.32 23.32 0 0 0 -1.42 2.91 19.9 19.9 0 0 0 -1.28 3.53c-.3 1.4 0 2.28 1 2.79a2 2 0 0 0 1.12.23 8 8 0 0 0 2.22-.65 23.22 23.22 0 0 0 6.55-5.24 37.29 37.29 0 0 0 4.82-6.85 31.8 31.8 0 0 0 2-4.49c.67-1.82 1.08-3.72 1.74-5.54a30.13 30.13 0 0 0 .88-4.85c.09-.48.22-.94.32-1.42.17-.86-.14-1.29-1-1.64s-1.77-.87-2.67-1.39c-.59-.31-1.16-.63-1.74-1a49.63 49.63 0 0 1 -11.14-8.85c-1.85-1.93-3.58-4-5.24-6.09a31.12 31.12 0 0 1 -2.24-3.68 23.39 23.39 0 0 1 -1.34-2.5c-.44-1.1-.69-2.27-1.18-3.35-1.12-2.45-.86-5-.76-7.58a7.2 7.2 0 0 1 2.69-5.19 9.33 9.33 0 0 1 6.41-2.17 12.9 12.9 0 0 1 4.26.7 21.61 21.61 0 0 1 5.32 2.78 31.71 31.71 0 0 1 6.54 6.34 22 22 0 0 1 1.75 2.54c.97 1.57 1.97 3.16 2.76 4.84 1 2.19 1.85 4.47 2.72 6.72a26.87 26.87 0 0 1 1.71 7.18c.13 1.37.38 2.72.58 4.08.09.64.37 1.07 1.08 1.13 2.28.19 4.56.4 6.85.58 1.22.09 1.29 0 1.47-1.22.35-2.32.61-4.65 1.17-6.91a52.48 52.48 0 0 1 2.2-6.55 39.69 39.69 0 0 1 2.28-4.74 48 48 0 0 1 3.4-5.54 39.68 39.68 0 0 1 4.64-5.3 20.38 20.38 0 0 1 7.7-4.77c1-.32 2.08-.48 3.1-.77a9.59 9.59 0 0 1 5.34.32 7.59 7.59 0 0 1 4.21 3.11c1.94 2.93 1.9 6 1.12 9.24a37.25 37.25 0 0 1 -1.56 4.72 29.94 29.94 0 0 1 -1.66 3.36c-.54 1-.9 1-1.8.35-1.16-.81-2.39-1.52-3.59-2.27-.35-.22-.71-.42-1.06-.63a.9.9 0 0 1 -.2-1.39 19.45 19.45 0 0 0 2.7-6.54 2.37 2.37 0 0 0 -.54-2.31 1.74 1.74 0 0 0 -.94-.46 5.72 5.72 0 0 0 -3.82 1.07 22.77 22.77 0 0 0 -6.72 6 37.68 37.68 0 0 0 -3 4.37c-.9 1.58-1.64 3.25-2.39 4.91a29.65 29.65 0 0 0 -2 6.16c-.41 2.06-.88 4.11-1.17 6.19-.21 1.52.12 1.81 1.55 2.31a10.51 10.51 0 0 1 2 .93c2.23 1.38 4.54 2.66 6.63 4.23a64 64 0 0 1 5.84 5.22 47.44 47.44 0 0 1 4.21 4.53 46 46 0 0 1 3.65 5.22 27.49 27.49 0 0 1 1.89 4.3 21.63 21.63 0 0 1 1.41 4.49c.31 2.29.56 4.61-.45 6.9a8.84 8.84 0 0 1 -2 3.13 8 8 0 0 1 -5.14 2.25 23.22 23.22 0 0 1 -2.89 0 13.13 13.13 0 0 1 -2.15-.4 17.51 17.51 0 0 1 -4.84-2.15 18 18 0 0 1 -2.66-1.93 47.23 47.23 0 0 1 -3.9-3.85 31.71 31.71 0 0 1 -2.91-4c-1.11-1.78-2.11-3.64-3.1-5.49a24.43 24.43 0 0 1 -1.25-2.82c-.74-2-1.44-4.08-2.14-6.13a11.08 11.08 0 0 1 -.22-1.1 36 36 0 0 1 -1-7c0-.72-.53-1-1.08-1.16a13 13 0 0 0 -2.56-.43c-1.58-.08-3.17-.07-4.76-.1-.69 0-1 .3-1.06 1.07-.22 1.72-.37 3.47-.74 5.16a44.59 44.59 0 0 1 -1.63 5.66 52.77 52.77 0 0 1 -2.74 6.49 64.23 64.23 0 0 1 -4.11 6.72 27.17 27.17 0 0 1 -5.93 6.27 26.9 26.9 0 0 1 -4 2.59 14.34 14.34 0 0 1 -4.25 1.64 21.58 21.58 0 0 1 -5.62 0c-1-.1-1.82-.87-2.74-1.3-1.65-.78-2.46-2.26-3.21-3.78a4.15 4.15 0 0 1 -.37-1.39c-.12-.92-.13-1.84-.2-3.21zm10.53-62.5c-1.25 0-2 .48-2.12 1.54a5.24 5.24 0 0 0 .17 2.3c.56 1.61 1.29 3.15 2 4.72a25.72 25.72 0 0 0 4.43 6.71 46.1 46.1 0 0 0 5 4.95c2 1.69 4.2 3.16 6.33 4.71.23.16.7.32.84.21a1.09 1.09 0 0 0 .32-.88c-.11-.72-.34-1.42-.52-2.12-.42-1.57-.74-3.17-1.3-4.69a37.29 37.29 0 0 0 -2.11-4.59 44.24 44.24 0 0 0 -2.91-4.88 23.91 23.91 0 0 0 -7-6.77 5.63 5.63 0 0 0 -3.13-1.21zm61.82 63.37a4.94 4.94 0 0 0 -.13-.95c-.36-1.13-.73-2.25-1.15-3.35a16.57 16.57 0 0 0 -1.21-2.8 51 51 0 0 0 -3.23-4.76 43.58 43.58 0 0 0 -7.77-7.4c-1.39-1.07-2.85-2.07-4.3-3.06a1.45 1.45 0 0 0 -1.1-.24c-.2.08-.33.68-.28 1a21 21 0 0 0 .6 2.46 44.31 44.31 0 0 0 1.29 4.25 37.52 37.52 0 0 0 2.09 4.39 41.2 41.2 0 0 0 3 4.84c2.43 3.21 5.15 6.1 9 7.63 1.76.71 3.16-.11 3.19-2.01z" fill="#01da3f" stroke="#000" stroke-miterlimit="10" stroke-width="2.66"/></svg>