<svg viewBox="0 0 141 145" xmlns="http://www.w3.org/2000/svg"><rect fill="#dedede" height="145" rx="14" width="141"/><rect fill="#fff" height="123" rx="7" width="119" x="11" y="12"/><path d="m71.21 67.89c-1.14-1.43-2.16-2.72-3.19-4-1.18-1.47-2.38-2.93-3.58-4.39-.71-.87-1-.91-2-.44a32.76 32.76 0 0 1 -11.74 3.19 36.14 36.14 0 0 1 -10.12-.78 23.92 23.92 0 0 1 -7.11-2.59 11.2 11.2 0 0 1 -5.62-6.59c-1.05-3.72-.08-6.78 3.27-9a17 17 0 0 1 6.53-2.29 20.52 20.52 0 0 1 5.85-.26 30.4 30.4 0 0 1 8.14 1.62 56.36 56.36 0 0 1 7 3.4c2 1.17 3.86 2.64 5.76 4a1 1 0 0 0 1.38.06c1.64-1.22 3.29-2.46 5-3.53a67.42 67.42 0 0 1 6.46-3.53 49.34 49.34 0 0 1 6.61-2.51 32.65 32.65 0 0 1 16.53-.59 25.73 25.73 0 0 1 7.9 3.06c.49.3.58.62.3 1-.87 1.34-1.78 2.66-2.66 4-.26.38-.55.38-.93.19a18.68 18.68 0 0 0 -6.76-2c-2.06-.21-4.13-.41-6.21-.44a24 24 0 0 0 -7.72 1.4 51 51 0 0 0 -13.12 7.06c-1.45 1-1.44 1-.33 2.42 1.93 2.4 3.88 4.79 5.81 7.19a1.12 1.12 0 0 0 1.63.36 34.67 34.67 0 0 1 9.88-3 28.64 28.64 0 0 1 7.51-.17 32.49 32.49 0 0 1 10.44 2.64c2.69 1.28 5.1 3 6.42 5.79 1.59 3.36 1.48 6.83-1.39 9.47a12.81 12.81 0 0 1 -4.54 2.52 23.32 23.32 0 0 1 -10.32.85 25.34 25.34 0 0 1 -7.29-1.91 60.12 60.12 0 0 1 -6.19-2.76 65.85 65.85 0 0 1 -6-4.09 1.2 1.2 0 0 0 -1.65 0c-1.62 1.19-3.26 2.34-4.92 3.47-.5.35-.55.67-.17 1.11l6.19 7.35.13.17c.86 1.06.91 1.06 2.17.57 1.73-.67 3.45-1.38 5.21-2 1.1-.37 2.28-.52 3.42-.78a24.32 24.32 0 0 1 8.2-.37 49.83 49.83 0 0 1 7 1.33 24.61 24.61 0 0 1 4.65 1.81 11.34 11.34 0 0 1 5.76 5.85 8 8 0 0 1 .11 6.62 8.07 8.07 0 0 1 -3.6 3.68c-4.32 2.4-9 2.63-13.74 2a36.54 36.54 0 0 1 -8.09-2.35 37.73 37.73 0 0 1 -10.84-6.4 1.13 1.13 0 0 0 -1.6 0 62.17 62.17 0 0 1 -9.38 6 48.59 48.59 0 0 1 -5.73 2.41 50.54 50.54 0 0 1 -6.67 1.89 27.48 27.48 0 0 1 -7.79.45 37.11 37.11 0 0 1 -7.25-1.37 22.15 22.15 0 0 1 -5.74-2.54.57.57 0 0 1 -.21-.94c.84-1.28 1.68-2.56 2.54-3.82a.82.82 0 0 1 1.2-.3 25.22 25.22 0 0 0 10.47 2.33 33.75 33.75 0 0 0 5.23-.17 28.72 28.72 0 0 0 5.08-1.24 52.31 52.31 0 0 0 13.21-7.13c.18-.12.38-.21.55-.34a.75.75 0 0 0 .18-1.22c-1.89-2.4-3.76-4.82-5.66-7.21-1.5-1.87-1.51-1.84-3.72-.93a40 40 0 0 1 -7 2.13 29.73 29.73 0 0 1 -7.35.7 27.25 27.25 0 0 1 -7.7-1.2 47.27 47.27 0 0 1 -5-1.8c-2.76-1.28-5.17-3.06-6.38-6a6.62 6.62 0 0 1 1.08-6.95 11 11 0 0 1 4.56-3.25 24 24 0 0 1 9.11-1.8 24.59 24.59 0 0 1 8 1.09 31.33 31.33 0 0 1 7.5 3.51c1.91 1.2 3.68 2.64 5.48 4 .58.44 1 .65 1.71.2 1.48-1 3-2 4.49-2.94.43-.25.85-.59 1.36-.97zm20.91-1a21 21 0 0 0 -8.89 1.59 3.75 3.75 0 0 0 -.71.49 4.45 4.45 0 0 0 .61.74 25.9 25.9 0 0 0 6.52 3.53 38.55 38.55 0 0 0 4.16 1.31c1.24.33 2.51.58 3.78.79a14.89 14.89 0 0 0 7.64-.34c1.84-.68 2.36-2.14 1-3.75a10.9 10.9 0 0 0 -5.23-3.06 28 28 0 0 0 -8.88-1.27zm-43.34-10.7c1.27-.17 2.16-.35 3.06-.38a20.55 20.55 0 0 0 5.85-1.33 3 3 0 0 0 .79-.66 3.77 3.77 0 0 0 -.64-.73c-1-.66-2-1.31-3.1-1.91a29.61 29.61 0 0 0 -7.51-2.91 40.64 40.64 0 0 0 -6.5-1 10.26 10.26 0 0 0 -5.4.8 2 2 0 0 0 -.71 3.28 11.22 11.22 0 0 0 6.51 3.65c2.61.6 5.32.83 7.65 1.19zm33.4 34.71c.23.31.34.58.54.71a41.42 41.42 0 0 0 3.69 2.31 35.34 35.34 0 0 0 4.21 1.77 47 47 0 0 0 4.64 1.44 22.93 22.93 0 0 0 7.83.48 8.75 8.75 0 0 0 3-1 1.55 1.55 0 0 0 .61-2.29 11 11 0 0 0 -2.48-2.43 18 18 0 0 0 -6.76-2.35 28.83 28.83 0 0 0 -11.81.21c-1.13.25-2.23.72-3.47 1.15zm-24.45-15.3v-.28a3.86 3.86 0 0 0 -.69-.6 63.83 63.83 0 0 0 -6.1-3.26 23.73 23.73 0 0 0 -9.51-1.79 12.69 12.69 0 0 0 -5.92 1c-1.77.92-2 2.22-.49 3.52a3 3 0 0 0 .46.34 12.44 12.44 0 0 0 4.36 1.74c1.54.3 3.07.73 4.63.89a28.61 28.61 0 0 0 10.18-.61c1.04-.22 2.05-.61 3.08-.95z" fill="#fa0000" stroke="#000" stroke-miterlimit="10" stroke-width="2.66"/></svg>