<svg viewBox="0 0 141 145" xmlns="http://www.w3.org/2000/svg"><rect fill="#dedede" height="145" rx="14" width="141"/><rect fill="#fff" height="123" rx="7" width="119" x="11" y="12"/><path d="m96.75 110a34.34 34.34 0 0 1 -8.92-1.1 46.06 46.06 0 0 1 -12.28-4.66c-3.38-1.87-6.54-4.17-9.79-6.29a6.75 6.75 0 0 1 -.76-.56.84.84 0 0 0 -1.21 0c-2.32 1.66-4.59 3.42-7 4.87a47.3 47.3 0 0 1 -6.13 2.82 30.52 30.52 0 0 1 -4.6 1.59c-4.09 1-8.21 1.93-12.45 1a43.16 43.16 0 0 1 -5.61-1.39c-3.35-1.22-5.94-3.35-6.8-7a9.47 9.47 0 0 1 .8-5.93c1.68-3.92 4.89-6.11 8.66-7.7a40.91 40.91 0 0 1 13.67-2.84 32.34 32.34 0 0 1 8.75.93 49 49 0 0 1 7.92 2.64c1.76.71 1.77.68 3-.82l6.86-8.11a.75.75 0 0 0 -.16-1.28c-1.94-1.37-3.89-2.71-5.82-4.08a.93.93 0 0 0 -1.28 0c-2.67 1.85-5.3 3.8-8.11 5.41a42.39 42.39 0 0 1 -6.61 2.79 37.54 37.54 0 0 1 -5.53 1.71 25 25 0 0 1 -9.7.4c-1.29-.25-2.6-.42-3.85-.79-3.1-.9-5.94-2.25-7.71-5.15a8.67 8.67 0 0 1 -.64-7.34c1.32-4.36 4.64-6.76 8.48-8.53a24.3 24.3 0 0 1 7.45-2.17 68.82 68.82 0 0 1 8.41-.91 28.13 28.13 0 0 1 9.43 1.49c2.19.79 4.36 1.66 6.53 2.49a1.15 1.15 0 0 0 1.45-.35c2-2.42 3.91-4.85 5.94-7.21a68.57 68.57 0 0 1 12.86-11.82 49.63 49.63 0 0 1 7.44-4.37 43.71 43.71 0 0 1 6.92-2.14 24.08 24.08 0 0 1 8.79-.39 26.14 26.14 0 0 1 8.85 2.38.74.74 0 0 1 .38 1.13c-1 1.64-2 3.28-3.07 4.84-.19.27-.88.31-1.31.24a43.67 43.67 0 0 0 -5.72-.93 34.55 34.55 0 0 0 -6.55.71 29.67 29.67 0 0 0 -4.73 1.42 32.61 32.61 0 0 0 -8.58 4.75 55.64 55.64 0 0 0 -11.21 12c-.89 1.22-1.84 2.41-2.79 3.59-.46.57-.45 1 .22 1.38q3 1.92 6 3.91a1.09 1.09 0 0 0 1.45-.12c2.91-2.14 5.79-4.34 8.91-6.18a28.3 28.3 0 0 1 9.92-3.57 29.47 29.47 0 0 1 8.38-.24c3.81.45 7.56 1.28 10.77 3.6 2.57 1.87 4.2 4.33 4 7.6a9.15 9.15 0 0 1 -3.23 6.28 22.62 22.62 0 0 1 -9.18 5 35.42 35.42 0 0 1 -12.66 1.61 43.83 43.83 0 0 1 -6.92-1.06c-2.36-.54-4.65-1.34-7-2a12.27 12.27 0 0 1 -1.59-.64 1.16 1.16 0 0 0 -1.58.37l-4.75 6c-.89 1.12-1.76 2.25-2.65 3.37-.61.76-.6 1 .19 1.46 2.74 1.75 5.41 3.65 8.26 5.19a62.27 62.27 0 0 0 7.9 3.44 26.91 26.91 0 0 0 11.21 1.53 33 33 0 0 0 11.11-2.31l.3-.16c1.21-.68 1.54-.64 2.32.5s1.72 2.56 2.56 3.85a1 1 0 0 1 -.43 1.56 31.37 31.37 0 0 1 -8.5 3.29 33 33 0 0 1 -8.68 1zm-40.05-42.5a3.33 3.33 0 0 0 -.81-.67 27.79 27.79 0 0 0 -9.78-1.83c-1.31 0-2.62.21-3.93.3a25.93 25.93 0 0 0 -8.71 2.07 9 9 0 0 0 -4.47 3.63 1.49 1.49 0 0 0 .17 2 6.55 6.55 0 0 0 2.45 1.44 22.28 22.28 0 0 0 9.13-.07 71.24 71.24 0 0 0 9-2.83 23.81 23.81 0 0 0 6.95-4.04zm.3 25.5c-.48-.4-.68-.67-.94-.77a24.91 24.91 0 0 0 -9-1.83 31.39 31.39 0 0 0 -13.49 2.35 10.07 10.07 0 0 0 -4 3c-.49.63-1.18 1.38-.64 2.23a3.69 3.69 0 0 0 1.7 1.46 15.51 15.51 0 0 0 3.65.7 25.09 25.09 0 0 0 9.25-.92 68.67 68.67 0 0 0 8-3 57.09 57.09 0 0 0 5.47-3.22zm40.11-16 3.5-.39a25.55 25.55 0 0 0 9.57-2.64c1-.53 2-1.19 2.12-2.4s-.83-1.61-1.63-2.13a3.88 3.88 0 0 0 -.46-.22 11.88 11.88 0 0 0 -5.18-1 29.52 29.52 0 0 0 -12.03 2.07 34.3 34.3 0 0 0 -7 3.76.91.91 0 0 0 -.38.64c0 .17.29.41.5.47a37.15 37.15 0 0 0 10.99 1.84z" fill="#fbec01" stroke="#000" stroke-miterlimit="10" stroke-width="2.66"/></svg>