<svg viewBox="0 0 141 145" xmlns="http://www.w3.org/2000/svg"><rect fill="#dedede" height="145" rx="14" width="141"/><rect fill="#fff" height="123" rx="7" width="119" x="11" y="12"/><path d="m99.18 111.12h-1.67a5.11 5.11 0 0 1 -2.36-.52c-1.31-.66-2.74-1.1-4-1.85a19 19 0 0 1 -4.82-4.34c-1.46-1.8-2.88-3.64-4.24-5.52a51.21 51.21 0 0 1 -2.89-4.54 19.11 19.11 0 0 1 -1.2-2.95c-.46-1.22-.88-2.45-1.3-3.68a4.77 4.77 0 0 1 -.21-1 .83.83 0 0 0 -.8-.87 41.37 41.37 0 0 0 -7.46-.38c-.51 0-1 .07-1.55.09-1.54.06-1.83.3-2.31 1.78s-1 3-1.57 4.49-1.26 2.72-2 4-1.34 2.39-2.08 3.54a32.31 32.31 0 0 1 -8.37 8.8 14.17 14.17 0 0 1 -2.74 1.4c-.9.4-1.8.83-2.71 1.21a3.88 3.88 0 0 1 -1.19.31c-1 .06-2.11 0-3.17.07a6.91 6.91 0 0 1 -4.34-1.52 8.22 8.22 0 0 1 -2.57-2.34 9.92 9.92 0 0 1 -1.54-5.18 12.37 12.37 0 0 1 .59-4.36 18.63 18.63 0 0 1 1.24-2.76 25 25 0 0 1 5.77-7 50.89 50.89 0 0 1 4.18-3.26 37.74 37.74 0 0 1 4.33-2.92 16.19 16.19 0 0 1 4.2-1.93 17.58 17.58 0 0 0 1.71-.7c.89-.19 1.89-.48 2.81-.69s1.08-.43 1.08-1.32c0-2.75.06-5.5.14-8.24 0-1.28-.59-1.9-1.89-2.15a17.93 17.93 0 0 1 -2.15-.69c-.12 0-.22-.12-.33-.15a15 15 0 0 1 -4-1.58c-1.34-.72-2.77-1.37-4.07-2.16a33.07 33.07 0 0 1 -8.39-7.06 39.57 39.57 0 0 1 -2.89-3.92c-.53-.82-.75-1.82-1.23-2.68a11.17 11.17 0 0 1 -1-4.32 8.08 8.08 0 0 1 .58-4.11 10 10 0 0 1 4.27-4.89 8.29 8.29 0 0 1 5.16-1.34 13.66 13.66 0 0 1 4.69 1.27 26.17 26.17 0 0 1 3.75 2.24 34.14 34.14 0 0 1 6.36 6.4c.91 1.16 1.79 2.34 2.6 3.56a38.81 38.81 0 0 1 2.1 3.64 36.54 36.54 0 0 1 1.63 3.67c.49 1.23.88 2.5 1.31 3.76a.94.94 0 0 1 .07.22c.1 1.35.29 1.35 1.71 1.35q4.36 0 8.73 0c1.07 0 1.1-.12 1.4-1.13.38-1.29.88-2.54 1.35-3.8.37-1 .75-2 1.15-3.05a15.91 15.91 0 0 1 .68-1.45c.54-1 1.07-2 1.66-3a37.48 37.48 0 0 1 4.07-5.57 28.12 28.12 0 0 1 4.71-4.28 27.17 27.17 0 0 1 3-2.06 22.42 22.42 0 0 1 3.57-1.4 12 12 0 0 1 2.46-.47 5.6 5.6 0 0 1 1.46.17c.35.06.7.18 1 .26a8.71 8.71 0 0 1 5.37 3.78c.45.66.85 1.37 1.26 2.07a1.82 1.82 0 0 1 .2.55 14 14 0 0 1 .13 4.88 1 1 0 0 0 0 .17 10.6 10.6 0 0 1 -1.5 4.59 25.09 25.09 0 0 1 -4.48 6 26.88 26.88 0 0 1 -3.43 2.85c-1.27 1-2.54 2-3.87 2.87s-2.54 1.55-3.84 2.28c-.81.46-1.65.86-2.47 1.29a2.3 2.3 0 0 1 -.32.15c-1.36.38-2.72.72-4.07 1.12s-1.71.73-1.73 2v8.38a1.21 1.21 0 0 0 1 1.26c1.3.43 2.58.9 3.87 1.36a25.38 25.38 0 0 1 2.44.9c1.06.49 2.08 1 3.09 1.64 1.51.88 3 1.78 4.47 2.72a23.57 23.57 0 0 1 5 4.39 58.74 58.74 0 0 1 3.9 5.1 15.3 15.3 0 0 1 1.32 2.57c1.13 2.43.85 5 .55 7.51a6.48 6.48 0 0 1 -1.08 2.29 5.24 5.24 0 0 1 -1.24 1.58c-1 .75-2.09 1.34-3.13 2a3.56 3.56 0 0 1 -2.15.57c-.58 0-1.16 0-1.74 0zm2.08-66.73c0-1.73-1.08-2.67-2.68-2.33a6.54 6.54 0 0 0 -2.21.82 22.72 22.72 0 0 0 -3.37 2.69 45.31 45.31 0 0 0 -3.89 4.43 31.24 31.24 0 0 0 -2.23 3.63c-.37.67-.64 1.4-1 2.1a5.75 5.75 0 0 0 -.41.92c-.2.71.2 1.12.89.91a11.74 11.74 0 0 0 2.22-.81 38.4 38.4 0 0 0 4.42-2.58 41.81 41.81 0 0 0 4.47-3.83 21.74 21.74 0 0 0 2.89-3.46 3.39 3.39 0 0 0 .9-2.49zm-61.62 56.61c0 1.66 1.3 2.91 2.44 2.6a15.94 15.94 0 0 0 2.59-1 6.41 6.41 0 0 0 1.37-.94 35.55 35.55 0 0 0 3.11-2.77 33.67 33.67 0 0 0 4.33-5.73 37.55 37.55 0 0 0 2-4.23c.29-.7-.07-1.09-.79-.87a21.19 21.19 0 0 0 -3 1.09 18.5 18.5 0 0 0 -2.7 1.61c-1.2.84-2.37 1.73-3.51 2.65a20.58 20.58 0 0 0 -5.14 5.89 10.24 10.24 0 0 0 -.7 1.7zm61.61.38.16-.07c-.25-.59-.47-1.19-.76-1.75a12.19 12.19 0 0 0 -1.28-2.19 26.72 26.72 0 0 0 -4.53-4.55q-2.19-1.6-4.46-3.07a12.79 12.79 0 0 0 -2-.91 14.63 14.63 0 0 0 -1.94-.74.93.93 0 0 0 -.82.21 1.08 1.08 0 0 0 0 .88c.4 1 .86 1.91 1.33 2.84a14.41 14.41 0 0 0 1.28 2.27c1.24 1.67 2.56 3.28 3.87 4.9a14.75 14.75 0 0 0 3.62 3.15 12.59 12.59 0 0 0 2.36 1.08 2.22 2.22 0 0 0 3.17-2.04zm-59.2-59.33c-1.46-.2-2.67 1.36-2.31 2.38a20.37 20.37 0 0 0 1.3 2.9 9.86 9.86 0 0 0 1.17 1.51 25.93 25.93 0 0 0 5.79 5.39 14.72 14.72 0 0 0 5.27 2.77c.09 0 .17.11.26.14a8.87 8.87 0 0 0 1.29.43c.63.1.91-.28.66-.87-.39-.94-.77-1.89-1.22-2.81a20.86 20.86 0 0 0 -1.41-2.48 33.51 33.51 0 0 0 -2.2-3 22.26 22.26 0 0 0 -5.91-5.41 4.38 4.38 0 0 0 -2.69-.95zm28.57 35.31h3.34a1.29 1.29 0 0 0 1.23-1.7 2 2 0 0 1 -.14-.52c0-1.85 0-3.7.06-5.55 0-.93-.11-1.2-1-1.2h-6.86c-1.12 0-1.4.28-1.41 1.43v5.91c0 1.24.67 1.62 1.69 1.62s2.05.01 3.09.01z" fill="#01da3f" stroke="#000" stroke-miterlimit="10" stroke-width="2.66"/></svg>