<svg viewBox="0 0 141 145" xmlns="http://www.w3.org/2000/svg" xmlns:xlink="http://www.w3.org/1999/xlink"><clipPath id="a"><path d="m18.53 20.58h103.93v103.84h-103.93z"/></clipPath><rect fill="#dedede" height="145" rx="14" width="141"/><rect fill="#fff" height="123" rx="7" width="119" x="11" y="12"/><path d="m82.91 84.63h38.58v38.81h-38.58z" fill="#01da3f"/><path d="m83.89 85.61h36.62v36.85h-36.62zm-2 38.81h40.54v-40.77h-40.5z"/><path d="m19.51 21.56h38.83v38.85h-38.83z" fill="#01da3f"/><path d="m20.49 22.54h36.87v36.9h-36.87zm-2 38.85h40.83v-40.81h-40.79z"/><g clip-path="url(#a)"><path d="m70.49 84.13a11.53 11.53 0 0 1 -8.2-3.43 11.85 11.85 0 0 1 -3.29-8.53 11.48 11.48 0 0 1 11.4-11.27h.15a11.62 11.62 0 1 1 .35 23.23z" fill="#01da3f"/><path d="m70.41 59.92v2h.13a10.75 10.75 0 0 1 10.77 10.69v.11a10.63 10.63 0 0 1 -10.72 10.43h-.09a10.55 10.55 0 0 1 -7.5-3.15 10.88 10.88 0 0 1 -3.05-7.83 10.48 10.48 0 0 1 10.45-10.29zm0 0a12.6 12.6 0 1 0 .08 25.19h.1a12.6 12.6 0 1 0 .2-25.19h-.39"/></g></svg>