<svg viewBox="0 0 141 145" xmlns="http://www.w3.org/2000/svg"><rect fill="#dedede" height="145" rx="14" width="141"/><rect fill="#fff" height="123" rx="7" width="119" x="11" y="12"/><path d="m75.88 118.15v-1.23l-.07 1.27a2.06 2.06 0 0 1 -1.12-.25l-.37-.23c-3.31-2-6.73-4.08-9.51-7.07a14.58 14.58 0 0 1 -3.39-5.41 10 10 0 0 1 2.67-10.31 2.34 2.34 0 0 0 .41-.42 3.67 3.67 0 0 0 -.32-.5 10.91 10.91 0 0 1 -2.29-4.63 1.18 1.18 0 0 0 -.44-.54 21.44 21.44 0 0 1 -8.2-8.48c-.12-.21-.22-.37-.3-.49-.13.07-.3.18-.5.31l-.45.23a8.14 8.14 0 0 1 -3.61 1.6 11 11 0 0 1 -1.26.07 7.31 7.31 0 0 1 -6.27-3.23l-.11-.16a3.52 3.52 0 0 1 -.39-.56 3 3 0 0 0 -2.86-1.77 6.83 6.83 0 0 0 -1.41.17 37 37 0 0 0 -8.51 2.95 2.13 2.13 0 0 1 -1 .21h-.4-1.71l.23-1.5a.76.76 0 0 0 0-.15 2.35 2.35 0 0 1 .3-1.17l1.05-1.65c1.1-1.7 2.22-3.47 3.46-5.14a19.84 19.84 0 0 1 6.67-5.94 9.66 9.66 0 0 1 4.45-1 9.19 9.19 0 0 1 7.56 3.47l.1.14.13-.1a15.72 15.72 0 0 1 5.3-2.92c.08-.11.19-.29.23-.36a20.65 20.65 0 0 1 8.76-8.19l.4-.21a3.19 3.19 0 0 0 -.22-.29 8.49 8.49 0 0 1 -1.45-8.36 6.37 6.37 0 0 1 2.84-3.42c2.12-1.25 2.66-2.75 2-5.35a37.41 37.41 0 0 0 -2.86-7.89 2.43 2.43 0 0 1 -.22-1.27c0-.06 0-.12 0-.17l-.09-1.5 1.49.16h.15a2.24 2.24 0 0 1 1.16.26c3.94 2.23 8 4.84 11.16 8.73 1.4 1.72 2.94 4.08 2.61 7.11a8.18 8.18 0 0 1 -3.24 7.36l-.2.16.15.29a5.46 5.46 0 0 0 .36.48 6 6 0 0 1 .61.89c.28.51.53 1 .78 1.54s.52 1.06.8 1.57a3.41 3.41 0 0 0 .5.77c3.33 1.6 5.93 4.23 8.15 8.29l.12.2a3.68 3.68 0 0 1 .44.91l.3-.17c.24-.14.47-.3.71-.46a9.64 9.64 0 0 1 2.07-1.16 7.41 7.41 0 0 1 2.55-.45 7.67 7.67 0 0 1 5.92 2.81l.15.18a11 11 0 0 1 .9 1.2 2.83 2.83 0 0 0 2.66 1.54 5.32 5.32 0 0 0 .94-.09 33.74 33.74 0 0 0 9.17-3.07 2.24 2.24 0 0 1 1-.2h.48l1.57-.08-.26 1.52s0 .12 0 .18a2.47 2.47 0 0 1 -.34 1.24c-.36.53-.71 1.07-1.06 1.61-1.18 1.8-2.4 3.66-3.73 5.42a17.73 17.73 0 0 1 -7.33 6 9.18 9.18 0 0 1 -3.56.69 9.73 9.73 0 0 1 -7.18-3.09 5.74 5.74 0 0 0 -.55-.56 6 6 0 0 0 -.53.38 12.25 12.25 0 0 1 -4.63 2.35 1.48 1.48 0 0 0 -.19.21c-2.07 3.39-5.13 6.14-9.62 8.64l.21.3.8 1.17a7.48 7.48 0 0 1 -1.72 10.21l-.58.44a9.37 9.37 0 0 0 -1.58 1.35c-.9 1.05-.75 2.32-.19 4.16s1.14 3.41 1.74 5.07c.34.94.68 1.88 1 2.83a2.27 2.27 0 0 1 0 1.17.88.88 0 0 1 0 .16l-.07 1.31z" fill="#fbec01"/><path d="m64.47 28.11a2.34 2.34 0 0 1 .81.1c4 2.28 7.86 4.79 10.8 8.43 1.51 1.86 2.62 3.87 2.32 6.28a6.92 6.92 0 0 1 -2.73 6.38c-.89.67-.93 1.16-.37 2.11.28.46.69.85.94 1.33.56 1 1 2.1 1.58 3.11a3 3 0 0 0 1 1.29 17.23 17.23 0 0 1 7.63 7.77 5.28 5.28 0 0 1 .46.88c.23.75.58 1 1 1a2.51 2.51 0 0 0 1.19-.46 15.9 15.9 0 0 1 2.56-1.51 6 6 0 0 1 2.11-.38 6.41 6.41 0 0 1 4.92 2.34 10.73 10.73 0 0 1 .96 1.22 4.09 4.09 0 0 0 3.76 2.16 7.78 7.78 0 0 0 1.15-.1 36.16 36.16 0 0 0 9.5-3.18 1.08 1.08 0 0 1 .44-.08h.55a2.43 2.43 0 0 1 -.17.92c-1.55 2.34-3 4.73-4.73 7a16.57 16.57 0 0 1 -6.8 5.57 8.09 8.09 0 0 1 -3.08.6 8.43 8.43 0 0 1 -6.27-2.68c-.61-.68-1-1-1.46-1a2.45 2.45 0 0 0 -1.35.68 11.09 11.09 0 0 1 -4.13 2.11 1.79 1.79 0 0 0 -1 .77 23.73 23.73 0 0 1 -9.06 8.23c-.93.51-1 1-.44 1.88.33.47.66.94 1 1.42a6.23 6.23 0 0 1 -1.42 8.5 15.61 15.61 0 0 0 -2.36 2c-1.4 1.64-1 3.57-.44 5.37.82 2.67 1.85 5.29 2.77 7.93a2.48 2.48 0 0 1 0 .85h-.3a.76.76 0 0 1 -.38-.07c-3.41-2.07-6.85-4.11-9.6-7.08a13.27 13.27 0 0 1 -3.12-4.94 8.79 8.79 0 0 1 2.32-9c1.07-1 1.11-1.46.25-2.63a9.65 9.65 0 0 1 -2-4.09 2.4 2.4 0 0 0 -1.28-1.48c-3.45-1.83-5.76-4.73-7.7-8-.51-.87-.79-1.26-1.21-1.26a3.14 3.14 0 0 0 -1.37.66 8.09 8.09 0 0 1 -3.48 1.66 8.48 8.48 0 0 1 -1.11.07 6 6 0 0 1 -5.23-2.7 5.79 5.79 0 0 1 -.42-.59 4.22 4.22 0 0 0 -4-2.43 7.76 7.76 0 0 0 -1.68.2 37.62 37.62 0 0 0 -8.8 3 .91.91 0 0 1 -.41.08c-.2 0-.42 0-.62 0a2.29 2.29 0 0 1 .16-.81c1.44-2.25 2.87-4.54 4.44-6.71a18.46 18.46 0 0 1 6.24-5.57 8.41 8.41 0 0 1 3.86-.87 8 8 0 0 1 6.53 2.94c.39.54.67.81 1 .81a2 2 0 0 0 1-.5 14.16 14.16 0 0 1 5.05-2.76c.33-.08.61-.56.82-.91a19.19 19.19 0 0 1 8.23-7.68c1.42-.73 1.58-1.17.61-2.42a7.24 7.24 0 0 1 -1.26-7.17 5 5 0 0 1 2.35-2.7c2.72-1.61 3.35-3.78 2.53-6.79a39.16 39.16 0 0 0 -3-8.15 2.31 2.31 0 0 1 -.06-.92m-2.71-2.84.16 2.95v.08a3.59 3.59 0 0 0 .37 1.93 37 37 0 0 1 2.71 7.59c.63 2.28.06 3.09-1.36 3.93a7.56 7.56 0 0 0 -3.41 4.1 9.73 9.73 0 0 0 1 8.62 21.67 21.67 0 0 0 -8.35 8.12 16.36 16.36 0 0 0 -4.34 2.38 10.74 10.74 0 0 0 -7.87-3.13 10.85 10.85 0 0 0 -5 1.16 21 21 0 0 0 -7.11 6.32c-1.29 1.65-2.43 3.45-3.56 5.17-.35.55-.7 1.1-1.06 1.64a3.69 3.69 0 0 0 -.53 1.73v.11l-.51 3 3.1-.09h.1.5a3.47 3.47 0 0 0 1.53-.33 35.67 35.67 0 0 1 8.21-2.85 5.12 5.12 0 0 1 1.15-.14 1.7 1.7 0 0 1 1.74 1.09 4.75 4.75 0 0 0 .51.75.86.86 0 0 0 .07.1 8.65 8.65 0 0 0 7.31 3.78 11.49 11.49 0 0 0 1.41-.09 9 9 0 0 0 4-1.65 22.24 22.24 0 0 0 8.15 8.23 11.91 11.91 0 0 0 2.16 4.48 11.36 11.36 0 0 0 -2.64 11.28 15.82 15.82 0 0 0 3.67 5.88c2.9 3.11 6.4 5.24 9.78 7.29l.35.27a3.22 3.22 0 0 0 1.7.44h.13l2.57.23.14-2.63a3.54 3.54 0 0 0 -.11-1.78c-.33-.95-.67-1.9-1-2.85-.62-1.71-1.21-3.33-1.72-5-.58-1.89-.48-2.48-.07-3a8.56 8.56 0 0 1 1.36-1.17c.2-.15.41-.3.6-.46a8.81 8.81 0 0 0 2-11.91l-.24-.36a25.24 25.24 0 0 0 8.76-8.16 13.54 13.54 0 0 0 4.26-2.17 11.1 11.1 0 0 0 7.88 3.24 10.37 10.37 0 0 0 4-.79 18.91 18.91 0 0 0 7.86-6.39c1.35-1.79 2.58-3.66 3.77-5.48l1.11-1.61a3.59 3.59 0 0 0 .55-1.86v-.1l.5-3.11-3.15.2h-.42a3.53 3.53 0 0 0 -1.52.31 32.88 32.88 0 0 1 -8.83 3 5.12 5.12 0 0 1 -.74.06 1.56 1.56 0 0 1 -1.57-.91 10.84 10.84 0 0 0 -1-1.37l-.14-.18a9 9 0 0 0 -6.89-3.26 8.5 8.5 0 0 0 -3 .54 10.26 10.26 0 0 0 -2.14 1.16c-2.28-4.13-5-6.87-8.39-8.6-.07-.1-.14-.23-.19-.32v-.06c-.26-.47-.5-1-.76-1.51s-.52-1-.81-1.58a5.55 5.55 0 0 0 -.54-.82 9.4 9.4 0 0 0 3.04-7.74c.33-3.5-1.48-6.2-2.9-8-3.32-4-7.51-6.7-11.56-9a3.51 3.51 0 0 0 -1.78-.42h-.07l-2.93-.31z"/><path d="m75.88 118.15v-1.23l-.07 1.27a2.06 2.06 0 0 1 -1.12-.25l-.37-.23c-3.31-2-6.73-4.08-9.51-7.07a14.58 14.58 0 0 1 -3.39-5.41 10 10 0 0 1 2.67-10.31 2.34 2.34 0 0 0 .41-.42 3.67 3.67 0 0 0 -.32-.5 10.91 10.91 0 0 1 -2.29-4.63 1.18 1.18 0 0 0 -.44-.54 21.44 21.44 0 0 1 -8.2-8.48c-.12-.21-.22-.37-.3-.49-.13.07-.3.18-.5.31l-.45.23a8.14 8.14 0 0 1 -3.61 1.6 11 11 0 0 1 -1.26.07 7.31 7.31 0 0 1 -6.27-3.23l-.11-.16a3.52 3.52 0 0 1 -.39-.56 3 3 0 0 0 -2.86-1.77 6.83 6.83 0 0 0 -1.41.17 37 37 0 0 0 -8.51 2.95 2.13 2.13 0 0 1 -1 .21h-.4-1.71l.23-1.5a.76.76 0 0 0 0-.15 2.35 2.35 0 0 1 .3-1.17l1.05-1.65c1.1-1.7 2.22-3.47 3.46-5.14a19.84 19.84 0 0 1 6.67-5.94 9.66 9.66 0 0 1 4.45-1 9.19 9.19 0 0 1 7.56 3.47l.1.14.13-.1a15.72 15.72 0 0 1 5.3-2.92c.08-.11.19-.29.23-.36a20.65 20.65 0 0 1 8.76-8.19l.4-.21a3.19 3.19 0 0 0 -.22-.29 8.49 8.49 0 0 1 -1.45-8.36 6.37 6.37 0 0 1 2.84-3.42c2.12-1.25 2.66-2.75 2-5.35a37.41 37.41 0 0 0 -2.86-7.89 2.43 2.43 0 0 1 -.22-1.27c0-.06 0-.12 0-.17l-.09-1.5 1.49.16h.15a2.24 2.24 0 0 1 1.16.26c3.94 2.23 8 4.84 11.16 8.73 1.4 1.72 2.94 4.08 2.61 7.11a8.18 8.18 0 0 1 -3.24 7.36l-.2.16.15.29a5.46 5.46 0 0 0 .36.48 6 6 0 0 1 .61.89c.28.51.53 1 .78 1.54s.52 1.06.8 1.57a3.41 3.41 0 0 0 .5.77c3.33 1.6 5.93 4.23 8.15 8.29l.12.2a3.68 3.68 0 0 1 .44.91l.3-.17c.24-.14.47-.3.71-.46a9.64 9.64 0 0 1 2.07-1.16 7.41 7.41 0 0 1 2.55-.45 7.67 7.67 0 0 1 5.92 2.81l.15.18a11 11 0 0 1 .9 1.2 2.83 2.83 0 0 0 2.66 1.54 5.32 5.32 0 0 0 .94-.09 33.74 33.74 0 0 0 9.17-3.07 2.24 2.24 0 0 1 1-.2h.48l1.57-.08-.26 1.52s0 .12 0 .18a2.47 2.47 0 0 1 -.34 1.24c-.36.53-.71 1.07-1.06 1.61-1.18 1.8-2.4 3.66-3.73 5.42a17.73 17.73 0 0 1 -7.33 6 9.18 9.18 0 0 1 -3.56.69 9.73 9.73 0 0 1 -7.18-3.09 5.74 5.74 0 0 0 -.55-.56 6 6 0 0 0 -.53.38 12.25 12.25 0 0 1 -4.63 2.35 1.48 1.48 0 0 0 -.19.21c-2.07 3.39-5.13 6.14-9.62 8.64l.21.3.8 1.17a7.48 7.48 0 0 1 -1.72 10.21l-.58.44a9.37 9.37 0 0 0 -1.58 1.35c-.9 1.05-.75 2.32-.19 4.16s1.14 3.41 1.74 5.07c.34.94.68 1.88 1 2.83a2.27 2.27 0 0 1 0 1.17.88.88 0 0 1 0 .16l-.07 1.31z" fill="#fbec01"/><path d="m64.47 28.11a2.34 2.34 0 0 1 .81.1c4 2.28 7.86 4.79 10.8 8.43 1.51 1.86 2.62 3.87 2.32 6.28a6.92 6.92 0 0 1 -2.73 6.38c-.89.67-.93 1.16-.37 2.11.28.46.69.85.94 1.33.56 1 1 2.1 1.58 3.11a3 3 0 0 0 1 1.29 17.23 17.23 0 0 1 7.63 7.77 5.28 5.28 0 0 1 .46.88c.23.74.58 1 1 1a2.51 2.51 0 0 0 1.19-.46 15.9 15.9 0 0 1 2.56-1.51 6 6 0 0 1 2.11-.38 6.41 6.41 0 0 1 4.92 2.34 10.73 10.73 0 0 1 .96 1.22 4.09 4.09 0 0 0 3.76 2.16 7.78 7.78 0 0 0 1.15-.1 36.16 36.16 0 0 0 9.5-3.18 1.08 1.08 0 0 1 .44-.08h.55a2.43 2.43 0 0 1 -.17.92c-1.55 2.34-3 4.73-4.73 7a16.57 16.57 0 0 1 -6.8 5.57 8.12 8.12 0 0 1 -3.08.6 8.43 8.43 0 0 1 -6.27-2.68c-.61-.68-1-1-1.46-1a2.45 2.45 0 0 0 -1.35.68 11.09 11.09 0 0 1 -4.13 2.11 1.79 1.79 0 0 0 -1 .77 23.73 23.73 0 0 1 -9.06 8.23c-.93.51-1 1-.44 1.88.33.47.66.94 1 1.42a6.23 6.23 0 0 1 -1.42 8.5 15.61 15.61 0 0 0 -2.36 2c-1.4 1.64-1 3.57-.44 5.37.82 2.67 1.85 5.29 2.77 7.93a2.48 2.48 0 0 1 0 .85h-.3a.76.76 0 0 1 -.38-.07c-3.41-2.07-6.85-4.11-9.6-7.08a13.27 13.27 0 0 1 -3.12-4.94 8.79 8.79 0 0 1 2.32-9c1.07-1 1.11-1.46.25-2.63a9.65 9.65 0 0 1 -2-4.09 2.4 2.4 0 0 0 -1.28-1.48c-3.45-1.83-5.76-4.73-7.7-8-.51-.87-.79-1.26-1.21-1.26a3.14 3.14 0 0 0 -1.37.66 8.09 8.09 0 0 1 -3.48 1.66 8.48 8.48 0 0 1 -1.11.07 6 6 0 0 1 -5.23-2.7 5.79 5.79 0 0 1 -.42-.59 4.22 4.22 0 0 0 -4-2.43 7.76 7.76 0 0 0 -1.68.2 37.62 37.62 0 0 0 -8.8 3 .91.91 0 0 1 -.41.08c-.2 0-.42 0-.62 0a2.29 2.29 0 0 1 .16-.81c1.44-2.25 2.87-4.54 4.44-6.71a18.46 18.46 0 0 1 6.24-5.57 8.41 8.41 0 0 1 3.86-.87 8 8 0 0 1 6.53 2.94c.39.54.67.81 1 .81a2 2 0 0 0 1-.5 14.16 14.16 0 0 1 5.05-2.76c.33-.08.61-.56.82-.91a19.19 19.19 0 0 1 8.23-7.68c1.42-.73 1.58-1.17.61-2.42a7.24 7.24 0 0 1 -1.26-7.17 5 5 0 0 1 2.35-2.7c2.72-1.61 3.35-3.78 2.53-6.79a39.16 39.16 0 0 0 -3-8.15 2.31 2.31 0 0 1 -.06-.92m-2.71-2.84.16 2.95v.08a3.59 3.59 0 0 0 .37 1.93 37 37 0 0 1 2.71 7.59c.63 2.28.06 3.09-1.36 3.93a7.56 7.56 0 0 0 -3.41 4.1 9.73 9.73 0 0 0 1 8.62 21.67 21.67 0 0 0 -8.35 8.12 16.36 16.36 0 0 0 -4.34 2.38 10.74 10.74 0 0 0 -7.87-3.13 10.85 10.85 0 0 0 -5 1.16 21 21 0 0 0 -7.11 6.32c-1.29 1.65-2.43 3.45-3.56 5.17-.35.55-.7 1.1-1.06 1.64a3.69 3.69 0 0 0 -.53 1.73v.11l-.51 3 3.1-.09h.1.5a3.47 3.47 0 0 0 1.53-.33 35.67 35.67 0 0 1 8.21-2.85 5.12 5.12 0 0 1 1.15-.14 1.7 1.7 0 0 1 1.74 1.09 4.75 4.75 0 0 0 .51.75.86.86 0 0 0 .07.1 8.65 8.65 0 0 0 7.31 3.78 11.49 11.49 0 0 0 1.41-.09 9 9 0 0 0 4-1.65 22.24 22.24 0 0 0 8.15 8.23 11.91 11.91 0 0 0 2.16 4.48 11.36 11.36 0 0 0 -2.64 11.28 15.82 15.82 0 0 0 3.67 5.88c2.9 3.11 6.4 5.24 9.78 7.29l.35.27a3.22 3.22 0 0 0 1.7.44h.13l2.57.23.14-2.63a3.54 3.54 0 0 0 -.11-1.78c-.33-.95-.67-1.9-1-2.85-.62-1.71-1.21-3.33-1.72-5-.58-1.89-.48-2.48-.07-3a8.56 8.56 0 0 1 1.36-1.17c.2-.15.41-.3.6-.46a8.81 8.81 0 0 0 2-11.91l-.24-.36a25.24 25.24 0 0 0 8.76-8.16 13.54 13.54 0 0 0 4.26-2.17 11.1 11.1 0 0 0 7.88 3.24 10.37 10.37 0 0 0 4-.79 18.91 18.91 0 0 0 7.86-6.39c1.35-1.79 2.58-3.66 3.77-5.48l1.11-1.61a3.59 3.59 0 0 0 .55-1.86v-.1l.5-3.11-3.15.2h-.42a3.53 3.53 0 0 0 -1.52.31 32.88 32.88 0 0 1 -8.83 3 5.12 5.12 0 0 1 -.74.06 1.56 1.56 0 0 1 -1.57-.91 10.84 10.84 0 0 0 -1-1.37l-.14-.18a9 9 0 0 0 -6.89-3.26 8.5 8.5 0 0 0 -3 .54 10.26 10.26 0 0 0 -2.14 1.16c-2.28-4.13-5-6.87-8.39-8.6-.07-.1-.14-.23-.19-.32v-.06c-.26-.47-.5-1-.76-1.51s-.52-1-.81-1.58a5.55 5.55 0 0 0 -.54-.82 9.4 9.4 0 0 0 3.04-7.74c.33-3.5-1.48-6.2-2.9-8-3.32-4-7.51-6.7-11.56-9a3.51 3.51 0 0 0 -1.78-.42h-.07l-2.93-.31z"/></svg>