<svg xmlns="http://www.w3.org/2000/svg" xmlns:xlink="http://www.w3.org/1999/xlink" width="165" height="169" viewBox="0 0 165 169"><defs><filter id="a" x="0" y="0" width="165" height="169" filterUnits="userSpaceOnUse"><feOffset dy="7" input="SourceAlpha"/><feGaussianBlur stdDeviation="4" result="b"/><feFlood flood-opacity="0.651"/><feComposite operator="in" in2="b"/><feComposite in="SourceGraphic"/></filter><clipPath id="c"><rect width="107.841" height="106.369" fill="none"/></clipPath></defs><g transform="translate(11.863 4.773)"><g transform="translate(0 0)"><g transform="matrix(1, 0, 0, 1, -11.86, -4.77)" filter="url(#a)"><rect width="141" height="145" rx="14" transform="translate(12 5)" fill="#dedede"/></g><rect width="119" height="122" rx="7" transform="translate(11.137 12.227)" fill="#fff"/></g><g transform="translate(17.446 19.089)"><g clip-path="url(#c)"><path d="M102.975,106.624q-2.8-1.728-5.591-3.459-3.269-2.03-6.529-4.076c-5.358-3.353-10.9-6.82-16.426-10.11-2.6-1.55-3.42-2.982-3.015-5.284a5.38,5.38,0,0,0-.043-1.67c-.031-.239-.065-.492-.085-.763l-.058-.791-5.35-.513-.381-5.8-1.3.721c-.477.265-.99.493-1.486.713-1.234.549-2.4,1.067-2.906,2.114-.578,1.2.293,2.795,1.4,4.6l.031.05a22.769,22.769,0,0,0,2.171,2.83l.143.167a12,12,0,0,1-3.941.676c-4.414,0-8.494-2.57-10.915-6.876L48.38,78.6l-8.11,1.215-.224.409-.033.044a1.363,1.363,0,0,0-.323,1.044c.644,3.974-1.3,5.655-5.636,7.716C26.958,92.4,19.831,96,12.938,99.489q-4.012,2.028-8.028,4.047l.89-1.482c1.617-2.692,3.144-5.234,4.693-7.737q2.838-4.584,5.7-9.154c2.657-4.256,5.4-8.656,8.074-13.007a2.506,2.506,0,0,1,2.374-1.509c.094,0,.189,0,.288.008.4.024.757.05,1.085.073.694.048,1.243.086,1.7.086,2.558,0,2.642-1.5,2.8-4.232.018-.306.037-.639.059-1,.016-.239.046-.49.082-.77l4.618-.405-.265-1.067c-.07-.283-.127-.551-.183-.808a9.983,9.983,0,0,0-.45-1.646c-.471-1.181-1.283-2.751-2.9-2.751a4.181,4.181,0,0,0-2.741,1.4c-1.189,1.1-2.264,2.285-3.4,3.535l-.416.455c-1.393-5.995.353-11.575,4.823-15.157a3.316,3.316,0,0,0,1.188-2.254c.071-1.582.059-3.163.048-4.691,0-.557-.008-1.108-.008-1.652v-.511l-.428-.278c-.088-.058-.162-.116-.225-.165a1.417,1.417,0,0,0-.894-.38h-.07l-.089.012a9.559,9.559,0,0,1-1.4.111c-3.387,0-5.085-2.164-6.872-5.9C21,28.5,18.891,24.3,16.851,20.244c-2.514-5-5.1-10.151-7.549-15.391.409.238.817.479,1.216.723q4.228,2.579,8.449,5.167c6.737,4.125,13.7,8.391,20.6,12.52,1.778,1.065,2.288,1.925,2.019,3.409a4.626,4.626,0,0,0,.644,3.944,3.818,3.818,0,0,0,3.093,1.2h0a8.93,8.93,0,0,0,1.082-.071.763.763,0,0,1,.1-.006,3.923,3.923,0,0,1,.887.173l.069.019.512,5.363,1.264-.723c.487-.279,1.019-.522,1.533-.757,1.293-.591,2.513-1.149,2.984-2.254.542-1.272-.539-2.913-1.9-4.77a29.841,29.841,0,0,0-2.606-2.984,30.494,30.494,0,0,1,3.768-.256c5.347,0,8.615,1.821,11.278,6.285l.274.459H65.1c.619,0,1.211-.014,1.784-.027.522-.012,1.027-.024,1.522-.024a17.388,17.388,0,0,1,1.824.081,6.483,6.483,0,0,0,.676.038,3.006,3.006,0,0,0,2.4-.919,3.117,3.117,0,0,0,.562-2.593c-.4-2.683.85-3.776,3.8-5.209,7.258-3.526,14.58-7.222,21.66-10.8q4.37-2.206,8.742-4.4l-.982,1.612c-1.7,2.786-3.257,5.35-4.823,7.911q-1.821,2.976-3.667,5.939C95.743,28.5,92.8,33.246,90.056,38.017c-1.373,2.387-2.575,3.316-4.288,3.316a6.026,6.026,0,0,1-1.361-.173,3.691,3.691,0,0,0-.856-.086c-.192,0-.4.009-.624.02-.248.011-.524.024-.84.024h-.871l-.451,5.943-6.314.573.907,1.323c.34.5.637,1.031.925,1.547.707,1.271,1.317,2.368,2.41,2.6a2.872,2.872,0,0,0,.6.061,7.09,7.09,0,0,0,4.181-1.939,21.158,21.158,0,0,0,2.851-3.45l.008-.011c1.289,5.4-.663,12.367-4.581,15.482a3.968,3.968,0,0,0-1.273,2.7c-.092,1.426-.074,2.849-.057,4.224.006.53.013,1.054.013,1.572V72.2l.355.283c.069.055.128.113.181.163a1.343,1.343,0,0,0,.942.464h.062l.075-.009a9.154,9.154,0,0,1,1.193-.083c3.325,0,4.917,2.087,6.692,5.939,2.969,6.444,6.193,12.893,9.31,19.13q2.063,4.127,4.11,8.263c.117.238.221.468.31.7Z" transform="translate(-2.602 -2.572)" fill="#1a8f2a"/><path d="M8.881,4.694q3.517,2.148,7.03,4.3c6.727,4.119,13.682,8.378,20.568,12.5,1.641.982,1.743,1.521,1.577,2.435a5.553,5.553,0,0,0,.847,4.713,4.707,4.707,0,0,0,3.815,1.538,9.658,9.658,0,0,0,1.18-.076.561.561,0,0,1,.082.008l.063.654.248,2.592.277,2.9L47.1,34.815c.45-.258.962-.492,1.457-.718,1.4-.639,2.845-1.3,3.459-2.741.8-1.867-.758-3.99-2.006-5.694-.435-.594-.9-1.148-1.376-1.68.621-.043,1.213-.064,1.779-.064,5.033,0,7.969,1.634,10.471,5.827l.547.917H62.5c.633,0,1.229-.014,1.806-.027.525-.012,1.021-.024,1.5-.024a16.409,16.409,0,0,1,1.726.076,7.583,7.583,0,0,0,.775.042,3.891,3.891,0,0,0,3.107-1.246,4,4,0,0,0,.78-3.346c-.3-1.995.317-2.785,3.281-4.225,7.263-3.529,14.587-7.225,21.669-10.8q2.906-1.467,5.814-2.931c-1.421,2.334-2.757,4.528-4.1,6.72-1.211,1.98-2.457,3.988-3.661,5.93-2.854,4.6-5.8,9.36-8.556,14.144-1.362,2.369-2.338,2.845-3.471,2.845a5.09,5.09,0,0,1-1.147-.147,4.6,4.6,0,0,0-1.071-.112c-.2,0-.424.01-.667.021s-.507.024-.8.024H77.742l-.132,1.738-.2,2.574-.129,1.707-.729.066-3.195.29-3.195.289,1.813,2.646c.315.46.6.975.878,1.473.75,1.348,1.525,2.742,3.035,3.064a3.818,3.818,0,0,0,.795.081A7.994,7.994,0,0,0,81.5,49.35a15.106,15.106,0,0,0,1.649-1.8c.362,4.643-1.424,9.869-4.589,12.385a4.9,4.9,0,0,0-1.626,3.381c-.094,1.462-.077,2.9-.06,4.3.007.526.013,1.046.013,1.56v.908l.711.565c.045.036.082.074.116.106a2.241,2.241,0,0,0,1.592.725h.138l.124-.016a8.168,8.168,0,0,1,1.069-.075c2.835,0,4.19,1.816,5.838,5.392,2.978,6.462,6.208,12.923,9.33,19.171.99,1.979,2,4.008,3.008,6.034q-1.771-1.094-3.539-2.191Q92,97.759,88.728,95.707C83.373,92.356,77.836,88.891,72.307,85.6c-2.281-1.358-2.906-2.406-2.57-4.312a6.289,6.289,0,0,0-.037-1.955c-.031-.243-.062-.473-.079-.71L69.5,77.041l-1.579-.151-3.765-.361-.024-.374-.207-3.144-.2-2.961L61.139,71.49c-.44.244-.934.463-1.411.676-1.335.593-2.717,1.207-3.371,2.566-.848,1.759.425,3.835,1.448,5.5l.03.049a17.778,17.778,0,0,0,1.455,2,10.827,10.827,0,0,1-2.28.245c-4.07,0-7.844-2.391-10.1-6.4L46.28,75,45,75.192l-3.29.493-3.718.557-.923.138-.415.758v0a2.29,2.29,0,0,0-.491,1.748c.555,3.424-1.052,4.784-5.112,6.716-7.107,3.383-14.242,6.99-21.141,10.478-1.683.851-3.4,1.719-5.122,2.587C6.115,96.454,7.4,94.332,8.69,92.241c1.889-3.051,3.822-6.147,5.691-9.141,2.66-4.261,5.411-8.667,8.085-13.023.587-.957.946-1.061,1.572-1.061.075,0,.151,0,.231.007.394.024.752.049,1.077.072.713.049,1.275.089,1.769.089A3.236,3.236,0,0,0,30.3,67.492a9.189,9.189,0,0,0,.546-3.425c.016-.293.035-.612.056-.957l1.077-.094,1.673-.147,2.19-.192-.529-2.134c-.067-.271-.122-.529-.175-.776a10.865,10.865,0,0,0-.5-1.8c-.33-.827-1.332-3.344-3.769-3.344a5.214,5.214,0,0,0-3.381,1.65c-.907.843-1.743,1.721-2.586,2.637a13.33,13.33,0,0,1,4.818-12.381,4.261,4.261,0,0,0,1.54-2.945c.072-1.607.06-3.2.049-4.741,0-.554-.008-1.1-.008-1.644V36.177l-.858-.556c-.045-.029-.1-.07-.157-.117a2.311,2.311,0,0,0-1.472-.579h-.16l-.139.021a8.56,8.56,0,0,1-1.262.1c-2.585,0-4.106-1.355-6.025-5.368-1.995-4.169-4.105-8.368-6.146-12.429-2.06-4.1-4.17-8.295-6.209-12.557M4.614,0C9.371,10.475,14.7,20.368,19.539,30.491c1.786,3.733,3.729,6.437,7.722,6.437a10.344,10.344,0,0,0,1.541-.122h.019c.135,0,.306.2.607.394,0,2.036.056,4.172-.039,6.3a2.409,2.409,0,0,1-.837,1.563c-5.1,4.089-6.968,10.682-4.69,17.768,1.728-1.838,3.226-3.611,4.914-5.179a3.41,3.41,0,0,1,2.1-1.147c.812,0,1.448.72,2.022,2.16A19,19,0,0,1,33.493,61l-4.279.375c-.074.634-.152,1.107-.182,1.582C28.8,66.6,28.97,67.3,27.116,67.3c-.638,0-1.516-.083-2.732-.157-.119-.008-.234-.011-.345-.011a3.416,3.416,0,0,0-3.174,1.957c-4.549,7.412-9.2,14.764-13.773,22.158C4.807,94.941,2.6,98.677,0,102.973c1.094-.433,1.536-.571,1.945-.776C11.907,97.214,21.8,92.087,31.856,87.3c3.888-1.851,6.961-3.774,6.16-8.715-.024-.151.172-.338.252-.486l7.008-1.049C47.9,81.726,52.3,84.407,57.01,84.407A13.212,13.212,0,0,0,62.5,83.181,39.153,39.153,0,0,1,59.438,79.3c-.714-1.165-1.8-2.907-1.387-3.754.519-1.077,2.376-1.511,4-2.414.14,2.127.234,3.548.337,5.114l5.356.513a9.957,9.957,0,0,1,.14,2.2c-.537,3.053.917,4.741,3.46,6.255,7.723,4.6,15.3,9.435,22.941,14.176q4.019,2.5,8.047,4.977a6.2,6.2,0,0,0-.738-3c-4.489-9.116-9.158-18.147-13.41-27.371-1.683-3.653-3.5-6.486-7.546-6.486a10.013,10.013,0,0,0-1.317.092h-.014c-.126,0-.284-.222-.538-.424,0-1.855-.081-3.8.043-5.735a3.079,3.079,0,0,1,.919-2.029c4.64-3.689,6.744-12.268,4.331-18.267a35.936,35.936,0,0,1-3.828,4.816,6.2,6.2,0,0,1-3.548,1.694,1.933,1.933,0,0,1-.4-.04c-1-.214-1.641-2.137-2.755-3.762l5.509-.5.445-5.867c.6,0,1.066-.044,1.463-.044a2.768,2.768,0,0,1,.642.063,6.907,6.907,0,0,0,1.577.2c2.337,0,3.777-1.484,5.1-3.788,3.895-6.774,8.111-13.363,12.191-20.031,2.321-3.793,4.629-7.595,7.382-12.112-1.45.648-2.129.921-2.781,1.249C94.929,10.1,84.842,15.27,74.649,20.222c-2.765,1.343-4.84,2.683-4.319,6.193.248,1.669-.495,2.435-2.028,2.435a5.51,5.51,0,0,1-.579-.032,18.467,18.467,0,0,0-1.921-.086c-1.038,0-2.122.051-3.306.051-2.768-4.638-6.281-6.744-12.086-6.744a35.489,35.489,0,0,0-5.695.526,52.226,52.226,0,0,1,3.775,4.209c.857,1.171,2.17,2.964,1.794,3.847-.48,1.125-2.457,1.612-4.121,2.564-.19-1.993-.309-3.236-.438-4.581a11.007,11.007,0,0,0-1.826-.374,1.677,1.677,0,0,0-.212.013,8.015,8.015,0,0,1-.968.063c-2.386,0-3.3-1.347-2.811-4.037.391-2.161-.66-3.305-2.461-4.383C27.723,14.061,18.082,8.1,8.406,2.2,7.159,1.441,5.879.732,4.614,0"/></g></g></g></svg>