<svg viewBox="0 0 141 145" xmlns="http://www.w3.org/2000/svg"><rect fill="#dedede" height="145" rx="14" width="141"/><rect fill="#fff" height="123" rx="7" width="119" x="11" y="12"/><path d="m44.81 29.63a16.92 16.92 0 0 1 17 16.83 2.26 2.26 0 0 1 0 .26 17.19 17.19 0 0 1 -17.05 16.92 16.89 16.89 0 0 1 -17.08-16.7v-.33a16.86 16.86 0 0 1 16.75-17h.38" fill="#01da3f" stroke="#000" stroke-miterlimit="10" stroke-width="3.17"/><path d="m44.56 65.23a18.55 18.55 0 0 1 -18.47-18.23v-.4a18.47 18.47 0 0 1 18.33-18.6h.49a18.55 18.55 0 0 1 18.51 18.4v.29a18.89 18.89 0 0 1 -18.65 18.54z" fill="#01da3f"/><path d="m44.54 29.63h.37a16.92 16.92 0 0 1 16.92 16.83 1.13 1.13 0 0 1 0 .26 17.19 17.19 0 0 1 -17.07 16.92h-.2a16.88 16.88 0 0 1 -16.88-16.7v-.33a16.86 16.86 0 0 1 16.75-17h.11m0-3.17h-.13a20 20 0 0 0 -19.9 20.15v.36a20.13 20.13 0 0 0 20.05 19.86h.23a20.48 20.48 0 0 0 20.21-20.04v-.33a20.15 20.15 0 0 0 -20.1-20h-.37z"/><path d="m96.21 81.56c10.19-.4 17.13 8.44 17.11 17a17.12 17.12 0 1 1 -17.12-17" fill="#01da3f" stroke="#000" stroke-miterlimit="10" stroke-width="3.17"/><path d="m96.23 117c-10.34-.1-18.74-8.32-18.74-18.35a18.71 18.71 0 0 1 18.67-18.65h.72a17.48 17.48 0 0 1 12.43 5.19 19.08 19.08 0 0 1 5.6 13.39 18.69 18.69 0 0 1 -18.62 18.42z" fill="#01da3f"/><path d="m96.88 81.55c9.82 0 16.46 8.64 16.44 17a17 17 0 0 1 -17 16.83h-.05a16.91 16.91 0 1 1 -.08-33.81h.72m0-3.18h-.73a20.29 20.29 0 0 0 -20.28 20.22c0 10.89 9.11 19.83 20.31 19.93h.08a20.26 20.26 0 0 0 20.2-20 20.64 20.64 0 0 0 -6.06-14.54 19 19 0 0 0 -13.55-5.66z"/><path d="m63.02 65.13h14.85v14.84h-14.85z" fill="#01da3f"/><path d="m76.28 66.72v11.67h-11.67v-11.67zm3.17-3.17h-18v18h18z"/><path d="m63.02 65.13h14.85v14.84h-14.85z" fill="#01da3f"/><path d="m76.28 66.72v11.67h-11.67v-11.67zm3.17-3.17h-18v18h18z"/></svg>