<svg xmlns="http://www.w3.org/2000/svg" xmlns:xlink="http://www.w3.org/1999/xlink" width="165" height="169" viewBox="0 0 165 169"><defs><filter id="a" x="0" y="0" width="165" height="169" filterUnits="userSpaceOnUse"><feOffset dy="7" input="SourceAlpha"/><feGaussianBlur stdDeviation="4" result="b"/><feFlood flood-opacity="0.651"/><feComposite operator="in" in2="b"/><feComposite in="SourceGraphic"/></filter></defs><g transform="translate(11.863 5.037)"><g transform="translate(0 0)"><g transform="matrix(1, 0, 0, 1, -11.86, -5.04)" filter="url(#a)"><rect width="141" height="145" rx="14" transform="translate(12 5)" fill="#dedede"/></g><rect width="119" height="122" rx="7" transform="translate(11.137 11.963)" fill="#fff"/></g><g transform="translate(21.069 21.251)"><path d="M22.13,2A19.893,19.893,0,0,1,42.139,22.079,20.2,20.2,0,0,1,22.07,41.966,19.849,19.849,0,0,1,2,21.953,19.819,19.819,0,0,1,22.13,2" transform="translate(-1.999 -1.999)" fill="#f9ac04"/><path d="M22.13,2A19.893,19.893,0,0,1,42.139,22.079,20.2,20.2,0,0,1,22.07,41.966,19.849,19.849,0,0,1,2,21.953,19.819,19.819,0,0,1,22.13,2Z" transform="translate(-1.999 -1.999)" fill="none" stroke="#000" stroke-miterlimit="10" stroke-width="2"/><path d="M150.632,131.812c11.972-.475,20.132,9.918,20.109,19.95a20.014,20.014,0,0,1-20.074,19.782c-11.2-.1-20.172-8.865-20.17-19.691a20.08,20.08,0,0,1,20.135-20.041" transform="translate(-70.093 -70.783)" fill="#f9ac04"/><path d="M150.632,131.812c11.972-.475,20.132,9.918,20.109,19.95a20.014,20.014,0,0,1-20.074,19.782c-11.2-.1-20.172-8.865-20.17-19.691A20.08,20.08,0,0,1,150.632,131.812Z" transform="translate(-70.093 -70.783)" fill="none" stroke="#000" stroke-miterlimit="10" stroke-width="2"/><rect width="13.718" height="13.715" transform="translate(43.398 43.589)" fill="#f9ac04"/><rect width="13.718" height="13.715" transform="translate(43.398 43.589)" fill="none" stroke="#000" stroke-miterlimit="10" stroke-width="1.5"/></g></g></svg>