<svg viewBox="0 0 141 145" xmlns="http://www.w3.org/2000/svg"><rect fill="#dedede" height="145" rx="14" width="141"/><rect fill="#fff" height="123" rx="7" width="119" x="11" y="12"/><path d="m71.32 126.65a2.47 2.47 0 0 1 -.92-.18 2.34 2.34 0 0 1 -1.43-2.6c0-.38.11-.76.17-1.14a14.41 14.41 0 0 0 .22-1.65c.07-1 .1-2.07.14-3.11 0-.58 0-1.16.06-1.73a3 3 0 0 0 -1.11-2.39c-1.18-1.1-2.36-2.14-3.5-3.06a14.13 14.13 0 0 1 -4.24-5.23 7.8 7.8 0 0 1 -.57-2.16 11.71 11.71 0 0 1 1.27-7.4 18.64 18.64 0 0 0 1.3-2.74.07.07 0 0 0 0 0h-1a4.45 4.45 0 0 0 -1.9.29 2.59 2.59 0 0 1 -.67.18l-.42.08v.37.1 1.69a2.41 2.41 0 0 1 -2.72 2.45h-7.58a2.59 2.59 0 0 1 -2.89-2.85c0-1 0-2 0-3.06v-5.41c0-1.92.85-2.74 2.78-2.74h3.78a3 3 0 0 0 -.09-.36 9.18 9.18 0 0 1 -3.38-.8l-.35-.13a12.5 12.5 0 0 1 -3.53-2.23c-.81-.68-1.55-1.41-2.26-2.12-.47-.47-.94-.94-1.42-1.38a.56.56 0 0 0 -.39-.15 1 1 0 0 0 -.53.17l-1.45 1c-1.29.87-2.63 1.77-4 2.61a6.88 6.88 0 0 1 -3.69 1.1 7.56 7.56 0 0 1 -2.52-.44l-.28-.09a20.4 20.4 0 0 1 -4.71-2.08c-1-.64-1.9-1.36-2.78-2.06l-1.1-.85-.18-.13a3.63 3.63 0 0 1 -1.67-2.72 2.47 2.47 0 0 1 .57-1.84 2.3 2.3 0 0 1 1.72-.65h.39c2.42.15 5 .29 7.58.29.4 0 .94-.56 1.34-1 1.05-1.09 2-2.13 3-3.18l2.39-2.55a13 13 0 0 1 3.97-2.77 3 3 0 0 1 1.11-.25h.46 1.08a8.44 8.44 0 0 1 3.93.79 37.47 37.47 0 0 0 3.63 1.65 5.25 5.25 0 0 0 1.22.32 11.32 11.32 0 0 1 -.24-2.33s0-.58 0-.64h-1.17c-.4 0-.8 0-1.2 0a2.62 2.62 0 0 1 -2.73-2.89c0-2.83 0-5.67 0-8.5a2.42 2.42 0 0 1 2.33-2.68 9.26 9.26 0 0 1 1.49-.12h7.36c2.09 0 3.06 1 3.07 3q0 1.8 0 3.6a.66.66 0 0 0 .07.37.44.44 0 0 0 .15 0h.1a9.11 9.11 0 0 1 2-6.15 33.27 33.27 0 0 1 2.91-3.21c.4-.4.8-.81 1.19-1.22s.64-.66 1-1a19.76 19.76 0 0 0 -1.73-3l-.23-.3a16.48 16.48 0 0 1 -2.79-4.65 6.58 6.58 0 0 1 0-4.14c.07-.23.13-.47.18-.71s.19-.75.31-1.12a18.49 18.49 0 0 1 .93-2.26 24.07 24.07 0 0 1 3.18-5.11c.62-.73 1.27-1.44 1.91-2.15a3.21 3.21 0 0 1 2.3-.91 2.44 2.44 0 0 1 1.31.34 2.25 2.25 0 0 1 1.1 2 10.42 10.42 0 0 1 -.29 1.53v.19c-.05.19-.12.38-.18.57a.89.89 0 0 0 -.09.26c0 .44 0 .89-.07 1.34s0 1-.08 1.48 0 2.95 0 3.23c0 1.64 1.15 2.75 2.44 4l.49.49c.6.61 1.22 1.21 1.84 1.81 1 1 2.14 2.06 3.15 3.18a6.74 6.74 0 0 1 1.27 3.19 8.14 8.14 0 0 1 0 3.26 15.42 15.42 0 0 1 -.81 2.46c-.11.29-.22.57-.32.85-.17.46-.34.92-.53 1.37l-.22.51a6.46 6.46 0 0 0 -.63 1.84 8.69 8.69 0 0 1 3-.48h.08c0-.56 0-1.13 0-1.7a2.66 2.66 0 0 1 2.78-2.85h.75 7.63c1.43 0 3.08.35 3.1 3v4.83 3a2.46 2.46 0 0 1 -2.38 2.58c-.45 0-.91 0-1.36 0s-1.09 0-1.62.07a11.31 11.31 0 0 0 -1.37.25v.17a10 10 0 0 1 3.83 1 14.41 14.41 0 0 1 4.11 3.17l.1.1a38.5 38.5 0 0 0 3.12 2.82h.06a28 28 0 0 0 2.7-1.57l.41-.26c.43-.26.84-.54 1.25-.83a25.34 25.34 0 0 1 2.54-1.57 6.61 6.61 0 0 1 3-.73 7.31 7.31 0 0 1 1.3.12 18.34 18.34 0 0 1 6.77 3c1 .63 1.95 1.3 2.88 2l.65.46a3 3 0 0 1 .69 3.69 2.29 2.29 0 0 1 -2.07 1.18c-.17 0-.36 0-.56 0-.75-.07-1.47-.1-2.31-.1-.55 0-1.11 0-1.66 0a3.14 3.14 0 0 0 -.62.12 5.48 5.48 0 0 1 -1.37.21h-.23a3.64 3.64 0 0 0 -2.63 1.38c-.63.63-1.2 1.32-1.81 2.06l-.71.84a18.34 18.34 0 0 1 -5.78 4.75 9.24 9.24 0 0 1 -2.65.78l-.66.13a2.3 2.3 0 0 1 -.45 0 3.31 3.31 0 0 1 -1-.17h-.14l-.29-.07c-.48-.13-1-.26-1.5-.44s-.78-.32-1.17-.5l-.53-.24-.74-.31c-.89-.39-1.79-.77-2.69-1.13a2.5 2.5 0 0 0 -.55-.15c0 .46.11.93.18 1.41 0 .28.09.56.13.83s0 .3.06.45.08.47.1.7a.11.11 0 0 1 0 0h2.23c1.76 0 2.66.9 2.66 2.61 0 2.86 0 5.71-.07 8.57a2.56 2.56 0 0 1 -2.71 2.66c-2.82 0-5.58 0-8.38-.07a2.94 2.94 0 0 1 -3.11-3.25v-3.48a5.76 5.76 0 0 1 -.12 1.25v.23c0 .2-.09.4-.14.6a2.21 2.21 0 0 0 -.08.35 7 7 0 0 1 -1.77 3.83c-.71.81-1.46 1.58-2.19 2.32-.53.54-1.06 1.09-1.57 1.65a9.7 9.7 0 0 0 -1 1.25 12.17 12.17 0 0 0 .78 1.47c.45.69.92 1.37 1.38 2s.83 1.21 1.23 1.82a6.6 6.6 0 0 1 .8 1.67c.07.2.15.41.22.62a6.54 6.54 0 0 1 .58 2.67 9.58 9.58 0 0 1 -.7 2.88l-.25.72c-.22.69-.5 1.34-.77 2l-.09.22a14.87 14.87 0 0 1 -2.74 4.23c-.77.86-1.54 1.72-2.3 2.6a2.45 2.45 0 0 1 -1.86.94z" fill="#fbec01"/><path d="m70.47 19.88a1 1 0 0 1 .53.12.83.83 0 0 1 .37.55 9.47 9.47 0 0 1 -.3 1.48 7 7 0 0 0 -.31 1c-.08 1-.07 1.9-.15 2.85v3.38c0 2.51 1.81 4 3.37 5.58s3.39 3.21 4.94 4.94a5.26 5.26 0 0 1 1 2.48 6.65 6.65 0 0 1 0 2.63 23.5 23.5 0 0 1 -1.08 3.12c-.15.43-.31.86-.49 1.28-.52 1.21-1.17 2.37-1 3.77.08.54.26.86.78.86h.13a2.34 2.34 0 0 0 .85-.1 8.61 8.61 0 0 1 3.44-.53c.82 0 1-.24 1-1.06s-.07-1.41-.05-2.12c0-1 .35-1.29 1.33-1.35h.67 7.6c1.28 0 1.56.23 1.57 1.48v7.81a.93.93 0 0 1 -.94 1.05c-1 .07-2 0-3 .13a14.61 14.61 0 0 0 -2.26.46.75.75 0 0 0 -.44.51 10.49 10.49 0 0 0 0 2c0 .44.38.51.73.51h.59a8.2 8.2 0 0 1 3.38.88 13.54 13.54 0 0 1 3.77 3 42.35 42.35 0 0 0 3.38 3 1.48 1.48 0 0 0 .86.23 1.58 1.58 0 0 0 .61-.11 37.27 37.27 0 0 0 3.34-1.95c1.23-.77 2.38-1.68 3.67-2.34a5.08 5.08 0 0 1 2.34-.56 6.36 6.36 0 0 1 1 .09 17 17 0 0 1 6.21 2.78c1.18.76 2.32 1.58 3.47 2.39a1.56 1.56 0 0 1 .24 1.66.77.77 0 0 1 -.74.41 4.77 4.77 0 0 1 -.5 0c-.78-.07-1.57-.1-2.36-.1-.58 0-1.15 0-1.72 0s-1.3.33-1.94.33h-.23a5.19 5.19 0 0 0 -3.72 1.82c-.93.94-1.74 2-2.6 3a17.18 17.18 0 0 1 -5.23 4.37 12 12 0 0 1 -2.94.78h-.13a3 3 0 0 1 -.71-.16c-.56-.15-1.13-.28-1.68-.48s-1.08-.47-1.62-.7c-1.15-.49-2.29-1-3.45-1.46a4.6 4.6 0 0 0 -1.15-.28 1.51 1.51 0 0 0 -.3 0 1.15 1.15 0 0 0 -1.23 1.29 23.52 23.52 0 0 0 .33 2.74c0 .37.12.74.17 1.11a1.42 1.42 0 0 0 1.55 1.42h.45 1.45.29c.89 0 1.14.2 1.14 1.07q0 4.27-.06 8.55a1.05 1.05 0 0 1 -1.18 1.14c-2.78 0-5.56 0-8.34-.07-1.18 0-1.6-.55-1.61-1.71s0-2.25 0-3.38-.47-1.63-1.61-1.7h-.35c-1 0-1.32.44-1.22 1.55a5.24 5.24 0 0 1 -.14 1.24c-.06.34-.19.68-.23 1a5.44 5.44 0 0 1 -1.4 3c-1.19 1.36-2.51 2.6-3.73 3.94a10.74 10.74 0 0 0 -1.33 1.8 1.07 1.07 0 0 0 0 .86 13.67 13.67 0 0 0 1 1.94c.85 1.31 1.76 2.57 2.62 3.87a5.75 5.75 0 0 1 .62 1.3 8.33 8.33 0 0 1 .73 2.75 12.94 12.94 0 0 1 -.88 3.2c-.23.7-.53 1.38-.82 2.06a13.41 13.41 0 0 1 -2.46 3.8c-.78.87-1.56 1.74-2.32 2.62a1 1 0 0 1 -.71.4.93.93 0 0 1 -.33-.1.81.81 0 0 1 -.48-1c.12-1 .33-1.91.4-2.87.11-1.63.12-3.26.19-4.89a4.49 4.49 0 0 0 -1.59-3.57c-1.16-1.08-2.35-2.13-3.58-3.13a12.71 12.71 0 0 1 -3.8-4.66 5.68 5.68 0 0 1 -.45-1.72 10.22 10.22 0 0 1 1.07-6.48 19.21 19.21 0 0 0 1.41-3 2.84 2.84 0 0 0 0-1.61 1.06 1.06 0 0 0 -.85-.52h-1.6a5.87 5.87 0 0 0 -2.54.43 1.65 1.65 0 0 1 -.32.07c-1.42.24-1.67.52-1.68 1.94v1.72c0 .82-.29 1.08-1.1 1.08h-3.53-4.12c-1 0-1.34-.28-1.36-1.35 0-1.43 0-2.87 0-4.3 0-1.37 0-2.74 0-4.11 0-1.06.16-1.21 1.25-1.22h.27 3.5a1.35 1.35 0 0 0 1.53-1.52 4.35 4.35 0 0 0 -.41-1.57.85.85 0 0 0 -.66-.35 4.38 4.38 0 0 1 -.51 0 9.13 9.13 0 0 1 -3.19-.84 11 11 0 0 1 -3.08-2c-1.28-1.08-2.4-2.33-3.63-3.46a2.08 2.08 0 0 0 -1.43-.55 2.42 2.42 0 0 0 -1.38.43c-1.79 1.19-3.56 2.43-5.39 3.57a5.39 5.39 0 0 1 -2.85.84 6.11 6.11 0 0 1 -2-.36 20.25 20.25 0 0 1 -4.65-2c-1.32-.86-2.53-1.89-3.79-2.85a3.77 3.77 0 0 1 -.81-.66 2.11 2.11 0 0 1 -.43-1c0-.71.18-.87.75-.87h.3c2.56.16 5.12.3 7.68.3h.08a3.67 3.67 0 0 0 2.41-1.51c1.8-1.87 3.56-3.79 5.35-5.68a11.12 11.12 0 0 1 3.46-2.49 1.26 1.26 0 0 1 .51-.11h1.5a7 7 0 0 1 3.24.63 40 40 0 0 0 3.77 1.72 6.68 6.68 0 0 0 2.29.46h.13c.87 0 1.27-.61 1-1.56a10.54 10.54 0 0 1 -.32-2.87c-.19-1.51-.23-1.51-1.85-1.51h-1c-.36 0-.73 0-1.09 0-1-.08-1.3-.37-1.31-1.37 0-2.83 0-5.65 0-8.48 0-.85.19-1 1-1.17a7.53 7.53 0 0 1 1.25-.1h7.36c1.24 0 1.53.29 1.53 1.51s0 2.39 0 3.58a1.71 1.71 0 0 0 1.76 1.94 2.83 2.83 0 0 0 .92-.16 1.15 1.15 0 0 0 .72-1.34 7.58 7.58 0 0 1 1.65-5.26 55.8 55.8 0 0 1 4-4.3c.35-.37.71-.73 1.08-1.07a1.15 1.15 0 0 0 .29-1.4 23.05 23.05 0 0 0 -2-3.51 16.35 16.35 0 0 1 -2.78-4.52 5 5 0 0 1 0-3.19c.18-.59.28-1.2.48-1.78a17.59 17.59 0 0 1 .84-2.07 23.55 23.55 0 0 1 3-4.8c.62-.71 1.25-1.42 1.89-2.12a1.75 1.75 0 0 1 1.16-.41m0-3.07a4.77 4.77 0 0 0 -3.46 1.32c-.6.66-1.28 1.41-1.94 2.18a26.48 26.48 0 0 0 -3.39 5.42 20.86 20.86 0 0 0 -1 2.45 12.48 12.48 0 0 0 -.35 1.27c-.05.2-.1.4-.16.61a8.19 8.19 0 0 0 0 5.09 17.81 17.81 0 0 0 3 5.08l.22.3a12.21 12.21 0 0 1 1.09 1.78l-.21.23c-.38.4-.77.8-1.16 1.19a35.25 35.25 0 0 0 -3 3.35c-.09.11-.17.22-.25.34a4.33 4.33 0 0 0 -3.85-1.81h-7.39a11.21 11.21 0 0 0 -1.73.14 3.94 3.94 0 0 0 -3.61 4.19v8.52a5.26 5.26 0 0 0 .28 1.75 13.4 13.4 0 0 0 -2.18-.16h-1.12-.45a4.43 4.43 0 0 0 -1.73.4 14.39 14.39 0 0 0 -4.4 3.16c-.81.85-1.6 1.71-2.4 2.56q-1.45 1.56-2.93 3.11l-.06.06c-.15.15-.35.37-.51.5-2.45 0-4.9-.15-7.2-.29h-.49a3.75 3.75 0 0 0 -2.84 1.13 3.83 3.83 0 0 0 -1 3 5.08 5.08 0 0 0 1 2.67 5.15 5.15 0 0 0 1.31 1.22l.13.09 1.08.84c.91.72 1.85 1.46 2.9 2.14a21.67 21.67 0 0 0 5 2.24l.28.1a9.5 9.5 0 0 0 3 .52 8.38 8.38 0 0 0 4.46-1.3c1.39-.86 2.73-1.77 4-2.65l1-.67.86.85c.74.74 1.5 1.5 2.36 2.22a19.36 19.36 0 0 0 1.91 1.43 4 4 0 0 0 -1.53 3.61v2.89 4.31 1.3a4.1 4.1 0 0 0 4.41 4.41h7.64a4.29 4.29 0 0 0 2.63-.81 15.58 15.58 0 0 0 -.07 4.44 9.24 9.24 0 0 0 .7 2.6 15.45 15.45 0 0 0 4.69 5.77c1.12.91 2.27 1.91 3.42 3 .64.61.63 1 .62 1.2l-.04 1.73c0 1-.06 2-.13 3 0 .46-.12 1-.2 1.51s-.13.79-.18 1.18a3.89 3.89 0 0 0 2.36 4.22 4 4 0 0 0 1.51.3 3.93 3.93 0 0 0 3-1.46c.75-.86 1.52-1.72 2.29-2.57a16.67 16.67 0 0 0 3-4.66l.09-.21a20.43 20.43 0 0 0 .82-2.1l.24-.68a11.23 11.23 0 0 0 .79-3.33 8.17 8.17 0 0 0 -.67-3.27c-.07-.19-.15-.38-.21-.57a8.25 8.25 0 0 0 -1-2c-.41-.62-.83-1.24-1.25-1.85s-.92-1.35-1.36-2c-.09-.15-.19-.31-.28-.49q.15-.19.3-.36c.5-.54 1-1.06 1.55-1.62.74-.76 1.5-1.54 2.23-2.37.17-.2.34-.4.49-.6a4.54 4.54 0 0 0 3.61 1.64c2.83.06 5.59.07 8.41.07a4.11 4.11 0 0 0 4.26-4.17c0-3.16.07-6 .06-8.59a4.71 4.71 0 0 0 -.35-1.86l.25.06.3.08h.07a4.37 4.37 0 0 0 1.42.25 3.94 3.94 0 0 0 .77-.08l.63-.13a10.69 10.69 0 0 0 3.06-.92 19.83 19.83 0 0 0 6.18-5.12l.72-.86c.59-.71 1.14-1.37 1.72-2 .81-.81 1.22-.92 1.54-.92h.23a6.8 6.8 0 0 0 1.73-.26l.34-.08h1.59c.78 0 1.46 0 2.06.09h.09a6.68 6.68 0 0 0 .71 0 3.83 3.83 0 0 0 3.39-1.93 4.57 4.57 0 0 0 -1.13-5.73l-.65-.46c-.94-.66-1.91-1.35-2.93-2a19.8 19.8 0 0 0 -7.32-3.08 9.44 9.44 0 0 0 -1.57-.14 8.11 8.11 0 0 0 -3.73.9 25 25 0 0 0 -2.71 1.67c-.4.27-.8.55-1.2.8l-.41.26c-.6.37-1.17.73-1.74 1-.67-.58-1.4-1.26-2.25-2.1l-.1-.09a19.77 19.77 0 0 0 -2.9-2.53 4 4 0 0 0 2.16-3.68c0-1 0-2 0-3 0-1.58 0-3.22 0-4.84s-.62-4.53-4.63-4.54h-7.58-.86a5.35 5.35 0 0 0 -1.87.45l.15-.6a9.89 9.89 0 0 0 0-3.87 8.15 8.15 0 0 0 -1.78-3.94c-1-1.16-2.15-2.23-3.22-3.26-.61-.59-1.22-1.18-1.81-1.78l-.51-.5c-1.39-1.39-2-2-2-3 0-.32 0-2.69 0-3.1s.06-1 .08-1.53 0-.74.05-1.09c.06-.18.15-.43.23-.73v-.19a10.34 10.34 0 0 0 .33-1.78 3.84 3.84 0 0 0 -1.83-3.43 4.06 4.06 0 0 0 -2.11-.56z"/></svg>