<svg viewBox="0 0 136.29 140.16" xmlns="http://www.w3.org/2000/svg" xmlns:xlink="http://www.w3.org/1999/xlink"><clipPath id="a"><path d="m18.58 21.3h99.31v98.49h-99.31z"/></clipPath><rect fill="#dedede" height="140.16" rx="13.53" width="136.29"/><rect fill="#fff" height="118.89" rx="6.77" width="115.02" x="10.63" y="11.6"/><g clip-path="url(#a)"><path d="m73.29 118c-5-2.73-9.92-5.81-12.58-11.31-1.47-3-.74-6.86 1.86-9.73a4.3 4.3 0 0 0 .63-3.71 8.13 8.13 0 0 0 -1.46-2.45c-.24-.31-.48-.63-.7-1a.87.87 0 0 0 -.71-.37h-.14a.85.85 0 0 0 -.69.61c-.44 1.51-1.17 1.64-2 1.64-.31 0-.64 0-1-.06s-.74-.06-1.13-.06a3.75 3.75 0 0 0 -2.27.64l-.08.06a1 1 0 0 0 -.36 1c.84 4.36-1.71 6.09-5.4 8-6 3.19-12 6.68-17.74 10-2.45 1.42-5 2.9-7.48 4.34h-.09l1.54-2.62c2.21-3.74 4.3-7.27 6.4-10.8 1-1.63 2-3.26 2.95-4.88 2-3.23 4-6.56 5.86-9.91.91-1.61 1.77-2.23 3.08-2.23a4.24 4.24 0 0 1 .71 0 10.85 10.85 0 0 0 1.4.09h1.1 1.15a.86.86 0 0 0 .86-.81l.26-4.54 3-.34a.86.86 0 0 0 .76-1s0-.08 0-.11c-.34-1.31-.63-2.44-1.78-2.44a3.21 3.21 0 0 0 -1.5.55 6.87 6.87 0 0 0 -1.05.74 6.24 6.24 0 0 1 -.71.53 6.33 6.33 0 0 1 -3.28.93 6.56 6.56 0 0 1 -5.44-3.08 6.52 6.52 0 0 0 -5.59-3.31 9 9 0 0 0 -2.25.32h-.13c-1.76.47-3.57 1-5.34 1.55-1.1.37-2.19.81-3.43 1.32 3-5.37 6-9.68 10.79-12.36a8.4 8.4 0 0 1 4.09-1.09 9.23 9.23 0 0 1 6.25 2.89 4.17 4.17 0 0 0 2.64 1 2.19 2.19 0 0 0 .94-.18 37.21 37.21 0 0 0 4.31-2.43l1.93-1.19a.86.86 0 0 0 -.35-1.6l-4.27-.46v-5.29a.86.86 0 0 0 -.73-.85c-.26 0-.5-.09-.72-.13a5.42 5.42 0 0 0 -1.13-.17 2.4 2.4 0 0 0 -.46 0 7.3 7.3 0 0 1 -1.4.14c-2.13 0-3.56-1.13-5.13-4-3.09-5.74-6.43-11.46-9.67-17-1.41-2.39-2.81-4.84-4.22-7.24a10.27 10.27 0 0 1 -.68-1.37l.3.16c1.4.73 2.85 1.49 4.24 2.29q4 2.3 8 4.6c5.08 2.94 10.33 6 15.56 8.87 2.42 1.33 3.11 2.46 2.72 4.46a5.9 5.9 0 0 0 0 1.73c0 .26.06.55.08.86a.86.86 0 0 0 .82.81l4.92.24a.86.86 0 0 0 .86-.86 1.36 1.36 0 0 0 0-.2c-.85-3.62.31-6.18 4-8.83 1.41-1 2.14-3.74 1.81-5.3a85 85 0 0 0 -2.45-8.55c-.16-.51-.33-1-.49-1.53 4.43 2.29 9.06 5.39 12 10.49 2.08 3.53 1.49 7.53-1.55 10.77a3.76 3.76 0 0 0 -.42 3.58 23.14 23.14 0 0 0 2 3.33c.31.44.61.89.92 1.36a.87.87 0 0 0 .72.39.91.91 0 0 0 .23 0 .87.87 0 0 0 .63-.79l.18-3.46h5.21a.85.85 0 0 0 .8-.65 5.3 5.3 0 0 1 .17-.52 2.36 2.36 0 0 0 .18-1.31c-.8-3.83 1.07-5.59 4.8-7.48 6.07-3.09 12.1-6.48 17.94-9.75 2.36-1.32 4.8-2.69 7.21-4l-1.63 2.74-6.28 10.53q-1.17 2-2.37 4c-2 3.39-4.15 6.89-6.11 10.42-.83 1.5-1.6 2-3 2h-.57c-1-.08-1.62-.12-2.15-.12a2.67 2.67 0 0 0 -1.99.49c-.61.62-.61 1.49-.59 2.93v.83c0 .94-.06 1-.16 1a16.14 16.14 0 0 1 -3.57.71h-.08a.85.85 0 0 0 -.73 1 .79.79 0 0 0 .06.22l1.36 3.19a.86.86 0 0 0 1.13.46h.08l1-.52c.62-.33 1.2-.64 1.76-1a8.07 8.07 0 0 1 4.25-1.41 5.45 5.45 0 0 1 4.67 2.76c1.57 2.42 3.52 3.6 6 3.6a10.67 10.67 0 0 0 3.36-.61c2.08-.68 4.19-1.44 6.42-2.25l1.23-.44c-3 5.35-6.26 10.54-12.23 12.91a8.86 8.86 0 0 1 -3.22.66 7.17 7.17 0 0 1 -5.74-2.76 3.17 3.17 0 0 0 -2.33-1.34 3.39 3.39 0 0 0 -2 .79c-.55.4-1.14.78-1.82 1.21l-1.08.69a.87.87 0 0 0 -.25 1.2.89.89 0 0 0 .57.37l2 .35v5.3a.87.87 0 0 0 .57.81l.28.13a2.15 2.15 0 0 0 1 .29h.24a6.9 6.9 0 0 1 1.44-.15c2.63 0 4.06 1.75 5.52 4.57 3.43 6.62 7 13.07 10.82 19.89 1 1.84 2.06 3.7 3.11 5.59l-2.39-1.43-10.88-6.49c-1.49-.9-3-1.79-4.45-2.7-3.13-1.91-6.37-3.89-9.63-5.73-1.7-1-2.16-1.77-1.89-3.33a12.45 12.45 0 0 0 .08-2.66c0-.36 0-.72 0-1.08a.87.87 0 0 0 -.91-.86h-4.55l-.55-3.63a.86.86 0 0 0 -1-.72h-.18l-2.72 1.11a.86.86 0 0 0 -.5 1.11l.06.12.63 1.09 1.11 1.91c2 3.3 1.32 6.67-1.59 8.57-3.27 2.14-4.21 4.93-3.05 9.06.55 2 1.05 3.53 1.57 4.93.18.49.37 1 .57 1.46s.35.86.51 1.31" fill="#1201fd" stroke="#000" stroke-miterlimit="10" stroke-width="4.55"/><path d="m64.54 24.76a25.75 25.75 0 0 1 9.82 9.14c1.85 3.16 1.31 6.81-1.47 9.75a4.56 4.56 0 0 0 -.56 4.53 23.46 23.46 0 0 0 2.1 3.46c.3.44.61.89.9 1.34a1.73 1.73 0 0 0 3.17-.85l.13-2.64h4.37a1.72 1.72 0 0 0 1.67-1.3c0-.15.1-.3.15-.45a3.28 3.28 0 0 0 .18-1.74c-.62-3 .39-4.52 4.34-6.53 6.1-3.1 12.14-6.49 18-9.77l4.41-2.47-6.28 10.53q-1.17 2-2.37 3.94c-2 3.4-4.16 6.91-6.12 10.45-.75 1.35-1.29 1.57-2.29 1.57h-.51c-1-.08-1.65-.12-2.21-.12a3.43 3.43 0 0 0 -2.6.85c-.87.87-.86 2-.85 3.54v1.21c-.55.15-1.7.32-3 .52h-.09a1.72 1.72 0 0 0 -1.44 2 1.66 1.66 0 0 0 .12.42l.83 2 .52 1.23a1.73 1.73 0 0 0 2.26.91l.16-.08.94-.51c.64-.34 1.23-.66 1.82-1a7.21 7.21 0 0 1 3.78-1.27 4.59 4.59 0 0 1 4 2.36c1.71 2.66 4 4 6.67 4a11.51 11.51 0 0 0 3.63-.65c1.8-.59 3.6-1.24 5.49-1.92-2.61 4.47-5.7 8.55-10.65 10.52a7.83 7.83 0 0 1 -2.91.59 6.24 6.24 0 0 1 -4.93-2.41 4 4 0 0 0 -3-1.64 4.25 4.25 0 0 0 -2.5 1c-.53.38-1.11.75-1.78 1.18l-1.08.69a1.72 1.72 0 0 0 .64 2.91l1.26.22v4.58a1.74 1.74 0 0 0 1.12 1.62l.2.09a3 3 0 0 0 1.34.38 1.9 1.9 0 0 0 .41 0 6.86 6.86 0 0 1 1.28-.13c1.94 0 3.19 1.08 4.76 4.11 3.43 6.63 7 13.07 10.83 19.9l1.55 2.8-10.46-6.26c-1.49-.89-3-1.81-4.45-2.7-3.14-1.91-6.38-3.89-9.65-5.74-1.47-.83-1.66-1.34-1.47-2.43a12.35 12.35 0 0 0 .09-2.85c0-.36 0-.7 0-1a1.72 1.72 0 0 0 -1.81-1.8h-3.81l-.43-2.9a1.72 1.72 0 0 0 -2-1.44 1.9 1.9 0 0 0 -.36.09l-.66.25-2.11.81a1.73 1.73 0 0 0 -1 2.23 1.42 1.42 0 0 0 .12.25l.64 1.1c.4.69.75 1.3 1.11 1.9 1.34 2.28 1.71 5.43-1.32 7.41-4.72 3.08-4.21 7.19-3.41 10 .56 2 1.06 3.57 1.59 5 .06.18.13.36.2.53-4.12-2.39-7.93-5.24-10.11-9.75-1.34-2.77-.68-6.13 1.72-8.77a5.12 5.12 0 0 0 .83-4.55 8.65 8.65 0 0 0 -1.59-2.72c-.24-.32-.47-.61-.67-.92a1.72 1.72 0 0 0 -2.4-.46 1.71 1.71 0 0 0 -.69 1c-.29 1-.57 1-1.19 1-.27 0-.59 0-.92 0s-.78-.06-1.2-.06a4.45 4.45 0 0 0 -2.78.81l-.15.12a1.84 1.84 0 0 0 -.63 1.74c.68 3.51-.9 5-5 7.13-6 3.2-12 6.69-17.77 10.06-1.55.91-3.13 1.84-4.72 2.75 2.17-3.66 4.21-7.13 6.27-10.59l2.95-4.88c2-3.23 4-6.56 5.87-9.92.85-1.51 1.5-1.81 2.33-1.81a5.44 5.44 0 0 1 .58 0 9.82 9.82 0 0 0 1.53.09h1.13 1.13a1.73 1.73 0 0 0 1.72-1.62l.22-3.81 2.27-.26a1.73 1.73 0 0 0 1.52-1.9 2 2 0 0 0 0-.24c-.34-1.3-.79-3.08-2.62-3.08a4 4 0 0 0 -1.92.65 7.9 7.9 0 0 0 -1.16.83c-.2.16-.41.32-.62.46a5.53 5.53 0 0 1 -2.83.81 5.76 5.76 0 0 1 -4.74-2.7 7.41 7.41 0 0 0 -6.3-3.69 9.9 9.9 0 0 0 -2.48.35h-.11c-1.77.47-3.61 1-5.4 1.57-.4.13-.79.27-1.19.42 2.54-4.26 5.22-7.68 9.23-9.9a7.64 7.64 0 0 1 3.68-1 8.44 8.44 0 0 1 5.69 2.42 5.08 5.08 0 0 0 3.22 1.21 3.05 3.05 0 0 0 1.3-.26 37.5 37.5 0 0 0 4.44-2.51c.62-.38 1.25-.78 1.93-1.18a1.72 1.72 0 0 0 .59-2.36 1.69 1.69 0 0 0 -1.29-.83l-3.35-.36h-.15v-4.51a1.71 1.71 0 0 0 -1.48-1.7l-.67-.15a5.74 5.74 0 0 0 -1.31-.18 3.26 3.26 0 0 0 -.62.06 7.35 7.35 0 0 1 -1.24.13c-1.78 0-3-1-4.36-3.58-3.11-5.76-6.46-11.49-9.7-17-1.17-2-2.38-4.07-3.57-6.12.69.36 1.38.74 2 1.12l8 4.6c5.09 2.94 10.35 6 15.6 8.88 2.31 1.28 2.56 2.1 2.29 3.55a6 6 0 0 0 0 2c0 .26.05.53.07.82a1.7 1.7 0 0 0 1.63 1.62l3.83.19 1.06.05h.08a1.75 1.75 0 0 0 1.66-2.14c-.77-3.26.26-5.49 3.65-7.94 1.71-1.24 2.55-4.27 2.15-6.16q-.95-4.13-2.3-8.13m-2.87-3.47c1.27 4.14 2.68 8 3.52 11.94a5.19 5.19 0 0 1 -1.47 4.41c-3.34 2.42-5.39 5.17-4.32 9.73l-4.88-.23a11.17 11.17 0 0 1 -.1-2.38c.53-2.76-.85-4.11-3.15-5.38-7.91-4.37-15.7-9-23.55-13.47-2.05-1.17-4.16-2.23-6.25-3.34a8.17 8.17 0 0 0 1.22 3.42c4.64 8.07 9.47 16 13.88 24.24 1.48 2.75 3.1 4.49 5.89 4.49a8.19 8.19 0 0 0 1.58-.14 1.51 1.51 0 0 1 .3 0 17.1 17.1 0 0 1 1.72.28v6l5 .55a66.27 66.27 0 0 1 -6.14 3.58 1.5 1.5 0 0 1 -.59.1 3.32 3.32 0 0 1 -2-.74 10.09 10.09 0 0 0 -6.86-2.88 9.27 9.27 0 0 0 -4.52 1.19c-5.77 3.21-8.94 8.63-12.28 14.81 2.33-.91 4-1.63 5.62-2.19s3.6-1.08 5.41-1.57a8.22 8.22 0 0 1 2-.29 5.67 5.67 0 0 1 4.87 2.93 7.44 7.44 0 0 0 6.17 3.46 7.19 7.19 0 0 0 3.72-1c.61-.37 1.11-.92 1.73-1.26a2.69 2.69 0 0 1 1.08-.44c.44 0 .62.51.95 1.79l-3.72.41-.3 5.26c-.8 0-1.54.06-2.26.06a11.17 11.17 0 0 1 -1.29-.08 7.35 7.35 0 0 0 -.82-.07c-1.78 0-2.86 1-3.83 2.68-2.81 5-5.86 9.85-8.8 14.77-3 5.11-6.05 10.23-9.45 16 1.38-.71 2.09-1 2.77-1.42 8.38-4.82 16.66-9.84 25.2-14.38 3.84-2 6.78-4.08 5.84-9 0-.06.1-.14.1-.15a2.83 2.83 0 0 1 1.76-.48c.7 0 1.43.12 2.12.12a2.64 2.64 0 0 0 2.85-2.26 14.17 14.17 0 0 1 2.05 3.18 3.46 3.46 0 0 1 -.45 2.87c-2.68 3-3.72 7.1-2 10.68 3.07 6.37 8.93 9.57 14.83 12.71a49.08 49.08 0 0 0 -1.78-4.81c-.59-1.59-1.09-3.22-1.55-4.86-.92-3.29-.57-6 2.7-8.11 3.43-2.24 4-6.18 1.86-9.72-.53-.9-1-1.81-1.74-3l2.77-1.06c.25 1.67.45 3 .66 4.37h5.3a20.49 20.49 0 0 1 0 3.59c-.36 2.12.54 3.21 2.32 4.23 4.75 2.69 9.38 5.6 14.06 8.41l16 9.54c-5.45-9.9-10.66-19-15.45-28.25-1.55-3-3.21-5-6.29-5a8.7 8.7 0 0 0 -1.61.16h-.08a3.75 3.75 0 0 1 -.94-.37v-6l-2.68-.47c1.17-.76 2.08-1.3 2.94-1.93a2.66 2.66 0 0 1 1.48-.62 2.26 2.26 0 0 1 1.67 1 8 8 0 0 0 6.25 3 9.51 9.51 0 0 0 3.54-.71c6.79-2.7 10.18-8.69 13.75-15.29-3.71 1.32-6.71 2.45-9.76 3.45a9.81 9.81 0 0 1 -3.09.56c-2 0-3.73-.89-5.22-3.2a6.31 6.31 0 0 0 -5.4-3.15 8.77 8.77 0 0 0 -4.72 1.55c-.78.5-1.63.91-2.66 1.48l-1.35-3.19c4.45-.67 4.53-.67 4.54-2.61 0-2.8-.24-3.5 1.72-3.5.52 0 1.2 0 2.08.12h.64c1.81 0 2.84-.74 3.79-2.45 2.7-4.85 5.63-9.57 8.47-14.34 3-5 6-10.06 9.36-15.71-1.22.56-1.78.78-2.29 1.06-8.47 4.67-16.83 9.54-25.44 13.93-3.73 1.9-6.2 3.91-5.25 8.42.08.38-.18.83-.34 1.45h-6.04c-.08 1.55-.15 2.85-.22 4.28a38.24 38.24 0 0 1 -2.88-4.58 3 3 0 0 1 .25-2.63c3.16-3.35 4-7.81 1.7-11.8-3.28-5.59-8.46-9-14.22-11.73"/></g></svg>