<svg viewBox="0 0 136.29 140.16" xmlns="http://www.w3.org/2000/svg" xmlns:xlink="http://www.w3.org/1999/xlink"><clipPath id="a"><path d="m15.85 18.6h104.76v103.9h-104.76z"/></clipPath><rect fill="#dedede" height="140.16" rx="13.53" width="136.29"/><rect fill="#fff" height="118.89" rx="6.77" width="115.02" x="10.63" y="11.6"/><g clip-path="url(#a)"><path d="m73.56 120.62c-5.29-2.88-10.46-6.12-13.26-11.93-1.55-3.21-.78-7.24 2-10.26a4.5 4.5 0 0 0 .66-3.91 8.31 8.31 0 0 0 -1.54-2.59c-.25-.33-.5-.66-.73-1a.91.91 0 0 0 -.76-.4h-.14a.89.89 0 0 0 -.73.64c-.46 1.6-1.24 1.73-2.13 1.73-.33 0-.67 0-1-.06s-.79-.06-1.19-.06a4 4 0 0 0 -2.4.67l-.08.07a1 1 0 0 0 -.38 1c.88 4.6-1.81 6.42-5.7 8.49-6.34 3.37-12.63 7-18.72 10.6-2.58 1.5-5.25 3.06-7.89 4.58h-.1l1.53-2.7c2.33-3.95 4.53-7.67 6.75-11.39 1-1.73 2.06-3.44 3.11-5.16 2.14-3.4 4.22-6.94 6.21-10.44 1-1.7 1.87-2.36 3.25-2.36a6 6 0 0 1 .74 0 10.52 10.52 0 0 0 1.48.1h1.16 1.22a.92.92 0 0 0 .91-.86l.27-4.79 3.16-.35a.9.9 0 0 0 .8-1 .51.51 0 0 0 0-.13c-.35-1.38-.66-2.57-1.88-2.57a3.48 3.48 0 0 0 -1.58.58 7.8 7.8 0 0 0 -1.1.78 6 6 0 0 1 -.76.56 6.57 6.57 0 0 1 -3.45 1 6.93 6.93 0 0 1 -5.75-3.25c-1.6-2.36-3.54-3.51-5.91-3.51a9.63 9.63 0 0 0 -2.38.34h-.13c-1.85.49-3.77 1-5.63 1.63-1.16.39-2.31.85-3.62 1.39 3.16-5.66 6.27-10.21 11.38-13a8.83 8.83 0 0 1 4.32-1.15 9.78 9.78 0 0 1 6.62 2.8 4.43 4.43 0 0 0 2.78 1 2.47 2.47 0 0 0 1-.19 37.55 37.55 0 0 0 4.54-2.52c.65-.4 1.32-.82 2-1.25a.91.91 0 0 0 .32-1.25.93.93 0 0 0 -.68-.44l-4.51-.48v-5.58a.91.91 0 0 0 -.78-.9 7.18 7.18 0 0 1 -.75-.14 5.34 5.34 0 0 0 -1.11-.18 2.63 2.63 0 0 0 -.49 0 8.08 8.08 0 0 1 -1.51.22c-2.24 0-3.76-1.19-5.41-4.25-3.26-6.06-6.78-12.1-10.2-17.94l-4.45-7.65a10.29 10.29 0 0 1 -.72-1.45l.32.16c1.48.78 3 1.58 4.47 2.42q4.23 2.41 8.44 4.86c5.36 3.1 10.9 6.3 16.42 9.35 2.55 1.41 3.27 2.6 2.86 4.71a6.17 6.17 0 0 0 0 1.82c0 .28.06.58.08.91a.92.92 0 0 0 .86.86l5.19.24a.9.9 0 0 0 .91-.9 1.49 1.49 0 0 0 0-.21c-.89-3.82.33-6.52 4.2-9.32 1.49-1.08 2.26-3.94 1.91-5.58a90.9 90.9 0 0 0 -2.57-9c-.18-.54-.35-1.08-.53-1.62 4.68 2.42 9.56 5.69 12.71 11.06 2.17 3.7 1.55 8-1.66 11.37a3.94 3.94 0 0 0 -.44 3.77 24.3 24.3 0 0 0 2.14 3.52c.32.46.65.94 1 1.43a.9.9 0 0 0 .76.41 1 1 0 0 0 .24 0 .91.91 0 0 0 .67-.83l.18-3.65h5.44a.92.92 0 0 0 .88-.69 5 5 0 0 1 .17-.54 2.66 2.66 0 0 0 .13-1.46c-.85-4 1.12-5.89 5-7.89 6.41-3.26 12.78-6.83 18.94-10.29l7.6-4.24-1.72 2.9c-2.3 3.84-4.46 7.47-6.63 11.11-.82 1.39-1.66 2.77-2.49 4.16-2.16 3.58-4.38 7.27-6.45 11-.88 1.58-1.69 2.12-3.21 2.12h-.6c-1-.08-1.7-.13-2.26-.13a2.79 2.79 0 0 0 -2.1.63c-.65.65-.65 1.57-.63 3.09v.87c0 1-.06 1-.17 1.09a16.19 16.19 0 0 1 -3.76.76h-.09a.92.92 0 0 0 -.77 1 .9.9 0 0 0 .06.22l1.44 3.37a.9.9 0 0 0 1.19.48h.08l1-.54c.65-.35 1.26-.68 1.85-1.06a8.48 8.48 0 0 1 4.49-1.49 5.79 5.79 0 0 1 4.93 2.91c1.65 2.56 3.7 3.8 6.27 3.8a11.19 11.19 0 0 0 3.63-.67c2.2-.72 4.42-1.53 6.78-2.37l1.3-.47c-3.11 5.65-6.61 11.11-12.9 13.62a9.06 9.06 0 0 1 -3.4.69 7.55 7.55 0 0 1 -5.9-2.88 3.3 3.3 0 0 0 -2.48-1.4 3.59 3.59 0 0 0 -2.1.82c-.58.43-1.2.82-1.92 1.28l-1.12.71a.92.92 0 0 0 -.26 1.26 1 1 0 0 0 .6.4l2.08.36v5.6a.91.91 0 0 0 .6.85l.3.14a2.2 2.2 0 0 0 1 .3h.26a8.62 8.62 0 0 1 1.56-.16c2.77 0 4.29 1.85 5.83 4.83 3.61 7 7.4 13.78 11.41 21l3.28 5.89-2.52-1.53-11.41-6.82q-2.36-1.41-4.7-2.85c-3.31-2-6.73-4.1-10.16-6-1.8-1-2.28-1.88-2-3.51a12.66 12.66 0 0 0 .08-2.82c0-.38 0-.75 0-1.13a.91.91 0 0 0 -.91-.91h-4.9l-.57-3.9a.91.91 0 0 0 -1-.76h-.18l-2.93 1.12a.91.91 0 0 0 -.52 1.17l.06.13.66 1.15c.43.73.8 1.38 1.18 2 2 3.48 1.39 7-1.68 9-3.45 2.26-4.44 5.21-3.22 9.57.58 2.07 1.11 3.72 1.65 5.19.2.52.4 1 .61 1.55l.54 1.37" fill="#01da3f" stroke="#000" stroke-miterlimit="10" stroke-width="4.8"/><path d="m64.34 22.25a27.12 27.12 0 0 1 10.36 9.64c2 3.33 1.37 7.18-1.55 10.28a4.82 4.82 0 0 0 -.6 4.78 24.68 24.68 0 0 0 2.22 3.65c.31.46.64.94 1 1.42a1.82 1.82 0 0 0 3.34-.9l.14-2.79h4.57a1.81 1.81 0 0 0 1.71-1.33c0-.15.1-.31.15-.48a3.25 3.25 0 0 0 .23-1.87c-.66-3.16.41-4.77 4.58-6.89 6.43-3.27 12.81-6.85 19-10.31l4.64-2.59-6.62 11.1-2.51 4.12c-2.16 3.58-4.39 7.28-6.47 11-.78 1.42-1.35 1.65-2.41 1.65h-.53c-1-.09-1.75-.14-2.34-.14a3.69 3.69 0 0 0 -2.75.9c-.91.92-.9 2.1-.89 3.74v1.28c-.58.15-1.79.33-3.15.54h-.09a1.83 1.83 0 0 0 -1.53 2.07 2.23 2.23 0 0 0 .13.44l.88 2.08.54 1.29a1.83 1.83 0 0 0 2.39 1l.17-.09 1-.53c.67-.36 1.3-.7 1.92-1.1a7.62 7.62 0 0 1 4-1.34 4.82 4.82 0 0 1 4.13 2.46c1.81 2.8 4.18 4.22 7 4.22a12.45 12.45 0 0 0 3.83-.69c1.89-.62 3.8-1.3 5.79-2-2.76 4.71-6 9-11.24 11.1a8.24 8.24 0 0 1 -3.06.62 6.56 6.56 0 0 1 -5.14-2.58 4.25 4.25 0 0 0 -3.18-1.72 4.49 4.49 0 0 0 -2.64 1c-.56.41-1.17.8-1.87 1.25l-1.14.73a1.82 1.82 0 0 0 -.53 2.52 1.77 1.77 0 0 0 1.21.79l1.32.23v4.84a1.82 1.82 0 0 0 1.18 1.7l.22.1a3.18 3.18 0 0 0 1.41.4 2 2 0 0 0 .43 0 7.54 7.54 0 0 1 1.41-.18c2.05 0 3.36 1.14 5 4.34 3.62 7 7.41 13.79 11.42 21l1.65 3-11-6.6c-1.57-.94-3.16-1.91-4.69-2.84-3.32-2-6.74-4.11-10.18-6.06-1.56-.88-1.76-1.41-1.56-2.56a13.2 13.2 0 0 0 .1-3c0-.39 0-.75 0-1.1a1.81 1.81 0 0 0 -1.91-1.84h-4l-.46-3.06a1.82 1.82 0 0 0 -2.06-1.53 2.36 2.36 0 0 0 -.38.1l-.7.27-2.23.81a1.82 1.82 0 0 0 -1 2.35 1.23 1.23 0 0 0 .12.26l.68 1.16 1.16 2c1.42 2.41 1.81 5.73-1.39 7.81-5 3.25-4.43 7.59-3.59 10.57.58 2.1 1.12 3.77 1.67 5.27.07.19.14.38.22.56-4.35-2.53-8.37-5.52-10.67-10.28-1.41-2.92-.71-6.47 1.81-9.26a5.4 5.4 0 0 0 .86-4.79 9.22 9.22 0 0 0 -1.68-2.87c-.26-.33-.49-.64-.71-1a1.81 1.81 0 0 0 -2.52-.48 1.76 1.76 0 0 0 -.73 1c-.39 1.11-.69 1.11-1.34 1.11-.29 0-.62 0-1-.06s-.83-.06-1.27-.06a4.73 4.73 0 0 0 -2.93.85l-.16.13a2 2 0 0 0 -.66 1.84c.72 3.7-1 5.24-5.23 7.52-6.35 3.37-12.65 7-18.75 10.61-1.64 1-3.31 1.94-5 2.9 2.29-3.86 4.45-7.52 6.62-11.17 1-1.72 2.08-3.46 3.1-5.14 2.07-3.41 4.21-6.93 6.2-10.48.9-1.59 1.58-1.9 2.46-1.9a4.07 4.07 0 0 1 .61 0 12.43 12.43 0 0 0 1.61.1h1.2 1.18a1.82 1.82 0 0 0 1.82-1.71l.23-4 2.4-.27a1.82 1.82 0 0 0 1.6-2 1 1 0 0 0 0-.24c-.35-1.38-.83-3.26-2.75-3.26a4.21 4.21 0 0 0 -2 .69 9.44 9.44 0 0 0 -1.23.87 5.26 5.26 0 0 1 -.65.49 5.72 5.72 0 0 1 -3 .85 6 6 0 0 1 -5-2.85c-1.74-2.58-4-3.89-6.65-3.89a10.47 10.47 0 0 0 -2.61.37h-.12c-1.87.5-3.81 1-5.7 1.66l-1.21.43c2.67-4.48 5.51-8.1 9.74-10.43a7.85 7.85 0 0 1 3.87-1 8.92 8.92 0 0 1 6 2.55 5.36 5.36 0 0 0 3.39 1.24 3.35 3.35 0 0 0 1.36-.28 39.43 39.43 0 0 0 4.64-2.62l2-1.25a1.82 1.82 0 0 0 .65-2.49 1.85 1.85 0 0 0 -1.37-.88l-3.53-.38h-.16v-4.74a1.82 1.82 0 0 0 -1.59-1.81c-.23 0-.45-.08-.69-.13a5.88 5.88 0 0 0 -1.31-.19 3.68 3.68 0 0 0 -.66.06 7.16 7.16 0 0 1 -1.3.13c-1.88 0-3.13-1-4.61-3.77-3.28-6.07-6.81-12.12-10.23-18-1.24-2.12-2.51-4.3-3.76-6.46.72.38 1.45.78 2.15 1.19 2.81 1.6 5.66 3.25 8.41 4.84 5.37 3.11 10.92 6.32 16.46 9.38 2.44 1.34 2.7 2.2 2.41 3.74a7.32 7.32 0 0 0 0 2.09c0 .27.06.56.08.86a1.8 1.8 0 0 0 1.72 1.71l4 .2 1.11.05h.09a1.81 1.81 0 0 0 1.82-1.82 1.84 1.84 0 0 0 0-.41c-.8-3.45.28-5.79 3.85-8.38 1.81-1.3 2.69-4.51 2.27-6.5a84.52 84.52 0 0 0 -2.43-8.57m-3.11-3.61c1.33 4.4 2.83 8.4 3.73 12.59a5.52 5.52 0 0 1 -1.55 4.66c-3.52 2.54-5.68 5.45-4.56 10.26l-5.15-.25a11.7 11.7 0 0 1 -.1-2.51c.56-2.9-.9-4.33-3.32-5.67-8.32-4.61-16.58-9.47-24.86-14.21-2.17-1.23-4.4-2.35-6.6-3.52a8.78 8.78 0 0 0 1.28 3.64c4.91 8.51 10 16.93 14.65 25.57 1.56 2.9 3.27 4.73 6.21 4.73a9.14 9.14 0 0 0 1.65-.17 1.63 1.63 0 0 1 .31 0c.61.07 1.22.17 1.82.3v6.37l5.31.58a67.63 67.63 0 0 1 -6.49 3.77 1.68 1.68 0 0 1 -.63.12 3.53 3.53 0 0 1 -2.15-.86 10.64 10.64 0 0 0 -7.25-3 9.79 9.79 0 0 0 -4.76 1.26c-6.09 3.38-9.43 9.1-12.95 15.63 2.45-1 4.16-1.72 5.92-2.32s3.8-1.14 5.71-1.65a8.2 8.2 0 0 1 2.14-.31c2.06 0 3.72 1 5.14 3.09a7.84 7.84 0 0 0 6.51 3.65 7.54 7.54 0 0 0 3.92-1.11c.64-.39 1.17-1 1.83-1.33a2.92 2.92 0 0 1 1.14-.46c.46 0 .65.53 1 1.88l-3.92.44-.32 5.55c-.83 0-1.62.06-2.38.06a10.2 10.2 0 0 1 -1.35-.09 6.36 6.36 0 0 0 -.87-.06c-1.88 0-3 1-4 2.83-3 5.26-6.19 10.38-9.28 15.57-3.21 5.39-6.38 10.79-10 16.86 1.47-.75 2.21-1.09 2.93-1.5 8.84-5.08 17.57-10.38 26.58-15.16 4.06-2.17 7.16-4.31 6.16-9.47 0-.06.1-.15.11-.16a3 3 0 0 1 1.86-.5c.73 0 1.5.12 2.23.12 1.28 0 2.42-.37 3-2.39a14.66 14.66 0 0 1 2.15 3.36 3.61 3.61 0 0 1 -.47 3c-2.82 3.12-3.92 7.49-2.1 11.27 3.24 6.71 9.43 10.09 15.65 13.41a51.09 51.09 0 0 0 -1.86-5.11c-.62-1.68-1.14-3.4-1.63-5.12-1-3.48-.6-6.31 2.85-8.56 3.61-2.36 4.16-6.53 2-10.26-.56-1-1.11-1.91-1.84-3.16l2.92-1.12c.27 1.76.47 3.13.7 4.61h5.59a21.81 21.81 0 0 1 0 3.79c-.38 2.23.56 3.39 2.45 4.45 5 2.85 9.89 5.92 14.83 8.88 5.37 3.22 10.74 6.42 16.83 10.06-5.74-10.44-11.24-20-16.3-29.8-1.69-3.13-3.48-5.29-6.69-5.29a9.5 9.5 0 0 0 -1.69.18h-.09a4 4 0 0 1 -1-.38v-6.37l-2.83-.49c1.23-.8 2.2-1.37 3.1-2a2.74 2.74 0 0 1 1.51-.69 2.39 2.39 0 0 1 1.76 1.08 8.42 8.42 0 0 0 6.6 3.2 10 10 0 0 0 3.74-.75c7.15-2.85 10.73-9.17 14.49-16.12-3.91 1.39-7.08 2.57-10.29 3.63a10.56 10.56 0 0 1 -3.25.6c-2.11 0-3.94-1-5.52-3.39a6.66 6.66 0 0 0 -5.68-3.34 9.32 9.32 0 0 0 -5 1.64c-.83.53-1.72 1-2.81 1.57l-1.43-3.37c4.7-.71 4.79-.71 4.8-2.76 0-3-.25-3.69 1.82-3.69.55 0 1.26.05 2.18.13h.68c1.91 0 3-.78 4-2.59 2.84-5.12 5.93-10.09 8.93-15.13 3.16-5.31 6.33-10.61 9.88-16.57-1.29.6-1.88.83-2.42 1.13-8.93 4.92-17.75 10.06-26.84 14.69-3.93 2-6.53 4.12-5.53 8.88.08.4-.19.87-.36 1.53h-6.3c-.09 1.63-.15 3-.23 4.52a40.5 40.5 0 0 1 -3-4.84 3.06 3.06 0 0 1 .27-2.77c3.33-3.54 4.25-8.24 1.78-12.45-3.45-5.9-8.92-9.45-15-12.37"/></g></svg>