<svg xmlns="http://www.w3.org/2000/svg" xmlns:xlink="http://www.w3.org/1999/xlink" width="165" height="169" viewBox="0 0 165 169"><defs><filter id="a" x="0" y="0" width="165" height="169" filterUnits="userSpaceOnUse"><feOffset dy="7" input="SourceAlpha"/><feGaussianBlur stdDeviation="4" result="b"/><feFlood flood-opacity="0.651"/><feComposite operator="in" in2="b"/><feComposite in="SourceGraphic"/></filter><clipPath id="c"><rect width="99.834" height="99.74" fill="none"/></clipPath></defs><g transform="translate(11.669 4.773)"><g transform="translate(0 0)"><g transform="matrix(1, 0, 0, 1, -11.67, -4.77)" filter="url(#a)"><rect width="141" height="145" rx="14" transform="translate(12 5)" fill="#dedede"/></g><rect width="119" height="122" rx="7" transform="translate(11.331 12.227)" fill="#fff"/></g><g transform="translate(20.161 22.712)"><rect width="37.059" height="37.281" transform="translate(61.836 61.52)" fill="#67559b"/><path d="M131.425,130.753H166.6v35.4H131.425Zm-1.881,37.28h38.939V128.872H129.544Z" transform="translate(-68.649 -68.293)"/><rect width="37.298" height="37.321" transform="translate(0.94 0.94)" fill="#67559b"/><path d="M1.88,1.88H37.3V37.321H1.88ZM0,39.2H39.178V0H0Z"/><g clip-path="url(#c)"><path d="M93.691,104.7a11.062,11.062,0,0,1-7.885-3.3,11.378,11.378,0,0,1-3.193-8.189A11.022,11.022,0,0,1,93.6,82.385h.144a11.158,11.158,0,1,1,.039,22.314Z" transform="translate(-43.779 -43.658)" fill="#67559b"/><path d="M92.546,80.385v1.88h.129a10.327,10.327,0,0,1,10.347,10.417,10.21,10.21,0,0,1-10.3,10.017H92.64a10.126,10.126,0,0,1-7.221-3.016,10.447,10.447,0,0,1-2.925-7.52,10.08,10.08,0,0,1,10.05-9.9Zm0,0a12.1,12.1,0,0,0,.079,24.2h.1A12.1,12.1,0,1,0,92.7,80.386h-.156" transform="translate(-42.719 -42.598)"/></g></g></g></svg>