<svg viewBox="0 0 141 145" xmlns="http://www.w3.org/2000/svg"><rect fill="#dedede" height="145" rx="14" width="141"/><rect fill="#fff" height="123" rx="7" width="119" x="11" y="12"/><path d="m63.37 93.78c-.19 0-.28 0-.29.08-.5 1.33-1.63 1.27-2.76 1.28a11.93 11.93 0 0 0 -2 .16c-.94.17-1.21.54-1.22 1.49v3.33a2.11 2.11 0 0 1 -1.22 1.93c-1.48.81-2.92 1.68-4.4 2.49-2.47 1.35-5 2.65-7.45 4-2 1.07-3.9 2.17-5.85 3.25l-6.3 3.53-6.8 3.82c-.41.23-.9.62-1.24.1a1.45 1.45 0 0 1 .14-1.18q2.89-5.28 5.87-10.5c2-3.58 4.12-7.13 6.17-10.7 1.79-3.13 3.57-6.25 5.3-9.41a2.31 2.31 0 0 1 2.48-1.38c1 .08 1.94.07 2.91.06s1.49-.41 1.53-1.51 0-2 0-2.92c0-1.17.49-1.58 1.66-1.47h.91c1.17 0 1.5-.36 1.15-1.51a5.06 5.06 0 0 0 -.36-.72c-1.39-2.81-2.36-1.88-3.83-.43-1.24 1.21-2.26 2.65-3.4 4a1.11 1.11 0 0 1 -.73.43c-.22 0-.42-.35-.61-.56a.68.68 0 0 1 -.11-.31 24.54 24.54 0 0 1 0-8.59 10.4 10.4 0 0 1 2.9-5.64c.6-.57 1.32-1 1.95-1.55.18-.16.43-.48.38-.64-.61-1.67-.19-3.41-.34-5.11 0-.11 0-.22 0-.33a.9.9 0 0 0 -1-1c-1.16 0-2.33-.06-3.49 0a2.51 2.51 0 0 1 -2.5-1.45c-1.58-2.76-3.08-5.56-4.66-8.33s-3.19-5.45-4.75-8.19c-1.18-2.07-2.3-4.17-3.46-6.24-.93-1.67-1.9-3.32-2.85-5-.46-.81-1-1.6-1.38-2.45a3 3 0 0 1 0-1.17 3 3 0 0 1 .9.19c2 1.13 4 2.3 6 3.45.45.26.94.47 1.39.73 3.44 1.93 6.87 3.89 10.32 5.81q6.81 3.8 13.67 7.54a1.86 1.86 0 0 1 1 1.71c.07 1.19.12 2.38.19 3.57s.32 1.32 1.38 1.33 1.89 0 2.83 0a1.21 1.21 0 0 1 1.37 1.31c0 .58 0 1.17.07 1.75.07.77.4 1 1.1.77a10.43 10.43 0 0 0 2.17-1 1.5 1.5 0 0 0 .29-2.53c-1.34-1.36-2.77-2.63-4.17-3.93-.12-.11-.32-.17-.39-.3-.16-.35-.43-.77-.35-1.08s.59-.47.92-.49c1.27-.09 2.55-.09 3.83-.12h2.41c4 0 6.91 1.87 9 5.16.53.83.64.85 1.45.38a2.53 2.53 0 0 1 1.1-.24h3.42c.79 0 1.14-.35 1.12-1.17 0-1.17 0-2.33.05-3.5a2 2 0 0 1 1.14-1.88c4.27-2.48 8.66-4.9 13.07-7.32 3-1.65 5.91-3.35 8.88-5 2.52-1.39 5.06-2.73 7.59-4.09a.93.93 0 0 1 .46-.17c.39 0 .93 0 1.12.19a1.3 1.3 0 0 1 0 1.13c-.4.91-.9 1.78-1.39 2.65q-2.37 4.25-4.78 8.47c-2.12 3.76-4.26 7.51-6.35 11.29-.94 1.69-1.76 3.45-2.69 5.14a25.93 25.93 0 0 1 -1.94 3 2 2 0 0 1 -1.27.73 34.42 34.42 0 0 1 -3.63-.05c-.92 0-1.34.3-1.37 1.24s0 2.11 0 3.17-.13 1.3-1.26 1.33c-.73 0-1.45 0-2.17.06s-1.08.49-.76 1.24a6.24 6.24 0 0 0 1 1.87 2 2 0 0 0 2.85.15 14 14 0 0 0 3.47-4.19 11 11 0 0 1 .74-1.2 1.16 1.16 0 0 1 .85-.35.84.84 0 0 1 .47.66c.09 3.34.68 6.64 0 10a9.09 9.09 0 0 1 -4.6 6.42c-.47.29-.68.59-.33 1.15a2.43 2.43 0 0 1 .28 1.16v3.67a.93.93 0 0 0 1 1.06c1.22 0 2.43.08 3.65.09a1.88 1.88 0 0 1 1.76 1c1.6 2.88 3.24 5.74 4.82 8.63 2 3.76 4 7.55 6.08 11.31 1.77 3.25 3.59 6.48 5.39 9.72a7.3 7.3 0 0 1 .55 1 4 4 0 0 1 .11.93c-.33 0-.72.09-1 0-1.83-1-3.62-2-5.43-3.06l-14.16-8-11.27-6.41a2 2 0 0 1 -1.09-1.89c0-1.08 0-2.17-.08-3.25 0-.88-.4-1.24-1.3-1.25h-2.74c-.92 0-1.32-.37-1.36-1.3 0-.61 0-1.22 0-1.83 0-1.18-.46-1.47-1.5-1-.22.11-.45.2-.67.33-1.62.93-1.86 1.24-1 3a18 18 0 0 0 3.25 4.24 1.54 1.54 0 0 1 .29 1.2c0 .24-.55.53-.87.56-2.12.18-4.23.68-6.37.31-3.62-.64-6.53-2.3-8.23-5.64-.21-.45-.43-.85-.63-1.22z" fill="#01da3f" stroke="#000" stroke-miterlimit="10" stroke-width="3.7"/></svg>