<svg viewBox="0 0 141 145" xmlns="http://www.w3.org/2000/svg"><rect fill="#dedede" height="145" rx="14" width="141"/><rect fill="#fff" height="123" rx="7" width="119" x="11" y="12"/><path d="m68.24 124.86a56.35 56.35 0 0 1 -11.67-1.56 50.69 50.69 0 0 1 -19.93-10c-.57-.45-1.06-1-1.59-1.51s-.51-1 .07-1.62c2.61-2.57 5.19-5.17 7.78-7.76q7-7 13.93-13.94c.8-.8 1.51-1.67 2.24-2.53a.73.73 0 0 0 0-1.13c-.44-.42-.87-.85-1.29-1.3a.84.84 0 0 0 -1.41 0c-.66.75-1.27 1.55-2 2.26q-10.69 10.77-21.37 21.45c-1.19 1.19-1.16 1.16-2.37 0a31.37 31.37 0 0 1 -6.49-9 71.32 71.32 0 0 1 -4-9.3 45.62 45.62 0 0 1 -2.14-10.59 49.63 49.63 0 0 1 .68-14 50.37 50.37 0 0 1 11.77-24.33c.94-1.09 1.11-1.1 2.14-.06l23.33 23.45c.19.2.39.39.58.58a.8.8 0 0 0 1.28 0c2.22-2.24 2.22-1.69.22-3.7q-11.31-11.37-22.64-22.69c-.17-.18-.33-.37-.51-.53-.6-.5-.61-.92 0-1.47a51.67 51.67 0 0 1 11.92-7.9 47.11 47.11 0 0 1 10.85-3.75 49 49 0 0 1 16.75-.93 57.43 57.43 0 0 1 9.63 2 41 41 0 0 1 10.53 4.76c2.82 1.85 5.48 3.94 8.18 6 .85.64.81.91 0 1.68q-10.71 10.83-21.59 21.64c-1 1-2 1.84-3 2.75a.77.77 0 0 0 0 1.32 15.74 15.74 0 0 1 1.23 1.22c.51.59.91.49 1.43 0q9.78-9.65 19.58-19.27c1.74-1.72 3.45-3.46 5.19-5.18.72-.71 1-.68 1.6.12a54.93 54.93 0 0 1 6.78 10.06 77.72 77.72 0 0 1 3.21 7.65 47.26 47.26 0 0 1 2.69 17 51.41 51.41 0 0 1 -12.59 32.68c-1 1.13-1.1 1.14-2.13.1l-23.88-24c-1.08-1.08-1.17-1.09-2.23 0-1.64 1.68-1.61 1.34 0 3q11.67 11.71 23.36 23.47l.25.27c.84.87.89 1.11 0 1.81-2.35 1.8-4.67 3.64-7.13 5.26a43.88 43.88 0 0 1 -11.07 5.13 53 53 0 0 1 -16.17 2.39z" fill="#1201fd" stroke="#000" stroke-miterlimit="10" stroke-width="2.57"/></svg>