<svg viewBox="0 0 141 145" xmlns="http://www.w3.org/2000/svg"><rect fill="#dedede" height="145" rx="14" width="141"/><rect fill="#fff" height="123" rx="7" width="119" x="11" y="12"/><path d="m70 123.6a55.72 55.72 0 0 1 -11.7-1.6 50.53 50.53 0 0 1 -19.93-10c-.57-.45-1.06-1-1.59-1.51s-.51-1 .06-1.62c2.62-2.57 5.2-5.17 7.79-7.76 4.65-4.65 9.3-9.28 13.93-13.94.8-.8 1.51-1.68 2.24-2.53a.73.73 0 0 0 0-1.13c-.44-.42-.87-.86-1.29-1.3a.84.84 0 0 0 -1.41 0c-.66.74-1.27 1.55-2 2.26q-10.69 10.81-21.4 21.53c-1.19 1.19-1.16 1.16-2.37.05a31.27 31.27 0 0 1 -6.49-9 70.61 70.61 0 0 1 -4-9.29 45.73 45.73 0 0 1 -2.13-10.65 49.63 49.63 0 0 1 .68-14 50.37 50.37 0 0 1 11.79-24.34c.94-1.09 1.11-1.1 2.14-.06q11.68 11.7 23.33 23.42l.58.58a.81.81 0 0 0 1.28 0c2.24-2.24 2.19-1.71.19-3.71q-11.28-11.35-22.61-22.68a6.5 6.5 0 0 0 -.52-.53c-.59-.5-.6-.93 0-1.48a51.63 51.63 0 0 1 11.92-7.89 47.62 47.62 0 0 1 10.85-3.76 49.27 49.27 0 0 1 16.74-.91 57.46 57.46 0 0 1 9.65 2 41 41 0 0 1 10.53 4.76c2.82 1.85 5.48 3.94 8.18 6 .85.64.81.91 0 1.68q-10.75 10.81-21.59 21.63c-1 1-2 1.84-3 2.75a.76.76 0 0 0 0 1.31 14.28 14.28 0 0 1 1.15 1.23c.51.59.91.48 1.43 0q9.8-9.67 19.57-19.3c1.74-1.72 3.45-3.46 5.19-5.18.72-.71 1-.68 1.6.12a54.86 54.86 0 0 1 6.78 10 79.81 79.81 0 0 1 3.21 7.65 47.32 47.32 0 0 1 2.69 17 51.41 51.41 0 0 1 -12.59 32.68c-1 1.13-1.1 1.14-2.13.1l-23.88-24c-1.08-1.08-1.17-1.09-2.23 0-1.64 1.68-1.61 1.33 0 3q11.76 11.82 23.45 23.51c.09.08.16.18.25.27.84.87.89 1.1 0 1.81-2.35 1.8-4.67 3.63-7.13 5.26a44.23 44.23 0 0 1 -11.07 5.13 53 53 0 0 1 -16.14 2.44z" fill="#01da3f" stroke="#000" stroke-miterlimit="10" stroke-width="2.57"/></svg>