<svg viewBox="0 0 141 145" xmlns="http://www.w3.org/2000/svg"><rect fill="#dedede" height="145" rx="14" width="141"/><rect fill="#fff" height="123" rx="7" width="119" x="11" y="12"/><g fill="#1201fd" stroke="#000" stroke-miterlimit="10" stroke-width="2.57"><path d="m33.12 37.76a8.29 8.29 0 0 0 -.89.74 51.06 51.06 0 0 0 -9.61 15.73 47.77 47.77 0 0 0 -2.86 10.84 42.15 42.15 0 0 0 -.35 11.33c.27 2 .38 4 .81 5.89a59.67 59.67 0 0 0 2.17 7.91 63.08 63.08 0 0 0 3.61 7.68 34.09 34.09 0 0 0 6 8.17c1.14 1.11 1.23 1.11 2.35 0l32.6-32.41c1-1 1-1.2 0-2.21-.11-.11-.21-.23-.32-.33l-22.92-22.87q-4.86-4.86-9.71-9.71c-.25-.25-.54-.47-.88-.76zm38.31 86.07c2.32-.3 5.58-.57 8.78-1.17a51.62 51.62 0 0 0 8.19-2.22 60.58 60.58 0 0 0 7.82-3.69 44.07 44.07 0 0 0 8.5-6.14c.57-.51.48-.91 0-1.37l-.44-.46q-16.12-16.11-32.28-32.23c-1.77-1.77-1.48-1.45-3 0q-15.68 15.73-31.43 31.45c-1.77 1.77-2.49 1.64.16 3.86a50.55 50.55 0 0 0 20.17 10.24 72.53 72.53 0 0 0 13.53 1.73zm-1-102.66c-3.55.42-7.16.67-10.68 1.33a45.36 45.36 0 0 0 -10.6 3.5 51.45 51.45 0 0 0 -12.52 8.12c-.83.73-.83 1 0 1.76l12.94 13q10.09 10.12 20.21 20.22c.62.63 1 .61 1.66 0q8.46-8.49 17-16.93l16.31-16.28c.6-.6.64-1.06-.06-1.56-2.7-1.94-5.31-4-8.09-5.79a44.5 44.5 0 0 0 -15.48-6.07c-3.5-.69-7.06-.88-10.65-1.3zm37.57 86.14a43.43 43.43 0 0 0 6.7-9 61.71 61.71 0 0 0 3.45-7.14 59.52 59.52 0 0 0 2.28-7.31 55.68 55.68 0 0 0 .94-5.49 45.49 45.49 0 0 0 -.5-15.22 52.65 52.65 0 0 0 -2.27-8.15 44.41 44.41 0 0 0 -3.49-7.61c-1.82-3-4-5.86-6.09-8.77-.62-.87-1-.88-1.73-.13q-8.42 8.38-16.83 16.79-8.16 8.12-16.36 16.21c-.94.93-.95 1 .07 2l29.75 29.74c1.33 1.33 2.67 2.65 4.08 4.08z"/><path d="m33.12 37.76c.34.29.63.51.88.76q4.86 4.84 9.71 9.71l22.87 22.86c.11.1.21.22.32.33 1 1 1 1.2 0 2.21l-32.61 32.37c-1.12 1.12-1.21 1.12-2.35 0a34.09 34.09 0 0 1 -6-8.17 63.08 63.08 0 0 1 -3.6-7.68 59.67 59.67 0 0 1 -2.17-7.91c-.43-1.93-.54-3.93-.81-5.89a42.15 42.15 0 0 1 .35-11.33 47.77 47.77 0 0 1 2.86-10.84 51.06 51.06 0 0 1 9.66-15.68 8.29 8.29 0 0 1 .89-.74z"/><path d="m71.43 123.83a72.53 72.53 0 0 1 -13.53-1.73 50.55 50.55 0 0 1 -20.17-10.27c-2.65-2.22-1.93-2.09-.16-3.86q15.72-15.7 31.48-31.38c1.5-1.49 1.21-1.81 3 0q16.13 16.13 32.27 32.23l.44.46c.46.46.55.86 0 1.37a44.07 44.07 0 0 1 -8.5 6.14 60.58 60.58 0 0 1 -7.82 3.69 51.62 51.62 0 0 1 -8.19 2.22c-3.25.56-6.5.83-8.82 1.13z"/><path d="m70.47 21.17c3.59.42 7.15.61 10.61 1.3a44.5 44.5 0 0 1 15.48 6.07c2.78 1.79 5.39 3.85 8.09 5.79.7.5.66 1 .06 1.56l-16.31 16.28q-8.48 8.46-17 16.93c-.61.61-1 .63-1.66 0q-10.07-10.1-20.21-20.25l-12.94-13c-.79-.8-.79-1 0-1.76a51.45 51.45 0 0 1 12.56-8.09 45.36 45.36 0 0 1 10.64-3.5c3.52-.66 7.13-.91 10.68-1.33z"/><path d="m108 107.31c-1.45-1.43-2.79-2.75-4.12-4.08l-29.71-29.74c-1-1-1-1.07-.07-2q8.19-8.1 16.36-16.21 8.43-8.39 16.83-16.79c.76-.75 1.11-.74 1.73.13 2.06 2.91 4.27 5.72 6.09 8.77a44.41 44.41 0 0 1 3.49 7.61 52.65 52.65 0 0 1 2.31 8.16 45.49 45.49 0 0 1 .5 15.22 55.68 55.68 0 0 1 -.94 5.49 59.52 59.52 0 0 1 -2.28 7.31 61.71 61.71 0 0 1 -3.45 7.14 43.43 43.43 0 0 1 -6.74 8.99z"/></g></svg>