<svg viewBox="0 0 141 145" xmlns="http://www.w3.org/2000/svg"><rect fill="#dedede" height="145" rx="14" width="141"/><rect fill="#fff" height="123" rx="7" width="119" x="11" y="12"/><path d="m128 72.54a57.5 57.5 0 1 0 -57.35 57.54 57.43 57.43 0 0 0 57.35-57.54z" fill="#fff"/><path d="m128 72.54a57.5 57.5 0 1 1 -57.63-57.62 57.43 57.43 0 0 1 57.63 57.62zm-44.66 10a4.62 4.62 0 0 0 -.65.42c-.51.49-1 1-1.49 1.48s-.57 1 0 1.6c3.65 3.63 7.27 7.29 10.91 10.93l8.14 8.15c.52.53 1 .63 1.54 0a14.44 14.44 0 0 1 1.36-1.35c.64-.57.53-1.06 0-1.62-1.62-1.6-3.22-3.23-4.83-4.85q-7.08-7.08-14.15-14.16a7.94 7.94 0 0 0 -.83-.59zm20.24-40.31a6.21 6.21 0 0 0 -.5-.69c-.48-.51-1-1-1.46-1.51a.85.85 0 0 0 -1.45 0c-2 2-4 4.05-6.08 6.08q-6.46 6.44-12.94 12.89c-.62.63-.62 1.11 0 1.68a8.86 8.86 0 0 1 1.22 1.23c.62.75 1.12.58 1.73-.05 1.33-1.38 2.72-2.71 4.07-4.07q7.44-7.4 14.83-14.79a7.38 7.38 0 0 0 .58-.76zm-63.76-3.46c-.64.77-1.15 1.46-1.73 2.08-.79.85-.82 1.12 0 2l10.27 10.27c2.75 2.76 5.52 5.51 8.27 8.28.55.56 1 .68 1.62 0 .38-.43.82-.82 1.22-1.24.77-.77.76-1 0-1.79l-16-16.08c-1.13-1.07-2.26-2.16-3.65-3.52zm.27 66.87a6.83 6.83 0 0 0 .91-.64q4.42-4.38 8.83-8.78 4.82-4.82 9.64-9.64c.56-.56.68-1 0-1.61a14.38 14.38 0 0 1 -1.3-1.29c-.58-.68-1.08-.58-1.68 0-2.7 2.73-5.44 5.42-8.16 8.14-3.43 3.43-6.84 6.87-10.28 10.29-.59.58-.61 1.06 0 1.61s.93 1 1.41 1.44a4.82 4.82 0 0 0 .63.48z" fill="#fbec01" stroke="#000" stroke-miterlimit="10" stroke-width="2.57"/><path d="m101.06 106.85a2.39 2.39 0 0 1 -1.71-.81l-4.43-4.44-3.71-3.71-3.59-3.61c-2.44-2.44-4.87-4.89-7.31-7.32a2.5 2.5 0 0 1 -.85-1.8 2.37 2.37 0 0 1 .88-1.67c.28-.24.54-.52.8-.78s.43-.45.66-.67a2.94 2.94 0 0 1 .65-.45l.2-.13.75-.46.71.53.25.18a4.61 4.61 0 0 1 .69.55l14.15 14.15 1.74 1.76c1 1 2 2.07 3.09 3.09a2.54 2.54 0 0 1 .85 1.81 2.26 2.26 0 0 1 -.86 1.67 14.93 14.93 0 0 0 -1.26 1.25 2.23 2.23 0 0 1 -1.7.86z" fill="#fff"/><path d="m83.34 82.55a9.27 9.27 0 0 1 .8.61q7.08 7.07 14.15 14.16c1.61 1.62 3.21 3.25 4.83 4.85.57.56.68 1 0 1.62a14.44 14.44 0 0 0 -1.36 1.35 1 1 0 0 1 -.74.42 1.15 1.15 0 0 1 -.8-.43l-8.1-8.13c-3.64-3.64-7.26-7.3-10.91-10.93-.58-.59-.65-1 0-1.6s1-1 1.49-1.48a4.62 4.62 0 0 1 .65-.42m.12-3.13-1.5 1-.16.09a4.82 4.82 0 0 0 -.89.64c-.24.23-.47.47-.69.7s-.5.52-.73.72a3.57 3.57 0 0 0 -1.31 2.6 3.67 3.67 0 0 0 1.22 2.74c2.44 2.43 4.86 4.86 7.29 7.3l3.6 3.57 3.77 3.78 4.37 4.36a3.65 3.65 0 0 0 2.62 1.2 3.5 3.5 0 0 0 2.67-1.3 13.57 13.57 0 0 1 1.14-1.14 3.57 3.57 0 0 0 1.3-2.6 3.73 3.73 0 0 0 -1.24-2.76c-1-1-2.07-2.06-3.09-3.09l-1.73-1.75q-7.11-7.08-14.11-14.16a5.6 5.6 0 0 0 -.85-.69l-.21-.15-1.43-1.08z"/><path d="m83.21 63.7a2.32 2.32 0 0 1 -1.8-1 9 9 0 0 0 -1.07-1.07 2.41 2.41 0 0 1 -.94-1.73 2.52 2.52 0 0 1 .85-1.83q4.57-4.55 9.12-9.11l3.81-3.81 2.12-2.11c1.32-1.32 2.64-2.63 4-4a2.31 2.31 0 0 1 1.65-.78 2.26 2.26 0 0 1 1.68.85c.25.28.51.55.78.82l.66.68a4.8 4.8 0 0 1 .45.59l.15.22.56.78-.58.76-.18.24a5.44 5.44 0 0 1 -.51.62l-14.85 14.89-1.39 1.38q-1.35 1.32-2.67 2.67a2.57 2.57 0 0 1 -1.84.94z" fill="#fff"/><path d="m100.9 39.62a1 1 0 0 1 .72.42c.47.52 1 1 1.46 1.51a6.21 6.21 0 0 1 .5.69 7.38 7.38 0 0 1 -.58.76q-7.4 7.41-14.8 14.8c-1.35 1.36-2.74 2.69-4.07 4.07a1.41 1.41 0 0 1 -.92.55 1.13 1.13 0 0 1 -.81-.5 8.86 8.86 0 0 0 -1.22-1.23c-.65-.57-.65-1 0-1.68q6.5-6.43 12.94-12.92c2-2 4.07-4 6.08-6.08a1.08 1.08 0 0 1 .73-.39m0-2.57a3.53 3.53 0 0 0 -2.56 1.16l-3.97 3.94-2.13 2.12-3.87 3.87q-4.52 4.53-9.06 9a3.69 3.69 0 0 0 -1.22 2.86 3.63 3.63 0 0 0 1.38 2.66 7.93 7.93 0 0 1 .92.92 3.53 3.53 0 0 0 2.79 1.42 3.93 3.93 0 0 0 2.79-1.34c.86-.9 1.77-1.8 2.65-2.66l1.35-1.38 14.8-14.82a6.16 6.16 0 0 0 .64-.78 1.91 1.91 0 0 0 .15-.21l1.17-1.51-1.11-1.55-.13-.19a5.13 5.13 0 0 0 -.58-.76l-.69-.71c-.25-.25-.5-.5-.73-.76a3.49 3.49 0 0 0 -2.64-1.28z"/><path d="m57.48 63.16a2.55 2.55 0 0 1 -1.76-.85l-4.92-4.93-3.35-3.38-10.26-10.29c-1.31-1.31-1.32-2.36 0-3.74.36-.39.7-.81 1.09-1.3l.58-.72.89-1.08 2.36 2.3c.82.8 1.56 1.52 2.3 2.26l13 13.06 3 3c1.28 1.28 1.28 2.33 0 3.6l-.48.48c-.24.23-.48.46-.71.71a2.27 2.27 0 0 1 -1.74.88z" fill="#fff"/><path d="m39.82 38.77c1.39 1.36 2.52 2.45 3.64 3.56l16 16.08c.78.78.79 1 0 1.79-.4.42-.84.81-1.22 1.24a1.06 1.06 0 0 1 -.77.43 1.25 1.25 0 0 1 -.85-.47c-2.75-2.77-5.52-5.52-8.27-8.28l-10.25-10.31c-.83-.84-.8-1.11 0-2 .58-.62 1.09-1.31 1.73-2.08m-.22-3.73-1.78 2.17-.6.74c-.37.47-.69.87-1 1.22-1.74 1.87-1.71 3.72.07 5.52l10.24 10.28 3.46 3.43c1.62 1.62 3.24 3.23 4.84 4.85a3.71 3.71 0 0 0 2.68 1.23 3.51 3.51 0 0 0 2.68-1.29c.18-.2.41-.42.64-.65l.51-.5c1.21-1.23 2.19-3.17 0-5.41l-3-3-13-13.09c-.76-.76-1.52-1.5-2.37-2.33l-1.3-1.26-2-2z"/><path d="m39.32 106.68-.21-.16a3.91 3.91 0 0 1 -.57-.45c-.19-.19-.39-.4-.58-.61a9.57 9.57 0 0 0 -.78-.78 2.36 2.36 0 0 1 -.88-1.7 2.4 2.4 0 0 1 .82-1.78q3.14-3.12 6.26-6.26l4-4 3.09-3.07c1.69-1.68 3.39-3.37 5.07-5.07a2.66 2.66 0 0 1 1.79-.87 2.33 2.33 0 0 1 1.77.91 10.77 10.77 0 0 0 1.19 1.16 2.28 2.28 0 0 1 .89 1.66 2.54 2.54 0 0 1 -.85 1.83l-5.91 5.91-3.73 3.73q-4.39 4.4-8.82 8.78a5.15 5.15 0 0 1 -.74.59l-.27.19-.77.58z" fill="#fff"/><path d="m57.35 83.19a1.11 1.11 0 0 1 .8.47 14.38 14.38 0 0 0 1.3 1.34c.66.57.54 1 0 1.61q-4.83 4.81-9.64 9.64-4.43 4.35-8.81 8.75a6.83 6.83 0 0 1 -.87.66 4.82 4.82 0 0 1 -.64-.48c-.48-.47-.91-1-1.41-1.44s-.6-1 0-1.61c3.44-3.42 6.85-6.86 10.28-10.29 2.72-2.72 5.46-5.41 8.17-8.14a1.33 1.33 0 0 1 .87-.49m0-2.57a3.76 3.76 0 0 0 -2.7 1.25q-2.51 2.52-5 5c-1 1-2.09 2.07-3.12 3.11l-4 4-6.25 6.25a3.65 3.65 0 0 0 -1.33 2.75 3.62 3.62 0 0 0 1.31 2.62c.22.2.46.45.7.71s.41.44.62.65a5.08 5.08 0 0 0 .73.58l.18.13 1.54 1.16 1.54-1.16.23-.16a6.45 6.45 0 0 0 .91-.74q4.42-4.38 8.83-8.78l3.76-3.76 5.88-5.88a3.65 3.65 0 0 0 1.22-2.78 3.5 3.5 0 0 0 -1.32-2.59 10.21 10.21 0 0 1 -1-1 3.55 3.55 0 0 0 -2.74-1.35z"/></svg>