<svg xmlns="http://www.w3.org/2000/svg" xmlns:xlink="http://www.w3.org/1999/xlink" width="113" height="121.5" viewBox="0 0 113 121.5"><defs><filter id="a" x="0" y="6.5" width="113" height="115" filterUnits="userSpaceOnUse"><feOffset dy="7" input="SourceAlpha"/><feGaussianBlur stdDeviation="4" result="b"/><feFlood flood-opacity="0.38"/><feComposite operator="in" in2="b"/><feComposite in="SourceGraphic"/></filter><filter id="c" x="7.5" y="5" width="98" height="100" filterUnits="userSpaceOnUse"><feOffset dy="3" input="SourceAlpha"/><feGaussianBlur stdDeviation="1.5" result="d"/><feFlood flood-opacity="0.38"/><feComposite operator="in" in2="d"/><feComposite in="SourceGraphic"/></filter><filter id="e" x="7.5" y="0" width="98" height="100" filterUnits="userSpaceOnUse"><feOffset dy="3" input="SourceAlpha"/><feGaussianBlur stdDeviation="1.5" result="f"/><feFlood flood-opacity="0.38"/><feComposite operator="in" in2="f"/><feComposite in="SourceGraphic"/></filter></defs><g transform="translate(-1546 -653.5)"><g transform="translate(1558.118 664.773)"><g transform="translate(0.137 0.227)"><g transform="matrix(1, 0, 0, 1, -12.26, -11.5)" filter="url(#a)"><rect width="89" height="91" rx="14" transform="translate(12 11.5)" fill="#fff"/></g><rect width="75" height="76" rx="7" transform="translate(6.745 8)" fill="#dedede"/></g></g><g transform="translate(1558.118 659.773)"><g transform="translate(0.137 0.227)"><g transform="matrix(1, 0, 0, 1, -12.26, -6.5)" filter="url(#c)"><rect width="89" height="91" rx="14" transform="translate(12 6.5)" fill="#fff"/></g><rect width="75" height="76" rx="7" transform="translate(6.745 8)" fill="#dedede"/></g></g><g transform="translate(1558.118 654.773)"><g transform="translate(0.137 0.227)"><g transform="matrix(1, 0, 0, 1, -12.26, -1.5)" filter="url(#e)"><rect width="89" height="91" rx="14" transform="translate(12 1.5)" fill="#fff"/></g><rect width="75" height="76" rx="7" transform="translate(6.745 8)" fill="#ffdf80"/></g></g></g></svg>