<svg viewBox="0 0 141 145" xmlns="http://www.w3.org/2000/svg"><rect fill="#dedede" height="145" rx="14" width="141"/><path d="m118.44 136.92a9.6 9.6 0 0 1 -2.39-.3 257.69 257.69 0 0 0 -60.79-7.26c-2.86 0-5.58 0-8.09.15-.82 0-1.64.05-2.46.05-1 0-2 0-3-.05h-.6c-6.43 0-12.81 2.8-17 5.15a10.07 10.07 0 0 1 -4.89 1.27 10 10 0 0 1 -5.39-1.57 20 20 0 0 1 -7.88-9.28 10.07 10.07 0 0 1 -.34-6.55l3.09-10.92a8.85 8.85 0 0 0 .3-1.36c.72-6.35 4.3-39 4.18-58.39-.07-11.93-2.44-19-4.41-22.89a10.07 10.07 0 0 1 2.23-11.97 27.58 27.58 0 0 1 4.89-3.6 10.07 10.07 0 0 1 5-1.32 9.74 9.74 0 0 1 2.28.27l25.12 5.81a8.72 8.72 0 0 0 .89.16 301 301 0 0 0 35.28 2.43c18.49 0 27.52-2.74 31.83-5a10.22 10.22 0 0 1 4.71-1.22 10.09 10.09 0 0 1 6.7 2.54 25.84 25.84 0 0 1 3.61 3.83 17.59 17.59 0 0 1 3 7.69 10 10 0 0 1 -.42 4.68c-5.18 15.22-7.13 59.58-6.53 73.47.35 8.09 2.19 13.36 3.68 16.35a10 10 0 0 1 -1.1 10.63 28.09 28.09 0 0 1 -5.64 5.28 10 10 0 0 1 -4.19 1.74 10.36 10.36 0 0 1 -1.67.18z" fill="#faae57"/><path d="m20.86 9a9.24 9.24 0 0 1 2.14.19l25.07 5.81a8.05 8.05 0 0 0 1 .18 298.82 298.82 0 0 0 35.38 2.43c18.53 0 27.73-2.73 32.23-5.13a9.34 9.34 0 0 1 4.32-1.09 9.2 9.2 0 0 1 6.13 2.33 25.5 25.5 0 0 1 3.48 3.69 16.62 16.62 0 0 1 2.81 7.31 9.14 9.14 0 0 1 -.38 4.28c-5.22 15.33-7.18 59.7-6.58 73.78.35 8.18 2.21 13.55 3.77 16.7a9.11 9.11 0 0 1 -1 9.7 27.37 27.37 0 0 1 -5.46 5.16 9.09 9.09 0 0 1 -3.84 1.58 8.59 8.59 0 0 1 -1.52.13 9.57 9.57 0 0 1 -2.19-.26 260.15 260.15 0 0 0 -61-7.3c-3.44 0-6.19.08-8.13.15-.81 0-1.62.05-2.43.05-1 0-2 0-3-.05h-.56c-6.75 0-13.44 3-17.45 5.27a9.23 9.23 0 0 1 -4.47 1.16 9.13 9.13 0 0 1 -4.93-1.44 19 19 0 0 1 -7.53-8.87 9.19 9.19 0 0 1 -.32-6l3.13-10.91a9.49 9.49 0 0 0 .3-1.5c.62-5.47 4.3-38.9 4.19-58.49-.07-12-2.44-19.24-4.51-23.28a9.2 9.2 0 0 1 2-11 27 27 0 0 1 4.78-3.46 9.2 9.2 0 0 1 4.57-1.12m0-1.73a11 11 0 0 0 -5.4 1.42 29 29 0 0 0 -5.09 3.69 11 11 0 0 0 -2.4 13c1.93 3.77 4.25 10.74 4.32 22.5.11 19.33-3.47 51.94-4.18 58.28a8.23 8.23 0 0 1 -.24 1.22l-3.13 10.9a11 11 0 0 0 .37 7.12 20.85 20.85 0 0 0 8.21 9.68 10.86 10.86 0 0 0 5.86 1.71 11 11 0 0 0 5.31-1.38c4.13-2.3 10.37-5 16.61-5h.57 3s1.71 0 2.5 0c2.5-.1 5.21-.15 8.06-.15a256.41 256.41 0 0 1 60.58 7.25 10.82 10.82 0 0 0 2.6.31 11 11 0 0 0 6.37-2 29.53 29.53 0 0 0 5.81-5.49 10.9 10.9 0 0 0 1.19-11.56c-1.45-2.91-3.25-8-3.59-16-.6-13.84 1.34-58 6.49-73.15a10.79 10.79 0 0 0 .45-5.08 18.3 18.3 0 0 0 -3.13-8.15 26.62 26.62 0 0 0 -3.73-4 11 11 0 0 0 -12.42-1.39c-4.22 2.24-13.11 4.92-31.42 4.92a299 299 0 0 1 -35.17-2.42 7 7 0 0 1 -.8-.14l-25.12-5.86a10.9 10.9 0 0 0 -2.48-.28z" fill="#fff"/><g fill="#f28441"><path d="m130 120.29c.69 1 1.43 2 2.06 3a1.33 1.33 0 0 1 0 1.12c-.68 1.51-1.15 3.06-2.63 4.18a41.41 41.41 0 0 0 -4.34 4.25 10.54 10.54 0 0 0 -1.6.32c-.43.15-.78.64-1.2.68-.7.08-.91.39-.88 1h-4c0-1.81 0-3.62 0-5.43 0-.36 0-1 .21-1 1-.36.66-1.17.77-1.85.26-1.59-.74-3.43.93-4.76.09-.07 0-.32 0-.48.33-1.73-.75-3.67.9-5.28.36-.35.5-1.15.93-1.75a1.82 1.82 0 0 1 2.22-.67c.62.18 1.49.9 1.53 1.43.09 1.43 1.05 2 2 2.74.39.32 1 .73 1 1.05-.06 1.65 1.1 1.44 2.1 1.45z"/><path d="m41 40.22c0-1.61 1.23-.88 2-1s1 .38 1 1.11-.27 1.63.79 2.09c.21.09.29 1.07.07 1.34s-.91.29-1.4.42l-1-1-.49-1v-1c.12-.77-.2-1.1-1-1z"/><path d="m9.11 19.89a6.23 6.23 0 0 1 .82-1.81c.92-1 2-1.9 3-2.87s1.64-1.73 2.47-2.59c.13-.14.35-.35.48-.32 1 .23 1.29-.67 1.9-1.05h2 2l.93.07v8.4c0 .35 0 1-.19 1-1 .4-.75 1.25-.77 2v3.09c0 .31-.05.85-.21.9-.94.31-.72 1.05-.76 1.73-.06.87.36 1.93-.87 2.41-.08 0-.1.3-.11.46 0 .61.09 1.31-.89 1.25-.61 0-1.55.17-1.77-.14-.74-1-2.06-1.58-2.15-3.15a2.05 2.05 0 0 0 -1.85-1.66l-1-.76c-.46-.73-.88-1.49-1.38-2.18-.62-.86-1.84-1.34-1.64-2.7z"/><path d="m27.94 32.54c-1.15.16-1.54-.29-1.53-1.5.07-5.23 0-10.46 0-15.69 0-2 0-2 2-2.13h1c0 .72.31 1 1 1s1.3 0 1.95 0l1 .06c.06 1.62 1.3.72 2 .94l1 .06c0 .2 0 .5-.06.59-1.3 1.13-1.53 2.13-.11 3.32a.93.93 0 0 1 .13.7c-.13 1.17.57 2.57-.91 3.38a2 2 0 0 1 -1.19 2.23 3.29 3.29 0 0 0 -2.22 2.07 8.51 8.51 0 0 1 -.57 1.07 4.83 4.83 0 0 0 -2.92 3.43z"/><path d="m54.62 18c-.16.32-.28.86-.51.92-.65.15-1.3.71-1.67.77a14.81 14.81 0 0 1 -5.27 0 2.13 2.13 0 0 1 -1.17-2.69h2.72 2.94c0 .72.32 1 1 1s1.34-.06 1.96 0z"/><path d="m52.65 21.91c-.07-.73.25-1 1-1 .91 0 1.81.24 2.6-.79.28-.37 1.33-.55 1.82-1.18a7.9 7.9 0 0 0 .53-.94h.7v2.93s-.1 0-.12 0c-1.32 1.58-3.13.83-4.74 1-.57.07-1.18-.03-1.79-.02z"/><path d="m42 16.27a16.57 16.57 0 0 0 0 2.34c.07.49.47.91.63 1.4a2.63 2.63 0 0 1 .23 1.45c-.08.25-.82.43-1.22.36s-.48-.58-.62-.94a2 2 0 0 1 -.02-.88c.07-.78-.21-1.16-1-1.12-.28 0-.57-.2-.85-.31a2.78 2.78 0 0 0 .49-.68c.18-.55.28-1.12.42-1.68l1-.06z"/><path d="m15.85 40.17a13.81 13.81 0 0 0 1.87-1.4c.74-.77 1.37-.85 2.31-.08l-.32.46c-1.3-.09-.87.86-.91 1.52l-2 2.47h-1z"/><path d="m132.05 21.87c-.07 2.08-.35 2.38-2.46 3.06-.39.12-.71.58-1 .93-.56.7-1.53 1-1.61 2.19 0 .5-.68 1-1.15 1.4-.62.5-1.32.75-1 1.89.1.37-.73 1.45-1.86 1.23-.78-.15-1.74.17-1.61-1.19 0-.25-.26-.54-.4-.8s-.38-.63-.56-1-.4-.7-.56-1.07a5.53 5.53 0 0 1 -.42-1.18c-.19-1 .49-2.16-.87-2.8-.15-.07-.11-.61-.11-.93 0-1.85 0-3.71 0-5.55 0-.4-.43-.77-.56-1.18s-.28-1.13-.41-1.69l2.62-2c.43-.34.87-.67 1.31-1l3 .11 1.41 1.28a5.48 5.48 0 0 0 2.85 2.73 2.11 2.11 0 0 1 1.55 1.52 12.28 12.28 0 0 0 1.42 2.73 11.43 11.43 0 0 1 .42 1.32z"/><path d="m113.48 16.51c1.17 2.75 1 5.66 1 8.55 0 1.84.13 3.7 0 5.53-.12 1.42.69 2.12 1.53 2.95a16.74 16.74 0 0 1 1.49 2l-1.52.55c-.79-.93-2.13-1.5-2-3 0-.09-.11-.2-.19-.29l-4.51-5.61c.12-.35.42-.94.32-1-.8-.63-1.47-1.64-2.74-1.21l-2-2c-.06-.79.41-1.77-.77-2.19a2.44 2.44 0 0 1 .19-.75 10.62 10.62 0 0 1 .6-1c.72.07 1-.28 1-1l1.94-.05c.74-.18 1.93.66 2-.91z"/><path d="m8.14 124.22c0-2 .53-2.51 2.37-3a2.44 2.44 0 0 0 1.32-1.06c.64-1.19 2.15-1.61 2.41-3.23.14-.84 1.27-1.51 1.91-2.3.27-.33.4-.78.67-1.13s.56-.79.88-.82 1 .46 1 .61c-.22 1.15.82 1.6 1.36 2.1a2 2 0 0 1 .7 1.52c.07 1-.42 2.07.85 2.68.16.08.11.62.12.94v2.72c0 .28 0 .72.18.8.87.45 1.19.83 0 1.33a1.08 1.08 0 0 0 0 .69c1 .28.72 1.09.73 1.74v5.56c-.95.07-1 .79-1 1.47h-2.94c-.05-1.57-1.25-.8-2-1 0-1.41-1-.88-1.73-1-.68-.85-1.31-1.76-2.06-2.55a14.29 14.29 0 0 0 -1.88-1.46c0-1.52-.79-2.51-2-2.63a1.93 1.93 0 0 1 -.89-1.98z"/><path d="m26.47 130.85c0-5.59 0-11.18 0-16.77a2.94 2.94 0 0 0 -1.32-2.51c-.46-.35-.84-.81-1.3-1.16s-.89-.51-1.31-.79-.8-.7-1.25-1c-1.1-.61-1.9-1.55-3.2-2s-2-2.1-3-3.16a19.31 19.31 0 0 0 -1.92-1.54l-.06-1 .06-2c.66 0 .92-.25 1-.93 0-.29.53-.79.76-.76a1.92 1.92 0 0 1 1 .73c.15.18 0 .64.14.79 1.67 1.71 3.35 3.4 5.08 5a10.84 10.84 0 0 0 1.55 1.25c.16.16.32.33.49.49l2 2 .74.74a.44.44 0 0 0 0 .22 4.62 4.62 0 0 0 .27 1.31c.31.58 1.08 1.07 1.11 1.63 0 1.17.63 1.33 1.53 1.29l1 1.2c-.82 1.36-.28 2.42 1.44 2.77-.35 1.33.75 1.91 1.44 2.65a7.71 7.71 0 0 0 1.58 1c.73 0 1 .29 1 1s-.11 1.59.17 1.74a1.69 1.69 0 0 1 .71 2.41c-.87 1.1-.42 1.88.07 2.8-1.47 1-3.19.48-4.73.86a23 23 0 0 0 -4.16 1.88z"/><path d="m42 128.13c-.43-.61-.84-1.24-1.29-1.84a2.72 2.72 0 0 0 -.81-.81c-1.57-.83-.68-1.14.28-1.48 0 0 0-.15.08-.22l2.22 1.94 1.52 1.49v1z"/><path d="m109.78 119.33c1.18-1.1 2-2.61 3.88-2.83.13 0 .22-.29.34-.45a6.52 6.52 0 0 1 .44 1.56v16.23h-1.71c-.1-1.55-1.28-.77-2-.94l-1.91-.07c-.12-1.56-1.31-.74-2-.91l-1.93-.06c0-.32 0-.63 0-1s0-.63.11-.7c1-.56.68-.78.1-1.65-.77-1.16-.83-2.81-1.17-4.26a5.75 5.75 0 0 1 0-1.1 2.32 2.32 0 0 1 2-1.94h1.83a2.68 2.68 0 0 0 2.02-1.88z"/><path d="m85.52 128.19c.06-.27.1-.78.17-.79 1-.06 1.73-1 2.58-1.13a19.73 19.73 0 0 1 5.15 0c.63.08 1.31.9 1.7 1.54s0 1.12-.82 1.09-1.89 0-2.83 0h-4.91z"/><path d="m100.13 125.25c.08.77-.37 1.72.79 2.16.18.07.17.73.18 1.13v2.3h-1.89c0-.31 0-.62 0-.94l-.83-1.5c.48-.32 1.53-.75 0-1.4-.15-.06-.13-.51-.19-.78l1-.49z"/><path d="m97.17 125.21c0-.72-.25-1-1-1-2.55 0-5.09 0-7.64 0-.27 0-.75 0-.79.17-.43 1.16-1.39.74-2.19.82l1.45-2.47 3.42.49c1 .12 1.38-.65 1-1.15-.82-1-.32-1.7 0-2.68.35-1.17-.85-1.55-1.81-1.84.15-.32.27-.65.44-1s.38-.37.46-.6c.46-1.29.88-2.6 1.32-3.91.76.48 1.76.79 1.47 2 0 .06 0 .2.09.21 1.2.43.75 1.45.87 2.29a3.08 3.08 0 0 0 .46.85 4.43 4.43 0 0 0 .48-.84c.63-2.06-1.46-3.63-1-5.67-.92-.38-.92-1.19-1-2 0-.14-.55-.21-.84-.32v-.72c.75 0 1-.33 1-1 0-1 0-2 0-3h.06c.3.14.84.24.87.42.18 1.11 0 2.19 1 3.17.66.65.78 1.84 1.16 2.79 0 .09.2.14.26.24a4.34 4.34 0 0 1 .62 1.16c.17.76 1.31 1.32 1.7.71.7-1.13 2.44-1.52 2.3-3.23 0-.14.08-.4.18-.42 1-.29.77-1.14.77-1.83s.17-1.12 1-1c-.15 1.53 1 .86 1.7 1v1.72l-1.55-.62c-.14.48-.15 1.31-.48 1.46-.86.39-.62 1-.7 1.65s-.07 1.22-.32 1.33c-1.59.69-1.46 2.55-2.55 3.58-.47.44-.51 1.34-.75 2 .9.36 2.41-.08 2.58-1 .29-1.65 1.33-2.86 2.11-4.23.36-.63.38-1.68.87-2 1.06-.6.69-1.44.78-2.23.32-.17.87-.29.92-.53.22-.92.07-1.79.91-2.69.67-.72.17-2.17 1-3.34s-.8-2.95-2.42-2.95h-1.59a3.91 3.91 0 0 1 -.66-.76 9.74 9.74 0 0 1 -.42-1.22l-.6-1.73h9.39c.36 0 1 0 1-.19.46-1.16 1.44-.68 2.22-.78s1.55.28 1.81-.77c.29.12.77.18.83.37.31 1-.87 2.32-2 2.39-.85 0-2-.14-2.44.32a2 2 0 0 1 -1.68.65c-1.2 0-2.39 0-3.58 0a3.41 3.41 0 0 0 -.8.22v.34c.53.09 1.31 0 1.57.29 1 1.25 2.47 2.06 2.41 4.21 0 1.9-1.66 3.3-1.2 5.21 0 .07-.14.2-.24.26-.88.54-1.89 1-1.69 2.32a.34.34 0 0 1 -.16.31c-1.12.47-.58 2.79-2.56 2.32 0 0-.13.13-.12.19.25 1.38-.53 2.45-1.08 3.59a6.28 6.28 0 0 1 -.47 1c-.39.58-.84 1.13-1.27 1.7a5.6 5.6 0 0 0 -1 .51c-.75.55-1.11 1.64-2.35 1.53-.18 0-.58.68-.58 1s.4.7.72.83a3.45 3.45 0 0 0 1.21.06v1c-.79.07-1.75-.33-2.15.83.01.16-.46.16-.73.21z"/><path d="m55.68 65.42c-.11.64.07 1 .8 1a8 8 0 0 1 1.09.07 5.18 5.18 0 0 0 1 1.23c.86.56 1.82 1 2.73 1.46a3.55 3.55 0 0 1 0 1c-.1.34-.32.89-.51.9a3.66 3.66 0 0 1 -1.42-.35c-.11 0-.16-.4-.22-.39-1.4.13-2.44-.87-3.69-1.15a7.49 7.49 0 0 0 -1.71 0 8.83 8.83 0 0 0 -.72-1 7.09 7.09 0 0 0 -1.43-1.31c-1.15-.69-1.56-2.36-3.19-2.42-.16 0-.29-.34-.47-.46s-.64-.34-1-.51a10.1 10.1 0 0 0 .49-1c.17-.53.54-1.44.39-1.55-.68-.46-.91-1.6-2-1.43-.23 0-.66-.13-.72-.3-.33-1-1.14-.62-1.77-.64-.25 0-.5.28-.75.43a2.41 2.41 0 0 0 .49.63c.49.34 1.25.51 1.46.95a5.49 5.49 0 0 1 .38 2.39c0 .18-.74.41-1.17.5-1.38.28-3-.68-4.12.95 0 .05-.15.05-.23 0-1.25-.19-1.79.85-2.28 1.58a16.07 16.07 0 0 1 -2.82 3.73 1.87 1.87 0 0 1 -1.29.27c-.23 0-.39-.56-.58-.86l-.69-1.11c-.57-.92-1.51-.62-2.32-.71v-1.87c1.16.11 2.54-.59 3.36.89a.64.64 0 0 0 .58.06 14.63 14.63 0 0 0 1.49-1 1.18 1.18 0 0 0 0-2c-.83-.74-1.62-1.55-2.38-2.37-.45-.48-2.45-.93-2.72-.42-.57 1.08-1.46.79-2.31.86-.67.07-.94-.22-.93-.91 0-1.26 0-2.52 0-3.78-.05-.71.23-1 1-1h14.56a2.56 2.56 0 0 1 1 .34 7.13 7.13 0 0 0 1.29.6 9 9 0 0 0 1.72 0c-.05.72.31 1 1 1 .71.89 1.39 1.81 2.14 2.66.41.46 1.14.71 1.36 1.21.48 1.13 1.38.73 2.16.83 0 .29.05.58.07.87-.05 1.41 1 2.15 2.88 2.13zm-21.27-7.88-.06.22a11.18 11.18 0 0 0 -2.09 0c-.34.07-.59.55-.87.85.3.28.56.68.92.81s.91 0 1.34.07c.25.06.66.39.64.54-.18 1.2.84 1.52 1.47 2.12a2.88 2.88 0 0 1 .56.7 1.07 1.07 0 0 0 1.69.24 3.24 3.24 0 0 1 1.37-.66c.56-.11 1.16 0 1.73 0 .3 0 .81-.26.83-.46.07-.44.05-1.12-.22-1.35a12.33 12.33 0 0 0 -3.09-2 29.6 29.6 0 0 0 -4.22-1.08z"/><path d="m26.46 51.83c0-.65 0-1.31 0-2 .75.07 1-.35.95-1h6.05c.27 0 .53-.26.79-.4-.21-.18-.4-.48-.64-.53a3.74 3.74 0 0 1 -3.25-3.79c0-.66 0-1.32 0-2-.25-1.39.54-2.23 1.57-3 .2-.13.29-.42.44-.63.33-.45.66-.89 1-1.33.77-1 1.79-1.72 2.09-3.1.13-.61 1-1.07 1.59-1.59a6.24 6.24 0 0 1 -1.51 4.14 12.46 12.46 0 0 0 -1.21 2.79c-.07.15 0 .38-.11.47-1.8 1.65-.62 3.75-.76 5.63 0 .47 1.1 1.31 1.82 1.5 1.68.43 3.44.53 5.15.87.25 0 .54.64.55 1 0 .71.35 1 1 .94.13.91-.43 1-1.13 1-3.85 0-7.71 0-11.56 0-.76 0-1.68-.34-2.06.78-.03.19-.5.19-.77.25z"/><path d="m39.05 30.55c.41-.62.68-1.42 1.24-1.81 1-.73 1.69-2.09 3.24-2 .14 0 .41-.55.42-.86 0-.72.33-1 1-1 .33-.15.67-.28 1-.45s.54-.47.83-.49c1.27-.09 1.65-1 1.87-2h4c0 1.58-1.18.79-1.86 1-.36.11-.95.2-1 .41a2.07 2.07 0 0 0 1.1 2.38c.76.33 1 1.53 2.2 1.22.1 0 .47.47.52.76s-.18.79-.32.8a4.34 4.34 0 0 1 -1.51-.17 4.07 4.07 0 0 1 -.94-.54 14.78 14.78 0 0 0 .25 1.77c.11.45.44.86.54 1.31 0 .18-.24.44-.38.66a2.72 2.72 0 0 1 -.56-.37 14.42 14.42 0 0 0 -1.15-1.3c-.12-.1-.77.19-.77.22.15.88-.66 2 .66 2.61.17.08.15.51.27.76s.43.77.64 1.15c.11.2.31.41.32.61v3.83c0 .22-.28.43-.43.64-.17-.23-.46-.44-.5-.68-.11-.74.2-1.61-.85-1.93-.08 0-.12-.21-.15-.33-.26-1.18-.52-2.37-.79-3.56 0-.15-.07-.4-.16-.43-1.14-.36-.7-1.31-.82-2.06a5.23 5.23 0 0 0 -.42-1c-.18.35-.53.7-.51 1 .07.9-.53 2 .77 2.59.16.07.12.6.18.92.2 1.15-.36 2.34.83 3.46.72.68.6 2.22.92 3.35a10 10 0 0 0 .65 1.26 2.43 2.43 0 0 1 .31 1c0 .72.33 1 1 .93v2.82c0 .74-.31 1-1 .8-1.38-1.41-1-3.45-1.78-5-.48-.92-1.09-1.77-1.64-2.65 0-.06-.15-.09-.18-.16a30.58 30.58 0 0 0 -1.09-2.91 35.15 35.15 0 0 0 -2.09-3.34.87.87 0 0 0 -.76.1c-.61 1.09-2.17 1.47-2.21 3.05 0 .4-.7.79-1.08 1.19s-.7.54-.71.83a15.06 15.06 0 0 0 .13 3.92c.12.55 1.15.89 1.78 1.32 0 1.88-.1 2.12-1.26 1.94a1 1 0 0 1 -.61-.3c-.63-.86-2.39-.83-1.86-2.62.33-1.11-.32-2.42.71-3.46.21-.21 0-.81.1-1.19a9.65 9.65 0 0 1 .64-1.39c.11-.24.34-.51.3-.74-.23-1.46.68-2.22 1.67-3 .2-.16.22-.56.33-.85a6.15 6.15 0 0 1 .37-1 4.42 4.42 0 0 1 .56-.67 6.67 6.67 0 0 0 -.93-.37 5.44 5.44 0 0 0 -1.03.02z"/><path d="m72 47.15c0-.34 0-.69-.07-1l.06-1c1.51.56 2.26-1.26 3.69-1.19.37 0 1.13-.87 1.13-1.34a2.82 2.82 0 0 1 1.65-2.39c1.32-.9 1.74-2.42 2.24-3.63.63-1.52-.09-3.49.87-5.1v-1c.22-.86 1.82-1.88 3-1.92.74-.18 1.92.58 2-1h2a2.55 2.55 0 0 1 -2 1.95c-.34.06-.62.42-1 .51a3.12 3.12 0 0 0 -2.42 2.42c0 .1-.24.14-.41.23 1.1.74 1 .94.31 1.86-.41.57-.22 1.57-.3 2.37a4.52 4.52 0 0 0 1.24-.49c.29-.23.4-.68.62-1s.41-.86.68-.9a2.42 2.42 0 0 0 2.32-2.36c0-.24.32-.5.54-.68 1.63-1.31 1.65-1.39.93-3.41a1.91 1.91 0 0 1 0-.48l.48-.08h2.64 2.59c.58 0 1.21-.15 1.52.69.09.23.87.24 1.34.29a14.62 14.62 0 0 0 1.48 0v1c.17.32.33.65.52 1a7.37 7.37 0 0 1 .45.77c.4 1 .75 2 1.15 2.94 0 .12.29.14.4.25.74.78 1.7 1.44 1.46 2.77-.06.29.19.67.38 1a1.51 1.51 0 0 1 -.1 2c-.82-1.26-1.89-2.31-2.18-3.54-.35-1.51-1.67-2-2.39-3.06-.44-.65-1.55 0-1.7.83a3.38 3.38 0 0 1 -.38 1c-.18.36-.38.71-.6 1.06s-.34.48-.51.73a5 5 0 0 0 -.45.77c-.4 1-.76 2-1.16 2.95 0 .09-.22.12-.28.21a2.77 2.77 0 0 0 -.53 1 18.19 18.19 0 0 0 0 2.09h-.91c-.79-.14-.84.36-.82.93l-1 .09c.09-.66-.05-1.67.32-1.91.7-.46.53-1 .66-1.56.23-1.1.23-2.52.92-3.2a3 3 0 0 0 .81-2.34c0-.2.07-.51.19-.56 1.35-.54.61-1.68.74-2.56 0-.15-.23-.37-.41-.49s-.4.11-.4.16c.07 1-.69 1.58-1.07 2.36-.74 1.54-1.26 3.18-1.87 4.78a.32.32 0 0 1 -.16.18c-.75.16-.73.73-.76 1.33a2 2 0 0 1 -.35.71 4 4 0 0 1 -.64 1.15c-1 1-.42 1.94.06 2.9-2.19-.11-3 .63-3 2.69l-1-.06c.12-.76-.25-1-1-1s-1.08.19-1 1l-1 .06h-.75a8.11 8.11 0 0 1 1-2.57c1.37-1.52 3-2.82 4.45-4.25a5.11 5.11 0 0 0 1.15-1.44 17 17 0 0 1 1.2-3c.41-.55.91-.94.89-1.69 0-.09.16-.18.22-.28.24-.41.48-.81.7-1.23.1-.22.07-.62.21-.67 1.31-.5.62-1.61.74-2.45 0-.17-.28-.4-.44-.6a2.6 2.6 0 0 0 -.48.58c-.15.4-.09 1-.35 1.22-.82.73-1.81 1.28-1.72 2.62 0 .13-.33.4-.51.4-1.6 0-2.21 1.5-3.33 2.22-.81.52-1.16 1.73-2.43 1.57-.14 0-.41.07-.43.17-.35 1.26-2.16 1.65-1.93 3.26a.44.44 0 0 1 -.15.32c-1 1-2 2-3 3-.23.23-.44.48-.66.72a7.22 7.22 0 0 0 1.09.34c.57.09 1.16.1 1.74.15v.53c-1.19 0-2.66.44-3.5-.1-1.12-.81-2.16-.44-3.23-.6z"/><path d="m118.38 38.27v-1.78a13.23 13.23 0 0 1 2 1.2c.8.72 1.49 1.57 2.23 2.36 0 0 .07.07.1.06 1.77-.32 2 1.63 3.12 2.18a.54.54 0 0 1 .23.4c-.14 1.3 1 1.72 1.62 2.53a5 5 0 0 1 .43 1.92v1.74c0 1-.05 1.93-.08 2.9h-.94a2.32 2.32 0 0 1 -2-2c-.06-1.11.3-2.32-.74-3.18-.66-.56-.76-1.43-1.15-2s-.57-1.62-1-2.1-.57-1.28-.92-1.79-.8-1.62-1.9-1.49l-.71-.49c-.1-.15-.19-.31-.29-.46z"/><path d="m15.08 90.33v-3a12.66 12.66 0 0 1 1.54 1.16c.79.8 1.49 1.67 2.26 2.49a1.07 1.07 0 0 0 .64.28c.57 0 1.16 0 1.36.73 0 .14.42.17.62.28.46.24.9.49 1.35.74.1.06.22.2.3.19 1.9-.44 3.28 1.62 5.24 1.09.28-.07.68.38 1.05.54a2.78 2.78 0 0 0 1.07.39h10.38c.72 0 1.23-.11 1.14-1l3.4.44.09.56-2.06 2.78a13.43 13.43 0 0 0 -1.62-.55c-.46-.11-1.19-.3-1.39-.08-.78.83-1.71.6-2.61.65-.2 0-.52.06-.56.17-.34 1-1.2.77-1.94.81a2 2 0 0 0 -1.86 1.63c.06 1.53-1 3.35.78 4.61.07.05 0 .24.09.35.37 1 .5 2.2 1.19 2.75.88.7.71 1.42.81 2.23a4 4 0 0 0 .41 1.07c.36.79.72 1.56-.21 2.22l-3.17-1.81a14.94 14.94 0 0 0 0-2.22 4.49 4.49 0 0 0 -.64-1.25c-.1-.17-.31-.35-.29-.5.19-1.13-1-1.3-1.36-2.09-.17-.44-.58-.83-.62-1.26-.08-1.19 0-2.39 0-3.58 0-2.26.34-2.68 2.55-3.2.13 0 .24-.18.62-.48a12.28 12.28 0 0 0 -1.37-.19c-1.36 0-2.71 0-4.07 0-.69 0-1.52.28-1.84-.75 0-.13-.43-.19-.66-.21a7.5 7.5 0 0 1 -2.2-.73 10.32 10.32 0 0 1 -3-2.07c-.81-.65-2.06-.72-3-1.22a9.83 9.83 0 0 1 -1.62-1.43 7.34 7.34 0 0 0 -.8-.54z"/><path d="m27.44 90.31c-.21.33-.36.87-.63.94s-.74-.24-1.1-.43c-.19-.11-.36-.46-.5-.44-1.33.16-1.81-.92-2.52-1.66-.11-.11-.26-.31-.36-.29-1.21.25-1.75-.8-2.47-1.37-.52-.4-.74-.52-1.17 0-.09.11-.57-.12-.87-.2.35-1.12-.77-1.56-1.26-2-.73-.6-1-1.18-.63-1.83.16-.31 1-.29 1.51-.4a1.48 1.48 0 0 1 .37 0c-.11.78.22 1.11 1 1l1.19-.47 1.22 1.06.53 1.4c-.11 1-.13 2 1.4 1.79.16 0 .35.27.54.38s.68.37 1 .55.74 0 .77.17c.31 1.12 1.2.79 1.94.85v1z"/><path d="m104.85 31.61a9.44 9.44 0 0 0 .45.9c.12.19.47.33.46.49-.08 1.83 1.74 2.27 2.5 3.48.08.12.39.21.38.26-.36 1.5 1.13 2.44 1.17 3.84a2.07 2.07 0 0 0 .61 1.15c.5.53.47 2.9-.08 3.4a1.49 1.49 0 0 0 -.53.83c-.08 1.33-1 1.65-2 1.92a3.65 3.65 0 0 0 -.9.54 2.58 2.58 0 0 0 .9.41c1.85 0 3.71 0 5.56.06a3.1 3.1 0 0 1 1.18.56c.13.07.25.33.33.31 1.5-.38 2.6.68 3.84 1.13.67.24 1.17 1 1.74 1.44.18.15.36.44.52.43 1.3-.11 1.8.93 2.5 1.68.13.14.33.32.48.3 1-.09 1 .55 1.28 1.34a2.24 2.24 0 0 0 1.76 1.69v.71c-1.26.2-2-.39-2.83-1.32s-1.58-2.39-3.36-2.51c-.9 0-1.72-1.08-2.59-1.63-.23-.15-.56-.1-.81-.22s-.69-.42-1-.6a4.33 4.33 0 0 0 -1-.37c-1-.19-2.32.51-3-.89-.09-.18-.7-.1-1.07-.1h-11.23c.06-.27.06-.74.2-.79 1.18-.4.75-1.36.82-2.15l.76-.49c.34.11.71.35 1 .3a12.75 12.75 0 0 0 1.85-.58 2.74 2.74 0 0 0 1-.35 6.41 6.41 0 0 0 1.68-1.78 5.12 5.12 0 0 0 .3-2.33c0-.18-.6-.35-.92-.52-.22-1.1.62-2.49-.88-3.25-.09 0 0-.32-.1-.47a12.69 12.69 0 0 0 -1.23-2.78 6.61 6.61 0 0 1 -1.51-4.14z"/></g><path d="m104.84 116.56h-1c.55-1.14 1.33-2.21 1.08-3.59 0-.06.1-.2.12-.19 2 .47 1.44-1.85 2.56-2.32a.34.34 0 0 0 .16-.31c-.2-1.33.81-1.78 1.69-2.32.1-.06.26-.19.24-.26-.46-1.91 1.15-3.31 1.2-5.21.06-2.15-1.4-3-2.41-4.21-.26-.31-1-.2-1.57-.29v-.34a3.41 3.41 0 0 1 .8-.22h3.58a2 2 0 0 0 1.68-.65c.43-.46 1.59-.28 2.44-.32 1.15-.07 2.33-1.38 2-2.39-.06-.19-.54-.25-.83-.37-.26 1-1.13.68-1.81.77s-1.76-.38-2.22.78c-.07.18-.67.19-1 .19-3.13 0-6.26 0-9.39 0-.36-.53-.72-1.06-1.16-1.73.36-1.1.3-1.31-.66-2.41-.17-.19-.16-.53-.23-.8 3.91 0 7.82 0 11.72-.05 1 0 2.34.58 3-.85 0-.11.39-.09.59-.11 2.09-.19 2.09-.19 2.08-2.27a3.57 3.57 0 0 0 0-1.35 13.08 13.08 0 0 0 -1.29-2c-.05-.06-.42 0-.44 0-.51 1.33-1.65.7-2.54.82a2.78 2.78 0 0 0 -1.56.62 3 3 0 0 1 -2.59.15 7.29 7.29 0 0 1 -2.08-2 4.2 4.2 0 0 1 -1.15-1.33c-.21-.75-.17-1.77.72-2s2.5-.47 2.89 0c.81 1 1.67.57 2.51.77.46.1.86.43 1.31.57a5.27 5.27 0 0 0 1.69.32c.18 0 .34-.6.51-.93h1c1 1.5 2.11 3 2 4.91v8.71l-.09 1.93c-1.45 0-.81 1.07-.94 1.75-.2.49-.43 1-.6 1.48s-.28 1-.42 1.46c-1.58 0-.76 1.27-1 2a9 9 0 0 0 -.7.83c-.68 1-1.33 2.1-2 3.16-1.41 0-.85 1-1 1.72a2 2 0 0 0 -1.65 2.5c-1.25 1.25-2.5 2.5-3.73 3.77-.24.25-.55.59-.55.89-.01.69-.46.69-.96.72z" fill="#f7a959"/><path d="m115.48 80.68c-.17.33-.33.93-.51.93a5.27 5.27 0 0 1 -1.69-.32c-.45-.14-.85-.47-1.31-.57-.84-.2-1.7.24-2.51-.77-.39-.48-1.95-.25-2.89 0s-.93 1.26-.72 2a4.2 4.2 0 0 0 1.06 1.46 7.29 7.29 0 0 0 2.08 2 3 3 0 0 0 2.59-.15 2.78 2.78 0 0 1 1.56-.62c.89-.12 2 .51 2.54-.82 0-.07.39-.11.44 0a13.08 13.08 0 0 1 1.29 2 3.57 3.57 0 0 1 0 1.35c0 2.08 0 2.08-2.08 2.27-.2 0-.54 0-.59.11-.69 1.43-2 .83-3 .85-3.9.07-7.81 0-11.72.05l-2.37.45c-.17-.26-.47-.51-.48-.77 0-.76-.5-.72-1-.66l-.48-.55c.16-.19.42-.36.44-.56.08-.75-.07-1.58.92-1.87a2.23 2.23 0 0 0 -.24-.7 2 2 0 0 0 -.71-.73c-.8-.35-1-1.61-2.22-1.33a19.68 19.68 0 0 1 -2.18.28l-.25-.23c0-1.66-1.2-.87-2-1l-1-1a1.59 1.59 0 0 0 -2.4-1.4l-.28-.23c-.11-1.5-1.11-1.53-2.23-1.35l-.72-.46-2-1-1.49-.34-.48-1a5.37 5.37 0 0 0 -.46-1c-.48-.67-1-1.3-1.52-2 .93.05 2.3-.26 2.71.23.65.77 1.29.65 2 .74.28 0 .76 0 .8.18.39 1.23 1.41.66 2.17.81-.11 1.1.7 1 1.37 1 1.34-.16 2 .64 2.6 1.65l.39 2c1-.25 1.6.56 2.17 1.12s.92 1 1.75 1c.1 0 .2.23.34.3a3.82 3.82 0 0 0 1.16.58 12.41 12.41 0 0 0 1.83 0c.21.34.4.68.62 1 .46.67.94 1.32 1.39 2a7 7 0 0 1 .43.87l.52-.91c.85 0 1.73-.21 2.3.87a2.19 2.19 0 0 0 1.62.83c2.59.08 5.18 0 7.76 0a4.17 4.17 0 0 0 .89-.23l-.06-.51c-.87 0-1.73 0-2.6 0-.36 0-.83 0-1-.19a22.57 22.57 0 0 1 -2.24-2.34c-1.32-1.65-2.3-1.81-3.87-.56a1.54 1.54 0 0 1 -.81.18c-.66 0-1.32 0-2 0v-.94c0-.79.32-1.09 1.11-1.06s1.68.2 2.18-.85a1.91 1.91 0 0 1 1.3-1c1.11-.05 1.19-.64 1.14-1.45s.16-1.32 1.16-1.32a1.19 1.19 0 0 0 .81-.86c0-.78.29-1.17 1.09-1.1.64-.31 1.92.74 1.92-.9.33.16.65.34 1 .5s.64.31 1 .46l.3.45c-.37.16-.77.52-1.11.46-1.4-.23-2.27.46-3.29 1.78h2.76c.44 0 1.18-.1 1.28.11.67 1.3 1.83.74 2.8.87.17.32.35.64.52 1s.23.58.4.91z" fill="#f28441"/><path d="m71.91 70.07c0 .24 0 .65-.08.7-1.29.55-.85 1.68-.87 2.62v6.35 2c-.67.07-1-.19-1-.91a10.42 10.42 0 0 0 0-2.09c0-.34-.42-.63-.64-.94 0-.24 0-.47 0-.71 1.22-.27.57-1.25.69-1.91s-.01-1.18-.8-1.18a6.08 6.08 0 0 0 .72-3.87z" fill="#f28441"/><path d="m66.24 69.12h2v1c-.69 0-1 .23-1 1 0 .32-.28.65-.44 1a3.92 3.92 0 0 1 -.49-1 13.94 13.94 0 0 1 -.07-2z" fill="#f28441"/><path d="m46 118.29c-.58-.17-1.16-.35-1.74-.49-.41-.11-.82-.16-1.24-.24.17-.79-.22-1.06-1-1 0-.76-.31-1.06-1.06-.89.17-.83-.17-1.16-1-1 0-.28 0-.76-.06-.8-1.11-.43-.75-1.38-.87-2.18a3.5 3.5 0 0 0 -.56-1.06c0-.07-.18-.07-.2-.13-.4-1.1-.77-2.21-1.2-3.3a11.61 11.61 0 0 1 -.76-4.67c.06-2.22 1.37-2.8 3.15-2.47.19 0 .48.59.47.61-.55.46-1.07 1.11-1.71 1.26s-1.18.26-1.16 1.16.63.89 1.25.9h.74v1.91l-.93.41c.19.22.39.42.56.66a4.73 4.73 0 0 1 .36.71 8.27 8.27 0 0 0 .3.88 7.22 7.22 0 0 1 .68 1.24c.21 1 1.52 2.09 2.39 1.78a3.78 3.78 0 0 0 1.23-1 7.86 7.86 0 0 0 1.36-1.58c.47-.9.78-1.88 1.17-2.82 0-.09.23-.11.28-.21.2-.35.36-.72.54-1.08v-.91h1.71a17.88 17.88 0 0 1 -.32 2.95c-.35 1.3-.92 2.53-1.39 3.79a1.6 1.6 0 0 0 0 .49v1.47c-.63 0-1 .13-1 .86s0 1.55 0 2.32c0 .24.3.47.46.7.16-.24.44-.47.45-.71.06-1.06 0-2.12 0-3.18.33-.2.77-.34 1-.63a4.18 4.18 0 0 0 .64-1.58 4.18 4.18 0 0 1 1-2.26 10.77 10.77 0 0 0 1.19-2.9c.06-.15.41-.19.47-.34a3.5 3.5 0 0 0 .33-1.42c0-.2-.59-.35-.92-.52.1-.3.2-.86.29-.86 1.82.07 2.63-1.83 4.26-2.17a2 2 0 0 0 1.26-1.08c.3-.76.88-.64 1.41-.87a4.82 4.82 0 0 0 1.41-1.27 4.48 4.48 0 0 0 .49-.92c.12.1.34.2.35.31.11 1.13.83 1.29 1.77 1.23a1.72 1.72 0 0 1 .68.23 5.47 5.47 0 0 0 -.56.51c-.25.28-.46.58-.69.88.07.79-.27 1.11-1.08 1.06s-1.53-.27-1.82.77c0 .09-.28.17-.43.18a2.41 2.41 0 0 0 -2.42 2.38c0 .22-.33.4-.47.62-.76 1.21-2.6 1.64-2.51 3.48 0 .15-.31.32-.48.48-.47.45-1.21.83-1.36 1.37a7.88 7.88 0 0 0 0 2.7c0 .17.69.48.77.4 1-1 2-2 3.06-3s1.8-2.41 3.5-2.49c.16 0 .34-.19.47-.32.77-.74 2.22-.92 2-2.46 0 0 .24-.07.31-.16a6.14 6.14 0 0 0 1.39-1.9c.2-.72.34-1.07 1.14-1.08s1.8-1.2 1.84-2.06c.07-.26.07-.7.22-.75.9-.36 1.83-.62 2.75-.91.71-.1 1.79.52 1.78-.94h1c0 .73-.22 1.52.79 2 .51.23.19 1.63-.35 1.72-1.28.2-2.68-.33-3.79 1-.3.33-1.23.16-1.61.93-.24.48-1 .69-1.27 1.16-.76 1.17-2.53 1.6-2.47 3.37a.7.7 0 0 1 -.31.48c-1 .75-1.9 1.55-1.65 3 0 .22-.22.48-.34.72a4 4 0 0 0 -.59 1.17 7.29 7.29 0 0 0 0 2.33c.29 1.43-.62 2.53-.85 3.81a1.07 1.07 0 0 1 -.82.09 3 3 0 0 0 -3.12 0 3.43 3.43 0 0 1 -2.91.06c1-.56 1.77-1.4 2.57-1.4 1.17 0 1.49-1 2.26-1.37a2.09 2.09 0 0 0 1.05-1.45 26.86 26.86 0 0 0 0-3.7.74.74 0 0 0 -.36-.56c-.14 0-.41.15-.57.3a21.42 21.42 0 0 0 -2.58 2.64c-.81 1.12-2.38 1.61-2.53 3.37 0 .58-.95 1.22-1.07 2.07 0 .08-.36.15-.56.17-.41 0-.82 0-1.23 0z" fill="#f28441"/><path d="m67.22 85.62.3 3.28-.33 1.42-.49.5-.43.53c-1.65-.13-.83 1.15-1 1.84a2 2 0 0 0 -1.97 1.11c-.27 0-.74 0-.78.13-.43 1.17-1.38.8-2.2.82 0-.24 0-.58.1-.71 1.16-1.12 2.36-2.2 3.54-3.3.06 0 .16-.08.18-.15.4-1 .56-2.24 1.25-3s.42-2.27 1.83-2.47z" fill="#f28441"/><path d="m41 106c.68-.32 2 .63 2-1h1c0 2.06 0 2-2.07 1.94-.7-.05-.93-.34-.93-.94z" fill="#f28441"/><path d="m100.1 103a13.43 13.43 0 0 0 .68 1.37c.38.62.59 1.08-.22 1.63-.57.38-.85 1-1.75 1-1.77-.11-2.6-.85-2.64-2.61 0-.6.14-1.25-.69-1.52-.17-.06-.27-.56-.28-.86 0-1 0-2 0-3l1.25-.51c1 .77 2.19 1.28 2.69 2.54.17.71-.58 1.9.96 1.96z" fill="#f28441"/><path d="m101.88 47.39 2.67-2.28c.4-.34.82-.67 1.23-1 1.71.08.75-1.24 1-1.92.32.17.91.34.92.52a5.12 5.12 0 0 1 -.3 2.33 6.41 6.41 0 0 1 -1.68 1.73 2.74 2.74 0 0 1 -1 .35 12.75 12.75 0 0 1 -1.85.58c-.28.04-.65-.2-.99-.31z" fill="#f7a959"/><path d="m99.12 41.12h-2c-.33-.21-.91-.4-.93-.63a2.23 2.23 0 0 1 .45-1.34 6.74 6.74 0 0 1 1.47-1.45 2.83 2.83 0 0 1 1.45-.46c.15 0 .34.59.52.9s.42.68.6 1a7.84 7.84 0 0 1 .38.95c-.7.24-1.92-.63-2 1z" fill="#f28441"/><path d="m20.86 9a9.24 9.24 0 0 1 2.14.19l25.07 5.81a8.05 8.05 0 0 0 1 .18 298.82 298.82 0 0 0 35.38 2.43c18.53 0 27.73-2.73 32.23-5.13a9.34 9.34 0 0 1 4.32-1.09 9.2 9.2 0 0 1 6.13 2.33 25.5 25.5 0 0 1 3.48 3.69 16.62 16.62 0 0 1 2.81 7.31 9.14 9.14 0 0 1 -.38 4.28c-5.22 15.33-7.18 59.7-6.58 73.78.35 8.18 2.21 13.55 3.77 16.7a9.11 9.11 0 0 1 -1 9.7 27.37 27.37 0 0 1 -5.46 5.16 9.09 9.09 0 0 1 -3.84 1.58 8.59 8.59 0 0 1 -1.52.13 9.57 9.57 0 0 1 -2.19-.26 260.15 260.15 0 0 0 -61-7.3c-3.44 0-6.19.08-8.13.15-.81 0-1.62.05-2.43.05-1 0-2 0-3-.05h-.56c-6.75 0-13.44 3-17.45 5.27a9.23 9.23 0 0 1 -4.47 1.16 9.13 9.13 0 0 1 -4.93-1.44 19 19 0 0 1 -7.53-8.87 9.19 9.19 0 0 1 -.32-6l3.13-10.91a9.49 9.49 0 0 0 .3-1.5c.62-5.47 4.3-38.9 4.19-58.49-.07-12-2.44-19.24-4.51-23.28a9.2 9.2 0 0 1 2-11 27 27 0 0 1 4.78-3.46 9.2 9.2 0 0 1 4.57-1.12m0-1.73a11 11 0 0 0 -5.4 1.42 29 29 0 0 0 -5.09 3.69 11 11 0 0 0 -2.4 13c1.93 3.77 4.25 10.74 4.32 22.5.11 19.33-3.47 51.94-4.18 58.28a8.23 8.23 0 0 1 -.24 1.22l-3.13 10.9a11 11 0 0 0 .37 7.12 20.85 20.85 0 0 0 8.21 9.68 10.86 10.86 0 0 0 5.86 1.71 11 11 0 0 0 5.31-1.38c4.13-2.3 10.37-5 16.61-5h.57 3s1.71 0 2.5 0c2.5-.1 5.21-.15 8.06-.15a256.41 256.41 0 0 1 60.58 7.25 10.82 10.82 0 0 0 2.6.31 11 11 0 0 0 6.37-2 29.53 29.53 0 0 0 5.81-5.49 10.9 10.9 0 0 0 1.19-11.56c-1.45-2.91-3.25-8-3.59-16-.6-13.84 1.34-58 6.49-73.15a10.79 10.79 0 0 0 .45-5.08 18.3 18.3 0 0 0 -3.13-8.15 26.62 26.62 0 0 0 -3.73-4 11 11 0 0 0 -12.42-1.39c-4.22 2.24-13.11 4.92-31.42 4.92a299 299 0 0 1 -35.17-2.42 7 7 0 0 1 -.8-.14l-25.12-5.86a10.9 10.9 0 0 0 -2.48-.28z" fill="#fff"/><path d="m126.2 47.8s-18.87-23.66-35.54-22.15-17.66 11.64-18.36 20.26l-.19 3.69 9.36-2.24s-9.56 10.31-8.61 21.13c0 0-26.42-1.45-30.45-26.29 0 0 5.79 5.72 10.69 5.53 0 0-1.63-35.85 29.44-37.49 0 0 21.39-2.24 43.66 37.56z"/><path d="m20 97s18.88 23.66 35.55 22.15 17.62-11.64 18.36-20.26l.09-3.73-9.32 2.24s9.56-10.31 8.62-21.13c0 0 26.42 1.44 30.44 26.29 0 0-5.78-5.72-10.69-5.53 0 0 1.64 35.85-29.44 37.49 0 0-21.39 2.26-43.61-37.52z"/><path d="m48.21 19.75s-23.65 18.88-22.14 35.55 11.64 17.62 20.25 18.36l3.69.18-2.24-9.36s10.32 9.52 21.14 8.62c0 0-1.45 26.42-26.3 30.44 0 0 5.73-5.78 5.54-10.69 0 0-35.86 1.64-37.49-29.44 0 0-2.27-21.41 37.55-43.66z"/><path d="m97.38 126s23.62-18.87 22.14-35.54-11.64-17.62-20.26-18.36l-3.68-.19 2.24 9.36s-10.32-9.56-21.14-8.61c0 0 1.45-26.42 26.3-30.45 0 0-5.73 5.79-5.54 10.7 0 0 35.86-1.64 37.49 29.44 0 0 2.27 21.38-37.55 43.65z"/><path d="m124 47.8s-18.9-23.66-35.57-22.15-17.62 11.64-18.36 20.26l-.18 3.69 9.36-2.24s-9.56 10.31-8.62 21.13c0 0-26.42-1.45-30.44-26.29 0 0 5.78 5.72 10.69 5.53 0 0-1.64-35.85 29.44-37.49 0 0 21.39-2.24 43.68 37.56z" fill="#d1232a" stroke="#fff" stroke-miterlimit="10" stroke-width="1.24"/><path d="m17.73 97s18.87 23.66 35.54 22.15 17.62-11.64 18.36-20.26l.19-3.69-9.36 2.2s9.54-10.31 8.61-21.13c0 0 26.42 1.44 30.45 26.29 0 0-5.79-5.72-10.7-5.53 0 0 1.64 35.85-29.44 37.49 0 0-21.38 2.26-43.65-37.52z" fill="#0167a6" stroke="#fff" stroke-miterlimit="10" stroke-width="1.24"/><path d="m46 19.75s-23.67 18.88-22.16 35.55 11.64 17.62 20.26 18.36l3.69.18-2.24-9.36s10.31 9.52 21.13 8.62c0 0-1.45 26.42-26.29 30.44 0 0 5.72-5.78 5.53-10.69 0 0-35.85 1.64-37.49-29.44 0 0-2.26-21.41 37.57-43.66z" fill="#a4ce4d" stroke="#fff" stroke-miterlimit="10" stroke-width="1.24"/><path d="m95.15 126s23.65-18.87 22.15-35.54-11.64-17.62-20.3-18.36l-3.69-.19 2.24 9.36s-10.31-9.56-21.13-8.61c0 0 1.44-26.42 26.29-30.45 0 0-5.72 5.79-5.53 10.7 0 0 35.85-1.64 37.49 29.44.04 0 2.33 21.38-37.52 43.65z" fill="#fbb034" stroke="#fff" stroke-miterlimit="10" stroke-width="1.24"/></svg>