<svg viewBox="0 0 141 145" xmlns="http://www.w3.org/2000/svg"><rect fill="#dedede" height="145" rx="14" width="141"/><path d="m118.55 136.92a10.09 10.09 0 0 1 -2.39-.29 257.21 257.21 0 0 0 -60.79-7.27c-2.86 0-5.58 0-8.09.15-.82 0-1.64.05-2.46.05-1 0-2 0-3-.05h-.6c-6.42 0-12.8 2.8-17 5.15a10 10 0 0 1 -10.28-.3 19.87 19.87 0 0 1 -7.94-9.29 10.07 10.07 0 0 1 -.34-6.55l3.12-10.91a7.8 7.8 0 0 0 .27-1.36c.72-6.35 4.3-39 4.19-58.39-.07-11.93-2.44-19-4.41-22.89a10.05 10.05 0 0 1 2.21-12 27.3 27.3 0 0 1 4.96-3.57 10 10 0 0 1 5-1.32 10.35 10.35 0 0 1 2.28.26l25.12 5.82a8.72 8.72 0 0 0 .89.16 300.88 300.88 0 0 0 35.28 2.43c18.49 0 27.51-2.74 31.82-5a10.23 10.23 0 0 1 4.78-1.19 10.09 10.09 0 0 1 6.7 2.54 25.88 25.88 0 0 1 3.61 3.83 17.56 17.56 0 0 1 3 7.69 9.88 9.88 0 0 1 -.42 4.68c-5.17 15.22-7.13 59.58-6.53 73.47.35 8.09 2.2 13.36 3.68 16.35a10 10 0 0 1 -1.09 10.63 28.35 28.35 0 0 1 -5.64 5.32 10.07 10.07 0 0 1 -4.2 1.74 10.36 10.36 0 0 1 -1.73.11z" fill="#faae57"/><path d="m21 9a9.24 9.24 0 0 1 2.09.24l25.09 5.76a8.42 8.42 0 0 0 1 .18 299 299 0 0 0 35.39 2.43c18.52 0 27.73-2.73 32.23-5.13a9.34 9.34 0 0 1 4.37-1.09 9.18 9.18 0 0 1 6.12 2.33 25 25 0 0 1 3.49 3.69 16.74 16.74 0 0 1 2.81 7.31 9.27 9.27 0 0 1 -.38 4.28c-5.21 15.33-7.21 59.7-6.6 73.78.35 8.18 2.21 13.55 3.77 16.7a9.15 9.15 0 0 1 -1 9.71 27.57 27.57 0 0 1 -5.46 5.15 9.14 9.14 0 0 1 -3.84 1.58 8.67 8.67 0 0 1 -1.52.13 9 9 0 0 1 -2.19-.27 260.59 260.59 0 0 0 -61-7.29c-3.43 0-6.19.08-8.12.15-.81 0-1.62.05-2.43.05-1 0-2 0-3-.05h-.62c-6.75 0-13.43 3-17.45 5.27a9.23 9.23 0 0 1 -4.47 1.16 9.09 9.09 0 0 1 -4.92-1.44 19.05 19.05 0 0 1 -7.54-8.87 9.13 9.13 0 0 1 -.31-6l3.12-10.91a9.49 9.49 0 0 0 .3-1.5c.62-5.47 4.31-38.9 4.19-58.49-.07-12-2.44-19.24-4.5-23.28a9.19 9.19 0 0 1 2-11 27 27 0 0 1 4.78-3.46 9.23 9.23 0 0 1 4.6-1.12m0-1.73a10.93 10.93 0 0 0 -5.39 1.42 28 28 0 0 0 -5.09 3.69 10.93 10.93 0 0 0 -2.4 13c1.93 3.77 4.24 10.74 4.31 22.5.11 19.33-3.46 51.94-4.18 58.28a7.12 7.12 0 0 1 -.25 1.21l-3.14 10.91a10.86 10.86 0 0 0 .37 7.12 20.79 20.79 0 0 0 8.21 9.68 10.88 10.88 0 0 0 11.16.33c4.14-2.3 10.37-5 16.61-5h.58 3s1.71 0 2.5 0c2.49-.1 5.21-.15 8-.15a256.73 256.73 0 0 1 60.71 7.2 10.83 10.83 0 0 0 4.41.17 10.76 10.76 0 0 0 4.56-1.89 28.86 28.86 0 0 0 5.82-5.48 10.9 10.9 0 0 0 1.19-11.55c-1.45-2.92-3.25-8.06-3.59-16-.6-13.84 1.34-58 6.48-73.15a10.93 10.93 0 0 0 .46-5.08 18.5 18.5 0 0 0 -3.13-8.08 26.58 26.58 0 0 0 -3.73-4 11 11 0 0 0 -12.47-1.4c-4.23 2.24-13.11 4.92-31.42 4.92a299.11 299.11 0 0 1 -35.18-2.42 7.9 7.9 0 0 1 -.8-.14l-25.15-5.86a10.84 10.84 0 0 0 -2.45-.28z" fill="#fff"/><path d="m117.8 13.47a12 12 0 0 0 1.26-1.32 10.17 10.17 0 0 0 .75-1.64h1l3.45.54c1.31 1.52 2.38 3.25 4.42 4 .57.22.88 1.11 1.3 1.69.05.06 0 .2.07.23 1.62.9 1.55 2.7 2.2 4.11-.23.66-.19 1.48-1.12 1.72-.12 0-.12.51-.18.79-.83.06-1.76-.28-2.22.88a7.07 7.07 0 0 1 -1.23 1.59h-.25c-.4-.5 0-1.76-1.27-1.43l-.93-.56-.26-.24-.54-.68c.26-1.24-.29-1.69-1.49-1.53-.15 0-.32 0-.48 0l-.94-.55-2.48-2.22-.28-.7.73-.81-1-.44a10.53 10.53 0 0 0 0-1.59c-.11-.6-.31-1.22-.51-1.84z" fill="#f28441"/><path d="m114.38 133.87c-2 .19-3.69-.78-5.45-1.45l-2.24-.48-1.93-.06c0-.31 0-.63-.05-.94 0-1.57 0-3.14 0-4.71v-4a2.39 2.39 0 0 0 2-2c.57 0 1.52-.12 1.64.13.67 1.33 1.8.74 2.75.85l1.53.59v2.37c0 .28 0 .76.12.8 1.24.42.79 1.44.84 2.25s-.05 1.88 0 2.81c0 .31.46.57.71.86.07 1.02.07 2 .08 2.98z" fill="#f28441"/><path d="m129.4 119.83a10.14 10.14 0 0 1 2.64 3.7 1.23 1.23 0 0 1 0 .8 10.7 10.7 0 0 1 -2.86 4.41c-1.26 1.29-2.59 2.49-3.89 3.73l-.75-.45c-.29 1-1.08.87-1.83 1-.18 0-.28.58-.42.89-.68.26-2-.68-2 1h-2c0-.65 0-1.31 0-2s-.26-1.06-1-1c.14-.75.28-1.49.43-2.23l.93.65 3.42-1.78a6.71 6.71 0 0 1 .66-1.19c.69-.86 2.09-1.21 1.84-2.72 0-.09.2-.29.33-.32 1.53-.29 1.39-1.81 2-2.74s.59-2.09 1.9-2.3z" fill="#f28441"/><path d="m85.43 128c.2-.33.32-.83.61-1 2.25-1.07 4.68-.75 7.06-.77 0 .77.47.76 1 .73v2h-2.75l-2.94-.08c.06-.65-.17-1-.89-1s-1.39 0-2.08 0z" fill="#f28441"/><path d="m99 130c0-.08 0-.17 0-.25.46-2.2-.78-3.45-2.46-4.5-.26-.17-.34-.63-.5-1 2.2 0 2 .23 2-1.9 0-.74.16-1.18 1-1.07v3.72c2 1.22 2.14 3.49 2 5.88h-2z" fill="#f3944a"/><path d="m57.52 126.92c-.05-1.66-.05-1.66-1.76-1.68h-1.22c-.14-1.29.81-.93 1.48-1s1.62.29 1.47-1c-.21-.73.65-2-1-2 .24-.31.46-.64.72-.94a5.27 5.27 0 0 1 .55-.5h.21a4.62 4.62 0 0 1 .49 1.27c.07 1.1 0 2.22.05 3.32 0 .3.46.58.7.86v1.69z" fill="#f28441"/><path d="m48.62 127h-.77l-1.46-.46 1.77-.79c1.1.16 2.19.34 3.28.49.5.07 1.14-.15 1.11.72z" fill="#f28441"/><path d="m121.3 134.89h-1c0-1.64 1.28-.7 2-1l-.06.94z" fill="#f3944a"/><path d="m125 46.86c0-.61-.09-1-.85-1-.28 0-.82-.3-.81-.45 0-1.83-1.77-2.29-2.55-3.48a9 9 0 0 1 -.49-1 2.66 2.66 0 0 0 -2-2h-1l1.5-2.2 1.5.5c.08.3.08.8.25.87.88.35 1.81.58 2.72.86a5.84 5.84 0 0 1 1 .61 15.08 15.08 0 0 0 1.69 1.7c1.11.72.67 2.35 1.91 3 .2.1 0 .85.11 1.29s.2 1.07.31 1.6l-.27.74c-.86-.09-1.89.29-2.33-.92-.03-.13-.45-.09-.69-.12z" fill="#f28441"/><path d="m124.26 82.71h.74v1.71l-.7.49-2 1.51c-.76-.11-1.1.21-1 1-.86 0-1.82-.27-2.24.89 0 .11-.46.08-.71.11-.22-1.33-1.24-2-3-2l-1.49-1.42a5.24 5.24 0 0 1 1.42-.5c1-.08 2 0 3 0a7.18 7.18 0 0 0 .06 1.47c0 .18.45.27.69.4.29-1 1.09-.87 1.84-1 .17 0 .25-.59.37-.9 1-.41 1.93-.82 2.88-1.26.13-.08.11-.34.14-.5z" fill="#f28441"/><path d="m122.28 66.15 1-.6c.19-.11.4-.35.55-.31a.63.63 0 0 1 .37.51c-.2 1.46.73 1.46 1.73 1.39v2c-.55-.13-1.12-.22-1.66-.4-.25-.09-.44-.35-.66-.52-.12.31-.25.62-.37.94-.69-.26-2 .68-2-1 1.69 0 .73-1.29 1-2z" fill="#f3944a"/><path d="m125 46.86c.24 0 .66 0 .69.09.44 1.21 1.47.83 2.33.92 0 .89-.05 1.78-.08 2.68h-.94c-.69.06-1.1-.17-1-.95 0-.19 0-.53-.12-.56-1.25-.36-.81-1.37-.88-2.18z" fill="#f3944a"/><path d="m123.27 89.39c0-1.13 1-1.4 1.68-2v2.94c-.56.47-1.1 1-1.68 1.41a7.16 7.16 0 0 1 -1 .58c0-.66 0-1.31 0-2 .73.14 1.11-.15 1-.93z" fill="#f28441"/><path d="m18.66 134.91a7 7 0 0 0 -2.06-.91c-1-.09-1.42-.82-2-1.4-1.63-1.62-3.34-3.17-4.86-4.89a5.26 5.26 0 0 1 -1.74-3.42 5 5 0 0 1 .36-1.91c.34-.51 1.08-.75 1.64-1.11.75-.14 1.77.49 2.11-.78.28.08.69.08.8.26s0 .65.1 1 .34.35.51.52c.14-.17.38-.32.41-.5a14.44 14.44 0 0 0 .05-1.47h1.25a4.92 4.92 0 0 0 .77.7c.88.59 1.8 1.13 2.7 1.69l.51.78c-.14.8-.64 1.8-.34 2.36a2.28 2.28 0 0 0 2.13 1.17c1.29-.11 1.57.34 1.62 1.95v4c-.73-.07-1.09.23-1 1l-.48.5z" fill="#f28441"/><path d="m11.55 24.6a11.09 11.09 0 0 0 -1.77-2.06 1.81 1.81 0 0 1 -.78-1.84c0-.7 0-1.4 0-2.09.18-.48.22-1.07.54-1.4 1.91-2 3.88-4 5.83-5.94.11-.11.29-.26.4-.23 1 .23 1.3-.64 1.92-1h4 .95v4.56c0 .59.21 1.28-.71 1.48a5.12 5.12 0 0 0 0 1.12c-.85 1.16-1.67 2.34-2.56 3.47-1.28 1.61-3.09 2.79-3.77 4.86 0 .06-.23 0-.35.08-.39.07-1.08.06-1.12.22-.25 1-1 .73-1.57.75l-.07-.48.51-1.1z" fill="#f28441"/><path d="m58.5 17h.71v3.63c-.24.29-.69.57-.69.86-.05 3-.05 5.95 0 8.93 0 .29.46.57.7.86.06.93-.23 2.33.25 2.69.89.67.67 1.36.75 2.11 0 .29 0 .63.1.84a8.91 8.91 0 0 0 2 2.72c1 .65.77 1.38.82 2.18v.61l-.49.48c-1 .08-1.47-.11-1.63-1.34-.09-.75-1-1.45-1-2.44 0-.06-.2-.12-.31-.16a17.85 17.85 0 0 1 -1.89-.85c-.31-.18-.49-.81-.75-.82a2.32 2.32 0 0 1 -2-1c-1.07-1.61-3.35-2.3-3.59-4.64 0-.16-.58-.26-.9-.39 0-.16.05-.41 0-.47a2.41 2.41 0 0 1 -1.07-2.19 1.76 1.76 0 0 0 -.93-.18c-.15 0-.3.5-.28.75 0 .43.31.84.31 1.25 0 .76.39.9 1 .85.09.63 0 1.64.32 1.81.7.37.63.84.7 1.4a2.43 2.43 0 0 0 .34.71l.63 1.14c.16.29.31.58.48.87s.35.56.5.85.16.64.36.82c.76.69 1.78 1.18 1.65 2.47a.62.62 0 0 0 .18.43c.82.74 1.72 1.41 2.48 2.2s1.66 1.52 1.27 2.83a2 2 0 0 0 0 .49l-.74.1a7.11 7.11 0 0 0 -1.78-.51c-.9 0-1.67 0-1.5-1.27a.85.85 0 0 0 -.16-.55c-1.5.11-1.66-1-2.17-2a4.17 4.17 0 0 1 -.64-1.36 2.11 2.11 0 0 0 -.33-.71c-.2-.38-.43-.75-.62-1.14s-.1-.57-.25-.78a10 10 0 0 1 -1.64-2.29 33.1 33.1 0 0 1 -.84-4.48c-.39-1-.74-1.9-1.18-2.82-.07-.14-.52-.11-.79-.16a2.22 2.22 0 0 0 0-.73 5.64 5.64 0 0 0 -.48-.95c-.16.35-.51.76-.43 1.06s.6.42.93.62v3c0 .75.25 1.08 1 1 .27 1.08-.7 2.5.89 3.23.07 0 .06.22.09.34.25 1.18.51 2.36.77 3.53 0 .12.05.32.11.34 1.23.39.67 1.45.9 2.24a22.44 22.44 0 0 0 1.15 2.79s.08 0 .1.07c.23.4.45.81.69 1.21s.35.56.5.84.33.66.49 1c-.7.25-2-.7-2 1h-2c.08-.74-.23-1-1-1-1 0-2 0-3.08 0-.2 0-.39-.29-.59-.45a2.55 2.55 0 0 1 .57-.48 1.21 1.21 0 0 1 .73 0c1.36.43 1.91-1.34 3.18-1.17a1.33 1.33 0 0 0 .17-.66c-.25-1.59-.53-3.17-.8-4.76 0-.07-.07-.19-.12-.2-.93-.17-.78-.88-.82-1.53a1.45 1.45 0 0 0 -.26-.51c-.23-.4-.47-.81-.72-1.2-.14-.21-.33-.4-.48-.61a4.28 4.28 0 0 1 -.48-.86c-.11-.3 0-.87-.19-.91-1.21-.38-.7-1.39-.85-2.15l1-.61c-.76-.3-.85-1.57-2-1.36l-1-.07a2.85 2.85 0 0 0 -.5-1 1.32 1.32 0 0 1 .06-2c.47-.5 1.76-.53 1.32-1.76-.65 0-1.25 0-1.85.09-.31 0-.77.06-.88.25a2.84 2.84 0 0 1 -3 1.34l-.75-1.72c.67-.16 1.82.51 1.73-1 .87-.65 1.69-1.73 2.64-1.86 1.32-.18 1.38-.73 1.31-1.73 0-.45 0-.9 0-1.35v-1h1c-.1.77.24 1.1 1 1h8.65c.07.69-.17 1.05-.93 1s-1.36 0-2 0l-1 .07v3.84c0 .36.35.7.53 1.05.4.79 1.63 1 1.48 2.22 0 .13.6.33.92.49 1 1.25 2 2.54 3.1 3.72a9.56 9.56 0 0 0 1.84 1.24c0 .2 0 .56.06.58a6 6 0 0 0 1.42.34c.14 0 .31-.3.46-.45l-.94-.5v-1c0-.91-.06-1.82 0-2.71s-.27-1.39-1.25-1.25a6.09 6.09 0 0 1 -.74 0c-1-.42-1.93-.83-2.88-1.28-.08 0-.06-.29-.09-.45 0-1.71 1.29-.71 2-1 .65.12 1.31.21 1.94.39.25.07.44.35.66.54a2.68 2.68 0 0 0 .35-.83c0-1.72 0-3.45 0-5.18 0-.65-.26-.88-.88-.87-1.36 0-2.72 0-4.08 0-.1-.85.34-1 1.09-1 1.23 0 2.54.34 3.42-1a17.51 17.51 0 0 1 1.44-1.61z" fill="#f28441"/><path d="m85.44 20.65c-.79 0-1.57 0-2.35 0a.73.73 0 0 0 -.54.36c0 .15.18.38.29.58a3.19 3.19 0 0 1 .59 1.14c.08 1.1-.1 2.24.07 3.32s-.56 1.61-1.23 2.09-.78-.09-.78-.63c0-1.64 0-3.29 0-4.93 0-.77.24-1.58-.58-2.24-.3-.24-.11-1.09-.14-1.66h2.7c0 .64.14 1 .88 1s1.4 0 2.09 0c.1.77-.27 1.06-1 .97z" fill="#f28441"/><path d="m54.54 16.92c0 .16 0 .42-.09.46a16.91 16.91 0 0 1 -3.07 1.25 12.53 12.53 0 0 1 -2.81 0c-2 0-2.71-.78-2.67-2.69l2.72-.06 2.92.06c0 .74.3 1 1 1s1.34-.02 2-.02z" fill="#f28441"/><path d="m36.23 14c.11.75-.34 1.66.64 2.18.07 0 .06.5 0 .54-.89.45-.54 1.26-.62 1.95-.74.08-1-.24-1-1 0-1.22 0-2.44 0-3.67v-.07z" fill="#f3944a"/><path d="m43.9 86.43a4.09 4.09 0 0 1 1 0c.34.09.92.32.92.47a3.2 3.2 0 0 1 -.42 1.48 2.49 2.49 0 0 1 -2.69 1c-.19 0-.54 0-.57.14-.42 1.26-1.46.81-2.28.82-4.07 0-8.15 0-12.23 0-.55 0-1.11.11-1.4-.66-.1-.24-.86-.24-1.32-.31-.7-.11-1.59.33-1.95-.79-.05-.17-.74-.19-1.14-.2-1.66 0-1.91-.24-2.28-1.87-2 .07-2.76-1.61-3.89-2.81a1.79 1.79 0 0 0 -.64-.29v-.72c1 .06 2-.32 2.82.67a3.3 3.3 0 0 0 1.44 1c.57.2 1.35-.12 1.54.83a1.6 1.6 0 0 0 .77-.1c.24-.14.38-.45.57-.68h5.2c.6 0 1.59-.08 1.71.18.51 1.16 1.44.73 2.24.82v1c-.74 0-1.48 0-2.21 0a4.51 4.51 0 0 0 -1.2.46c.39.17.79.34 1.19.49a.64.64 0 0 0 .24 0c-.09.75.23 1 1 1q2.22-.06 4.44 0c.75 0 1.09-.23 1-1 1.56.59 2.47-1.23 3.92-1.09.07 0 .15-.27.27-.36s.55-.51.83-.5c.79 0 1.19-.18 1.18-1.1 0-1.07-.69-.9-1.34-.92-.81 0-1.87.22-2.37-.19a3 3 0 0 0 -2-.56c.22-.85-.51-.94-1-1.23-.76-.87-1.51-1.76-2.3-2.61-.05 0-.5.14-.64.32-.75 1-1.57 1.84-3 1.55-.68-.27-2 .71-2-1h.58c.6-1.29 1.79-.81 2.77-1 .25 0 .41-.6.61-.93 1.29.21.83-1 1.26-1.54l2.67.53v1c-.1.76.27 1 1 1a3.78 3.78 0 0 0 3.76 3c.77.08 1.75-.4 2.12.81 0 .13.51.12.79.17 0 .16 0 .43.08.46 1.19.41.91 1.39.91 2.27-.13 0-.28 0-.37 0-.71.5-1.29 1.27-2.32 1l-.11.74a16.11 16.11 0 0 0 2.3.11c.23.04.38-.54.54-.86z" fill="#f28441"/><path d="m17.7 75.78a2.43 2.43 0 0 0 -1.95-2c0-1.23 0-2.46-.05-3.69l.51-.51a19.08 19.08 0 0 0 2.46.48c.7 0 1.09.19 1 1l-3.33.17v.53l3.32.15v1a5.45 5.45 0 0 0 1 1.42c1.13.87 1.63 2.62 3.46 2.56.16 0 .31.32.5.45a2.32 2.32 0 0 0 .85.47c.61.07 1.23 0 1.85 0l-.24 1c-1.27-.3-2.85.75-3.8-.91-.06-.1-.39-.06-.59-.07-.88 0-1.88.29-2.33-.91 0-.1-.46-.07-.7-.1.03-1.72-1.27-.77-1.96-1.04z" fill="#f28441"/><path d="m13 98.05c.32-.18.62-.37 1-.52a3.8 3.8 0 0 1 1.23-.41c.15 0 .33.51.49.79a10 10 0 0 0 1.15 1.9c1.1 1.14 2.32 2.17 3.49 3.25.13.13.3.35.27.49-.26 1.26.9 1.5 1.48 2.17.85 1 2.2 1.52 2.51 3-.48.32-1 .89-1.42.88s-1-.55-1.55-.87h-1c.1-.75-.23-1.09-1-1 .1-.76-.23-1.09-1-1-.1-1.22-1-1.52-2-1.73-1 0-2 .12-1.76-1.38 0-.17-.24-.37-.35-.57s-.57-.68-.58-1c0-.74-.27-1.08-1-1z" fill="#f28441"/><path d="m128 26.58-.5-.5a7.07 7.07 0 0 0 1.23-1.59c.46-1.16 1.39-.82 2.22-.88v2.07c0 .23 0 .64-.14.67-1.16.38-.85 1.32-.83 2.11s-.4.89-1 .84v-1c-.19-.64.55-1.83-.98-1.72z" fill="#f3944a"/><path d="m123.28 38.94c-.91-.28-1.84-.51-2.72-.86-.17-.07-.17-.57-.25-.87h1.23c1.72.01 1.72.01 1.74 1.73z" fill="#f3944a"/><path d="m118.81 36.71c.6-.38.27-1.7 1.48-1.49v2z" fill="#f3944a"/><path d="m70.59 50.05a10.82 10.82 0 0 1 .25 1.68q0 23.66 0 47.32v1h-2.67v-2h1c1.05 0 .72-.81.72-1.35q0-20.85 0-41.72c0-.24.09-.55 0-.73a4.73 4.73 0 0 0 -.75-.73z" fill="#f28441"/><path d="m59.22 125.24c-.24-.28-.67-.56-.7-.86-.08-1.1 0-2.22-.05-3.32a4.62 4.62 0 0 0 -.49-1.27l.81-.74a3.13 3.13 0 0 1 .42.89c.08.59-.15 1.27.74 1.46.13 0 .27.42.25.62-.14 1.11.43 1.37 1.38 1.25a1 1 0 0 1 .49 0c.36.14.71.33 1.07.49a4 4 0 0 1 -1.09.46 9.42 9.42 0 0 1 -1.84 0c-.77-.04-1.06.29-.99 1.02z" fill="#f3944a"/><path d="m92.09 97 1 .08c0 .54-.06.92-.78 1s-1.43 1.2-.8 1.69c.93.71.13 2.29 1.52 2.62-.37 1.44.64 2.48 1.06 3.69.06.19.13.5.24.52.8.15.7.76.75 1.33a2.32 2.32 0 0 0 .34.71c.21.38.43.75.63 1.14s.21.57.35.84.58.74.61 1.13c0 .71.33.91 1 .91s1.07-.2 1-1a1.2 1.2 0 0 1 .36-.93c1.75-1 2.49-2.89 3.45-4.49a3.55 3.55 0 0 0 -.06-3 2.4 2.4 0 0 0 -2.76-1.24c.12-.88-.37-1-1.11-1s-.87.25-.89.88.12 1.23 1 1.12a5.77 5.77 0 0 1 .59 1 9.55 9.55 0 0 1 .38 1.9.93.93 0 0 1 -.42.74 2.61 2.61 0 0 1 -3.51-2.42c0-.41 0-.82 0-1.23 0-.64 0-1.29 0-1.94s-.26-1.07-1-1l-.94-.5c.32-.16.63-.45 1-.46 1.3-.09 2.62-.09 3.9-.09.27 0 .75 0 .79.14.37 1.17 1.33.74 2.11.86.35 0 .86.14 1 .39.63 1 .94.5 1.28-.17l1.26 1.73c-.9 1.54-2.23 2.92-1.76 4.94v.35c-1.48.87.16 3.07-1.64 3.79v.36a1.68 1.68 0 0 1 -.68 1.36 2.42 2.42 0 0 1 -1.78.9c-.17 0-.33.59-.5.9v1c-.2.26-.51.49-.56.78-.16.89-.62 2-.24 2.64.59.93.65-.42 1-.61.11-.05.28 0 .34-.12.48-.66.94-1.32 1.4-2l1 .07c-.1.79.28 1.06 1 .93-.12 1.53-.51 2-2.06 2-.75 0-1 .28-.95 1s-.25 1.08-1 1-1 .33-1 1.07c0 2.13.23 1.87-2 1.9-2.46 0-4.91 0-7.37 0-.55 0-1.11-.14-1.4.65-.09.24-.84.26-1.29.33-.63.1-1.43-.28-1.7.75 0 .16-.68.11-1 .27a5.22 5.22 0 0 0 -.86.72c-1.52.1-.82-1.08-1-1.74 0-3.21 0-6.42 0-9.63 0-1 0-2.09 0-3.13 0-.3-.46-.56-.7-.84a4.83 4.83 0 0 1 0-.85c.3-1.49-.56-2.33-1.6-3.16a5.31 5.31 0 0 1 -.89-1.44l1.93-1.73 1.29 1.26c0 1.67 1.28.73 2 1-.09.75.25 1.07 1 1-.08.75.24 1.08 1 1 0 1.7-1.29.71-2 1a9.46 9.46 0 0 0 -.4-.92s-.48.12-.48.19c0 .84-.29 2.18.1 2.43 1 .61.73 1.34.76 2.1 0 1.08-.35 2.46 1.58 2.18a.29.29 0 0 1 .22.09c.64.94 2.18.36 2.68 1.57 0 .07.31 0 .47 0 0 1.7-1.29.7-2 1-.33-.16-.65-.33-1-.46a5.36 5.36 0 0 0 -1.53-.45c-.13 0-.37.67-.43 1.06a7.36 7.36 0 0 0 0 1.33c-.72-.08-1 .2-1 1a21.52 21.52 0 0 1 0 2.54c0 .77.29 1 1 1h1.6s1.15-.07 1.22-.27c.28-.85.9-.7 1.49-.7h2.59c1.75 0 1.83 0 1.71-1.68-.07-1.08-.51-2.12-.69-3.2a2.88 2.88 0 0 0 -2-2v-.73c-.09-.75.23-1.1 1-1l1.27 1.81.33-.22c0-.59.68-1.41-.62-1.58-.09-.63 0-1.63-.3-1.81-.68-.37-.65-.82-.71-1.38a2.34 2.34 0 0 0 -.33-.72 3.91 3.91 0 0 1 -.61-1.13c-.13-.79.26-1.72-.9-2.12-.35-.12-.61-.55-.87-.86-.42-.49-1.11-1-1.15-1.51-.07-1.07-.12-2-1.09-2.69-.67-.46-1.33-.94-2-1.41a10.11 10.11 0 0 1 .77-1 2.65 2.65 0 0 1 .73-.55c.65-.33 1.32-.63 2-.94.17.3.49.6.49.9 0 1.5 1.6 2.56 1.1 4.18 0 .07.3.21.42.36a17 17 0 0 1 2.36 3.2c.43.94.09 2.11.76 3.18.47.74-.22 2.07 1 2.67.09 0 0 .39 0 .59-.11.77.22 1.1 1 1a3.46 3.46 0 0 0 0 .72 8 8 0 0 0 .32.94c.2-.08.57-.15.57-.25a3.14 3.14 0 0 0 -.12-1.26c0-.13-.5-.11-.78-.15v-1c0-.69 0-1.39 0-2.09 0-.26-.11-.71-.25-.74-1-.24-.68-1-.73-1.59s.14-1.46-.19-1.76a4.55 4.55 0 0 1 -1.55-3.71c0-.16 0-.43-.09-.46-1.29-.48-.78-1.6-.9-2.49 0-.19-.05-.53-.15-.56-1.21-.36-.72-1.36-.84-2.13l.27-.55z" fill="#f28441"/><path d="m75.76 110.62c-.33-1.5 1.09-2.25 1.49-3.43a1.6 1.6 0 0 1 -.16 2.55c-.41.37-.52 1.14-1.33.88z" fill="#f3944a"/><path d="m81.47 125.23c.18.66-.52 1.84 1 1.74v1h-2.7c.06-.26.07-.74.19-.77.79-.2.79-.77.84-1.4 0-.26.43-.41.67-.57z" fill="#f3944a"/><path d="m104.72 126.23c-.71.08-1-.2-1-1a17.53 17.53 0 0 0 0-2c-.06-.76.29-1 1-1z" fill="#f3944a"/><path d="m118.33 134.85h-1v-2.91c.73-.09 1 .21 1 1s0 1.26 0 1.91z" fill="#f3944a"/><path d="m104.72 117.3v1c-.43.32-1 .55-1.26 1-.57 1.07-1.47 1-2.44 1-.32 0-.65 0-1 0-.1-.73.2-1 .95-1 1.55-.06 1.94-.49 2.06-2z" fill="#f3944a"/><path d="m96.08 129h-2v-2a2.35 2.35 0 0 1 2 2z" fill="#f3944a"/><path d="m52 123.73c.77-.58 1.18-1.78 2.49-1.41-.06.65.17 1 .89 1s1.38 0 2.07 0c.15 1.28-.78.94-1.47 1s-1.62-.31-1.48 1z" fill="#f3944a"/><path d="m126 56.49c.08.75-.23 1.11-1 1a4.83 4.83 0 0 1 -.71-.87c-.14-.27 0-.84-.2-.91-1.24-.55-1.58-2.45-3.33-2.22-.13 0-.28-.26-.44-.36-.33-.21-.69-.39-1-.59l-1-.51a7.36 7.36 0 0 0 -.88-.46c-.3-.1-.86 0-.9-.2-.4-1.23-1.41-.67-2.17-.81-.27-.24-.53-.67-.83-.7a25.8 25.8 0 0 0 -2.64 0h-1.72c.08-.75-.25-1-1-1q-3.09 0-6.17 0c-.75 0-1.08.24-1 1-1.23.28-2.8.19-3.6.94a3.23 3.23 0 0 1 -2.28.81 3.12 3.12 0 0 1 .73-2.7c.21-.23.18-.68.25-1h2s1.05-.26 1-1c1.4-.38 3.17.87 4.26-.94 1.34.32 2.29-.61 3.39-1 .62 0 1-.1 1-.86a20.55 20.55 0 0 1 0-2.22c0-.75-.35-.93-1-.88v-2.44l-1.49-.86 1.52-.49h1.94c-.1.75.22 1.1 1 1 .07.71-.3 1.6.81 1.92.14 0 .17.6.17.91v3.83c-2.2.05-1.94-.27-2 2a6.28 6.28 0 0 0 -1.23 0c-.26 0-.47.31-.7.47.23.16.47.45.71.46h5.05c.74 0 1.69-.37 2 .79 0 .12.43.15.67.18.86.1 1.78-.29 2.42.85.29.52 1.65.39 2 .91.75 1.07 2.38.57 2.87 1.86 1.53-.17 1.88 1.29 2.8 1.92s.49 1.48.7 2.17z" fill="#f28441"/><path d="m118.32 39a2.66 2.66 0 0 1 2 2c-2.24-.1-1.97.18-2-2z" fill="#f3944a"/><path d="m96.1 57.49-.54-1.49c.42-.17.84-.37 1.28-.5s1 0 1-.2c.38-1.15 1.31-.75 2-.78h3.82 9.89c-.08.75.25 1 1 1h1.73 1c0 1.67 1.28.73 2 1 0 1.65 1.28.73 2 1 .19 1.28 1.22 2 3 2a1.68 1.68 0 0 0 1.72 1.69v2.93c-.68.11-1-.16-1-.86 0-.51.13-1.15-.74-1.07.09-.75-.21-1.12-1-1l-2-.76c-.2-.32-.46-1-.59-.92-1.19.24-2.7-.88-3.59.78-.07.13-.44.13-.68.14-.69 0-1.38 0-2.07 0h-2.7c.08-.75-.25-1.07-1-1-.09-.75.24-1 1-1a9.53 9.53 0 0 0 1.85 0c.29 0 .55-.32.82-.48a3.51 3.51 0 0 0 -.84-.47c-.55-.12-1.51 0-1.61-.22-.49-1.2-1.43-.66-2.2-.78a18.42 18.42 0 0 0 -2.35 0c-1 .12-2.25-.59-2.88.86 0 .12-.45.1-.7.1-.57 0-1.15 0-1.73 0-.31-.12-.72-.15-.93-.36-.5-.52-2.49-1-2.74-.51-.52 1.15-1.39.86-2.22.9z" fill="#f28441"/><path d="m106.7 65.16c.76-.14 1.78.45 2.15-.81 0-.12.44-.15.67-.18.86-.11 1.92.4 2.4-.86 0-.14.6-.13.92-.13h4.31c.85 0 1.93-.46 2.39.83 0 .13.54.07.81.15a2.38 2.38 0 0 1 1.93 2c-1.76.6-3-.91-4.63-1.07-.11 0-.2-.22-.3-.35-.36-.47-2.33-.83-2.72-.42-.11.12 0 .57.14.82a9.26 9.26 0 0 0 .6 1c-.74-.07-1.12.21-1 1-.45 0-.9 0-1.35 0s-1.11 0-1.23-.25c-.66-1.34-1.79-.54-2.69-.6a4.71 4.71 0 0 0 -.4 1.68c-.08 1.06-.69 1.62-1.53 1.08a6.87 6.87 0 0 1 -1.45-1.9 9.61 9.61 0 0 0 1.2 0 2.54 2.54 0 0 0 .7-.31c-.15-.23-.33-.44-.46-.68s-.31-.67-.46-1z" fill="#f3944a"/><path d="m106.7 65.16c.15.33.29.66.46 1s.31.45.46.68a2.54 2.54 0 0 1 -.7.31 9.61 9.61 0 0 1 -1.2 0 23.33 23.33 0 0 0 -1.34-1.91 4.29 4.29 0 0 0 -1.32-1c-.9-.43-1.86-.75-2.79-1.13a.54.54 0 0 1 -.21-.29c-.25-.86-.79-.59-1.35-.37a9.12 9.12 0 0 1 -1.17.3l-2-2.46 1-.77c.54.13 1.47-.4 1.45.7 0 .91.42 1.09 1.19 1 .6-.05 1.21 0 1.81 0 .69.27 2-.67 2 1-.09.71.18 1 .94 1 .26 0 .51.34.79.5s.65.31 1 .46c-.1.74.28 1.06.98.98z" fill="#f28441"/><path d="m105.71 64.17c-.33-.15-.66-.29-1-.46s-.53-.5-.79-.5c-.76 0-1-.32-.94-1 .59-.2 1.66.55 1.7-.73 0-.87.4-1 1.13-1 .29 0 .83-.34.81-.46-.22-1.66.86-1.57 1.92-1.48.86.07 1.22-.26 1.12-1.12a6.19 6.19 0 0 1 0-.86c.77.12 1.71-.42 2.2.78.1.24 1.06.1 1.61.22a3.51 3.51 0 0 1 .84.47c-.27.16-.53.44-.82.48a9.53 9.53 0 0 1 -1.85 0c-.75 0-1.08.25-1 1-.62.07-1.6-.07-1.82.27-.94 1.5-3.59 1.87-3.11 4.39z" fill="#f3944a"/><path d="m114.36 60.46h2.07c.24 0 .61 0 .68-.14.89-1.66 2.4-.54 3.59-.78.13 0 .39.6.59.92-1.09.22-2.17-.27-3.33.58-.74.54-2.2.1-3.34 0-.09.04-.17-.36-.26-.58z" fill="#f3944a"/><path d="m123.26 61.21c.79-.12 1.09.25 1 1a7.48 7.48 0 0 1 0 1.34c0 .21-.3.38-.47.57-.15-.19-.43-.38-.45-.59-.1-.77-.07-1.53-.08-2.32z" fill="#f3944a"/><path d="m108.9 81.24-1.2-1c0-.48 0-1 0-1.45v-1h6.64c.7 0 1.13-.15 1-1l1-.06 4 .07c.06.66-.19 1-.91 1a2.73 2.73 0 0 0 -1.05.38 4.21 4.21 0 0 1 -1.15.56c-1 .09-2 0-2.94.06-.21 0-.39.3-.58.46.19.16.36.44.57.46a7.61 7.61 0 0 0 1.72 0c2-.18 4.09.66 5.83-1 .09-.08.32 0 .48 0a6.19 6.19 0 0 0 0 .86c.1.85-.25 1.15-1.12 1.13s-1.68-.39-2 .78c0 .14-.59.18-.9.18-1.48 0-3 0-4.43 0-.72 0-1.58.22-1.83-1-.13.21-.2.51-.39.62a1.41 1.41 0 0 1 -.76.15c-.52-1.35-1.3-.44-1.98-.2z" fill="#f3944a"/><path d="m121.28 84.44c-.12.31-.2.87-.37.9-.75.11-1.55 0-1.84 1-.24-.13-.65-.22-.69-.4a7.18 7.18 0 0 1 -.06-1.47z" fill="#f3944a"/><path d="m125.26 77.25c-.08.17-.15.35-.23.53-.16 0-.44 0-.46.06-.42 1.19-1.42.89-2.29.92.16-.32.3-.65.47-1s.34-.62.52-.94z" fill="#f3944a"/><path d="m121.3 90.39c0-1 0-2 0-3-.1-.77.24-1.09 1-1v2s.26 1.07 1 1c.11.78-.27 1.07-1 1z" fill="#f3944a"/><path d="m114.37 67.13c-.12-.79.26-1.07 1-1 1.12.21 2.52-.58 3.29.93 0 .08.3.07.46.07.58 0 1.13 0 1.3.75 0 .14.57.17.87.25 0 1.67 1.28.73 2 1 .47.66.95 1.32 1.41 2a6 6 0 0 1 .35.72v2h-1.72a8.54 8.54 0 0 0 0-1.34c0-.22-.29-.4-.45-.59-.16.19-.42.36-.46.57a8.67 8.67 0 0 0 0 1.35c-.8.1-1.09-.28-1-1s-.28-1-1-1a10.66 10.66 0 0 0 -.67-1.25c-.55-.76-1.15-1.5-1.85-2.39-.26-.05-1.14 0-1.24-.25-.57-1.2-1.52-.69-2.29-.82z" fill="#f28441"/><path d="m10 121.27a2.32 2.32 0 0 1 1.81-1.93c.54-.16 1.11 0 1.3-.79 0-.14.56-.16.87-.23v1.93a14.44 14.44 0 0 1 -.05 1.47c0 .18-.27.33-.41.5-.17-.17-.44-.31-.51-.52s.05-.71-.1-1-.52-.18-.8-.26c-.32 1.32-1.34.69-2.11.83z" fill="#f3944a"/><path d="m18.68 115.88a4.49 4.49 0 0 0 -1.06.41c-.66.48-1.26 1-1.88 1.55-.37-.16-.75-.31-1.11-.5a5.41 5.41 0 0 1 -.61-.46c.17-.19.34-.38.53-.56s.26-.1.29-.19c.31-.83.59-1.67.89-2.5h3.92l.74.93z" fill="#f28441"/><path d="m25.35 109.62-1.74 1.51-1.71 1c-.09-1.16-.17-2.32-.26-3.48.51.32 1 .86 1.55.87s.94-.56 1.42-.88c.24.36.49.66.74.98z" fill="#f3944a"/><path d="m19.65 113.63h-3.92c-.1-.72.17-1.06.93-1a14.16 14.16 0 0 0 2.06 0c.77-.06 1.04.28.93 1z" fill="#f3944a"/><path d="m33.26 13c0 1.63 1.31.67 2 1 0 1.23.05 2.45 0 3.67 0 .75.25 1.07 1 1v2.08a2.56 2.56 0 0 1 -.34.83 7.33 7.33 0 0 1 -.9 1.89c-.41.48-1.5-.29-1.82.81 0 .19-.68.26-1.06.31a11.94 11.94 0 0 1 -1.34 0l-2-1.5a1.62 1.62 0 0 0 -.21-2.58c-.18-.17-.16-.51-.28-.75a9.91 9.91 0 0 0 -.7-1.18c-.4-.58-.84-1.12-1.27-1.68 0-.9.07-1.81 0-2.71-.12-1.19 0-2.2 1.26-2.74l1.7.55c.08 1.62 1.29.75 2 .92z" fill="#f28441"/><path d="m18.68 61.19h-1c.05-.74-.45-.75-1-.74 0-.32 0-.65 0-1 .75.09 1.06-.26 1-1 .75.09 1.08-.24 1-1h2s1.08-.26 1-1c0-1.65 1.26-.75 2-1 .33.39.68.77 1 1.18.59.74 1.17 1.5 1.76 2.26.2 1.26-.37 1.67-1.58 1.52-.72-.09-1.47 0-2.2 0-.33 0-.61-.36-.94-.5a3.19 3.19 0 0 0 -1.36-.39c-.23 0-.41.59-.61.92-.61 0-1.13-.01-1.07.75z" fill="#f28441"/><path d="m16.71 54.52c0-.65 0-1.31 0-2 1.84 0 1.88 0 2-1.86 0-.72.32-.94 1-.86l1 .74.52 1.72-1.51 2.21h-2z" fill="#f28441"/><path d="m29.32 62.16 2 .49.5.74c-.22.79-.84.83-1.5.77h-1z" fill="#f3944a"/><path d="m80.22 59.48 2 2.69c-.63 0-1.41.31-1.64-.73 0-.14-.57-.16-.87-.24-.59 0-1.6-.09-1.72.18-.46 1-1.27.85-2 .79-1-.09-1.31.35-1.2 1.27a5.9 5.9 0 0 1 0 .73c-.7-.08-1 .17-1 .93s.21 1.15 1 1.05a1.93 1.93 0 0 0 0 .48c.14.5.18 1.28.48 1.4.56.22 1.38.36 1.63-.66 0-.14.56-.15.86-.23-.1.77.25 1 1 1a6.1 6.1 0 0 1 1.35 0 .74.74 0 0 1 .53.37c0 .15-.2.37-.31.56l-.6 1h-1c-.21-.32-.41-.93-.61-.92a28 28 0 0 0 -3.28.33 2.25 2.25 0 0 0 -.06.7 30.33 30.33 0 0 1 0 3.44c-.15 1.16 1.09 1.25 1.33 2.06 0 0 .3.07.34 0 .45-.62.88-1.26 1.32-1.9a4.25 4.25 0 0 1 1 .48 19.81 19.81 0 0 1 1.41 1.48 8.38 8.38 0 0 1 .52.66 4.22 4.22 0 0 1 -.83.33 4 4 0 0 1 -1.1 0c-.74-.07-1.07.24-1 1a7.2 7.2 0 0 0 -1-.55 4.39 4.39 0 0 0 -1.49-.36c-.16 0-.36.59-.45.94a4.39 4.39 0 0 0 0 1c-.8-.1-1 .29-1 1s.31 1 1 .93v1.8c0 .76.31 1 1 .92v1c-2.12 0-2-.35-2 2-1.13.14-1-.66-1-1.36v-29.05c0-.61.24-1.37-.74-1.58a1.35 1.35 0 0 1 -.06-.69c1.18-.33.74-1.29.79-2s0-1.12.88-1.12 1.22.14 1.1 1c-.32.16-.91.31-.91.48a13.44 13.44 0 0 0 .18 2.37c0 .06.3.06.46.11 1.15.39 1.19-.76 1.73-1.23.18.42.35.83.52 1.25v1c-.58 0-1.16 0-1.73 0-.88-.09-1.3.18-1.22 1.15s0 1.81 0 2.71c0 .37.33 1 .51 1a4.26 4.26 0 0 0 1.45-.45c.31-.12.58-.41.89-.44.69-.07 1.39 0 2.09 0z" fill="#f3944a"/><path d="m73.83 91.37c-.71.07-1.07-.18-1-1 .05-.52 0-1 0-1.58s-.22-1.33.73-1.54c.14 0 .17-.57.24-.87 1.76 0 2.79-.68 3-2h1c-.16.45-.31.91-.46 1.37l-.51 1.65v.94c-.3.08-.79.08-.86.25-.31.79-1.49 1.12-1.18 2.25-.03.16-.64.37-.96.53z" fill="#f3944a"/><path d="m85.44 20.65c.73.09 1.1-.2 1-1 .85 0 1.81-.3 2.3.82 0 .13.44.11.68.16v1c-1 0-2 0-3 0-.74.06-1.06-.23-.98-.98z" fill="#f3944a"/><path d="m74.85 22.63c0-.66 0-1.33 0-2h2.32a.8.8 0 0 1 .54.36c.06.1-.15.5-.19.49-1-.16-1.63.51-2.3 1.08-.08.11-.22.06-.37.07z" fill="#f3944a"/><path d="m89.4 21.64v-1h2.95c.24 0 .47.31.71.47-.24.16-.46.45-.71.47-.98.08-1.97.05-2.95.06z" fill="#f28441"/><path d="m71.83 45.86c0-.32 0-.63.08-1 .81.1 1-.38 1-1 .91-.1 1 .46 1 1.16s-.42.88-1 .85c-.42-.01-.75 0-1.08-.01z" fill="#f28441"/><path d="m39 15h2c.11.77-.28 1.59.78 2.21.41.25.16 1.6.21 2.45v1c-.72.08-1-.21-1-1s.27-1.62-.79-2.28c-.72-.38-.87-1.57-1.2-2.38z" fill="#f3944a"/><path d="m74.81 80.73c-.7.08-1-.18-1-.93s.21-1.15 1-1a5.68 5.68 0 0 1 1.9.4c.54.33 2.18.87 2.72.52a.82.82 0 0 0 .24-.58c-.61-.47-1.25-.89-1.89-1.33-.1-.75.23-1.06 1-1a4 4 0 0 0 1.1 0 4.22 4.22 0 0 0 .83-.33 8.38 8.38 0 0 0 -.52-.66 19.81 19.81 0 0 0 -1.41-1.48 4.25 4.25 0 0 0 -1-.48c-.65-.47-1.32-.91-1.92-1.43-.11-.08.05-.74.13-.75a4.58 4.58 0 0 0 2.42-1.51c.07-.07.24 0 .36 0h1c-.15.33-.22.77-.48 1-1.5 1.15.08 1.65.54 2.26.24.31.94.27 1.44.37 0 0 .15-.11.15-.18a17.13 17.13 0 0 0 0-3c0-.21-1-.26-1.61-.38l.6-1c.11-.19.35-.41.31-.56a.74.74 0 0 0 -.53-.37 6.1 6.1 0 0 0 -1.35 0c-.75.06-1.1-.22-1-1a15.22 15.22 0 0 1 1.44-1 1.09 1.09 0 0 0 .36-1.73c-.53-.66-.67.14-1 .49-.16.19-.59.17-.89.24s-.74.06-.78.19c-.37 1.26-1.4.64-2.15.8s-1-.29-1-1.05.31-1 1-.93 1.81.32 2.23-.87c0-.12.55 0 .8-.13 1-.35 1.79-.82 1.91-2 .3.08.83.1.87.24.23 1 1 .69 1.64.73h.19l2 2 1 .49v.44c.08.81-.46 1.83.82 2.22.12 0 .11.51.15.79-.12.77.41 1.78-.82 2.15-.11 0-.15.44-.16.68a8.11 8.11 0 0 0 0 2.09 36.54 36.54 0 0 0 1.12 3.55c0 .11.34.1.42.22.52.76 1.71 1.13 1.39 2.38a21 21 0 0 0 -2.92 1.25c-1.85 1.12-3.8 2.14-5.1 4 0 0-.08 0-.12 0h-2.46c0-1.69-1.29-.73-2-1 .29-.24.55-.66.86-.7.81-.11 1.64 0 2.46-.07.2 0 .39-.3.58-.46-.19-.16-.38-.44-.58-.46-.66-.05-1.33 0-1.54-.85 0-.1-.44-.15-.68-.16-.68-.12-1.38-.12-2.07-.12z" fill="#f28441"/><path d="m107.2 32.77 1.46.51v.9h-1.94v-.91z" fill="#f3944a"/><path d="m30.28 101c0-2 .55-2.62 2.35-3 .22 0 .39-.3.59-.46-.23-.16-.46-.46-.7-.47-1.57 0-3.13 0-4.7 0-.61 0-1.38.26-1.57-.72 0-.06-.12-.17-.17-.16-1.39.28-2.41-.65-3.55-1.11a9.87 9.87 0 0 1 -1.85-1.28c-.18-.13-.39-.41-.55-.39-1.32.17-1.76-.93-2.49-1.63a1.59 1.59 0 0 0 -.81-.37 2.1 2.1 0 0 1 -1.83-2.2c0-.27.23-.71.42-.75a1.59 1.59 0 0 1 1.15.15 6.37 6.37 0 0 1 1.9 1.94c.48 1 1.19.84 1.92.81s1.4.09 1.27 1.1.49.83 1.11.9c2 .22 3.93 1.1 6 .75h.23c.77 1.6 2.21.83 3.35.88 2.42.11 4.86 0 7.29 0 .54 0 1.2.18 1.37-.66a.58.58 0 0 1 .36-.28c1.22-.27 2.6-.26 3.62-.87a2.3 2.3 0 0 1 2.84.1v.7c-.91-.09-1 .46-1 1.16 0 2 .21 1.82-1.87 1.83h-2.96c-.28 0-.75 0-.82.12-.68 1.48-2 .62-3 .87a7.09 7.09 0 0 0 -1.18.39c-.36.16-.69.54-1 .56-2 .13-2.7.84-2.7 2.87v2.34 1.56c-.06.76.31 1 1 .92s1 .24 1 1c0 .34.37.67.55 1s.27.61.4.92l-.49.53-1 .53c-1 .15-2.16-.55-3 .51h-.2l-.29-.54v-7.66c-.23-.7.74-2-1-2z" fill="#f28441"/><g fill="#f3944a"><path d="m17.7 75.78c.69.27 2-.68 2 1-.84-.1-1 .33-1 1.09s.44.92 1.09.91c.35 0 1 .06 1 .21.27 1 1 .75 1.68.76h4.9c0 1.69 1.29.71 2 1 .09.74-.22 1-1 1-1.88 0-3.77 0-5.65 0-.35 0-.71-.34-1.05-.54-.09-.06-.15-.3-.19-.29-1.39.28-2.07-1.57-3.55-1.16a1.27 1.27 0 0 1 -1.11-.52 1.13 1.13 0 0 1 .52-1.54c.32-.26.24-1.27.36-1.92z"/><path d="m36.24 82.7a17.32 17.32 0 0 1 -1.12 1.54 12 12 0 0 1 -2 2c-.44.29-1.18.14-1.78.19v-1c-.08-.73.22-1.08 1-1s.86-.27 1.07-.94a2.77 2.77 0 0 1 1.92-2c.4.27 1.13.36.91 1.21z"/><path d="m27.33 77.78c.47-.32 1-.89 1.43-.89s.93.62 1.45.85a2.82 2.82 0 0 0 1.09 0c-.2.33-.36.89-.61.93-1 .19-2.17-.29-2.77 1 0 .09-.38 0-.58 0l-.24-1z"/><path d="m22.14 84.44c-.05-.63.12-1 .87-1h3.46c.75 0 .92.37.87 1z"/><path d="m69.13 98q0-21.21 0-42.41a5.78 5.78 0 0 0 -.55-1.59l.51-.48a4.73 4.73 0 0 1 .75.73c.11.18 0 .49 0 .73q0 20.86 0 41.72c.01.53.34 1.3-.71 1.3z"/><path d="m89.39 115.6a8.86 8.86 0 0 1 -1.65-1.08c-1.16-1.13-2.25-2.34-3.33-3.55a13.56 13.56 0 0 1 -.94-1.31c.68-.27 2 .72 2-1a1.9 1.9 0 0 1 1.86 1.57c.11 1.25 1 1.67 1.66 2.38.4.45.92.81 1.33 1.26.13.15.07.47.1.71-.8-.08-1.12.27-1.03 1.02z"/><path d="m88.4 117.34c.76.09 1.1-.25 1-1a2.88 2.88 0 0 1 2 2c.18 1.08.62 2.12.69 3.2.12 1.69 0 1.7-1.71 1.68l.61-1c.11-.18.35-.4.31-.55s-.36-.41-.5-.37c-1.23.32-1.49-1-2.31-1.33-.43-.17-.79-.62-1.21-.65-.75 0-.89-.41-.84-1 .67-.32 1.99.68 1.96-.98z"/><path d="m43.9 125.23h-1.49l.06-.65.44-.3h1.93c.16.78-.25.99-.94.95z"/></g><path d="m108.14 106.46a8 8 0 0 0 -.4 2.4c.21 1.36-.73 2-1.44 2.74a4.23 4.23 0 0 1 -1.57 1c-.24.09-.91-.25-.92-.43a3.38 3.38 0 0 1 .28-1.45 7.28 7.28 0 0 1 .63-1.12c.18-.31.36-.63.56-.93 0 0 .19 0 .22-.1.41-1 .8-1.91 1.2-2.86h1.45z" fill="#f28441"/><path d="m109.18 49.82h-8.18c-.08-.75.25-1 1-1q3.08 0 6.17 0c.76-.01 1.09.25 1.01 1z" fill="#f3944a"/><path d="m103.74 43.89c-.13 0-.33 0-.36 0-.66 1.29-1.86.9-2.92 1-.62 0-1.22-.13-1.6.72-.14.3-1.18.18-1.81.25-.27-1.44 1.14-1.86 1.67-2.86a2.66 2.66 0 0 1 .58-.58c.8.14 1.72.58 2.39.34s.88-1.18 1.3-1.81c.25.27.67.51.71.81a14 14 0 0 1 .04 2.13z" fill="#f28441"/><path d="m103.74 43.89a14 14 0 0 0 0-2.15c0-.3-.46-.54-.71-.81l-1.51-.54c.74-.47 1-1.65 2.21-1.46.8-.08 1.09.27 1 1.06a26 26 0 0 0 0 2.93c.04.76-.27 1.08-.99.97z" fill="#f3944a"/><path d="m121.29 57.5c1.75 0 2.79.67 3 2-1.78-.03-2.81-.72-3-2z" fill="#f3944a"/><path d="m108 76.31c-.09.48-.17 1-.26 1.45v1a4 4 0 0 1 -1 0c-.35-.1-.93-.33-.93-.48a4.94 4.94 0 0 1 .43-1.47c.13-.34.32-.65.48-1z" fill="#f28441"/><path d="m67.13 91.4h-1l-.06-1c-.68-1.26-1.29-2.56-2.07-3.75-.26-.38-1-.46-1.44-.67l-.9.94-1-.77a7.51 7.51 0 0 0 -.86-1.88c-1.23-1.39-2.57-2.69-3.87-4 .43-.14 1-.51 1.27-.35.5.28.73 1 1.23 1.29s.69 2.77 2 .6c.07-.1.41 0 .59-.09.39-.18.74-.43 1.12-.62s.64-.23 1-.34a4.15 4.15 0 0 1 0 .61c-.18 1.11.3 1.52 1.38 1.35a3.11 3.11 0 0 1 .61 0c.64.05 1-.14 1-.88s-.14-1.21-1-1.1c0-.58 0-1-.79-1-.4 0-.8 0-1.19 0-.12-1.26.82-.89 1.49-1s1.35.39 1.46-.62a9.88 9.88 0 0 0 0-1.72.71.71 0 0 0 -.37-.53c-.15 0-.38.2-.57.31a10.53 10.53 0 0 1 -1 .59c-.25.11-.75.06-.78.19-.32 1.09-1.19.76-1.92.81 0-.24 0-.53-.06-.72a20.05 20.05 0 0 0 -1.34-2c-.08-.1-.55 0-.76.14s-.26.41-.42.69c-.18-.2-.32-.27-.33-.37-.12-.71.11-1.53-.89-1.92-.17-.07-.14-1.43.06-1.5 1-.38.72-1.14.77-1.83 0-.35.11-.7.16-1.06h.41l.17 1v3a.89.89 0 0 0 .27.62.58.58 0 0 0 .53-.06c.44-.81 1.61-1.3 1.16-2.52-.15-.66-.27-1.33-.45-2a2.81 2.81 0 0 0 -.47-.69 2.28 2.28 0 0 1 .83-.31c.74 0 1.19-.16 1.08-1 .76.13 1.73-.42 2.19.8.07.19 1 .25 1.45 0s.32-.88.24-1.31c0-.22-.57-.46-.91-.5-.83-.12-1.82.28-2.25-.9 0-.1-.45-.1-.69-.11-.66 0-1.32 0-2 0h-.07c0-.31.07-.63.11-.94.74-.18 1.93.5 2-1 .63.14 1.58.08 1.83.47.52.81 1.16.56 1.69.41.22-.06.45-.92.3-1.23s-.75-.52-1.19-.6a9.74 9.74 0 0 0 -1.71 0c-.22-.84.52-.93 1-1.26a8.56 8.56 0 0 0 2.48-3.07 4.15 4.15 0 0 1 .47 1.28q.03 16.05.01 32.12zm-5.95-16.34a2.17 2.17 0 0 0 3 .27c.18-.22.49-.52.7-.5 1.23.15 1.37-.54 1.28-1.49 0-.45 0-.9 0-1.36 0-3.08 0-3.08-3.07-2.87-.08 0-.21 0-.24 0-.22.31-.59.63-.59 1a1.32 1.32 0 0 0 .58 1 20 20 0 0 0 1.9.8c.59.28.56.62 0 1-1.15.62-2.31 1.36-3.56 2.15zm3 8.15-1 .71c.3.17.61.48.92.48s.65-.27 1-.43z" fill="#f3944a"/><path d="m63.18 79.73h1.19c.75 0 .83.41.79 1h-2c-.32.11-.65.2-1 .34s-.73.44-1.12.62c-.18.09-.52 0-.59.09-1.33 2.17-1.42-.28-2-.6s-.73-1-1.23-1.29c-.27-.16-.84.21-1.27.35l-1.46-1c-.07-.67.21-1.58-1-1.46.13-.76-.45-1.77.8-2.14.11 0 .09-.45.19-.66.2-.42.58-.79.65-1.22.13-.83.4-2.26.09-2.42-1.14-.59-.58-1.48-.76-2.22 0-.32 0-.63 0-.95.34-.2.69-.38 1-.59.09-.06.11-.25.2-.29 1-.39 1.93-.75 2.89-1.15a3.87 3.87 0 0 0 .54-.39c.33-.21.67-.4 1-.59h.06c-.17.8.24 1 1 1-.1.75.23 1.09 1 1 .11.85-.34 1-1.08 1a2.28 2.28 0 0 0 -.83.31 2.81 2.81 0 0 1 .47.69c.18.64.3 1.31.45 2-.34-.19-.67-.39-1-.56s-.64-.29-1-.44l-.17-1h-.41c0 .36-.13.71-.16 1.06-.05.69.23 1.45-.77 1.83-.2.07-.23 1.43-.06 1.5 1 .39.77 1.21.89 1.92 0 .1.15.17.33.37.16-.28.23-.57.42-.69s.68-.24.76-.14a20.05 20.05 0 0 1 1.34 2c.11.19 0 .48.06.72-.29.34-.59.67-.87 1-.13.17-.33.42-.28.57a.7.7 0 0 0 .53.35c.85.11 1.63.08 2.41.08z" fill="#f28441"/><path d="m36.25 105.7c0-1.07 0-2.14 0-3.21 0-1.81.63-2.4 2.41-2.5a4.27 4.27 0 0 0 1.34-.63 2.34 2.34 0 0 1 .74-.31h3.33c.67 0 .85.32.83.92v2.59c-.59 1.24-1 2.6-2.46 3.2-.48 0-1 0-1.45 0s-1 0-1.07-.78.29-1 1-1 1-.19 1-1c0-.36.45-.7.61-1.09s.16-.73 0-.83a1.11 1.11 0 0 0 -1.67.89h-.86a2.67 2.67 0 0 0 -3 3z" fill="#f28441"/><path d="m37 105c.6 0 1 .09 1 .84 0 .26.09.73.21.76 1 .22.71 1 .78 1.64-.33.34-.67.67-1 1h-.75l-1-3.46z" fill="#f3944a"/><path d="m30.29 64.16c0 1.68 1.31.74 2 1a8.41 8.41 0 0 0 .68 1 16 16 0 0 0 1.28 1c.37 1.25-.49 2-1.21 2.73-.28.28-1.06 0-1.61 0a4.64 4.64 0 0 0 .57-.89c.15-.44.41-1.12.22-1.34a5.28 5.28 0 0 0 -1.92-1.46 2.76 2.76 0 0 0 -1.94 0 23.78 23.78 0 0 0 -3.47 1.24 6.21 6.21 0 0 1 -2.22.72c-.37.07-.68.47-1 .54-.91.15-1.84.19-2.75.28 0-.25-.09-.59 0-.73.36-.38.79-.91 1.22-.94 1.34-.07 2.13-1.67 3.67-1.18a1.71 1.71 0 0 0 2.18-1c.1-.2.34-.51.29-.58a1 1 0 0 0 -.67-.38c-1 0-2.06 0-3.08 0-.29 0-.56-.3-.84-.46.28-.17.55-.47.83-.47 1.65-.05 3.3-.08 4.94 0 .39 0 .72.59 1.12.83.19.12.48.07.72.1z" fill="#f28441"/><path d="m38 33.32h3c-.5.64-1 1.29-1.48 1.94a2.05 2.05 0 0 0 -.52.74c-.09.55.08 1.18-.74 1.35-.13 0-.24.4-.26.62-.07.84.19 1.69-.87 2.29-.64.37 0 1.54.86 1.7.36.07.66.51 1 .57.92.14 1.85.16 2.77.23 0-.22.09-.53 0-.66-.35-.41-.8-.72-1.15-1.12a2.07 2.07 0 0 1 -.61-.98c-.14-1.76-.11-1.76 1.68-1.76a6.3 6.3 0 0 0 .87 0c1.06-.14 1.53.25 1.4 1.37-.07.58-.21 1.26.69 1.48.14 0 .25.48.26.74v2.1c0 2.19.27 2-2 2 .07-.71-.21-1-1-1-1 .05-2 0-3 0h-2.38l-.81-1.47a4.46 4.46 0 0 0 .48-1.28c.07-1.05 0-2.1 0-3.16.27-.79.52-1.58.8-2.36 0-.14.22-.22.3-.35a3.62 3.62 0 0 0 .61-1.12 12.24 12.24 0 0 0 .1-1.87z" fill="#f28441"/><path d="m18.69 57.49c-.12-.78.4-1.8-.85-2.18-.12 0-.11-.51-.16-.78h2a2.35 2.35 0 0 0 2 2c.1.74-.22 1-1 1s-1.34-.04-1.99-.04z" fill="#f3944a"/><path d="m77.8 58.45c.76-.07 1.08.26 1 1-.7 0-1.4 0-2.09 0-.31 0-.58.32-.89.44a4.26 4.26 0 0 1 -1.45.45c-.18 0-.48-.64-.51-1-.07-.9 0-1.81 0-2.71s.34-1.24 1.22-1.15c.57.05 1.15 0 1.73 0-.06.73.25 1.08 1 1v1l-1.93.45c.38 1.07 1.27.34 1.92.52z" fill="#f28441"/><path d="m35.29 34.29v3.9h-1c0-.45 0-.9 0-1.36 0-.68.25-1.51-.8-1.77-.1 0-.08-.52-.11-.79z" fill="#f28441"/><path d="m77.8 58.45c-.65-.18-1.54.56-2-.51l1.93-.45z" fill="#f6a959"/><path d="m112.89 72.3-.27-.45c-.14-.25-.27-.52-.43-.75a5.43 5.43 0 0 0 -.49-.57c.21-.14.46-.43.64-.4 1.09.22 2.36-.66 3.29.79.35.54 1.44.6 2.17.93.21.09.32.38.48.58a2.4 2.4 0 0 1 -.68.37 8.41 8.41 0 0 1 -1.23 0l-1.79.29z" fill="#f3944a"/><path d="m64.21 83.21.91.76c-.32.16-.65.44-1 .43s-.62-.31-.92-.48z" fill="#f6a959"/><path d="m40.93 104v-2a1.11 1.11 0 0 1 1.67-.89c.13.1.07.58 0 .83s-.6.73-.61 1.09c-.06.75-.34 1.03-1.06.97z" fill="#f3944a"/><path d="m21 9a9.24 9.24 0 0 1 2.09.24l25.09 5.76a8.42 8.42 0 0 0 1 .18 299 299 0 0 0 35.39 2.43c18.52 0 27.73-2.73 32.23-5.13a9.34 9.34 0 0 1 4.37-1.09 9.18 9.18 0 0 1 6.12 2.33 25 25 0 0 1 3.49 3.69 16.74 16.74 0 0 1 2.81 7.31 9.27 9.27 0 0 1 -.38 4.28c-5.21 15.33-7.21 59.7-6.6 73.78.35 8.18 2.21 13.55 3.77 16.7a9.15 9.15 0 0 1 -1 9.71 27.57 27.57 0 0 1 -5.46 5.15 9.14 9.14 0 0 1 -3.84 1.58 8.67 8.67 0 0 1 -1.52.13 9 9 0 0 1 -2.19-.27 260.59 260.59 0 0 0 -61-7.29c-3.43 0-6.19.08-8.12.15-.81 0-1.62.05-2.43.05-1 0-2 0-3-.05h-.62c-6.75 0-13.43 3-17.45 5.27a9.23 9.23 0 0 1 -4.47 1.16 9.09 9.09 0 0 1 -4.92-1.44 19.05 19.05 0 0 1 -7.54-8.87 9.13 9.13 0 0 1 -.31-6l3.12-10.91a9.49 9.49 0 0 0 .3-1.5c.62-5.47 4.31-38.9 4.19-58.49-.07-12-2.44-19.24-4.5-23.28a9.19 9.19 0 0 1 2-11 27 27 0 0 1 4.78-3.46 9.23 9.23 0 0 1 4.6-1.12m0-1.73a10.93 10.93 0 0 0 -5.39 1.42 28 28 0 0 0 -5.09 3.69 10.93 10.93 0 0 0 -2.4 13c1.93 3.77 4.24 10.74 4.31 22.5.11 19.33-3.46 51.94-4.18 58.28a7.12 7.12 0 0 1 -.25 1.21l-3.14 10.91a10.86 10.86 0 0 0 .37 7.12 20.79 20.79 0 0 0 8.21 9.68 10.88 10.88 0 0 0 11.16.33c4.14-2.3 10.37-5 16.61-5h.58 3s1.71 0 2.5 0c2.49-.1 5.21-.15 8-.15a256.73 256.73 0 0 1 60.71 7.2 10.83 10.83 0 0 0 4.41.17 10.76 10.76 0 0 0 4.56-1.89 28.86 28.86 0 0 0 5.82-5.48 10.9 10.9 0 0 0 1.19-11.55c-1.45-2.92-3.25-8.06-3.59-16-.6-13.84 1.34-58 6.48-73.15a10.93 10.93 0 0 0 .46-5.08 18.5 18.5 0 0 0 -3.13-8.08 26.58 26.58 0 0 0 -3.73-4 11 11 0 0 0 -12.47-1.4c-4.23 2.24-13.11 4.92-31.42 4.92a299.11 299.11 0 0 1 -35.18-2.42 7.9 7.9 0 0 1 -.8-.14l-25.15-5.86a10.84 10.84 0 0 0 -2.45-.28z" fill="#fff"/><path d="m87.43 15.2s20.29-10.66 43.57 11.33c0 0-8.58 3-15.66 15.47l-.94-8.68s-27.53 10.2-13.89 28.73a28.46 28.46 0 0 0 13.38 9.86l13 4.63s-21.74.92-36.26-9.34a25.64 25.64 0 0 1 -6.67-35c3.14-4.72 8-8.41 16.89-11.55-.02-.03-3.7-5.07-13.42-5.45z"/><path d="m15.79 60.27s-10.67-20.27 11.32-43.6c0 0 3 8.59 15.47 15.67l-8.68.94s10.2 27.52 28.73 13.89a28.51 28.51 0 0 0 9.86-13.38l4.63-13s.88 21.77-9.34 36.29a25.63 25.63 0 0 1 -35 6.68c-4.73-3.15-8.42-8-11.56-16.89-.02 0-5.06 3.68-5.43 13.4z"/><path d="m60.61 132s-20.29 10.66-43.61-11.33c0 0 8.58-3 15.66-15.47l.94 8.68s27.53-10.21 13.9-28.73a28.47 28.47 0 0 0 -13.39-9.86l-13-4.63s21.8-.92 36.32 9.34a25.64 25.64 0 0 1 6.68 35c-3.15 4.73-8 8.42-16.9 11.56 0 .02 3.68 5.06 13.4 5.44z"/><path d="m132.26 86.93s10.66 20.29-11.33 43.6c0 0-3-8.59-15.47-15.67l8.68-.94s-10.2-27.52-28.73-13.92a28.46 28.46 0 0 0 -9.86 13.38l-4.63 13s-.92-21.75 9.34-36.26a25.63 25.63 0 0 1 35-6.68c4.72 3.15 8.41 8 11.55 16.89.03 0 5.07-3.68 5.45-13.4z"/><path d="m85.2 15.2s20.29-10.66 43.6 11.33c0 0-8.59 3-15.66 15.47l-1-8.68s-27.47 10.2-13.84 28.73a28.51 28.51 0 0 0 13.38 9.86l13 4.63s-21.74.92-36.26-9.34a25.64 25.64 0 0 1 -6.68-35c3.15-4.72 8-8.41 16.89-11.55-.03-.03-3.71-5.07-13.43-5.45z" fill="#fff" stroke="#faab58" stroke-miterlimit="10" stroke-width=".99"/><path d="m13.56 60.27s-10.66-20.27 11.32-43.6c0 0 3 8.59 15.48 15.67l-8.68.94s10.2 27.52 28.73 13.89a28.49 28.49 0 0 0 9.85-13.38l4.63-13s.92 21.74-9.33 36.26a25.65 25.65 0 0 1 -35 6.68c-4.73-3.15-8.41-8-11.55-16.89-.01.03-5.07 3.71-5.45 13.43z" fill="#fff" stroke="#faab58" stroke-miterlimit="10" stroke-width=".99"/><path d="m58.39 132s-20.29 10.67-43.6-11.32c0 0 8.59-3 15.67-15.47l.94 8.68s27.52-10.21 13.89-28.73a28.39 28.39 0 0 0 -13.38-9.86l-13-4.63s21.77-.93 36.29 9.33a25.62 25.62 0 0 1 6.68 35c-3.15 4.73-8 8.42-16.89 11.56.01.02 3.68 5.06 13.4 5.44z" fill="#fff" stroke="#faab58" stroke-miterlimit="10" stroke-width=".99"/><path d="m130 86.93s10.66 20.29-11.32 43.6c0 0-3-8.59-15.48-15.67l8.68-.94s-10.17-27.52-28.69-13.92a28.39 28.39 0 0 0 -9.86 13.38l-4.63 13s-.92-21.75 9.3-36.26a25.64 25.64 0 0 1 35-6.68c4.73 3.15 8.42 8 11.55 16.89.06 0 5.1-3.68 5.45-13.4z" fill="#fff" stroke="#faab58" stroke-miterlimit="10" stroke-width=".99"/></svg>