<svg xmlns="http://www.w3.org/2000/svg" xmlns:xlink="http://www.w3.org/1999/xlink" width="1059.657" height="779.842" viewBox="0 0 1059.657 779.842"><defs><linearGradient id="a" x1="0.748" y1="-0.496" x2="0.542" y2="0.33" gradientUnits="objectBoundingBox"><stop offset="0" stop-color="#cf5c2b"/><stop offset="1" stop-color="#59173e"/></linearGradient><linearGradient id="b" x1="0.722" y1="-0.183" x2="0.078" y2="1.804" xlink:href="#a"/><linearGradient id="c" x1="0.679" y1="-0.182" x2="0.032" y2="2.192" xlink:href="#a"/><linearGradient id="d" x1="0.885" y1="-0.94" x2="0.281" y2="1.363" xlink:href="#a"/><linearGradient id="e" x1="0.764" y1="-0.474" x2="0.159" y2="1.823" xlink:href="#a"/><linearGradient id="f" x1="1.069" y1="-1.545" x2="0.445" y2="0.787" xlink:href="#a"/><linearGradient id="g" x1="0.5" y1="1.113" x2="0.5" y2="0.967" xlink:href="#a"/><linearGradient id="h" x1="0.768" y1="-0.075" x2="0.23" y2="1.072" gradientUnits="objectBoundingBox"><stop offset="0" stop-color="#ffce3b"/><stop offset="0.11" stop-color="#fbc639"/><stop offset="0.29" stop-color="#f0b134"/><stop offset="0.5" stop-color="#df8e2c"/><stop offset="0.69" stop-color="#cc6923"/><stop offset="0.69" stop-color="#cc6a23"/><stop offset="0.79" stop-color="#e2952d"/><stop offset="0.87" stop-color="#f2b435"/><stop offset="0.95" stop-color="#fcc739"/><stop offset="1" stop-color="#ffce3b"/></linearGradient><linearGradient id="i" x1="0.93" y1="-0.469" x2="0.625" y2="0.215" gradientUnits="objectBoundingBox"><stop offset="0" stop-color="#ffca2b"/><stop offset="1" stop-color="#d15b24"/></linearGradient></defs><path d="M1059.243,718.121c0-5.25-.493-10.455-.763-15.7l-1.212-26.069-.269-6.282c-.314-7.987.673-16.243-3.455-23.467a6.237,6.237,0,0,0-5.025-3.859,8.974,8.974,0,0,0,5.025-6.82,65.8,65.8,0,0,0,1.525-13.236c0-3.769-.269-7.583-.4-11.307s-.314-8.57-.449-12.877c-.314-8.57-.583-17.185-.853-25.8s-.538-17.14-.763-25.71V542.5c0-4.487-.224-8.974,0-13.147a14.134,14.134,0,0,0-3.186-8.974,8.973,8.973,0,0,0-7.942-3.365,13.462,13.462,0,0,0,6.506-3.276c4.487-4.487,3.814-11.621,3.724-17.544,0-8.48-.359-16.961-.494-25.441s-.269-16.961-.359-25.4,0-16.916-.269-25.351,0-16.781,0-25.216V369.667c0-13.147,0-26.2.269-39.35,0-5.16.673-9.826-2.961-13.954a15.691,15.691,0,0,0-1.75-1.705c-.269,0-1.615-1.346-1.974-1.256a9.826,9.826,0,0,0,5.609-5.2,10.368,10.368,0,0,0,.942-3.814c0-3.186.225-6.416.269-9.647,0-10.455.314-21.358.583-31.992,0-5.654.314-11.352.449-17.005a28.18,28.18,0,0,0-4.487-14.179,7,7,0,0,0,4.218-4.936,26.517,26.517,0,0,0,.4-6.237c.359-8.076.493-16.2.763-24.319,0-4.083.269-8.121.359-12.2V180.9a7.544,7.544,0,0,0,.314-1.75,17.541,17.541,0,0,0-1.526-5.833,9.468,9.468,0,0,0-4.487-5.115c.269-.673,1.032-.942,1.7-1.211a8.569,8.569,0,0,0,4.98-7.179v-2.2a57.682,57.682,0,0,1,.314-7.359l.269-7.807q.673-16.243,1.391-32.44,1.481-31.812,3.365-63.669a24.588,24.588,0,0,0-22.434-26.069,6232.591,6232.591,0,0,0-1002.556,0,24.588,24.588,0,0,0-4.757.853,39.44,39.44,0,0,0-11.89,5.788,21.806,21.806,0,0,0-4.487,5.564c-1.57,2.243-3.141,4.487-4.487,6.775C4.234,46.25-.253,53.789.016,62.538Q.779,78.422,1.363,94.35l.763,16.2c0,2.872.224,5.743.314,8.615a61.379,61.379,0,0,0,.269,6.416,40.382,40.382,0,0,1,0,5.7,54.382,54.382,0,0,0,.224,6.641,10.5,10.5,0,0,0,.987,3.455c1.885,3.32,6.6,3.724,9.6,6.147a29.48,29.48,0,0,0-8.48,2.378,2.513,2.513,0,0,0-1.077.718,2.917,2.917,0,0,0-.314,1.66V169.6A27.19,27.19,0,0,0,4.01,177a28.986,28.986,0,0,1,.449,7.628c.314,11.307.628,22.435.853,33.921,0,6.955.314,13.865.449,20.819,0,3.275.224,6.551.224,9.826a3.455,3.455,0,0,1-.269,1.346,8.974,8.974,0,0,0,1.481,7,16.377,16.377,0,0,0,12.7,7.448l-7.4,2.647A8.121,8.121,0,0,0,8,270.507a7.089,7.089,0,0,0-.853,2.872,225.735,225.735,0,0,0-.628,40.831c.538,13.461.583,26.922.628,40.651V448.1a15.211,15.211,0,0,1,0,3.5,15.839,15.839,0,0,0,.269,9.467,11.083,11.083,0,0,0,8.3,7.089A10.544,10.544,0,0,0,9.3,471.431a9.512,9.512,0,0,0-1.436,4.711,74.528,74.528,0,0,0-.494,8.391,33.2,33.2,0,0,1,0,7.314,68.56,68.56,0,0,0-.853,14.9c0,6.641,0,13.461-.314,19.967q-.269,17.275-.628,34.549T4.728,595.9v7.762a34.1,34.1,0,0,1-.224,6.282,20.55,20.55,0,0,0-.628,2.378,11.352,11.352,0,0,0,.179,6.6A7.269,7.269,0,0,0,9.708,623.4c-2.243-.493-4.218,1.75-4.487,3.993s-.224,4.038-.628,6.012a22.433,22.433,0,0,0-.359,2.513c-.224,1.66-.449,3.275-.583,4.936-.314,3.32-.449,6.641-.449,9.961a4.487,4.487,0,0,0,0,1.66,4.488,4.488,0,0,0,1.077,1.167,25.26,25.26,0,0,0,10.006,4.8l-8.66,2.872a4.983,4.983,0,0,0-1.884.942,5.07,5.07,0,0,0-1.032,3.634c0,2.916,0,5.788,0,8.66,0,1.077-.4,1.974-.449,3.006v4.487c0,5.788-.449,11.576-.628,17.364v1.212Q.779,717.628.016,735.037a24.678,24.678,0,0,0,22.794,25.62,6659,6659,0,0,0,1002.6,0,24.677,24.677,0,0,0,14.582-6.281c.808-.763,1.885-1.481,2.692-2.333a77.363,77.363,0,0,0,13.461-20.326,32.036,32.036,0,0,0,3.1-13.6Z" transform="translate(0.005 0.289)" fill="url(#a)"/><path d="M1027.892,744.252a6670.814,6670.814,0,0,1-1002.6,0A24.768,24.768,0,0,1,2.5,718.587c0-2.961,0-5.923,0-8.974a50.614,50.614,0,0,1,.269-7.4c0-.9.583-1.57.718-2.423a15.93,15.93,0,0,1,.269-2.513c.224-2.064.359-4.128.538-6.147.538-5.788,1.122-11.576,1.66-17.364v-1.57a4.8,4.8,0,0,1,.808-2.6,3.9,3.9,0,0,1,2.6-1.032,80.987,80.987,0,0,1,30.017-5.968A220.2,220.2,0,0,0,72,659.809l13.461-1.84H80.973c-9.916,0-19.877-.4-29.793-1.211-5.7-.449-11.4-1.032-17.05-1.75a118.59,118.59,0,0,1-23.691-3.231c-2.154-.808-3.59-1.75-3.634-2.961V635.041a21.807,21.807,0,0,1,.449-6.865c1.122-1.974.538-.942,2.737-1.84a34.6,34.6,0,0,1,6.416-2.647c2.513-.493,5.07-.718,7.673-.987l27.5-2.737-7.044-.449-32.171-1.974-5.115-.314a2.2,2.2,0,0,1-1.884-.808,3.186,3.186,0,0,1,0-.942c.314-7.044.628-14.044.987-21.089.763-17.23,1.526-34.5,1.885-51.779v-7.044a427.367,427.367,0,0,1,1.122-44.331c0-1.391,1.212-16.018,1.167-16.018,33.293-2.423,66.676-3.679,100.1-3.59h8.211L116.2,471.4h0q-19.7-1.974-39.4-4.083c-7.089-.763-14.089-1.57-21.089-2.6-5.7-.808-11.262-2.154-16.961-3.051a20.908,20.908,0,0,0-5.295,0,72.284,72.284,0,0,1-15.973-3.051,9.6,9.6,0,0,1-1.211-.269,8.615,8.615,0,0,1-2.782-1.211,8.121,8.121,0,0,1-2.558-6.057,20.684,20.684,0,0,1,0-2.333c0-6.192-.583-12.07-.987-18.217-.4-7.089,0-14.134,0-21.223V306.6a48.5,48.5,0,0,0-.9-13.461,37.331,37.331,0,0,1,0-14.627,6.192,6.192,0,0,1,1.032-3.1,5.339,5.339,0,0,1,2.423-1.705,84.534,84.534,0,0,1,23.108-2.468A143.306,143.306,0,0,0,58.269,268.5a15.461,15.461,0,0,0,3.141-.583,224.347,224.347,0,0,1-35.9-5.295,34.459,34.459,0,0,1-10.589-4.487,17.956,17.956,0,0,1-1.75-1.3,13.461,13.461,0,0,1-4.936-9.6,5.7,5.7,0,0,1,0-1.256,6.6,6.6,0,0,1,.269-1.211,28.223,28.223,0,0,0,0-7.538l-.045-11.4c0-7.134,0-14.268-.4-21.4A169.7,169.7,0,0,0,6.8,183.567c-.494-3.455-.269-7-.449-10.5A76.278,76.278,0,0,1,6.8,160.28a18.845,18.845,0,0,1,1.705-6.775h0a6.416,6.416,0,0,1,5.519-4.083,72.51,72.51,0,0,0,11.621-.942q12.922-1.256,25.845-2.064c17.634-1.167,35.357-1.795,53.08-2.064h27.191c7.762,0,15.57-.269,23.332,0q-24.992-1.3-49.894-3.41c-8.615-.763-17.275-1.57-25.934-2.513-14.717-1.526-29.973-1.391-44.42-2.782a216.581,216.581,0,0,0-24.14-1.57H9.362a2.378,2.378,0,0,1-1.481-.4,2.423,2.423,0,0,1-.494-1.256,220.8,220.8,0,0,1-2.513-26.563c0-7.224-.449-14.493-.718-21.717Q3.574,65.023,2.676,45.954a24.678,24.678,0,0,1,22.435-25.71,6232.525,6232.525,0,0,1,1002.782-.09,24.678,24.678,0,0,1,22.434,26.07q-1.615,26.473-2.917,52.9c-.359,7.717-.673,15.435-1.032,23.152,0,4.487-.4,9.288-.583,14a29.091,29.091,0,0,1-.942,6.82c-1.3,3.993-.987,8.391-1.974,12.563a7.627,7.627,0,0,1-1.75,3.634,8.211,8.211,0,0,1-3.679,1.57h-.359a289.365,289.365,0,0,1-46.036,6.91c-2.872.224-5.7.359-8.57.449l53.843,5.295a7.583,7.583,0,0,1,4.487,1.57,7.224,7.224,0,0,1,1.57,3.41,37.138,37.138,0,0,1,.718,3.769,82.377,82.377,0,0,1,.763,13.461,181.012,181.012,0,0,1-3.051,24.992c-.808,3.949-3.32,4.218-6.012,3.769-1.75-.314-3.589-.942-5.115-1.167-4.218-.538-8.48-1.032-12.743-1.346-8.57-.673-17.14-.853-25.71-.9H974.453l-69.637.942h.9c26.069,5.653,53.3,2.6,79.822,6.057a172.523,172.523,0,0,0,32.126,3.186,35.9,35.9,0,0,1,12.025,0,13.461,13.461,0,0,1,7.538,6.416,24.275,24.275,0,0,1,2.916,11.128c0,2.243.224,4.487.359,6.6a339.113,339.113,0,0,1-.987,37.6c0,2.2-.314,4.487-.4,6.641a7.225,7.225,0,0,1-1.346,4.487,6.46,6.46,0,0,1-2.962,1.526h0a25.8,25.8,0,0,1-7.4.942,20.771,20.771,0,0,0-2.288,0c-2.917.269-5.923,1.256-8.974,1.705a79.519,79.519,0,0,1-8.66.718l3.455.808,23.96,5.609a6.507,6.507,0,0,1,2.917,1.211c3.141,2.917,2.423,12.878,2.737,16.646.583,7.269.853,14.582.942,21.851V396.2c0,17.678-.359,35.267-.494,52.946V472.7c0,7.852,1.077,22.838-3.275,30.421a9.333,9.333,0,0,1-5.833,4.128,30.552,30.552,0,0,1-6.73,1.077q-54.471,3.59-108.808,7.269h1.3c40.921.808,81.841,3.231,122.538,7.179,1.929,0,2.513,4.487,2.827,5.743a97.525,97.525,0,0,1,1.75,13.012c0,.718,0,1.526,0,2.243,1.077,13.954,1.391,27.954,1.525,41.953v9.153a219.817,219.817,0,0,1-.269,24.947,31.855,31.855,0,0,1-1.615,7.314,11.707,11.707,0,0,1-1.436,3.365,15.3,15.3,0,0,1-7.493,4.756c-.987.359-2.019.628-3.006.9-6.73,1.795-13.461,3.231-20.416,4.487l2.019.4c7.224,1.3,14.493,2.692,21.762,4.128a17.5,17.5,0,0,1,7.493,2.916,10,10,0,0,1,2.6,3.365,16.6,16.6,0,0,1,1.615,4.98l.269,1.795c.673,5.878-.269,11.666.4,17.5.359,3.006.539,5.968.673,8.974.314,5.788.538,11.621.852,17.409s.494,10.41.718,15.614a24.588,24.588,0,0,1-22.569,26.518Z" transform="translate(8.607 0.002)" fill="url(#b)"/><path d="M1045.151,69.682c0,4.487-.4,9.288-.583,14a29.072,29.072,0,0,1-.943,6.82c-1.3,3.993-.987,8.391-1.974,12.563a7.625,7.625,0,0,1-1.75,3.634,8.211,8.211,0,0,1-3.679,1.57h-.359a289.365,289.365,0,0,1-46.036,6.91c-2.872.224-5.7.359-8.57.449l53.843,5.295a7.582,7.582,0,0,1,4.487,1.57,7.221,7.221,0,0,1,1.571,3.41,37.072,37.072,0,0,1,.718,3.769c-23.287-1.526-46.709-2.2-70.579-2.378a4271.692,4271.692,0,0,0-510.88,27.55c-84.8,9.557-169.471,19.607-254.543,26.427C140.5,186.611,73.285,194.194,7.013,193.7a6.6,6.6,0,0,1,.269-1.211,28.222,28.222,0,0,0,0-7.538L7.147,173.24c27.28-2.423,54.74-3.859,82.021-5.968q72.553-5.339,144.927-12.653c172.073-17.364,343.025-41.549,516-49.984,12.608-.583,25.216-1.167,37.825-1.66-32.261-1.795-64.567-3.5-96.828-4.846-43.254-1.884-86.687-4.487-130.121-3.9-45.138.4-90.142,3.679-135.236,4.891-89.738,2.378-179.073,7.583-268.766,8.7-44.331.583-90.322,3.275-134.2-4.173-5.25-.9-10.455-1.84-15.614-2.872a6.416,6.416,0,0,1,5.519-4.083,72.507,72.507,0,0,0,11.621-.942q12.922-1.256,25.845-2.064c17.634-1.167,35.357-1.795,53.08-2.064H130.4c7.762,0,15.57-.269,23.332,0q-24.992-1.3-49.895-3.41c-8.615-.763-17.275-1.57-25.934-2.513-14.717-1.526-29.973-1.391-44.42-2.782-7.942-.9-16.018-1.3-24.095-1.436H8.045a2.378,2.378,0,0,1-1.481-.4,2.423,2.423,0,0,1-.494-1.256A220.8,220.8,0,0,1,3.558,53.26c0-7.224-.449-14.493-.718-21.717,15.3-1.974,30.691-3.59,46.125-4.487,50.657-2.423,101.494-1.885,152.2-4.487,87.809-4.218,176.829-10.813,264.728-5.519,87.226,5.25,174.092,15.973,261.094,24.095,90.77,8.48,181.585,16.2,272.4,24.14C1014.64,66.9,1029.9,68.291,1045.151,69.682ZM1041.426,476.6c-.314-1.346-.9-5.564-2.827-5.743-40.7-3.948-81.617-6.371-122.538-7.179h-1.3q54.426-3.634,108.808-7.269a30.557,30.557,0,0,0,6.73-1.077,9.332,9.332,0,0,0,5.833-4.128c4.487-7.583,3.275-22.031,3.275-30.421V397.227C872.27,392.112,705.177,384.709,538.4,373c7.089-1.75,14.179-3.41,21.313-5.07a1081.957,1081.957,0,0,1,192.265-25.665c96.11-4.487,192.713-.4,288.15-10.544V313.77c-98.712,3.1-197.424-.853-296.137,2.2a1151.2,1151.2,0,0,0-184.771,20.55c-45.767,8.974-91.219,19.832-137.165,27.729q-87.495-7.269-174.99-16.422-66.092-6.955-132.14-15.39l-7-.763c25.261-6.461,51.016-11.307,76.547-15.256,69.861-10.858,140.889-15.7,211.289-21.9,151.03-13.461,302.284-23.87,453.582-33.2,63.58-3.948,126.935-7.314,188.989-20.012a339.174,339.174,0,0,0,.987-37.6,40.612,40.612,0,0,0-.359-6.6c-54.606-7.134-109.84-6.461-165.3-4.128-77.04,3.275-154.036,7.089-230.986,12.474C491.016,215.731,338.192,225.6,187.521,246.377,125.378,254.992,65.567,269.171,8.583,293.31v63.355c0,7.089-.494,14.134,0,21.223.4,6.147.987,12.025.987,18.217a20.685,20.685,0,0,0,0,2.333c14.089,3.545,28.671,5.923,42.536,8.974,39.485,8.256,79.194,13.954,119.173,19.383q122,16.467,244.537,28.537c160.766,15.659,322.52,23.467,483.914,29.659q71.791,2.692,143.581,4.8a97.441,97.441,0,0,0-1.885-13.191Zm3.365,122.9a10,10,0,0,0-2.6-3.365,17.5,17.5,0,0,0-7.493-2.916c-7.269-1.436-14.538-2.827-21.761-4.128l-2.019-.4a178.283,178.283,0,0,0,20.416-4.487c.987-.269,2.019-.538,3.006-.9a15.3,15.3,0,0,0,7.493-4.756,11.713,11.713,0,0,0,1.436-3.365,31.849,31.849,0,0,0,1.615-7.314,219.875,219.875,0,0,0,.269-24.947V538.43c-133.172,4.891-266.119,7.628-399.335,1.032-146.274-7.224-292.547-21.133-438.372-34.325-41.683-3.769-83.232-8.076-124.961-11.038-24.14-1.75-50.074-4.487-75.47-4.218-.359,17.275-1.122,34.549-1.885,51.779,17.948,4.8,36.254,8.166,53.215,10.993,37.511,6.237,74.932,11.172,112.8,14.9,73.989,7.269,148.068,13.461,222.192,19.563q63.4,5.429,126.845,10.32c-30.78,2.6-61.561,5.025-92.431,6.775-79.508,4.487-158.882,11.621-238.435,15.435-61.471,2.961-122.762,1.526-183.964,0v1.57C4.814,627,4.231,632.79,3.693,638.578a57.837,57.837,0,0,1-.538,6.147c58.6,10.23,119.262,9.737,178.534,7.134,79.643-3.5,158.523-11.666,237.4-23.018,83.1-12.025,168.3-16.288,252.165-21.358l4.487-.269c54.785,2.6,109.615,4.173,164.58,4.128,68.964,0,137.748-1.705,206.4-6.865a16.6,16.6,0,0,0-1.929-4.981Z" transform="translate(9.924 52.596)" fill="url(#c)"/><path d="M165.432,632.116a33.966,33.966,0,0,1-16.826,3.993,12.924,12.924,0,0,1,3.948,4.128,10.455,10.455,0,0,1,0,10.724c-4.173,6.73-13.012,6.282-19.832,4.218a18.4,18.4,0,0,1-11.98-16.826,9.512,9.512,0,0,1,8.974-8.974,74.573,74.573,0,0,1-12.025-9.647c-9.647-9.647-16.512-26.249-11.935-39.709,2.154-6.1,9.423-11.756,16.422-8.974a132.361,132.361,0,0,1,23.736,12.922c2.109,1.3,4.128,2.6,6.327,3.769,1.032.538,5.115,2.2,2.109.987a33.293,33.293,0,0,1,18.71,15.076,20.64,20.64,0,0,1-7.628,28.312ZM92.295,552.563a13.863,13.863,0,0,1-1.077-1.974,14.358,14.358,0,0,0-12.384-6.91,18.8,18.8,0,0,0-6.82,1.615,10.32,10.32,0,0,0-5.025,3.859A14.4,14.4,0,0,0,64.97,561.4a14,14,0,0,0,5.16,7.269,13.46,13.46,0,0,0,8.7,3.006,31.412,31.412,0,0,0,5.788-.808,12.474,12.474,0,0,0,7.673-18.307Zm712.791-94.674A16.826,16.826,0,0,0,789.068,446c-2.6,0-4.8-.763-7.628-.763a32.4,32.4,0,0,0-12.608,3.59,30.017,30.017,0,0,0-16.377,12.833,16.018,16.018,0,0,0,3.1,19.473c-.852.852-1.705,1.66-2.692,2.513a6.506,6.506,0,0,0,4.711,10.993,50.112,50.112,0,0,1,5.788.359,22.841,22.841,0,0,0,7.807-1.346,53.267,53.267,0,0,0,6.237-2.2,8.659,8.659,0,0,0,3.589-2.737c.314-.359,2.6-3.769,1.167-2.333a4.487,4.487,0,0,0,1.3-2.288,27.325,27.325,0,0,0,11.756-6.282l2.243-1.615a16.736,16.736,0,0,0,7.628-18.307Zm-21.313-32.126a13.46,13.46,0,0,0-4.487-.808,18.8,18.8,0,0,0-4.8,2.019,3.634,3.634,0,0,0-1.57,4.487,3.859,3.859,0,0,0,4.487,2.109,15.572,15.572,0,0,0,4.487-1.122,12.338,12.338,0,0,0,2.916-3.186,2.154,2.154,0,0,0-1.032-3.5Zm35.267-43.658c-.4-.987-.808-1.974-1.256-2.961-9.467-6.461-17.005-7.134-22.7-2.019a16.646,16.646,0,0,0-3.006,3.634,12.608,12.608,0,0,0,4.487,17.32,14.314,14.314,0,0,0,10.679,1.346,53.4,53.4,0,0,0,5.564-2.244l2.782-2.064a10.633,10.633,0,0,0,2.827-4.487,11.935,11.935,0,0,0,.628-8.525ZM781.53,111.5a19.919,19.919,0,0,0-3.275-7.942A28.356,28.356,0,0,0,770.4,97.68a23.87,23.87,0,0,0-15.973-4.8,8.974,8.974,0,0,0-9.422,6.82,61.157,61.157,0,0,0-26.922-12.07c-9.378-1.974-32.755-1.122-30.825,13.461,1.526,11.531,10.185,18.486,19.922,24.409s17.948,10.14,27.595,8.974c8.076.942,17.948,2.109,21.806-6.865a12.744,12.744,0,0,0,.987-7.044,19.251,19.251,0,0,0,6.416,3.59,25.621,25.621,0,0,0,10.275-.449,10.185,10.185,0,0,0,7.269-12.2Zm-112.487,7.628a48.558,48.558,0,0,0-6.416-5.743,20.864,20.864,0,0,0-8.974-2.872,31.408,31.408,0,0,0-8.974-1.077,13.461,13.461,0,0,0-7,3.993,3.859,3.859,0,0,0-1.032,3.9,13.461,13.461,0,0,0,3.1,6.371,26.563,26.563,0,0,0,8.974,4.173,23.018,23.018,0,0,0,8.57,2.333,48.322,48.322,0,0,0,9.423-1.705,5.609,5.609,0,0,0,2.333-9.378Zm106.43,67.3a12.7,12.7,0,0,0-4.487-7.4,22.435,22.435,0,0,0-10.634-4.756,8.525,8.525,0,0,0-8.7,2.872,8.077,8.077,0,0,0-.628,8.974l1.66,3.275a14.763,14.763,0,0,0,5.16,5.743,14.358,14.358,0,0,0,7.4,2.737,10.5,10.5,0,0,0,8.346-3.724,9.558,9.558,0,0,0,1.885-7.762ZM570.331,444.788c-13.461-7.493-35.626-5.16-46.26,4.891a17.274,17.274,0,0,0,0,24.543c15.48,13.909,42.626,7.942,52.407-9.243l.583-.538c7.448-6.775,2.154-18.037-6.73-19.7Zm-73.137-10.993a15.345,15.345,0,0,0-11.262-2.6,70.623,70.623,0,0,0-8.66,2.423,7.628,7.628,0,0,0-5.564,8.3,7.852,7.852,0,0,0,7.628,6.551,68.517,68.517,0,0,0,8.974.583,15.66,15.66,0,0,0,10.1-5.16,6.371,6.371,0,0,0-1.211-10.14ZM86.327,55.054c-6.012-8.525-18.845-6.865-26.518-1.705a64.567,64.567,0,0,0-9.423,7.314,15.57,15.57,0,0,0-4.263,8.076l-.538,3.769q.471-2.154,0,.4A10.634,10.634,0,0,0,55.906,86.1h1.436a17.5,17.5,0,0,0,12.115-1.57,84.579,84.579,0,0,0,7.538-4.487C85.161,75.2,92.878,64.387,86.327,55.054ZM35.8,60.573a16.2,16.2,0,0,0-8.974,4.891A53.4,53.4,0,0,0,21.806,73a8.974,8.974,0,0,0,3.32,12.249A9.467,9.467,0,0,0,37.689,82.02c.583-.852,1.167-1.66,1.795-2.468h0a16.063,16.063,0,0,0,1.167-1.3,14.179,14.179,0,0,0,3.365-5.429c.314-.942.628-1.929.987-2.872C47.246,64.3,41.01,59.092,35.8,60.573Zm99.789-39.934a10.9,10.9,0,0,0-7.538.628,20.192,20.192,0,0,0-3.859,3.724,5.788,5.788,0,0,0-.9,7.044,6.327,6.327,0,0,0,6.73,2.692,14.9,14.9,0,0,0,5.25-1.391,11.442,11.442,0,0,0,4.487-5.923,5.474,5.474,0,0,0-4.083-6.775ZM381.7,222.147a8.175,8.175,0,0,0,.718-1.391,12.339,12.339,0,0,0-4.487-16.736,20.913,20.913,0,0,0-2.692-1.256,29.928,29.928,0,0,0-22.435-6.057,74.662,74.662,0,0,0-23.691,8.166c-10.634,4.487-13.73,19.114-9.647,28.627a22.928,22.928,0,0,0,5.295,7.448,109.48,109.48,0,0,0-17.409,9.512,22.436,22.436,0,0,0-5.923,5.833c-5.7,4.891-7.987,11.486-2.558,20.371,10.32,16.826,40.068,12.339,55.548,6.6,9.378-3.5,20.1-8.435,24.992-17.5a20.774,20.774,0,0,0-8.391-27.954,24.9,24.9,0,0,0,10.769-15.659ZM277.38,261.452c-2.6-.583-4.083.628-6.237,1.66h-1.167a21.717,21.717,0,0,1-2.288.628,5.564,5.564,0,0,0-3.724,7.538,5.878,5.878,0,0,0,8.166,2.692,28.313,28.313,0,0,0,4.891-3.141c1.75-1.436,3.814-3.186,3.59-5.7A4.487,4.487,0,0,0,277.38,261.452ZM244,241.575l-1.436-.583c-7.224-5.474-17.948-2.333-24.319,3.32a28,28,0,0,0-9.512,15.659,12.339,12.339,0,0,0,15.525,14.941c9.737-3.275,22.973-9.916,24.229-20.685l.4-1.211A10.006,10.006,0,0,0,244,241.575Zm678.2,388.971a14.987,14.987,0,0,0-7.179-8.974,16.333,16.333,0,0,0-18.935,2.378l-7.762,6.91A13.775,13.775,0,0,0,887.2,649.3a14.717,14.717,0,0,0,18.621,3.634c3.1-1.75,6.192-3.5,9.333-5.2a15.48,15.48,0,0,0,7.044-17.185Z" transform="translate(71.902 70.589)" fill="#eb924d"/><path d="M167.24,628.624a33.967,33.967,0,0,1-16.826,3.993,12.923,12.923,0,0,1,3.948,4.128,10.454,10.454,0,0,1,0,10.724c-4.173,6.73-13.057,6.282-19.832,4.263A18.441,18.441,0,0,1,122.55,635a9.512,9.512,0,0,1,8.974-9.2,74.3,74.3,0,0,1-11.845-9.6c-9.692-9.6-16.6-26.338-11.98-39.485,2.154-6.1,9.423-11.711,16.377-8.974a131.192,131.192,0,0,1,23.781,12.922c2.064,1.3,4.083,2.647,6.282,3.769,1.077.538,5.16,2.2,2.109.987a33.113,33.113,0,0,1,18.71,15.076,20.6,20.6,0,0,1-7.718,28.133ZM94.1,549.071a11.706,11.706,0,0,1-1.077-1.929,13.865,13.865,0,0,0-5.16-5.025,14.225,14.225,0,0,0-7.269-1.929,18.8,18.8,0,0,0-6.775,1.615,10.454,10.454,0,0,0-5.07,3.859,14.537,14.537,0,0,0-1.974,12.249,13.775,13.775,0,0,0,5.115,7.269,13.461,13.461,0,0,0,8.7,3.006,31.407,31.407,0,0,0,5.833-.808A12.474,12.474,0,0,0,94.1,549.071Zm711.311-91.578A16.826,16.826,0,0,0,789.4,445.6c-2.6,0-4.8-.718-7.628-.718a32.35,32.35,0,0,0-12.608,3.545,30.018,30.018,0,0,0-16.377,12.833,16.018,16.018,0,0,0,3.1,19.473,36.286,36.286,0,0,1-2.692,2.513,6.506,6.506,0,0,0,4.711,11.038,50.041,50.041,0,0,1,5.788.314,21.806,21.806,0,0,0,7.807-1.346c2.064-.718,4.263-1.3,6.237-2.2a8.974,8.974,0,0,0,3.59-2.692c.314-.4,2.6-3.814,1.167-2.378a4.487,4.487,0,0,0,1.3-2.288,27.324,27.324,0,0,0,11.756-6.282l2.243-1.615a16.647,16.647,0,0,0,7.628-18.307ZM784.1,425.367a12.427,12.427,0,0,0-4.487-.763,17.227,17.227,0,0,0-4.8,1.974,3.634,3.634,0,0,0-1.571,4.487,3.814,3.814,0,0,0,4.487,2.109,15.565,15.565,0,0,0,4.487-1.122,11.664,11.664,0,0,0,2.917-3.186,2.154,2.154,0,0,0-1.032-3.545Zm35.267-43.613c-.4-1.032-.853-2.019-1.256-3.006-9.467-6.461-17.005-7.134-22.7-1.974a14.4,14.4,0,0,0-3.006,3.59,12.608,12.608,0,0,0,4.487,17.319,14.313,14.313,0,0,0,10.679,1.346,53.391,53.391,0,0,0,5.564-2.243l2.782-2.064a10.635,10.635,0,0,0,2.827-4.487,12.07,12.07,0,0,0,.628-8.525Zm-35.9-273.7a19.159,19.159,0,0,0-3.231-7.987,28.358,28.358,0,0,0-8.032-6.012,24.1,24.1,0,0,0-16.018-4.487,8.974,8.974,0,0,0-9.378,6.82,60.8,60.8,0,0,0-26.922-12.025c-9.378-2.019-32.754-1.167-30.825,13.461,1.526,11.531,10.14,18.486,19.922,24.409s17.948,10.14,27.594,8.974c8.031.942,17.948,2.109,21.806-6.865a12.7,12.7,0,0,0,.942-7.044,20.146,20.146,0,0,0,6.461,3.679,25.844,25.844,0,0,0,10.32-.449,10.1,10.1,0,0,0,7.179-12.474Zm-112.487,7.583a51.926,51.926,0,0,0-6.416-5.743,20.505,20.505,0,0,0-8.974-2.872,33.426,33.426,0,0,0-8.974-1.077,13.461,13.461,0,0,0-7,3.993,3.993,3.993,0,0,0-1.077,3.9,14.133,14.133,0,0,0,3.1,6.371,27.192,27.192,0,0,0,8.974,4.173,21.985,21.985,0,0,0,8.57,2.333,48.952,48.952,0,0,0,9.423-1.705,5.609,5.609,0,0,0,2.2-9.378Zm106.474,67.3a12.833,12.833,0,0,0-4.487-7.4,22.837,22.837,0,0,0-10.679-4.756,8.48,8.48,0,0,0-8.66,2.872,8.031,8.031,0,0,0-.628,8.974l1.66,3.275a14.762,14.762,0,0,0,5.16,5.743,14.225,14.225,0,0,0,7.4,2.737,10.41,10.41,0,0,0,8.3-3.724,9.423,9.423,0,0,0,1.75-7.762ZM572.319,441.3c-13.461-7.493-35.9-5.16-46.26,4.891a17.23,17.23,0,0,0,0,24.543c15.48,13.909,42.581,7.987,52.407-9.243l.538-.494c7.314-6.82,1.974-18.037-6.865-19.742ZM499.182,430.3a15.569,15.569,0,0,0-11.262-2.6,63.622,63.622,0,0,0-8.66,2.468,7.583,7.583,0,0,0-5.564,8.256,7.852,7.852,0,0,0,7.628,6.551,61.466,61.466,0,0,0,8.974.583,15.659,15.659,0,0,0,10.14-5.16A6.372,6.372,0,0,0,499,430.257ZM86.835,54.254c-5.968-8.48-18.8-6.865-26.518-1.705a73.583,73.583,0,0,0-9.423,7.314,15.3,15.3,0,0,0-4.218,8.121l-.538,3.724q.471-2.154,0,.4A10.634,10.634,0,0,0,56.458,85.3h1.436a17.05,17.05,0,0,0,12.07-1.526,76.423,76.423,0,0,0,7.583-4.487C85.8,74.31,93.43,63.542,86.835,54.254ZM36.4,59.683a16.512,16.512,0,0,0-8.974,4.891,64.168,64.168,0,0,0-5.2,7.359,8.974,8.974,0,0,0,3.231,12.249A9.557,9.557,0,0,0,38.062,81l1.75-2.513h0c.4-.4.763-.853,1.167-1.3a14.089,14.089,0,0,0,3.679-5.564c.314-.942.673-1.885,1.032-2.827C47.888,63.407,41.562,58.157,36.4,59.683Zm99.834-39.934a10.9,10.9,0,0,0-7.538.628,21.672,21.672,0,0,0-3.859,3.724,5.833,5.833,0,0,0-.942,7.134,6.282,6.282,0,0,0,6.73,2.692,15.166,15.166,0,0,0,5.295-1.391,10.993,10.993,0,0,0,4.487-5.878,5.519,5.519,0,0,0-4.173-6.91ZM383.6,218.654a13.462,13.462,0,0,0,.718-1.391,12.339,12.339,0,0,0-4.487-16.691,18.494,18.494,0,0,0-2.692-1.3,30.107,30.107,0,0,0-22.435-6.057,73.9,73.9,0,0,0-23.736,8.211c-10.634,4.487-13.461,19.069-9.6,28.582a22.838,22.838,0,0,0,5.115,7.628,108.892,108.892,0,0,0-17.364,9.512,22.434,22.434,0,0,0-5.968,5.833c-5.653,4.891-7.942,11.486-2.513,20.371,10.32,16.826,40.023,12.384,55.548,6.6,9.378-3.5,20.1-8.435,24.992-17.5a20.775,20.775,0,0,0-8.391-27.953A25.037,25.037,0,0,0,383.6,218.654ZM277.843,260.7c-2.6-.628-4.083.628-6.237,1.66h-.449l-.718.269-2.288.583a5.609,5.609,0,0,0-3.724,7.583,5.833,5.833,0,0,0,8.166,2.647,26.924,26.924,0,0,0,4.891-3.141c1.795-1.391,3.859-3.186,3.59-5.654A4.487,4.487,0,0,0,277.843,260.7ZM244.46,240.865l-1.436-.583c-7.224-5.474-17.948-2.333-24.319,3.32a27.729,27.729,0,0,0-9.288,15.614,12.384,12.384,0,0,0,15.39,14.986c9.737-3.275,22.973-9.961,24.229-20.73a3.454,3.454,0,0,1,.449-1.167A10.1,10.1,0,0,0,244.46,240.865Zm679.5,386.189a15.076,15.076,0,0,0-7.134-8.974,16.332,16.332,0,0,0-18.935,2.378l-7.9,7.044a13.73,13.73,0,0,0-1.122,18.441,14.672,14.672,0,0,0,18.576,3.634l9.378-5.2a15.39,15.39,0,0,0,7.134-17.319Z" transform="translate(73.28 67.486)" fill="url(#d)"/><path d="M165.62,630.921a33.967,33.967,0,0,1-16.826,3.993,12.474,12.474,0,0,1,3.949,4.128,10.365,10.365,0,0,1,0,10.679c-4.173,6.775-13.012,6.327-19.832,4.263a18.4,18.4,0,0,1-11.98-16.736,9.467,9.467,0,0,1,8.974-8.974,74.577,74.577,0,0,1-12.025-9.647c-9.692-9.557-16.557-26.293-11.98-39.44,2.154-6.1,9.423-11.756,16.422-8.974a138.239,138.239,0,0,1,23.736,12.922c2.109,1.346,4.128,2.647,6.327,3.769,1.032.583,5.115,2.243,2.109.987a33.517,33.517,0,0,1,18.71,15.121,20.64,20.64,0,0,1-7.583,27.909Zm-73.137-79.6a13.457,13.457,0,0,1-1.077-1.929,14.224,14.224,0,0,0-5.16-5.025,14.449,14.449,0,0,0-7.224-1.884A18.8,18.8,0,0,0,72.2,544.1a10.32,10.32,0,0,0-5.025,3.859,14.4,14.4,0,0,0-2.019,12.249,14,14,0,0,0,5.16,7.493,13.461,13.461,0,0,0,8.7,3.006,31.4,31.4,0,0,0,5.788-.808,12.519,12.519,0,0,0,7.673-18.576Zm712.792-93.552a16.826,16.826,0,0,0-16.018-11.89c-2.6,0-4.8-.718-7.628-.718a32.354,32.354,0,0,0-12.608,3.545,30.017,30.017,0,0,0-16.377,12.833,16.018,16.018,0,0,0,3.1,19.473c-.852.852-1.705,1.66-2.692,2.513a6.506,6.506,0,0,0,4.711,10.993,50.121,50.121,0,0,1,5.788.359,22.837,22.837,0,0,0,7.807-1.346,53.273,53.273,0,0,0,6.237-2.2,8.974,8.974,0,0,0,3.59-2.692c.314-.4,2.6-3.814,1.167-2.378a4.486,4.486,0,0,0,1.3-2.288,27.324,27.324,0,0,0,11.756-6.282l2.244-1.615a16.736,16.736,0,0,0,7.628-18.307Zm-21.313-32.126a13.462,13.462,0,0,0-4.487-.808,18.8,18.8,0,0,0-4.8,2.019,3.634,3.634,0,0,0-1.57,4.487,3.859,3.859,0,0,0,4.487,2.109,15.567,15.567,0,0,0,4.487-1.122,12.338,12.338,0,0,0,2.917-3.186,2.154,2.154,0,0,0-1.032-3.5Zm35.267-43.658c-.4-.987-.808-1.974-1.256-2.961-9.467-6.461-17.005-7.134-22.7-2.019a16.644,16.644,0,0,0-3.006,3.634,12.608,12.608,0,0,0,4.487,17.32,14.314,14.314,0,0,0,10.679,1.346,53.417,53.417,0,0,0,5.564-2.243L815.774,395a10.633,10.633,0,0,0,2.827-4.487,11.936,11.936,0,0,0,.628-8.525ZM781.718,110.3a19.653,19.653,0,0,0-3.275-7.942,27.505,27.505,0,0,0-7.852-5.788,36.52,36.52,0,0,0-7.179-3.769,38.32,38.32,0,0,0-8.974-1.032,8.974,8.974,0,0,0-9.423,6.82,60.663,60.663,0,0,0-26.922-12.07c-9.378-2.019-32.754-1.122-30.825,13.461,1.526,11.531,10.185,18.486,19.922,24.364s17.948,10.185,27.595,8.974c8.076.942,17.948,2.109,21.806-6.865a12.744,12.744,0,0,0,.987-7.044A19.114,19.114,0,0,0,764,122.957a25.62,25.62,0,0,0,10.275-.4,10.23,10.23,0,0,0,7.448-12.249Zm-112.487,7.583a55.821,55.821,0,0,0-6.416-5.743,22.075,22.075,0,0,0-8.974-2.872,33.157,33.157,0,0,0-8.974-1.032,13.012,13.012,0,0,0-7,3.993,3.859,3.859,0,0,0-1.032,3.9,13.461,13.461,0,0,0,3.1,6.371,26.563,26.563,0,0,0,8.974,4.173,22.119,22.119,0,0,0,8.57,2.288,48.23,48.23,0,0,0,9.423-1.66,5.654,5.654,0,0,0,2.333-9.422Zm106.43,67.3a12.564,12.564,0,0,0-4.487-7.4,21.672,21.672,0,0,0-10.544-4.936,8.435,8.435,0,0,0-8.7,2.872,8.076,8.076,0,0,0-.628,8.974l1.66,3.231a14.583,14.583,0,0,0,5.16,5.788,14.359,14.359,0,0,0,7.4,2.737,10.5,10.5,0,0,0,8.346-3.724,9.6,9.6,0,0,0,1.795-7.538ZM570.519,443.547c-13.461-7.493-35.626-5.2-46.26,4.891a17.274,17.274,0,0,0,0,24.543c15.48,13.909,42.626,7.942,52.407-9.243l.583-.538C584.7,456.47,579.4,445.208,570.519,443.547Zm-73.137-10.993a15.57,15.57,0,0,0-11.262-2.647,79.825,79.825,0,0,0-8.66,2.468,7.628,7.628,0,0,0-5.564,8.3,7.9,7.9,0,0,0,7.628,6.551,68.5,68.5,0,0,0,8.974.583,15.884,15.884,0,0,0,10.1-5.16,6.371,6.371,0,0,0-1.211-10.1ZM86.516,54.846C80.5,46.366,67.671,48.026,60,53.141a71.431,71.431,0,0,0-9.423,7.538A15.7,15.7,0,0,0,46.313,68.8l-.538,3.724q.471-2.086,0,.4A10.634,10.634,0,0,0,56.094,86.12H57.53a17.23,17.23,0,0,0,12.115-1.526,75.788,75.788,0,0,0,7.538-4.487C85.349,74.9,93.067,64.134,86.516,54.846ZM35.993,60.275a16.781,16.781,0,0,0-8.974,4.891,59.409,59.409,0,0,0-5.25,7.359,8.974,8.974,0,0,0,3.32,12.294,9.512,9.512,0,0,0,12.563-3.231l1.795-2.513h0l1.167-1.346A14.178,14.178,0,0,0,43.98,72.3c.314-.942.628-1.885.987-2.827C47.435,64,41.2,58.794,35.993,60.275ZM135.872,20.3a10.9,10.9,0,0,0-7.538.673,19.968,19.968,0,0,0-3.859,3.679,5.833,5.833,0,0,0-.9,7.089,6.282,6.282,0,0,0,6.73,2.647,15.883,15.883,0,0,0,5.25-1.346,11.621,11.621,0,0,0,4.487-5.923,5.564,5.564,0,0,0-4.173-6.82Zm246.107,200.61a8.168,8.168,0,0,0,.718-1.391,12.339,12.339,0,0,0-4.487-16.736,29.737,29.737,0,0,0-2.692-1.3,30.063,30.063,0,0,0-22.435-6.012,74.662,74.662,0,0,0-23.691,8.166c-10.634,4.487-13.73,19.114-9.647,28.582a22.659,22.659,0,0,0,5.295,7.493,106.028,106.028,0,0,0-17.544,9.423,22.434,22.434,0,0,0-5.923,5.833c-5.7,4.891-7.987,11.486-2.558,20.371,10.32,16.781,40.068,12.339,55.548,6.6,9.378-3.5,20.1-8.435,24.992-17.5a20.729,20.729,0,0,0-8.391-27.954,24.9,24.9,0,0,0,10.813-15.525ZM277.569,261.289c-2.6-.628-4.083.628-6.237,1.66h-.494l-.673.269a21.424,21.424,0,0,1-2.288.583,5.609,5.609,0,0,0-3.724,7.762,5.833,5.833,0,0,0,8.166,2.647,28.311,28.311,0,0,0,4.891-3.141c1.75-1.391,3.814-3.186,3.59-5.654a4.487,4.487,0,0,0-3.231-4.218Zm-33.383-19.922-1.436-.583c-7.224-5.474-17.948-2.333-24.319,3.32a27.729,27.729,0,0,0-9.512,15.615A12.384,12.384,0,0,0,224.443,274.7c9.737-3.275,22.973-9.961,24.229-20.73l.4-1.167A10.006,10.006,0,0,0,244.186,241.367Zm678.2,387.939a15.031,15.031,0,0,0-7.179-8.974,16.332,16.332,0,0,0-18.935,2.378l-7.762,6.91a13.82,13.82,0,0,0-1.122,18.486,14.672,14.672,0,0,0,18.621,3.59l9.333-5.2a15.435,15.435,0,0,0,7.044-17.185Z" transform="translate(71.714 69.451)" fill="url(#e)"/><path d="M7.5,152.727a37.018,37.018,0,0,0-.808,6.641,27.191,27.191,0,0,0,0,3.32c0,.4,0,.763,0,1.167a16.2,16.2,0,0,1,0,3.59,10.716,10.716,0,0,0,.269,2.916c-2.154-.808-3.59-1.75-3.634-2.961V153.625a21.807,21.807,0,0,1,.449-6.865c1.122-1.974.538-.942,2.737-1.84a34.6,34.6,0,0,1,7.224-2.468c2.513-.494,5.07-.718,7.673-.987l27.5-2.737-7.044-.449h5.878l5.654-.269a34.1,34.1,0,0,0,4.756,0c-12.743,2.154-25.531,4.263-37.959,7.628a46.3,46.3,0,0,0-9.692,3.5,6.146,6.146,0,0,0-2.154,1.705A5.608,5.608,0,0,0,7.5,152.727Z" transform="translate(11.28 481.239)" fill="#eb924d"/><path d="M7.049,86.058v.269a25,25,0,0,0,.628,3.186c.359,3.141-.269,6.506,0,9.692a26.024,26.024,0,0,0,5.968,17.23c5.2,5.609,13.461,7.224,20.864,8.57l-17.723.269a7.359,7.359,0,0,0-3.545.628,7.493,7.493,0,0,0-2.916,5.25,134.607,134.607,0,0,0-3.1,36.972A26.921,26.921,0,0,0,16.2,171.4a7.493,7.493,0,0,0-5.833,9.422,18.576,18.576,0,0,0,7.673,9.737c-5.115,0-8.48,5.609-9.333,10.634-.718,4.038-.494,8.166-1.211,12.249a12.967,12.967,0,0,0,0,3.949q0,2.692,0,5.384A76.277,76.277,0,0,0,8.754,237.4c.494,2.647,1.167,5.339,1.929,7.942.4,1.3.853,2.558,1.346,3.859l.269.853a8.613,8.613,0,0,1-2.782-1.211,10.185,10.185,0,0,1-2.961-8.391c0-6.192-.583-12.07-.987-18.217-.4-7.089,0-14.134,0-21.223v-51.42c0-17.14,0-34.19-.269-51.285a48.5,48.5,0,0,0-.9-13.461,37.331,37.331,0,0,1,0-14.627,6.192,6.192,0,0,1,1.032-3.1,5.34,5.34,0,0,1,2.827-1.66A84.533,84.533,0,0,1,31.369,63a143.311,143.311,0,0,0,22.659-2.737,48.78,48.78,0,0,0,5.743-.538c-12.384,2.6-24.858,4.891-37.421,7a34.19,34.19,0,0,0-7.673,1.84,11.442,11.442,0,0,0-5.923,4.936,16.2,16.2,0,0,0-1.481,7,43.568,43.568,0,0,0-.224,5.564Z" transform="translate(12.849 208.248)" fill="#eb924d"/><path d="M108.719,105.114c-24.678,1.3-49.356,5.429-73.9,6.327a57.386,57.386,0,0,0-18.172,2.468c-3.993,1.526-8.032,9.647-3.275,12.563a7.63,7.63,0,0,0,2.288.763,69.231,69.231,0,0,0,13.461,1.122,51.688,51.688,0,0,0-16.377,6.6,7.269,7.269,0,0,0-2.468,1.885A7,7,0,0,0,9.2,139.663a23.511,23.511,0,0,0-1.211,7.852,27.46,27.46,0,0,1,0,5.429,200.34,200.34,0,0,0,0,21.4,6.6,6.6,0,0,0,.449,2.423A7.225,7.225,0,0,0,10.77,179.1l6.057,4.487a.808.808,0,0,1,.4.359.942.942,0,0,1-.4.987A34.235,34.235,0,0,0,8.616,195.7a20.862,20.862,0,0,0-2.2,6.057,49.715,49.715,0,0,0,1.346,15.884,10.723,10.723,0,0,0,2.737,5.519,11.889,11.889,0,0,0,4.487,2.243,179.023,179.023,0,0,0,21.268,5.115l-28,.9s-.9,10.679-1.122,11.666a5.429,5.429,0,0,0,0,3.769,11.263,11.263,0,0,0,2.961,4.083l-5.115-.314a2.2,2.2,0,0,1-1.884-.808,3.186,3.186,0,0,1,0-.942c1.211-26.562,2.513-53.3,3.051-79.912A427.366,427.366,0,0,1,7.27,124.721c0-1.391,1.211-16.018,1.167-16.018C41.909,106.28,75.292,105.024,108.719,105.114Z" transform="translate(10.699 366.516)" fill="#eb924d"/><path d="M27.81,105.07Z" transform="translate(96.992 366.38)" fill="#eb924d"/><path d="M129.029,32.11c-14.852,1.885-30.107,0-44.869,2.333-4.891.808-9.692,2.109-14.627,2.6s-8.974,0-13.461.314A117.782,117.782,0,0,0,22.51,43.686a22.435,22.435,0,0,0-10.185,5.295,13.955,13.955,0,0,0-2.468,3.545,17.409,17.409,0,0,0-2.109,8.166,13.012,13.012,0,0,1,0,2.288c0,2.333-.494,4.487-.538,6.955A55.458,55.458,0,0,0,8.735,83.8a6.73,6.73,0,0,0,1.705,3.545,7.224,7.224,0,0,0,3.724,1.346l16.646,2.558L7.883,92.953c.494,0,.314,18.351.449,20.012.359,6.192.538,12.518,1.032,18.755a51.689,51.689,0,0,0,1.705,12.07c.269.9.628,1.84.987,2.737a17.955,17.955,0,0,1-1.75-1.3,13.461,13.461,0,0,1-4.936-9.6,7.628,7.628,0,0,1,.359-2.468,28.223,28.223,0,0,0,0-7.538L5.056,92.5A169.691,169.691,0,0,0,3.8,71.64c-.494-3.455-.269-7-.449-10.5A76.277,76.277,0,0,1,3.8,48.353,18.845,18.845,0,0,1,5.5,41.577a6.506,6.506,0,0,1,5.564-4.128,72.51,72.51,0,0,0,11.621-.942q12.922-1.256,25.845-2.064c17.634-1.167,35.357-1.795,53.08-2.064H127.5Z" transform="translate(11.387 111.975)" fill="#eb924d"/><path d="M214.331,49.56c26.069,5.654,53.3,2.6,79.822,6.057A172.52,172.52,0,0,0,326.279,58.8a35.9,35.9,0,0,1,12.025,0,13.46,13.46,0,0,1,7.538,6.416c3.141,4.98,2.916,12.07,3.275,17.723a415.973,415.973,0,0,1-1.391,44.241,7.224,7.224,0,0,1-1.346,4.487,6.462,6.462,0,0,1-2.961,1.526v-.9a38.766,38.766,0,0,1,.269-7.224,72.147,72.147,0,0,0,1.211-9.737c0-1.256,0-2.333,0-3.545a4.492,4.492,0,0,0,0-1.077,27.765,27.765,0,0,0-.673-4.487,32.36,32.36,0,0,1-.314-5.923,98.84,98.84,0,0,0-1.077-12.563,2.692,2.692,0,0,0-.853-1.974,2.826,2.826,0,0,0-1.615-.314,398.48,398.48,0,0,0-43.3,2.782,181.045,181.045,0,0,0,36.748-5.295,6.641,6.641,0,0,0,6.1-9.378A9.6,9.6,0,0,0,337,67.328a10.5,10.5,0,0,0-3.993-1.481L330.5,65.4q-12.608-2.423-25.4-3.724c-4.218-.449-8.525-.763-12.788-1.032s-8.256-1.167-12.563-1.436l-7.673-.494-26.159-1.57c-4.487-.269-8.7-.314-12.967-.808a12.248,12.248,0,0,1-3.5-1.122,11.4,11.4,0,0,0-1.974-.673c-3.814-.808-7.762-1.256-11.621-1.974l-8.211-1.526-3.814-.718a17.546,17.546,0,0,0-3.051-.628C205.312,49.65,209.8,49.56,214.331,49.56Z" transform="translate(700.124 172.821)" fill="#eb924d"/><path d="M275.529,155.822c0,25.486-.583,51.016-.583,76.278,0,8.391,1.077,22.838-3.276,30.421a9.333,9.333,0,0,1-5.833,4.128,19.2,19.2,0,0,0,.763-1.929,59.192,59.192,0,0,0,2.872-11.172,28.726,28.726,0,0,1,.807-5.16,19.519,19.519,0,0,0,.763-5.384l1.346-16.2c.359-4.487.718-8.7,1.122-13.057l.538-6.551a10.323,10.323,0,0,0,0-2.872,2.648,2.648,0,0,1,0-.853c-.269-1.077,0-2.288-.9-3.141a3.365,3.365,0,0,0-1.929-.9,84.756,84.756,0,0,0-20.371-2.558,25.394,25.394,0,0,1,8.974-.449,21.716,21.716,0,0,0,8.974-.852,8.525,8.525,0,0,0,4.487-3.859,11.617,11.617,0,0,0,.942-2.737,24.763,24.763,0,0,0,0-5.16c0-3.186,0-6.327,0-9.512,0-8.974,0-17.589-.853-26.383-.449-6.686-1.077-13.461-1.481-20.012,0-2.2-1.436-3.32-1.929-5.295s.673-5.16-.808-7.359a6.865,6.865,0,0,0-5.788-1.929l-41.28-.538a142.055,142.055,0,0,0,38.318-4.038,16.377,16.377,0,0,0,4.487-1.391,11.89,11.89,0,0,0,4.935-6.013c.538-1.211.9-2.513,1.391-3.769a6.37,6.37,0,0,0,.449-1.3,26.242,26.242,0,0,0-.269-4.936c0-1.929-.224-3.859-.359-5.833a11.712,11.712,0,0,0-1.481-6.282,12.294,12.294,0,0,0-7.807-4.083l-22.165-5.429a48.36,48.36,0,0,1,5.833-.628l23.96,5.609A6.505,6.505,0,0,1,272.3,75.91c3.141,2.917,2.423,12.878,2.737,16.646.583,7.269.853,14.582.942,21.851C275.933,128.362,275.529,142.137,275.529,155.822Z" transform="translate(774.43 240.921)" fill="#eb924d"/><path d="M240.21,37.41c-2.872.224-5.7.359-8.57.449l53.843,5.295a7.583,7.583,0,0,1,4.487,1.57,7.224,7.224,0,0,1,1.57,3.41,70.841,70.841,0,0,1,1.481,17.14,181.011,181.011,0,0,1-3.051,24.992c-.807,3.949-3.32,4.218-6.012,3.769a6.372,6.372,0,0,0,2.737-4.487,281.274,281.274,0,0,0,0-31.408,20.054,20.054,0,0,0-1.122-5.833,7.4,7.4,0,0,0-2.378-3.1,8.433,8.433,0,0,0-1.615-.942,1.661,1.661,0,0,0-.628-.314c-.4,0-.673-.359-1.032-.494a7.181,7.181,0,0,0-1.885-.449c-2.692-.449-5.294-.942-7.987-1.346-10.5-1.75-21.088-3.1-31.678-4.083a130.926,130.926,0,0,1-20.55-2.827c5.07-.269,9.467-.808,14.493-.987Z" transform="translate(759.541 130.455)" fill="#eb924d"/><path d="M328.883,225.757A51.149,51.149,0,0,0,330,218.4c.359-4.128.314-8.256.314-12.384a37.238,37.238,0,0,0-.628-10.724,20.64,20.64,0,0,1-1.3-7.762,13.013,13.013,0,0,0-2.154-9.647,14.448,14.448,0,0,0-10.858-3.141l-20.056-.224A256.928,256.928,0,0,0,321.7,170.03a4.262,4.262,0,0,0,4.218-5.429c-.359-8.974-.583-17.634-1.077-26.473-.269-4.891-1.167-8.974-6.282-10.769a111.823,111.823,0,0,0-17.589-3.051q-15.749-2.356-31.408-4.218c-20.954-2.468-42.042-4.218-63.176-5.07,40.921.808,81.841,3.231,122.538,7.179,1.929,0,2.513,4.487,2.827,5.743a109.926,109.926,0,0,1,1.929,15.255c1.077,13.954,1.391,27.954,1.526,41.953v.673c0,2.872,0,5.7.269,8.57a219.822,219.822,0,0,1-.269,24.947,31.852,31.852,0,0,1-1.615,7.314,11.71,11.71,0,0,1-1.436,3.365,15.3,15.3,0,0,1-7.493,4.756,18.622,18.622,0,0,0,3.141-5.384A28.7,28.7,0,0,0,328.883,225.757Z" transform="translate(719.686 401.075)" fill="#eb924d"/><path d="M4.729,105.854q-.808-30.017-2.2-59.9a24.678,24.678,0,0,1,22.435-25.71,6232.527,6232.527,0,0,1,1002.782-.09,24.678,24.678,0,0,1,22.434,26.07q-1.616,26.473-2.917,52.9c-.539,12.384-1.122,24.723-1.615,37.152a29.091,29.091,0,0,1-.942,6.82c-1.3,3.993-.987,8.391-1.974,12.563a7.629,7.629,0,0,1-1.75,3.634,8.211,8.211,0,0,1-3.679,1.57h-.359a1.62,1.62,0,0,0,0-.449c.359-5.429,1.3-11.083,1.122-16.557a35.9,35.9,0,0,1-.314-5.384,20.327,20.327,0,0,0-.359-7.9,13.91,13.91,0,0,0-15.794-9.423c4.891-4.487,14.044-2.109,17.544-7.628a13.46,13.46,0,0,0,.314-10.23,486.917,486.917,0,0,0-62.1-2.513,162.607,162.607,0,0,0,52.991-5.878,14.179,14.179,0,0,0,7.493-3.948,15.077,15.077,0,0,0,2.512-7.538c.584-4.487.987-8.974,1.84-13.461.269-1.3.942-2.423,1.212-3.724a30.191,30.191,0,0,0,0-6.371A65.3,65.3,0,0,0,1041.79,45.1a33.476,33.476,0,0,0-3.365-8.435,13.147,13.147,0,0,0-7.583-7.493,29.838,29.838,0,0,0-8.256-1.526c-9.243-.808-15.525-.942-24.723-2.019-12.788-1.481-25.575-2.782-38.318-3.993q-25.934-2.423-51.914-4.263c-8.66-.628-17.32-1.167-25.979-1.705a26.068,26.068,0,0,0-5.609,0,10.634,10.634,0,0,1-4.128,0,61.651,61.651,0,0,0-12.474-1.57,12.518,12.518,0,0,0-12.2,8.525,10.9,10.9,0,0,1-1.84-7.044,27.862,27.862,0,0,0-5.788,7.717,21.85,21.85,0,0,1-5.653-11.352,127.923,127.923,0,0,1-31.409-.224c-1.436,3.814-2.916,7.583-4.487,11.4A34.28,34.28,0,0,0,772.575,8.937a150.4,150.4,0,0,0-30.107,1.256,212.009,212.009,0,0,1-39.216-.269,6.551,6.551,0,0,0-4.487.628A6.147,6.147,0,0,0,697.06,13.2a52.662,52.662,0,0,0-2.827,9.647,18.756,18.756,0,0,0-10.679-11.98,37.6,37.6,0,0,0-16.2-2.872c-10.185,0-20.281,2.109-30.466,2.154A131.186,131.186,0,0,1,620.1,9.07a165.657,165.657,0,0,0-24.49-1.659,45.35,45.35,0,0,0-6.012.538,37.151,37.151,0,0,1-5.384.808,28.5,28.5,0,0,1-3.41-.583,60.69,60.69,0,0,0-7,0H558.5L506.1,7.546,453.69,6.962l-26.2-.314c-1.974,0-3.814-.449-5.788-.359L389.034,7.77,362.112,8.937A66.856,66.856,0,0,1,351.433,7.59a26.921,26.921,0,0,0-12.339.9,12.2,12.2,0,0,0-8.481,13.954A14.358,14.358,0,0,0,319.038,8.981a46.933,46.933,0,0,0-19.159.763A244.179,244.179,0,0,1,251.016,12.8c-.538,4.487-1.032,8.974-1.57,13.73a49.356,49.356,0,0,0-5.788-13.954,30.377,30.377,0,0,0-1.84,20.281c-4.487-6.237-3.634-16.2-10.32-19.832s-15.031,2.647-22.749,1.84c.269,4.487.583,8.974.853,13.147a15.256,15.256,0,0,0-7-11.307c-5.384-3.634-10.275-2.333-16.288-1.885L166.886,16.34l-34.774,2.647a37.107,37.107,0,0,1-7.717.359,25.172,25.172,0,0,0-5.2-.808,616.325,616.325,0,0,0-84.8,6.91,47.516,47.516,0,0,0-14.9,4.487,20.55,20.55,0,0,0-7.359,6.506A20.146,20.146,0,0,0,9.8,43.127a28.4,28.4,0,0,1-1.885,4.487,31.767,31.767,0,0,0-2.692,10.1,14.4,14.4,0,0,0,6.416,13.685c5.519,3.051,12.788.763,18.351,3.634a46.35,46.35,0,0,0-19.518,1.66,5.384,5.384,0,0,0-2.558,1.436A5.25,5.25,0,0,0,7.2,80.593a51.33,51.33,0,0,0,0,12.025c.224,1.929.763,3.859.942,5.788s.224,4.487.359,6.506c.449,8.57,1.077,17.185,1.526,25.755,0,1.436.4,2.288.359,3.365H9.216a2.378,2.378,0,0,1-1.481-.4,2.423,2.423,0,0,1-.494-1.256,220.8,220.8,0,0,1-2.513-26.518Z" transform="translate(8.753 0.002)" fill="#eb924d"/><path d="M1027.892,245.581a6670.8,6670.8,0,0,1-1002.6,0A24.768,24.768,0,0,1,2.5,219.916c0-2.961,0-5.923,0-8.974a50.612,50.612,0,0,1,.269-7.4c0-.9.583-1.571.718-2.423.4-2.872.583-5.788.808-8.66.538-5.788,1.122-11.576,1.66-17.364v-1.57a4.8,4.8,0,0,1,.808-2.6,3.9,3.9,0,0,1,2.6-1.032,80.988,80.988,0,0,1,30.017-5.968A220.208,220.208,0,0,0,72,161.137L85.46,159.3h3.769a16.567,16.567,0,0,0,2.109,0c-22.21,4.8-44.869,7.717-67.3,11.217a26.651,26.651,0,0,0-8.57,2.288l-.628.4a10.409,10.409,0,0,0-5.654,8.435c0,1.66-.359,3.32-.449,4.981a10.948,10.948,0,0,0,2.782,8.974,14.763,14.763,0,0,0,5.25,2.6,134.207,134.207,0,0,0,37.466,6.192l-31.094-.224H13.624c-2.109,0-5.923,0-7.448,1.705a4.218,4.218,0,0,0-1.032,2.423,108.541,108.541,0,0,0,.718,14.268,23.78,23.78,0,0,0,.763,8.525,17.634,17.634,0,0,0,12.429,10.32,54.55,54.55,0,0,0,8.076,1.526l4.128.449,2.064.314c.628,0,1.346.224,1.929.224a8.293,8.293,0,0,1,1.032,0H60.827a65.542,65.542,0,0,1,8.346.763,8.525,8.525,0,0,0,1.84,0h1.122a3,3,0,0,1,.9,0,58.792,58.792,0,0,1,7.628,1.256,8.3,8.3,0,0,0,4.8,0,8.974,8.974,0,0,0,4.487-6.371,44.87,44.87,0,0,1,2.154-7.852,61.47,61.47,0,0,1,0,8.615,8.57,8.57,0,0,0,3.545,7.448,10.679,10.679,0,0,0,5.025.942h8.48a43.428,43.428,0,0,0,5.474-.673,45.824,45.824,0,0,1,8.211.449l8.7.583q17.364,1.212,34.818,2.2c3.1,0,6.282.538,9.378.538q43.388,2.423,86.867,3.769c8.7.269,17.5,0,26.159.718a22.868,22.868,0,0,1,3.141.673,12.922,12.922,0,0,0,7.538-1.3A28.133,28.133,0,0,0,312.9,245c2.827,9.378,13.192,14.538,22.928,15.48s19.563-1.077,29.344-.673h8.346c1.884,0,3.814.763,5.7.942a18.307,18.307,0,0,0,7.493-.4c.763-.269,1.481-.673,2.243-.9a28.539,28.539,0,0,1,8.3-.494H416.28q19.069,0,38.049.718c6.282,0,12.563.494,18.845.763a8.571,8.571,0,0,0,3.365-.224,13,13,0,0,0,2.468-.763,47.111,47.111,0,0,1,8.974-.583h2.064a27.2,27.2,0,0,0,6.327-.494,35.317,35.317,0,0,1,7.852,0h87.226c17.454,0,34.863.359,52.318.538l52.362.9,26.159.583,13.1.314a25.889,25.889,0,0,0,9.288-.9,19.068,19.068,0,0,1,4.173-.807c2.827-.224,5.7-.359,8.525-.494a11.135,11.135,0,0,0,2.737-.269,8.971,8.971,0,0,1,3.589-.942,8.976,8.976,0,0,0,2.647-.359,15.927,15.927,0,0,0,4.756-2.243,40.117,40.117,0,0,0,7.987-7.852,65.6,65.6,0,0,0,7.4,8.346,3.411,3.411,0,0,0,1.57,1.077c2.333.628,3.59-2.647,5.7-3.769a7.224,7.224,0,0,0,6.1,3.186,27.139,27.139,0,0,0,7.044-1.122,64.611,64.611,0,0,1,20.775-1.346l2.558-3.993c1.167,3.769,6.012,4.756,9.961,4.756a57.886,57.886,0,0,0,8.346-.494,28.716,28.716,0,0,1,7.045-.763,77.4,77.4,0,0,0,14.762-.314c11.576-.718,23.152-1.526,34.729-2.333l34.729-2.558,33.831-2.782c2.6-.269,5.25,0,7.9-.359,8.615-.314,17.23-.673,25.845-1.3,4.487-.314,8.615-.718,12.922-1.167,2.109-.224,4.487-.4,6.416-.763a12.707,12.707,0,0,0,1.84-.628,23.152,23.152,0,0,0,11.083-3.859,13.864,13.864,0,0,0,3.948-7.448,35.871,35.871,0,0,0,.628-4.487,73.865,73.865,0,0,0,.583-8.39c0-10.275,0-20.595-.314-30.915V182.36a120.68,120.68,0,0,0-.675-12.765,31.409,31.409,0,0,1-.715-5.766,4.249,4.249,0,0,1,.224-1.66,9.333,9.333,0,0,0-2.6-6.192c-1.032-1.032-2.154-1.974-3.276-2.961a10.186,10.186,0,0,0-2.737-1.75,32,32,0,0,0-6.506-1.929l-15.615-3.724a9.376,9.376,0,0,1-3.814-1.615,30.074,30.074,0,0,1,4.218-.987h1.435c7.224,1.3,14.493,2.692,21.762,4.128a17.5,17.5,0,0,1,7.493,2.916,10.006,10.006,0,0,1,2.6,3.365,19.831,19.831,0,0,1,1.884,6.775c.673,5.878-.269,11.666.4,17.5.359,3.006.538,5.968.673,8.974.314,5.788.538,11.621.853,17.409s.494,10.41.718,15.614a24.588,24.588,0,0,1-22.928,25.889Z" transform="translate(8.607 498.674)" fill="#eb924d"/><path d="M352.082,15.82c52.228,2.423,104.545,4.846,156.5,10.858,43.03,4.98,85.924,12.429,129.268,12.743C540.039,45.658,450.032,18.557,352.082,15.82ZM558.929,138.133c-3.186,0-6.416-.269-9.6-.359-17.275-.449-34.549,0-51.779.494s-34.459,2.019-51.644,3.679q-12.922,1.256-25.8,2.782l-12.877,1.57-6.416.853h-4.487a34.772,34.772,0,0,0-5.968,1.705l-6.192,1.75c-4.128,1.211-8.3,2.378-12.429,3.5q-12.429,3.455-25.037,6.282-10.41,2.333-21,4.173a415.674,415.674,0,0,1-50.612,5.564c-8.48.4-16.961.583-25.441.494a36.12,36.12,0,0,0-5.833,0l-11.307,1.615-13.057,2.154c-1.615.224-2.872.942-4.487,1.256a57.064,57.064,0,0,1-6.192.853c-8.346.763-16.691.269-24.992.538-23.018.763-45.318,7.448-68.066,10.948a477.75,477.75,0,0,1-51.33,4.173h5.743q25.979-1.032,51.958-2.827T174,184.842q12.922-1.256,25.889-2.737c4.936-.538,9.871-.763,14.852-1.032q15.659-.942,31.408-2.513c20.954-2.064,41.818-4.8,62.817-7.852C391.792,158.28,474.575,140.242,558.929,138.133ZM235.871,444.949a265.713,265.713,0,0,0,58.33,11.89c9.961,1.167,20.012,2.154,29.973,3.32l7.718,1.032c1.929.269,3.859.314,5.788.583a11.219,11.219,0,0,1,1.75.494,43.291,43.291,0,0,0,5.339.628,98.046,98.046,0,0,1,11.262,2.737,43.971,43.971,0,0,0,14.448,2.019c3.545,0,7-1.3,10.544-1.885a60.978,60.978,0,0,1,12.474-.808,139.907,139.907,0,0,1,25.172,2.782c3.724.718,7.448,1.615,11.128,2.6s7.987,2.333,11.935,3.545a19.787,19.787,0,0,0,7.762.673,53.348,53.348,0,0,1,10.679,1.211l12.249,1.7q24.768,3.231,49.67,4.487c16.691,1.032,33.383,1.481,50.119,1.436s33.113-.583,49.625-1.57c6.282-.359,12.518-.987,18.8-1.3a456.049,456.049,0,0,1-64.073-1.66c-10.769-.942-21.537-2.154-32.261-3.5a47.777,47.777,0,0,0-5.609-.673,3.1,3.1,0,0,0-.9,0,12.339,12.339,0,0,1-2.558,0c-7.673.224-15.39,0-23.063,0-41.414-1.974-82.155-12.294-123.615-13.461-7.583-.269-15.211,0-22.793.359a72.815,72.815,0,0,1-15.3-1.167c-5.115-.942-10.185-2.064-15.345-2.961-7.762-1.346-15.7-1.705-23.556-2.333s-17.05-1.526-25.575-2.468-16.961-2.109-25.441-3.41-16.377-2.647-24.543-4.307ZM459.14,375.805l10.679-.224a44.109,44.109,0,0,1,8.435.314,8.974,8.974,0,0,0,2.872,0,23.466,23.466,0,0,1,6.371.628,11.526,11.526,0,0,0,2.782,0c3.186,0,6.551.4,9.736.583l10.275.763c7.134.538,14.268,1.167,21.358,1.84,56.759,5.2,113.743,13.012,170.817,8.435L502.888,374.684a43.8,43.8,0,0,0,10.051-1.974l10.275-2.243q4.846-1.077,9.692-2.288c1.84-.4,3.769-.718,5.519-1.256a35.218,35.218,0,0,0,3.455-1.705c2.288-1.077,4.487-2.109,6.955-3.1a145.049,145.049,0,0,1,14.268-5.115,217.4,217.4,0,0,1,29.7-6.82c10.141-1.615,20.371-2.737,30.6-3.545s20.64-1.391,30.96-1.974l15.7-.9a17.453,17.453,0,0,0,5.25-.942c1.211-.494,2.333-1.256,3.545-1.795a22.077,22.077,0,0,1,7.448-1.525l19.2-1.615a227.268,227.268,0,0,1,33.607-1.122c10.589.673,21.044,2.827,31.633,3.365a205.775,205.775,0,0,0,37.107-2.737,623.125,623.125,0,0,0-74.348-3.006c-12.608.269-25.216.9-37.825,1.526-11.038.538-22.076,1.077-33.113,1.84s-22.12,1.66-33.158,2.961-21.941,3.006-32.8,5.2q-8.076,1.705-16.153,3.769l-4.487,1.391a7.047,7.047,0,0,1-1.929.4,6.551,6.551,0,0,0-1.84.494,166.283,166.283,0,0,1-16.2,4.487c-5.474,1.256-10.9,2.378-16.377,3.5l-2.333.494-17.1,3.455-17.14,3.455-8.57,1.75-4.487.853a6.235,6.235,0,0,1-1.795.269c-1.436,0-2.737.628-4.218.494a28.537,28.537,0,0,0-7.269.673l-8.525,1.256c-5.743.763-11.442,1.526-17.185,2.154a304.868,304.868,0,0,1-34.46,2.064ZM293.887,585.7c-6.82.628-13.82.538-20.64.494s-14.358-.359-21.492-.808c-14.313-.852-28.627-2.423-42.85-4.487-7.179-.942-14.313-1.974-21.447-3.006-3.365-.494-6.775-.942-10.14-1.526a9.46,9.46,0,0,1-1.615-.4,17.679,17.679,0,0,0-6.865,0,95.388,95.388,0,0,1-26.922-.987c-4.756-.987-9.378-2.558-14.179-3.141s-8.974,0-13.461-.718a82.573,82.573,0,0,1-10.858-2.468c-24.858-6.371-51.151-4.487-76.278.224,37.914-4.487,76.278,3.365,113.788,8.974,6.641,1.032,13.461,1.974,19.967,2.513,5.429.449,10.858.583,16.243,1.391s10.769,2.2,16.2,3.141a62.806,62.806,0,0,0,8.211.9h4.083a17.941,17.941,0,0,1,3.455,0c11.486.718,23.018,1.211,34.549,1.346s22.435,0,33.831-.673C283.074,586.466,288.5,586.2,293.887,585.7Zm553.237,23.826Q770.846,613.3,694.075,612.4C741.681,624.515,798.755,617.875,847.124,609.529Z" transform="translate(94.656 55.173)" fill="#eb924d"/><path d="M375.321,15c52.273,2.423,104.59,4.846,156.548,10.858,43.03,4.98,85.924,12.429,129.223,12.743C563.322,44.973,473.315,17.872,375.321,15ZM582.212,137.313h-2.6c-17.319-.673-34.684-.628-52,0s-34.639,1.795-51.869,3.365a25.888,25.888,0,0,0-4.891.808,17.453,17.453,0,0,1-5.07.314,98.713,98.713,0,0,0-12.608.987c-8.3,1.077-16.512,2.916-24.813,4.218a382.192,382.192,0,0,1-63.714,3.275l24.184,3.186a128.822,128.822,0,0,1-32.216,8.974Q339.156,165.626,321.7,168q-25.575,3.5-51.33,5.474c-8.57.628-17.185,1.122-25.755,1.526h-6.461a36.3,36.3,0,0,1-4.487-.314c-3.231,0-6.282,1.077-9.423.9a23.728,23.728,0,0,0-2.513-.224,79.01,79.01,0,0,0-8.615.942l-17.275,1.974c-11.531,1.3-23.063,2.692-34.549,4.083q-34.594,4.083-69.054,8.66t-68.919,9.647l-2.782.4c53.035-3.949,106.16-7.852,158.657-16.2a257.908,257.908,0,0,1,40.607-4.487c5.429,0,10.9.449,16.332,0a55.012,55.012,0,0,1,7.134-.763,46.936,46.936,0,0,0,7.089,0q16.736-1.256,33.517-3.186c22.435-2.513,44.869-5.743,67.035-9.243s44.869-7.314,67.3-10.948,44.869-7.224,67.035-10.23,44.376-5.654,66.81-7.179q15.076-.987,30.152-1.391Zm82.021,342.711a399.622,399.622,0,0,1-49.715-.538c-12.474-.583-24.813-3.275-37.331-3.679s-24.857.538-37.331,0c-29.075-1.211-57.388-9.737-86.328-12.384-7.852-.718-15.7-.987-23.556-1.3L409.69,461.4h-5.519a105.822,105.822,0,0,1-12.474-1.256c-2.243-.4-4.487-1.167-6.686-1.391-10.454-1.167-20.954-1.974-31.408-2.692s-21.313-1.526-31.947-2.558-21.223-2.288-31.812-3.814c-5.474-.808-10.948-1.66-16.422-2.6l-7.852-1.346a48.654,48.654,0,0,1-6.282-1.256c37.017,12.922,76.861,11.756,115.045,19.2a35.268,35.268,0,0,1,9.826,2.558,10.232,10.232,0,0,0,3.59,1.167,103.534,103.534,0,0,0,12.922,0c8.66,0,17.32-.808,25.979-.853a144.284,144.284,0,0,1,21.313,3.051c6.461.942,12.922,1.75,19.428,2.333a53.169,53.169,0,0,1,11.262,1.84A17.945,17.945,0,0,0,483.141,475a47.664,47.664,0,0,1,6.1.9c8.211,1.167,16.467,2.2,24.678,3.051,16.647,1.705,33.383,2.827,50.074,3.41s33.472.673,50.164.269,32.934-1.256,49.356-2.558ZM567.046,364.351c1.615-.583,3.275-1.122,4.891-1.615,8.346-2.737,17.005-4.487,25.531-6.73,4.487-1.167,8.974-2.782,13.909-3.679a233.357,233.357,0,0,1,24.185-4.487,21.728,21.728,0,0,1,3.814,0,34.727,34.727,0,0,0,10.275-1.122,242.719,242.719,0,0,1,25.4-2.782h5.564a11.217,11.217,0,0,1,3.006,0,7.762,7.762,0,0,0,2.288,0,23.465,23.465,0,0,0,4.487-.942,75.48,75.48,0,0,1,8.3-1.66,10.633,10.633,0,0,0,3.141-.673,14.046,14.046,0,0,1,3.634-.673c5.564-.763,11.128-1.436,16.691-1.75,8.166-.449,16.332-.808,24.454-.987a198.366,198.366,0,0,1,24.229.449c2.333.224,4.487.538,6.955.852a194.78,194.78,0,0,0,33.024,3.679c2.692,0,5.339-.538,8.076-.763a31.4,31.4,0,0,1,4.98.494,115.582,115.582,0,0,0,13.461-.314l20.505-.628,42.671-1.481-87.674-3.1c-29.344-1.032-58.689-2.064-87.988-.942-5.923.269-11.845.583-17.948.987-22.7,1.57-45.318,4.487-67.8,8.032-11.262,1.84-22.435,3.9-33.607,6.147l-4.487.987a3.716,3.716,0,0,1-.987,0,8.037,8.037,0,0,0-1.795.4l-4.083,1.122c-3.006.853-6.012,1.75-8.974,2.333-5.384,1.077-10.858,1.7-16.243,2.692s-9.647,2.064-14.4,3.32-10.634,2.916-16.018,4.487c-2.692.628-5.339,1.256-8.076,1.75l-4.038.718a5.786,5.786,0,0,1-1.75,0,21.006,21.006,0,0,0-3.993.987c-5.564.718-11.128,1.3-16.736,1.75s-11.217.718-16.826.808h-6.327a8.166,8.166,0,0,0-1.481,0,1.282,1.282,0,0,0-.942.269,27.206,27.206,0,0,0-3.275.4l-8.66.987a17.954,17.954,0,0,0-3.1.628,48.061,48.061,0,0,1-6.685.987l-14.852,2.154c-7.987,1.122-15.929,2.243-23.915,3.275a251.261,251.261,0,0,0,45.767-.494c6.461-.853,12.922-2.243,19.383-3.365a132.006,132.006,0,0,1,13.82-1.75,166.018,166.018,0,0,1,30.556,2.064l25.8,3.365a26.921,26.921,0,0,0,8.66,0,37.106,37.106,0,0,1,10.679.4c17.32,1.705,34.639,3.5,52,4.98s34.594,2.647,51.958,3.051H701.16c4.173,0,8.3-.269,12.474-.449s8.166-.808,12.2-.808L526.215,374.267a45.9,45.9,0,0,0,10.051-2.019c2.737-.583,5.429-1.3,8.166-1.75a5.16,5.16,0,0,1,1.436,0,9.423,9.423,0,0,0,2.513,0,79.9,79.9,0,0,0,7.942-2.2A110.4,110.4,0,0,1,567.046,364.351ZM317.17,584.838c-8.974.494-17.5.583-26.248.4-5.788,0-11.531-.4-17.319-.763-2.872-.224-5.788-.4-8.66-.673a54.763,54.763,0,0,1-8.166-.853,65.647,65.647,0,0,0-8.435-1.032l-8.66-.987-17.319-1.929c7.717-4.936,17.185-5.833,26.248-7a306.352,306.352,0,0,0,43.927-8.974q-37.16,2.366-73.944,8.436c-6.686,1.077-13.461,2.288-20.1,2.916a18.84,18.84,0,0,0-4.173.673,20.325,20.325,0,0,1-7,.314l-17.1-.583c-11.352-.494-22.7-1.346-33.966-2.917q-5.429-.718-10.769-1.75c-7.044-1.346-14-3.051-21.089-3.814a149.06,149.06,0,0,0-41.818,2.872H82.37c8.57,0,17.14,0,25.71.628,5.7.494,11.352,1.3,16.961,2.288s10.993,2.288,16.512,3.141q16.557,2.513,33.158,4.487c11.128,1.391,22.435,2.647,33.428,3.679s22.435,1.884,33.428,2.468,21.986.853,32.979.853,21.582-.359,32.306-1.077C310.305,585.6,313.715,585.2,317.17,584.838Zm553.461,24.005q-76.277,3.814-153.049,2.872C764.964,623.83,822.038,617.234,870.631,608.843Z" transform="translate(71.642 52.313)" fill="url(#f)"/><path d="M13.934,38.4q.808,71.162,1.705,142.325.4,35.536.853,71.118l.4,35.581a59.99,59.99,0,0,1,0,10.993,12.161,12.161,0,0,0-.4,2.288c-.9,18.935-.583,37.959-.853,56.939,0,8.121-.269,16.287-.359,24.454-.359,22.838-1.077,45.722-1.526,68.56q-.4,17.454-.449,34.863c0,3.276,0,6.237.269,9.467.853,9.378,1.436,18.755,1.66,28.178a38.632,38.632,0,0,1-.583,10.455,47.517,47.517,0,0,0-.583,6.73c-.4,4.711-.763,9.423-1.167,14.134q-1.077,14.224-2.243,28.312a43.254,43.254,0,0,0-.359,7.628,22.835,22.835,0,0,1,0,2.468c0,2.737-.942,5.34-.987,8.077a28.985,28.985,0,0,0,26.338,29.3q141.2,13.775,283.124,17.948a29,29,0,0,1,7.134.808,12.787,12.787,0,0,0,3.9.718c4.487,0,9.333-.628,13.954-.942a24.321,24.321,0,0,1,7.852,0,18.486,18.486,0,0,0,3.859.449l9.467.494c3.051,0,5.968-.314,8.974-.269h28.627l38.184.359H555.191l38.139-.224c6.1,0,12.115,0,18.217-.538,12.653-.673,25.261-1.436,37.914-2.333,9.647-.718,19.339-1.66,29.075-1.974q28.537-1.032,57.118-2.243t57.074-2.692q28.627-1.436,57.118-3.141t57.029-3.59q28.537-1.974,57.029-4.083l5.429-.449a47.74,47.74,0,0,0,20.326-4.756,7.493,7.493,0,0,0,3.634-5.115,76.566,76.566,0,0,0,1.122-12.384c.314-4.487.583-9.333.763-14,.718-18.666.538-37.421-.583-56.042a99.723,99.723,0,0,1-.628-15.48c.224-2.288,0-4.756,0-7.089V499.521q0-14.179-.494-28.4-.673-28.4-2.019-56.8c-.269-5.384-.538-10.724-.852-16.108a45.324,45.324,0,0,0-.538-7.4c0-1.256-.763-2.378-1.032-3.634a51.961,51.961,0,0,1,.224-12.922q.539-14.223.9-28.4.673-28.312.538-56.715t-1.256-56.759c-.628-18.666-1.436-37.421-3.006-56A170.46,170.46,0,0,1,986.7,159.1l.4-19.832c.224-12.743.494-25.486.718-38.229.494-25.934.9-51.914,1.032-77.848-11.756,37.959-11.756,78.7-9.064,117.961s7.269,78.79,2.692,117.871l.493,344.82-20.55,11.128L589.7,634.622l-352-3.41L37.042,617.751,24.434,605.188l6.865-240.5-4.487-273.7Z" transform="translate(32.482 80.871)" fill="#eb924d"/><path d="M471.406,710.075c-147.35,0-294.162-5.743-439.4-17.23A22.435,22.435,0,0,1,11.362,669.6c8.166-211.334,7.807-417.283-1.122-611.567a22.435,22.435,0,0,1,21-23.467q94.674-5.968,189.841-9.737c6.641-.269,13.461-.314,19.967-.763,1.3,0,2.558-.494,3.9-.628a62.816,62.816,0,0,1,8.7.269,16.332,16.332,0,0,0,11.8-2.916,18.711,18.711,0,0,0,4.487-13.057c-.449,4.891-.494,10.813,3.545,13.461a11.531,11.531,0,0,0,7.134,1.526h7.807c2.6,0,4.263-.4,6.461-.4l9.512-.269L342.5,21.019l38.139-.808,28.582-.538q46.619-.673,93.328-.9h46.44a68.471,68.471,0,0,1,12.518.314,9.737,9.737,0,0,0,3.769-.359,19.472,19.472,0,0,0,7.4-3.993,50.522,50.522,0,0,0,8.166-9.557L576.8,18.641c12.384,0,24.723.269,37.152.4l38,.494,37.914.718,37.78.9,37.69,1.122c12.518.4,24.992.808,37.511,1.3s24.992.942,37.466,1.481l37.286,1.66L914.758,28.6l37.017,2.064,13.461.808a22.434,22.434,0,0,1,21.044,23.153c-6.461,188.854-5.429,394.22,3.006,610.221a22.434,22.434,0,0,1-20.46,23.242C803.437,702.851,636.928,710.075,471.406,710.075ZM530,36.588c-163.548,0-329.878,5.295-497.644,15.929A4.487,4.487,0,0,0,28.188,57q4.487,92.072,5.833,184.278.808,42.132,1.032,84.219a83.946,83.946,0,0,1,0,9.512,22.88,22.88,0,0,0,0,3.5,10.365,10.365,0,0,0,1.84,6.192,12.608,12.608,0,0,0,10.948,3.59,36.478,36.478,0,0,1,11.89,0L42.367,351.3a11.351,11.351,0,0,0-4.218,1.346,7.673,7.673,0,0,0-3.186,5.833,16.018,16.018,0,0,0,.269,4.487,19.922,19.922,0,0,1,.269,3.993v64.881c0,12.384-.224,24.9-.4,37.331s-.359,24.992-.583,37.511-.494,25.082-.763,37.6-.628,25.217-.942,37.78-.763,25.306-1.167,37.959-.853,25.351-1.3,38c0,4.038-.314,8.032-.494,12.025a4.487,4.487,0,0,0,4.128,4.487q93.418,7.314,187.015,11.576l15.794.718,8.391.314a2.872,2.872,0,0,0,1.795-.314,10.634,10.634,0,0,1,5.564,0,6.057,6.057,0,0,0,5.833-1.481,6.416,6.416,0,0,0,.763-4.487c-.494-6.282-.987-12.563-1.436-18.845a55.5,55.5,0,0,0,4.487,16.557,18.531,18.531,0,0,0,13.1,10.23,74.221,74.221,0,0,0,8.974,0c3.141,0,6.327,0,9.512.314l19.025.538,38.139.987q19.069.4,38.139.673l20.954.269q47.472.539,94.943,0c15.794,0,31.408,0,47.382-.449,2.064,0,3.9-.673,5.923-.853a27.722,27.722,0,0,0,7.852-1.57,23.376,23.376,0,0,0,6.82-4.487,52,52,0,0,0,10.41-15.076A74.616,74.616,0,0,1,593,653.494a296.147,296.147,0,0,0-13.461,36.568,36.441,36.441,0,0,1,4.487,0H607l9.467-.269q19.024-.449,38-1.077l37.959-1.346,38-1.615,37.959-1.84,38-2.109,37.959-2.378c12.653-.853,25.306-1.705,37.959-2.647s25.351-1.84,38-2.872l37.914-3.1,9.512-.853a4.487,4.487,0,0,0,4.083-4.487c-8.48-216.584-9.512-422.4-3.051-611.7a4.487,4.487,0,0,0-4.173-4.487Q751.187,36.7,530.05,36.588Z" transform="translate(35.637 18.072)" fill="url(#g)"/><path d="M981.4,601.833q-2.558-75.47-3.859-149.01-.718-39.35-1.077-78.072h0c-1.122-115.583,0-226.993,3.769-333.2a18.979,18.979,0,0,0-17.948-19.7l-33.158-1.929q-60.8-3.365-122.268-5.743C639.807,7.855,468.99,7.272,295.84,12.432Q224.9,14.5,153.425,17.951q-62.144,2.872-124.467,6.82a19.2,19.2,0,0,0-15.39,9.737A18.755,18.755,0,0,0,11.01,44.693q5.16,112.8,6.506,230.358c1.436,124.2-.359,251.806-5.384,381.388a18.98,18.98,0,0,0,17.544,19.742q81.707,6.461,163.907,10.544,137.03,6.73,275.227,6.73,116.66,0,233.32-4.8,131.915-5.474,263.741-16.96a18.757,18.757,0,0,0,9.961-3.859,18.979,18.979,0,0,0,7.4-15.884C982.562,635.261,981.979,618.525,981.4,601.833ZM966.9,660.163a6.062,6.062,0,0,1-2.019.494q-131.2,11.442-262.529,16.826c-168.932,7-337.73,6.416-505-1.705q-83.726-4.038-166.868-10.634a7.807,7.807,0,0,1-7.224-7.807v-.359C28.2,530.177,29.99,405.4,28.734,283.8q-1.212-122.089-6.6-239.6a7.179,7.179,0,0,1,0-1.974A7.9,7.9,0,0,1,29.5,36.078q61.65-3.9,122.986-6.82,75.6-3.634,150.626-5.833,112.8-3.275,224.346-3.275,136.9,0,271.055,4.936,62.189,2.378,123.7,5.7c13.192.718,26.428,1.481,39.575,2.288a7.762,7.762,0,0,1,7.358,8.076c-3.814,112.173-5.025,230-3.589,352.492q0,19.428.539,39.126,1.346,84.4,4.487,171.535.852,24,1.795,48.279a7.852,7.852,0,0,1-5.654,7.583Z" transform="translate(38.367 31.235)" fill="url(#h)"/><path d="M152.484,22.247Q91.193,25.164,29.5,29.157a7.9,7.9,0,0,0-7.359,8.211q5.384,117.243,6.6,239.6l-.269,1.077a3.679,3.679,0,0,1-6.685.9,80.046,80.046,0,0,1-4.487-10.724Q16.082,150.752,11.012,37.772A19.2,19.2,0,0,1,28.959,17.85q62.5-3.9,124.691-6.91a8.346,8.346,0,0,1-1.167,11.307Z" transform="translate(38.365 38.157)" fill="#ffdf80"/><path d="M604.371,23.875c-4.891.449-9.826.853-14.717,1.167Q455.674,20.151,318.6,20.106q-111.32,0-224.346,3.275A103.469,103.469,0,0,1,71.819,19.3a1.391,1.391,0,0,1,0-2.647,96.334,96.334,0,0,1,15.3-4.263c173.15-5.16,343.967-4.487,511.015,1.75,2.423.494,4.846,1.077,7.269,1.66C610.249,16.965,608.678,23.427,604.371,23.875Z" transform="translate(247.088 31.189)" fill="#ffdf80"/><path d="M271.365,366.205h0a52.585,52.585,0,0,1-6.147,17.948,3.32,3.32,0,0,1-4.891.942C258.891,262.6,260.1,144.686,263.916,32.6a7.762,7.762,0,0,0-7.359-8.076c-13.147-.808-26.383-1.57-39.575-2.288l-1.974-1.167a3.679,3.679,0,0,1,0-6.327,55.1,55.1,0,0,1,8.974-3.365l33.158,1.929a18.98,18.98,0,0,1,17.948,19.7C271.5,139.212,270.243,250.622,271.365,366.205Z" transform="translate(743.462 39.691)" fill="#ffdf80"/><path d="M239.4,274.236a8.974,8.974,0,0,1-11.128,2.378q-2.961-87.046-4.487-171.535a5.115,5.115,0,0,1,9.288,2.6c.763,5.788,1.525,11.666,2.288,17.544Q236.847,198.721,239.4,274.236Z" transform="translate(780.358 358.833)" fill="#ffdf80"/><path d="M571.1,170.582q-116.66,4.8-233.32,4.8-138.018,0-275.227-6.73c-3.814-.987-7.628-2.2-11.4-3.545a3.59,3.59,0,0,1,.942-7.045l14.313-.494c167.272,8.121,336.07,8.7,505,1.705A8.974,8.974,0,0,1,571.1,170.582Z" transform="translate(169.265 549.443)" fill="#ffdf80"/><path d="M976.424,603.136q-2.558-75.47-3.859-149.011-.763-39.35-1.077-78.072h0c-1.122-115.583,0-226.993,3.769-333.2a18.98,18.98,0,0,0-17.948-19.7l-33.158-1.929Q863.4,17.863,801.883,15.485,551.109,6.062,290.913,13.69,219.975,15.8,148.5,19.209,86.309,22.17,23.807,26.119A18.666,18.666,0,0,0,13.4,30.112a18.755,18.755,0,0,0-2.378,10.14q5.16,112.8,6.506,230.358c1.436,124.2-.359,251.806-5.384,381.388a18.98,18.98,0,0,0,17.544,19.742q81.707,6.461,163.907,10.544,137.03,6.73,275.227,6.73,116.66,0,233.32-4.8,131.915-5.474,263.741-16.961a18.755,18.755,0,0,0,9.961-3.859,19.384,19.384,0,0,0,2.423-10.141C977.59,636.564,977.007,619.828,976.424,603.136Zm-9.692,52.587a7.942,7.942,0,0,1-7,6.237q-130.973,11.307-262.215,16.826c-168.932,7-337.73,6.416-505-1.705q-83.726-4.038-166.868-10.634a7.807,7.807,0,0,1-7.224-7.807v-.359C23.358,531.48,25.153,406.7,23.9,285.1Q22.685,162.88,17.3,45.5a7.852,7.852,0,0,1,5.16-7.717,7.9,7.9,0,0,1,7.044-6.147q61.65-3.9,122.986-6.82,75.6-3.634,150.626-5.833,112.8-3.275,224.346-3.275,136.9,0,271.055,4.936,62.189,2.378,123.7,5.7c13.192.718,26.428,1.481,39.575,2.288a7.762,7.762,0,0,1,7.358,8.076c-3.814,112.173-5.025,230-3.589,352.492q0,19.428.538,39.126,1.346,84.4,4.487,171.535.852,24,1.795,48.279A7.852,7.852,0,0,1,966.732,655.723Z" transform="translate(38.358 35.676)" fill="url(#i)"/></svg>